<?xml version="1.0" encoding="utf-8" standalone="no"?>
<!DOCTYPE svg PUBLIC "-//W3C//DTD SVG 1.1//EN"
  "http://www.w3.org/Graphics/SVG/1.1/DTD/svg11.dtd">
<svg xmlns:xlink="http://www.w3.org/1999/xlink" width="576pt" height="576pt" viewBox="0 0 576 576" xmlns="http://www.w3.org/2000/svg" version="1.1">
 <metadata>
  <rdf:RDF xmlns:dc="http://purl.org/dc/elements/1.1/" xmlns:cc="http://creativecommons.org/ns#" xmlns:rdf="http://www.w3.org/1999/02/22-rdf-syntax-ns#">
   <cc:Work>
    <dc:type rdf:resource="http://purl.org/dc/dcmitype/StillImage"/>
    <dc:date>2025-07-31T14:22:55.709907</dc:date>
    <dc:format>image/svg+xml</dc:format>
    <dc:creator>
     <cc:Agent>
      <dc:title>Matplotlib v3.10.1, https://matplotlib.org/</dc:title>
     </cc:Agent>
    </dc:creator>
   </cc:Work>
  </rdf:RDF>
 </metadata>
 <defs>
  <style type="text/css">*{stroke-linejoin: round; stroke-linecap: butt}</style>
 </defs>
 <g id="figure_1">
  <g id="patch_1">
   <path d="M 0 576 
L 576 576 
L 576 0 
L 0 0 
z
" style="fill: #ffffff"/>
  </g>
  <g id="axes_1">
   <g id="patch_2">
    <path d="M 61.85 523.96 
L 560.745 523.96 
L 560.745 16.2 
L 61.85 16.2 
z
" style="fill: #ffffff"/>
   </g>
   <g id="matplotlib.axis_1">
    <g id="xtick_1">
     <g id="line2d_1">
      <defs>
       <path id="m927b10c0b8" d="M 0 0 
L 0 3.5 
" style="stroke: #000000; stroke-width: 0.8"/>
      </defs>
      <g>
       <use xlink:href="#m927b10c0b8" x="61.85" y="523.96" style="stroke: #000000; stroke-width: 0.8"/>
      </g>
     </g>
     <g id="text_1">
      <!-- 0 -->
      <g transform="translate(57.39625 541.597813) scale(0.14 -0.14)">
       <defs>
        <path id="DejaVuSans-30" d="M 2034 4250 
Q 1547 4250 1301 3770 
Q 1056 3291 1056 2328 
Q 1056 1369 1301 889 
Q 1547 409 2034 409 
Q 2525 409 2770 889 
Q 3016 1369 3016 2328 
Q 3016 3291 2770 3770 
Q 2525 4250 2034 4250 
z
M 2034 4750 
Q 2819 4750 3233 4129 
Q 3647 3509 3647 2328 
Q 3647 1150 3233 529 
Q 2819 -91 2034 -91 
Q 1250 -91 836 529 
Q 422 1150 422 2328 
Q 422 3509 836 4129 
Q 1250 4750 2034 4750 
z
" transform="scale(0.015625)"/>
       </defs>
       <use xlink:href="#DejaVuSans-30"/>
      </g>
     </g>
    </g>
    <g id="xtick_2">
     <g id="line2d_2">
      <g>
       <use xlink:href="#m927b10c0b8" x="144.999167" y="523.96" style="stroke: #000000; stroke-width: 0.8"/>
      </g>
     </g>
     <g id="text_2">
      <!-- 1 -->
      <g transform="translate(140.545417 541.597813) scale(0.14 -0.14)">
       <defs>
        <path id="DejaVuSans-31" d="M 794 531 
L 1825 531 
L 1825 4091 
L 703 3866 
L 703 4441 
L 1819 4666 
L 2450 4666 
L 2450 531 
L 3481 531 
L 3481 0 
L 794 0 
L 794 531 
z
" transform="scale(0.015625)"/>
       </defs>
       <use xlink:href="#DejaVuSans-31"/>
      </g>
     </g>
    </g>
    <g id="xtick_3">
     <g id="line2d_3">
      <g>
       <use xlink:href="#m927b10c0b8" x="228.148333" y="523.96" style="stroke: #000000; stroke-width: 0.8"/>
      </g>
     </g>
     <g id="text_3">
      <!-- 2 -->
      <g transform="translate(223.694583 541.597813) scale(0.14 -0.14)">
       <defs>
        <path id="DejaVuSans-32" d="M 1228 531 
L 3431 531 
L 3431 0 
L 469 0 
L 469 531 
Q 828 903 1448 1529 
Q 2069 2156 2228 2338 
Q 2531 2678 2651 2914 
Q 2772 3150 2772 3378 
Q 2772 3750 2511 3984 
Q 2250 4219 1831 4219 
Q 1534 4219 1204 4116 
Q 875 4013 500 3803 
L 500 4441 
Q 881 4594 1212 4672 
Q 1544 4750 1819 4750 
Q 2544 4750 2975 4387 
Q 3406 4025 3406 3419 
Q 3406 3131 3298 2873 
Q 3191 2616 2906 2266 
Q 2828 2175 2409 1742 
Q 1991 1309 1228 531 
z
" transform="scale(0.015625)"/>
       </defs>
       <use xlink:href="#DejaVuSans-32"/>
      </g>
     </g>
    </g>
    <g id="xtick_4">
     <g id="line2d_4">
      <g>
       <use xlink:href="#m927b10c0b8" x="311.2975" y="523.96" style="stroke: #000000; stroke-width: 0.8"/>
      </g>
     </g>
     <g id="text_4">
      <!-- 3 -->
      <g transform="translate(306.84375 541.597813) scale(0.14 -0.14)">
       <defs>
        <path id="DejaVuSans-33" d="M 2597 2516 
Q 3050 2419 3304 2112 
Q 3559 1806 3559 1356 
Q 3559 666 3084 287 
Q 2609 -91 1734 -91 
Q 1441 -91 1130 -33 
Q 819 25 488 141 
L 488 750 
Q 750 597 1062 519 
Q 1375 441 1716 441 
Q 2309 441 2620 675 
Q 2931 909 2931 1356 
Q 2931 1769 2642 2001 
Q 2353 2234 1838 2234 
L 1294 2234 
L 1294 2753 
L 1863 2753 
Q 2328 2753 2575 2939 
Q 2822 3125 2822 3475 
Q 2822 3834 2567 4026 
Q 2313 4219 1838 4219 
Q 1578 4219 1281 4162 
Q 984 4106 628 3988 
L 628 4550 
Q 988 4650 1302 4700 
Q 1616 4750 1894 4750 
Q 2613 4750 3031 4423 
Q 3450 4097 3450 3541 
Q 3450 3153 3228 2886 
Q 3006 2619 2597 2516 
z
" transform="scale(0.015625)"/>
       </defs>
       <use xlink:href="#DejaVuSans-33"/>
      </g>
     </g>
    </g>
    <g id="xtick_5">
     <g id="line2d_5">
      <g>
       <use xlink:href="#m927b10c0b8" x="394.446667" y="523.96" style="stroke: #000000; stroke-width: 0.8"/>
      </g>
     </g>
     <g id="text_5">
      <!-- 4 -->
      <g transform="translate(389.992917 541.597813) scale(0.14 -0.14)">
       <defs>
        <path id="DejaVuSans-34" d="M 2419 4116 
L 825 1625 
L 2419 1625 
L 2419 4116 
z
M 2253 4666 
L 3047 4666 
L 3047 1625 
L 3713 1625 
L 3713 1100 
L 3047 1100 
L 3047 0 
L 2419 0 
L 2419 1100 
L 313 1100 
L 313 1709 
L 2253 4666 
z
" transform="scale(0.015625)"/>
       </defs>
       <use xlink:href="#DejaVuSans-34"/>
      </g>
     </g>
    </g>
    <g id="xtick_6">
     <g id="line2d_6">
      <g>
       <use xlink:href="#m927b10c0b8" x="477.595833" y="523.96" style="stroke: #000000; stroke-width: 0.8"/>
      </g>
     </g>
     <g id="text_6">
      <!-- 5 -->
      <g transform="translate(473.142083 541.597813) scale(0.14 -0.14)">
       <defs>
        <path id="DejaVuSans-35" d="M 691 4666 
L 3169 4666 
L 3169 4134 
L 1269 4134 
L 1269 2991 
Q 1406 3038 1543 3061 
Q 1681 3084 1819 3084 
Q 2600 3084 3056 2656 
Q 3513 2228 3513 1497 
Q 3513 744 3044 326 
Q 2575 -91 1722 -91 
Q 1428 -91 1123 -41 
Q 819 9 494 109 
L 494 744 
Q 775 591 1075 516 
Q 1375 441 1709 441 
Q 2250 441 2565 725 
Q 2881 1009 2881 1497 
Q 2881 1984 2565 2268 
Q 2250 2553 1709 2553 
Q 1456 2553 1204 2497 
Q 953 2441 691 2322 
L 691 4666 
z
" transform="scale(0.015625)"/>
       </defs>
       <use xlink:href="#DejaVuSans-35"/>
      </g>
     </g>
    </g>
    <g id="xtick_7">
     <g id="line2d_7">
      <g>
       <use xlink:href="#m927b10c0b8" x="560.745" y="523.96" style="stroke: #000000; stroke-width: 0.8"/>
      </g>
     </g>
     <g id="text_7">
      <!-- 6 -->
      <g transform="translate(556.29125 541.597813) scale(0.14 -0.14)">
       <defs>
        <path id="DejaVuSans-36" d="M 2113 2584 
Q 1688 2584 1439 2293 
Q 1191 2003 1191 1497 
Q 1191 994 1439 701 
Q 1688 409 2113 409 
Q 2538 409 2786 701 
Q 3034 994 3034 1497 
Q 3034 2003 2786 2293 
Q 2538 2584 2113 2584 
z
M 3366 4563 
L 3366 3988 
Q 3128 4100 2886 4159 
Q 2644 4219 2406 4219 
Q 1781 4219 1451 3797 
Q 1122 3375 1075 2522 
Q 1259 2794 1537 2939 
Q 1816 3084 2150 3084 
Q 2853 3084 3261 2657 
Q 3669 2231 3669 1497 
Q 3669 778 3244 343 
Q 2819 -91 2113 -91 
Q 1303 -91 875 529 
Q 447 1150 447 2328 
Q 447 3434 972 4092 
Q 1497 4750 2381 4750 
Q 2619 4750 2861 4703 
Q 3103 4656 3366 4563 
z
" transform="scale(0.015625)"/>
       </defs>
       <use xlink:href="#DejaVuSans-36"/>
      </g>
     </g>
    </g>
    <g id="text_8">
     <!-- Radial distance [Bohr] -->
     <g transform="translate(222.62125 560.666875) scale(0.16 -0.16)">
      <defs>
       <path id="DejaVuSans-52" d="M 2841 2188 
Q 3044 2119 3236 1894 
Q 3428 1669 3622 1275 
L 4263 0 
L 3584 0 
L 2988 1197 
Q 2756 1666 2539 1819 
Q 2322 1972 1947 1972 
L 1259 1972 
L 1259 0 
L 628 0 
L 628 4666 
L 2053 4666 
Q 2853 4666 3247 4331 
Q 3641 3997 3641 3322 
Q 3641 2881 3436 2590 
Q 3231 2300 2841 2188 
z
M 1259 4147 
L 1259 2491 
L 2053 2491 
Q 2509 2491 2742 2702 
Q 2975 2913 2975 3322 
Q 2975 3731 2742 3939 
Q 2509 4147 2053 4147 
L 1259 4147 
z
" transform="scale(0.015625)"/>
       <path id="DejaVuSans-61" d="M 2194 1759 
Q 1497 1759 1228 1600 
Q 959 1441 959 1056 
Q 959 750 1161 570 
Q 1363 391 1709 391 
Q 2188 391 2477 730 
Q 2766 1069 2766 1631 
L 2766 1759 
L 2194 1759 
z
M 3341 1997 
L 3341 0 
L 2766 0 
L 2766 531 
Q 2569 213 2275 61 
Q 1981 -91 1556 -91 
Q 1019 -91 701 211 
Q 384 513 384 1019 
Q 384 1609 779 1909 
Q 1175 2209 1959 2209 
L 2766 2209 
L 2766 2266 
Q 2766 2663 2505 2880 
Q 2244 3097 1772 3097 
Q 1472 3097 1187 3025 
Q 903 2953 641 2809 
L 641 3341 
Q 956 3463 1253 3523 
Q 1550 3584 1831 3584 
Q 2591 3584 2966 3190 
Q 3341 2797 3341 1997 
z
" transform="scale(0.015625)"/>
       <path id="DejaVuSans-64" d="M 2906 2969 
L 2906 4863 
L 3481 4863 
L 3481 0 
L 2906 0 
L 2906 525 
Q 2725 213 2448 61 
Q 2172 -91 1784 -91 
Q 1150 -91 751 415 
Q 353 922 353 1747 
Q 353 2572 751 3078 
Q 1150 3584 1784 3584 
Q 2172 3584 2448 3432 
Q 2725 3281 2906 2969 
z
M 947 1747 
Q 947 1113 1208 752 
Q 1469 391 1925 391 
Q 2381 391 2643 752 
Q 2906 1113 2906 1747 
Q 2906 2381 2643 2742 
Q 2381 3103 1925 3103 
Q 1469 3103 1208 2742 
Q 947 2381 947 1747 
z
" transform="scale(0.015625)"/>
       <path id="DejaVuSans-69" d="M 603 3500 
L 1178 3500 
L 1178 0 
L 603 0 
L 603 3500 
z
M 603 4863 
L 1178 4863 
L 1178 4134 
L 603 4134 
L 603 4863 
z
" transform="scale(0.015625)"/>
       <path id="DejaVuSans-6c" d="M 603 4863 
L 1178 4863 
L 1178 0 
L 603 0 
L 603 4863 
z
" transform="scale(0.015625)"/>
       <path id="DejaVuSans-20" transform="scale(0.015625)"/>
       <path id="DejaVuSans-73" d="M 2834 3397 
L 2834 2853 
Q 2591 2978 2328 3040 
Q 2066 3103 1784 3103 
Q 1356 3103 1142 2972 
Q 928 2841 928 2578 
Q 928 2378 1081 2264 
Q 1234 2150 1697 2047 
L 1894 2003 
Q 2506 1872 2764 1633 
Q 3022 1394 3022 966 
Q 3022 478 2636 193 
Q 2250 -91 1575 -91 
Q 1294 -91 989 -36 
Q 684 19 347 128 
L 347 722 
Q 666 556 975 473 
Q 1284 391 1588 391 
Q 1994 391 2212 530 
Q 2431 669 2431 922 
Q 2431 1156 2273 1281 
Q 2116 1406 1581 1522 
L 1381 1569 
Q 847 1681 609 1914 
Q 372 2147 372 2553 
Q 372 3047 722 3315 
Q 1072 3584 1716 3584 
Q 2034 3584 2315 3537 
Q 2597 3491 2834 3397 
z
" transform="scale(0.015625)"/>
       <path id="DejaVuSans-74" d="M 1172 4494 
L 1172 3500 
L 2356 3500 
L 2356 3053 
L 1172 3053 
L 1172 1153 
Q 1172 725 1289 603 
Q 1406 481 1766 481 
L 2356 481 
L 2356 0 
L 1766 0 
Q 1100 0 847 248 
Q 594 497 594 1153 
L 594 3053 
L 172 3053 
L 172 3500 
L 594 3500 
L 594 4494 
L 1172 4494 
z
" transform="scale(0.015625)"/>
       <path id="DejaVuSans-6e" d="M 3513 2113 
L 3513 0 
L 2938 0 
L 2938 2094 
Q 2938 2591 2744 2837 
Q 2550 3084 2163 3084 
Q 1697 3084 1428 2787 
Q 1159 2491 1159 1978 
L 1159 0 
L 581 0 
L 581 3500 
L 1159 3500 
L 1159 2956 
Q 1366 3272 1645 3428 
Q 1925 3584 2291 3584 
Q 2894 3584 3203 3211 
Q 3513 2838 3513 2113 
z
" transform="scale(0.015625)"/>
       <path id="DejaVuSans-63" d="M 3122 3366 
L 3122 2828 
Q 2878 2963 2633 3030 
Q 2388 3097 2138 3097 
Q 1578 3097 1268 2742 
Q 959 2388 959 1747 
Q 959 1106 1268 751 
Q 1578 397 2138 397 
Q 2388 397 2633 464 
Q 2878 531 3122 666 
L 3122 134 
Q 2881 22 2623 -34 
Q 2366 -91 2075 -91 
Q 1284 -91 818 406 
Q 353 903 353 1747 
Q 353 2603 823 3093 
Q 1294 3584 2113 3584 
Q 2378 3584 2631 3529 
Q 2884 3475 3122 3366 
z
" transform="scale(0.015625)"/>
       <path id="DejaVuSans-65" d="M 3597 1894 
L 3597 1613 
L 953 1613 
Q 991 1019 1311 708 
Q 1631 397 2203 397 
Q 2534 397 2845 478 
Q 3156 559 3463 722 
L 3463 178 
Q 3153 47 2828 -22 
Q 2503 -91 2169 -91 
Q 1331 -91 842 396 
Q 353 884 353 1716 
Q 353 2575 817 3079 
Q 1281 3584 2069 3584 
Q 2775 3584 3186 3129 
Q 3597 2675 3597 1894 
z
M 3022 2063 
Q 3016 2534 2758 2815 
Q 2500 3097 2075 3097 
Q 1594 3097 1305 2825 
Q 1016 2553 972 2059 
L 3022 2063 
z
" transform="scale(0.015625)"/>
       <path id="DejaVuSans-5b" d="M 550 4863 
L 1875 4863 
L 1875 4416 
L 1125 4416 
L 1125 -397 
L 1875 -397 
L 1875 -844 
L 550 -844 
L 550 4863 
z
" transform="scale(0.015625)"/>
       <path id="DejaVuSans-42" d="M 1259 2228 
L 1259 519 
L 2272 519 
Q 2781 519 3026 730 
Q 3272 941 3272 1375 
Q 3272 1813 3026 2020 
Q 2781 2228 2272 2228 
L 1259 2228 
z
M 1259 4147 
L 1259 2741 
L 2194 2741 
Q 2656 2741 2882 2914 
Q 3109 3088 3109 3444 
Q 3109 3797 2882 3972 
Q 2656 4147 2194 4147 
L 1259 4147 
z
M 628 4666 
L 2241 4666 
Q 2963 4666 3353 4366 
Q 3744 4066 3744 3513 
Q 3744 3084 3544 2831 
Q 3344 2578 2956 2516 
Q 3422 2416 3680 2098 
Q 3938 1781 3938 1306 
Q 3938 681 3513 340 
Q 3088 0 2303 0 
L 628 0 
L 628 4666 
z
" transform="scale(0.015625)"/>
       <path id="DejaVuSans-6f" d="M 1959 3097 
Q 1497 3097 1228 2736 
Q 959 2375 959 1747 
Q 959 1119 1226 758 
Q 1494 397 1959 397 
Q 2419 397 2687 759 
Q 2956 1122 2956 1747 
Q 2956 2369 2687 2733 
Q 2419 3097 1959 3097 
z
M 1959 3584 
Q 2709 3584 3137 3096 
Q 3566 2609 3566 1747 
Q 3566 888 3137 398 
Q 2709 -91 1959 -91 
Q 1206 -91 779 398 
Q 353 888 353 1747 
Q 353 2609 779 3096 
Q 1206 3584 1959 3584 
z
" transform="scale(0.015625)"/>
       <path id="DejaVuSans-68" d="M 3513 2113 
L 3513 0 
L 2938 0 
L 2938 2094 
Q 2938 2591 2744 2837 
Q 2550 3084 2163 3084 
Q 1697 3084 1428 2787 
Q 1159 2491 1159 1978 
L 1159 0 
L 581 0 
L 581 4863 
L 1159 4863 
L 1159 2956 
Q 1366 3272 1645 3428 
Q 1925 3584 2291 3584 
Q 2894 3584 3203 3211 
Q 3513 2838 3513 2113 
z
" transform="scale(0.015625)"/>
       <path id="DejaVuSans-72" d="M 2631 2963 
Q 2534 3019 2420 3045 
Q 2306 3072 2169 3072 
Q 1681 3072 1420 2755 
Q 1159 2438 1159 1844 
L 1159 0 
L 581 0 
L 581 3500 
L 1159 3500 
L 1159 2956 
Q 1341 3275 1631 3429 
Q 1922 3584 2338 3584 
Q 2397 3584 2469 3576 
Q 2541 3569 2628 3553 
L 2631 2963 
z
" transform="scale(0.015625)"/>
       <path id="DejaVuSans-5d" d="M 1947 4863 
L 1947 -844 
L 622 -844 
L 622 -397 
L 1369 -397 
L 1369 4416 
L 622 4416 
L 622 4863 
L 1947 4863 
z
" transform="scale(0.015625)"/>
      </defs>
      <use xlink:href="#DejaVuSans-52"/>
      <use xlink:href="#DejaVuSans-61" transform="translate(67.232422 0)"/>
      <use xlink:href="#DejaVuSans-64" transform="translate(128.511719 0)"/>
      <use xlink:href="#DejaVuSans-69" transform="translate(191.988281 0)"/>
      <use xlink:href="#DejaVuSans-61" transform="translate(219.771484 0)"/>
      <use xlink:href="#DejaVuSans-6c" transform="translate(281.050781 0)"/>
      <use xlink:href="#DejaVuSans-20" transform="translate(308.833984 0)"/>
      <use xlink:href="#DejaVuSans-64" transform="translate(340.621094 0)"/>
      <use xlink:href="#DejaVuSans-69" transform="translate(404.097656 0)"/>
      <use xlink:href="#DejaVuSans-73" transform="translate(431.880859 0)"/>
      <use xlink:href="#DejaVuSans-74" transform="translate(483.980469 0)"/>
      <use xlink:href="#DejaVuSans-61" transform="translate(523.189453 0)"/>
      <use xlink:href="#DejaVuSans-6e" transform="translate(584.46875 0)"/>
      <use xlink:href="#DejaVuSans-63" transform="translate(647.847656 0)"/>
      <use xlink:href="#DejaVuSans-65" transform="translate(702.828125 0)"/>
      <use xlink:href="#DejaVuSans-20" transform="translate(764.351562 0)"/>
      <use xlink:href="#DejaVuSans-5b" transform="translate(796.138672 0)"/>
      <use xlink:href="#DejaVuSans-42" transform="translate(835.152344 0)"/>
      <use xlink:href="#DejaVuSans-6f" transform="translate(903.755859 0)"/>
      <use xlink:href="#DejaVuSans-68" transform="translate(964.9375 0)"/>
      <use xlink:href="#DejaVuSans-72" transform="translate(1028.316406 0)"/>
      <use xlink:href="#DejaVuSans-5d" transform="translate(1069.429688 0)"/>
     </g>
    </g>
   </g>
   <g id="matplotlib.axis_2">
    <g id="ytick_1">
     <g id="line2d_8">
      <defs>
       <path id="m98c425e232" d="M 0 0 
L -3.5 0 
" style="stroke: #000000; stroke-width: 0.8"/>
      </defs>
      <g>
       <use xlink:href="#m98c425e232" x="61.85" y="523.96" style="stroke: #000000; stroke-width: 0.8"/>
      </g>
     </g>
     <g id="text_9">
      <!-- −4 -->
      <g transform="translate(34.210938 529.278906) scale(0.14 -0.14)">
       <defs>
        <path id="DejaVuSans-2212" d="M 678 2272 
L 4684 2272 
L 4684 1741 
L 678 1741 
L 678 2272 
z
" transform="scale(0.015625)"/>
       </defs>
       <use xlink:href="#DejaVuSans-2212"/>
       <use xlink:href="#DejaVuSans-34" transform="translate(83.789062 0)"/>
      </g>
     </g>
    </g>
    <g id="ytick_2">
     <g id="line2d_9">
      <g>
       <use xlink:href="#m98c425e232" x="61.85" y="460.49" style="stroke: #000000; stroke-width: 0.8"/>
      </g>
     </g>
     <g id="text_10">
      <!-- −3 -->
      <g transform="translate(34.210938 465.808906) scale(0.14 -0.14)">
       <use xlink:href="#DejaVuSans-2212"/>
       <use xlink:href="#DejaVuSans-33" transform="translate(83.789062 0)"/>
      </g>
     </g>
    </g>
    <g id="ytick_3">
     <g id="line2d_10">
      <g>
       <use xlink:href="#m98c425e232" x="61.85" y="397.02" style="stroke: #000000; stroke-width: 0.8"/>
      </g>
     </g>
     <g id="text_11">
      <!-- −2 -->
      <g transform="translate(34.210938 402.338906) scale(0.14 -0.14)">
       <use xlink:href="#DejaVuSans-2212"/>
       <use xlink:href="#DejaVuSans-32" transform="translate(83.789062 0)"/>
      </g>
     </g>
    </g>
    <g id="ytick_4">
     <g id="line2d_11">
      <g>
       <use xlink:href="#m98c425e232" x="61.85" y="333.55" style="stroke: #000000; stroke-width: 0.8"/>
      </g>
     </g>
     <g id="text_12">
      <!-- −1 -->
      <g transform="translate(34.210938 338.868906) scale(0.14 -0.14)">
       <use xlink:href="#DejaVuSans-2212"/>
       <use xlink:href="#DejaVuSans-31" transform="translate(83.789062 0)"/>
      </g>
     </g>
    </g>
    <g id="ytick_5">
     <g id="line2d_12">
      <g>
       <use xlink:href="#m98c425e232" x="61.85" y="270.08" style="stroke: #000000; stroke-width: 0.8"/>
      </g>
     </g>
     <g id="text_13">
      <!-- 0 -->
      <g transform="translate(45.9425 275.398906) scale(0.14 -0.14)">
       <use xlink:href="#DejaVuSans-30"/>
      </g>
     </g>
    </g>
    <g id="ytick_6">
     <g id="line2d_13">
      <g>
       <use xlink:href="#m98c425e232" x="61.85" y="206.61" style="stroke: #000000; stroke-width: 0.8"/>
      </g>
     </g>
     <g id="text_14">
      <!-- 1 -->
      <g transform="translate(45.9425 211.928906) scale(0.14 -0.14)">
       <use xlink:href="#DejaVuSans-31"/>
      </g>
     </g>
    </g>
    <g id="ytick_7">
     <g id="line2d_14">
      <g>
       <use xlink:href="#m98c425e232" x="61.85" y="143.14" style="stroke: #000000; stroke-width: 0.8"/>
      </g>
     </g>
     <g id="text_15">
      <!-- 2 -->
      <g transform="translate(45.9425 148.458906) scale(0.14 -0.14)">
       <use xlink:href="#DejaVuSans-32"/>
      </g>
     </g>
    </g>
    <g id="ytick_8">
     <g id="line2d_15">
      <g>
       <use xlink:href="#m98c425e232" x="61.85" y="79.67" style="stroke: #000000; stroke-width: 0.8"/>
      </g>
     </g>
     <g id="text_16">
      <!-- 3 -->
      <g transform="translate(45.9425 84.988906) scale(0.14 -0.14)">
       <use xlink:href="#DejaVuSans-33"/>
      </g>
     </g>
    </g>
    <g id="ytick_9">
     <g id="line2d_16">
      <g>
       <use xlink:href="#m98c425e232" x="61.85" y="16.2" style="stroke: #000000; stroke-width: 0.8"/>
      </g>
     </g>
     <g id="text_17">
      <!-- 4 -->
      <g transform="translate(45.9425 21.518906) scale(0.14 -0.14)">
       <use xlink:href="#DejaVuSans-34"/>
      </g>
     </g>
    </g>
    <g id="text_18">
     <!-- $\lg\rho(r)$ -->
     <g transform="translate(26.850938 293.36) rotate(-90) scale(0.16 -0.16)">
      <defs>
       <path id="DejaVuSans-67" d="M 2906 1791 
Q 2906 2416 2648 2759 
Q 2391 3103 1925 3103 
Q 1463 3103 1205 2759 
Q 947 2416 947 1791 
Q 947 1169 1205 825 
Q 1463 481 1925 481 
Q 2391 481 2648 825 
Q 2906 1169 2906 1791 
z
M 3481 434 
Q 3481 -459 3084 -895 
Q 2688 -1331 1869 -1331 
Q 1566 -1331 1297 -1286 
Q 1028 -1241 775 -1147 
L 775 -588 
Q 1028 -725 1275 -790 
Q 1522 -856 1778 -856 
Q 2344 -856 2625 -561 
Q 2906 -266 2906 331 
L 2906 616 
Q 2728 306 2450 153 
Q 2172 0 1784 0 
Q 1141 0 747 490 
Q 353 981 353 1791 
Q 353 2603 747 3093 
Q 1141 3584 1784 3584 
Q 2172 3584 2450 3431 
Q 2728 3278 2906 2969 
L 2906 3500 
L 3481 3500 
L 3481 434 
z
" transform="scale(0.015625)"/>
       <path id="DejaVuSans-Oblique-3c1" d="M 1203 2875 
Q 1453 3194 1981 3475 
Q 2188 3584 2756 3584 
Q 3394 3584 3694 3078 
Q 3994 2572 3834 1747 
Q 3672 922 3175 415 
Q 2678 -91 2041 -91 
Q 1656 -91 1409 63 
Q 1163 213 1044 525 
L 681 -1331 
L 103 -1331 
L 697 1716 
Q 838 2438 1203 2875 
z
M 3238 1747 
Q 3359 2381 3169 2744 
Q 2978 3103 2522 3103 
Q 2066 3103 1734 2744 
Q 1403 2381 1281 1747 
Q 1156 1113 1347 750 
Q 1538 391 1994 391 
Q 2450 391 2781 750 
Q 3113 1113 3238 1747 
z
" transform="scale(0.015625)"/>
       <path id="DejaVuSans-28" d="M 1984 4856 
Q 1566 4138 1362 3434 
Q 1159 2731 1159 2009 
Q 1159 1288 1364 580 
Q 1569 -128 1984 -844 
L 1484 -844 
Q 1016 -109 783 600 
Q 550 1309 550 2009 
Q 550 2706 781 3412 
Q 1013 4119 1484 4856 
L 1984 4856 
z
" transform="scale(0.015625)"/>
       <path id="DejaVuSans-Oblique-72" d="M 2853 2969 
Q 2766 3016 2653 3041 
Q 2541 3066 2413 3066 
Q 1953 3066 1609 2717 
Q 1266 2369 1153 1784 
L 800 0 
L 225 0 
L 909 3500 
L 1484 3500 
L 1375 2956 
Q 1603 3259 1920 3421 
Q 2238 3584 2597 3584 
Q 2691 3584 2781 3573 
Q 2872 3563 2963 3538 
L 2853 2969 
z
" transform="scale(0.015625)"/>
       <path id="DejaVuSans-29" d="M 513 4856 
L 1013 4856 
Q 1481 4119 1714 3412 
Q 1947 2706 1947 2009 
Q 1947 1309 1714 600 
Q 1481 -109 1013 -844 
L 513 -844 
Q 928 -128 1133 580 
Q 1338 1288 1338 2009 
Q 1338 2731 1133 3434 
Q 928 4138 513 4856 
z
" transform="scale(0.015625)"/>
      </defs>
      <use xlink:href="#DejaVuSans-6c" transform="translate(0 0.015625)"/>
      <use xlink:href="#DejaVuSans-67" transform="translate(27.783203 0.015625)"/>
      <use xlink:href="#DejaVuSans-Oblique-3c1" transform="translate(107.495442 0.015625)"/>
      <use xlink:href="#DejaVuSans-28" transform="translate(170.972004 0.015625)"/>
      <use xlink:href="#DejaVuSans-Oblique-72" transform="translate(209.985676 0.015625)"/>
      <use xlink:href="#DejaVuSans-29" transform="translate(251.098958 0.015625)"/>
     </g>
    </g>
   </g>
   <g id="line2d_17">
    <path d="M 61.850029 307.069531 
L 62.024148 307.180843 
L 100.83862 332.78319 
L 119.230503 344.66029 
L 138.698152 356.992056 
L 155.304665 367.315015 
L 175.566437 379.678419 
L 200.286821 394.44962 
L 230.442001 412.065186 
L 247.918573 422.099653 
L 267.21655 433.05014 
L 288.523503 444.999436 
L 312.045734 458.038225 
L 338.01005 472.265453 
L 366.665686 487.788587 
L 398.286395 504.723796 
L 433.172704 523.19616 
L 471.654371 543.339998 
L 514.093031 565.299435 
L 536.972061 577 
L 536.972061 577 
" clip-path="url(#p3157751253)" style="fill: none; stroke: #1f77b4; stroke-width: 1.5; stroke-linecap: square"/>
   </g>
   <g id="line2d_18">
    <path d="M 61.850029 235.772461 
L 61.937505 235.880131 
L 73.332253 250.833713 
L 83.868146 264.283519 
L 94.038277 276.861246 
L 104.777398 289.70631 
L 113.927901 300.315555 
L 125.086602 312.870283 
L 138.698152 327.677942 
L 146.588809 336.036601 
L 155.304665 345.098695 
L 164.93211 354.920791 
L 175.566437 365.565547 
L 187.312728 377.102534 
L 200.286821 389.609032 
L 214.61637 403.170748 
L 230.442001 417.882447 
L 247.918573 433.848492 
L 267.21655 451.183324 
L 288.523503 470.011941 
L 312.045734 490.470473 
L 338.01005 512.706936 
L 366.665686 536.882268 
L 398.286395 563.171718 
L 415.157166 577 
L 415.157166 577 
" clip-path="url(#p3157751253)" style="fill: none; stroke: #ff7f0e; stroke-width: 1.5; stroke-linecap: square"/>
   </g>
   <g id="line2d_19">
    <path d="M 61.850029 198.434179 
L 61.907991 198.537026 
L 69.150092 212.833663 
L 78.469666 230.80526 
L 86.049228 245.022631 
L 94.038277 259.638584 
L 104.777398 278.7593 
L 113.927901 294.643997 
L 125.086602 313.573111 
L 138.698152 336.009439 
L 146.588809 348.616003 
L 155.304665 362.061369 
L 164.93211 376.06952 
L 175.566437 390.024292 
L 187.312728 402.850989 
L 200.286821 413.245754 
L 214.61637 420.487652 
L 230.442001 425.078986 
L 247.918573 428.278305 
L 267.21655 431.239452 
L 288.523503 434.685703 
L 312.045734 438.997579 
L 338.01005 444.36851 
L 366.665686 450.908756 
L 398.286395 458.699007 
L 433.172704 467.815018 
L 471.654371 478.338089 
L 514.093031 490.358881 
L 577 508.76729 
L 577 508.76729 
" clip-path="url(#p3157751253)" style="fill: none; stroke: #2ca02c; stroke-width: 1.5; stroke-linecap: square"/>
   </g>
   <g id="line2d_20">
    <path d="M 61.850029 172.332114 
L 61.894506 172.433382 
L 74.43688 205.182677 
L 83.868146 229.008339 
L 94.038277 254.031669 
L 104.777398 279.807235 
L 113.927901 301.095066 
L 119.230503 312.947104 
L 125.086602 325.348865 
L 131.554397 337.777979 
L 138.698152 349.313162 
L 146.588809 358.787859 
L 155.304665 365.439644 
L 164.93211 369.553444 
L 175.566437 372.218794 
L 187.312728 374.563812 
L 200.286821 377.353173 
L 214.61637 381.006261 
L 230.442001 385.732495 
L 247.918573 391.637643 
L 267.21655 398.784386 
L 288.523503 407.222834 
L 312.045734 417.005159 
L 338.01005 428.19247 
L 366.665686 440.857898 
L 398.286395 455.087703 
L 433.172704 470.981328 
L 514.093031 508.220027 
L 577 537.25413 
L 577 537.25413 
" clip-path="url(#p3157751253)" style="fill: none; stroke: #d62728; stroke-width: 1.5; stroke-linecap: square"/>
   </g>
   <g id="line2d_21">
    <path d="M 61.850029 152.680151 
L 61.886924 152.782038 
L 80.096784 211.683313 
L 88.455087 237.680576 
L 94.038277 254.640869 
L 100.83862 274.580939 
L 104.777398 285.527505 
L 109.1261 296.799174 
L 113.927901 307.851998 
L 119.230503 317.864947 
L 125.086602 325.969393 
L 131.554397 331.756493 
L 138.698152 335.601469 
L 146.588809 338.386632 
L 155.304665 340.987801 
L 164.93211 344.018051 
L 175.566437 347.833552 
L 187.312728 352.621879 
L 200.286821 358.478145 
L 214.61637 365.451926 
L 230.442001 373.572439 
L 247.918573 382.860908 
L 288.523503 405.014913 
L 338.01005 432.0431 
L 366.665686 447.408876 
L 398.286395 464.006659 
L 433.172704 481.822812 
L 471.654371 500.837591 
L 514.093031 521.034099 
L 560.885058 542.412899 
L 577 549.47279 
L 577 549.47279 
" clip-path="url(#p3157751253)" style="fill: none; stroke: #9467bd; stroke-width: 1.5; stroke-linecap: square"/>
   </g>
   <g id="line2d_22">
    <path d="M 61.850029 136.840112 
L 61.883505 136.948953 
L 75.653326 190.697536 
L 83.868146 221.568956 
L 88.455087 238.223934 
L 94.038277 257.435199 
L 97.270696 267.686968 
L 100.83862 277.911271 
L 104.777398 287.50672 
L 109.1261 295.764674 
L 113.927901 302.179046 
L 119.230503 306.775195 
L 125.086602 310.104742 
L 131.554397 312.913691 
L 138.698152 315.838881 
L 146.588809 319.309066 
L 155.304665 323.576764 
L 164.93211 328.780158 
L 175.566437 334.992482 
L 187.312728 342.252954 
L 200.286821 350.584122 
L 230.442001 370.515429 
L 267.21655 394.879806 
L 288.523503 408.749999 
L 312.045734 423.758632 
L 338.01005 439.916319 
L 366.665686 457.237098 
L 398.286395 475.743237 
L 433.172704 495.472191 
L 471.654371 516.484728 
L 514.093031 538.872303 
L 560.885058 562.761503 
L 577 570.744869 
L 577 570.744869 
" clip-path="url(#p3157751253)" style="fill: none; stroke: #8c564b; stroke-width: 1.5; stroke-linecap: square"/>
   </g>
   <g id="line2d_23">
    <path d="M 61.850029 123.563359 
L 61.880315 123.675503 
L 69.835252 160.204505 
L 76.993279 192.171442 
L 81.890447 213.301538 
L 86.049228 230.378031 
L 88.455087 239.665445 
L 91.109383 249.192796 
L 94.038277 258.580202 
L 97.270696 267.293147 
L 100.83862 274.762924 
L 104.777398 280.639946 
L 109.1261 285.010165 
L 113.927901 288.353007 
L 119.230503 291.288329 
L 125.086602 294.353878 
L 131.554397 297.926176 
L 138.698152 302.23799 
L 146.588809 307.423264 
L 155.304665 313.556271 
L 164.93211 320.677913 
L 175.566437 328.811491 
L 200.286821 348.169249 
L 230.442001 371.716974 
L 247.918573 385.089731 
L 267.21655 399.547503 
L 288.523503 415.109767 
L 312.045734 431.802946 
L 338.01005 449.664088 
L 366.665686 468.745632 
L 398.286395 489.12064 
L 433.172704 510.887454 
L 471.654371 534.172598 
L 514.093031 559.131145 
L 545.275819 577 
L 545.275819 577 
" clip-path="url(#p3157751253)" style="fill: none; stroke: #e377c2; stroke-width: 1.5; stroke-linecap: square"/>
   </g>
   <g id="line2d_24">
    <path d="M 61.850029 112.132069 
L 61.87734 112.244104 
L 65.796807 132.933707 
L 72.328882 166.752115 
L 76.993279 190.132951 
L 80.096784 205.061169 
L 83.868146 222.013078 
L 86.049228 230.92544 
L 88.455087 239.739387 
L 91.109383 248.005668 
L 94.038277 255.239606 
L 97.270696 261.112279 
L 100.83862 265.633405 
L 104.777398 269.157545 
L 109.1261 272.207522 
L 119.230503 278.750677 
L 125.086602 282.866753 
L 131.554397 287.779015 
L 138.698152 293.574952 
L 146.588809 300.304276 
L 155.304665 307.995375 
L 175.566437 326.325539 
L 200.286821 348.656078 
L 214.61637 361.348487 
L 230.442001 375.078793 
L 247.918573 389.86813 
L 267.21655 405.74518 
L 288.523503 422.749028 
L 312.045734 440.932684 
L 338.01005 460.366996 
L 366.665686 481.144333 
L 398.286395 503.381295 
L 433.172704 527.219814 
L 471.654371 552.826468 
L 508.872886 577 
L 508.872886 577 
" clip-path="url(#p3157751253)" style="fill: none; stroke: #7f7f7f; stroke-width: 1.5; stroke-linecap: square"/>
   </g>
   <g id="line2d_25">
    <path d="M 61.850029 102.094331 
L 61.874569 102.203151 
L 64.430846 117.410026 
L 71.417211 158.156329 
L 75.653326 181.840508 
L 78.469666 196.732717 
L 81.890447 213.22 
L 83.868146 221.60663 
L 86.049228 229.638243 
L 88.455087 236.890044 
L 91.109383 243.011303 
L 94.038277 247.891392 
L 97.270696 251.729594 
L 100.83862 254.942204 
L 113.927901 265.077444 
L 119.230503 269.573496 
L 125.086602 274.878841 
L 131.554397 281.059539 
L 138.698152 288.153968 
L 155.304665 305.165598 
L 175.566437 326.017716 
L 187.312728 337.908538 
L 200.286821 350.793003 
L 214.61637 364.689738 
L 230.442001 379.624362 
L 247.918573 395.631859 
L 267.21655 412.759395 
L 288.523503 431.069485 
L 312.045734 450.643184 
L 338.01005 471.582812 
L 366.665686 494.013675 
L 398.286395 518.084438 
L 433.172704 543.966253 
L 478.914057 577 
L 478.914057 577 
" clip-path="url(#p3157751253)" style="fill: none; stroke: #bcbd22; stroke-width: 1.5; stroke-linecap: square"/>
   </g>
   <g id="line2d_26">
    <path d="M 61.850029 93.145939 
L 61.87199 93.248858 
L 63.862026 106.41119 
L 69.835252 145.208002 
L 73.332253 167.022541 
L 75.653326 180.785125 
L 78.469666 196.196638 
L 80.096784 204.194903 
L 81.890447 212.043121 
L 83.868146 219.380152 
L 86.049228 225.845387 
L 88.455087 231.213931 
L 91.109383 235.510944 
L 94.038277 239.009983 
L 97.270696 242.116891 
L 104.777398 248.690041 
L 109.1261 252.709486 
L 113.927901 257.442589 
L 119.230503 262.981377 
L 125.086602 269.38106 
L 138.698152 284.880689 
L 164.93211 315.090281 
L 175.566437 327.055855 
L 187.312728 339.990981 
L 200.286821 353.916246 
L 214.61637 368.860206 
L 230.442001 384.861771 
L 247.918573 401.972875 
L 267.21655 420.261295 
L 288.523503 439.813337 
L 312.045734 460.735985 
L 338.01005 483.158121 
L 366.665686 507.230667 
L 398.286395 533.125789 
L 433.172704 561.035617 
L 453.558512 577 
L 453.558512 577 
" clip-path="url(#p3157751253)" style="fill: none; stroke: #17becf; stroke-width: 1.5; stroke-linecap: square"/>
   </g>
   <g id="line2d_27">
    <path d="M 61.850029 84.964558 
L 61.869594 85.059416 
L 64.035062 100.808159 
L 69.835252 142.088508 
L 73.332253 165.625297 
L 75.653326 180.042549 
L 76.993279 187.690819 
L 78.469666 195.385078 
L 80.096784 202.834061 
L 81.890447 209.693238 
L 83.868146 215.655457 
L 86.049228 220.575816 
L 88.455087 224.550116 
L 91.109383 227.880727 
L 94.038277 230.959943 
L 100.83862 237.768892 
L 104.777398 241.999582 
L 109.1261 246.990274 
L 113.927901 252.833456 
L 119.230503 259.591912 
L 125.086602 267.311322 
L 138.698152 285.775853 
L 155.304665 308.476112 
L 164.93211 321.465539 
L 175.566437 335.530423 
L 187.312728 350.576214 
L 200.286821 366.35928 
L 214.61637 382.367818 
L 230.442001 397.7119 
L 247.918573 411.233116 
L 267.21655 422.079557 
L 288.523503 430.374367 
L 312.045734 437.107594 
L 338.01005 443.417461 
L 366.665686 450.134183 
L 398.286395 457.752073 
L 433.172704 466.551475 
L 471.654371 476.705381 
L 514.093031 488.341907 
L 577 506.244297 
L 577 506.244297 
" clip-path="url(#p3157751253)" style="fill: none; stroke: #1f77b4; stroke-width: 1.5; stroke-linecap: square"/>
   </g>
   <g id="line2d_28">
    <path d="M 61.850029 77.467728 
L 61.869594 77.571206 
L 64.035062 94.749482 
L 69.150092 134.45214 
L 72.328882 157.722874 
L 74.43688 171.872152 
L 75.653326 179.325944 
L 76.993279 186.77572 
L 78.469666 193.932155 
L 80.096784 200.468947 
L 81.890447 206.115825 
L 83.868146 210.772444 
L 86.049228 214.566516 
L 88.455087 217.807571 
L 100.83862 232.195656 
L 104.777398 237.36158 
L 109.1261 243.425466 
L 113.927901 250.45943 
L 119.230503 258.520632 
L 131.554397 277.90885 
L 146.588809 301.818134 
L 155.304665 315.375087 
L 164.93211 329.721729 
L 175.566437 344.324455 
L 187.312728 358.259867 
L 200.286821 370.366528 
L 214.61637 379.878723 
L 230.442001 387.059658 
L 247.918573 392.978161 
L 288.523503 405.194458 
L 312.045734 412.721121 
L 338.01005 421.583115 
L 366.665686 431.921141 
L 398.286395 443.836138 
L 433.172704 457.419781 
L 471.654371 472.768619 
L 514.093031 489.989472 
L 577 515.864421 
L 577 515.864421 
" clip-path="url(#p3157751253)" style="fill: none; stroke: #ff7f0e; stroke-width: 1.5; stroke-linecap: square"/>
   </g>
   <g id="line2d_29">
    <path d="M 61.850029 70.5953 
L 61.869594 70.707397 
L 64.035062 89.31418 
L 69.150092 132.146315 
L 71.417211 149.956061 
L 73.332253 163.8069 
L 74.43688 171.077032 
L 75.653326 178.322387 
L 76.993279 185.263153 
L 78.469666 191.591113 
L 80.096784 197.059229 
L 81.890447 201.586093 
L 83.868146 205.305154 
L 86.049228 208.518446 
L 94.038277 218.626709 
L 97.270696 223.061773 
L 100.83862 228.321442 
L 104.777398 234.511601 
L 109.1261 241.713893 
L 113.927901 249.995414 
L 125.086602 270.005565 
L 138.698152 294.678484 
L 146.588809 308.468549 
L 155.304665 322.635547 
L 164.93211 336.232697 
L 175.566437 348.005718 
L 187.312728 357.072447 
L 200.286821 363.673839 
L 214.61637 368.956811 
L 230.442001 374.122432 
L 247.918573 379.969435 
L 267.21655 386.914019 
L 288.523503 395.138598 
L 312.045734 404.704961 
L 338.01005 415.615698 
L 398.286395 441.342179 
L 433.172704 456.057025 
L 471.654371 471.9277 
L 514.093031 488.901184 
L 560.885058 506.947884 
L 577 512.925281 
L 577 512.925281 
" clip-path="url(#p3157751253)" style="fill: none; stroke: #2ca02c; stroke-width: 1.5; stroke-linecap: square"/>
   </g>
   <g id="line2d_30">
    <path d="M 61.850029 64.246094 
L 61.86737 64.345532 
L 64.904325 92.382653 
L 69.150092 130.282112 
L 71.417211 148.94296 
L 73.332253 162.967715 
L 74.43688 170.04608 
L 75.653326 176.835016 
L 76.993279 183.041689 
L 78.469666 188.430239 
L 80.096784 192.919434 
L 81.890447 196.63118 
L 83.868146 199.851245 
L 94.038277 214.415224 
L 97.270696 219.691938 
L 100.83862 225.919494 
L 104.777398 233.188604 
L 109.1261 241.574342 
L 119.230503 261.912499 
L 131.554397 286.899421 
L 138.698152 300.57949 
L 146.588809 314.115406 
L 155.304665 326.254933 
L 164.93211 335.802386 
L 175.566437 342.557951 
L 187.312728 347.51648 
L 214.61637 357.040556 
L 230.442001 363.113114 
L 247.918573 370.466042 
L 267.21655 379.176411 
L 288.523503 389.250413 
L 312.045734 400.665146 
L 366.665686 427.393957 
L 398.286395 442.66071 
L 433.172704 459.188281 
L 471.654371 477.000231 
L 514.093031 496.151452 
L 560.885058 516.732056 
L 577 523.647824 
L 577 523.647824 
" clip-path="url(#p3157751253)" style="fill: none; stroke: #d62728; stroke-width: 1.5; stroke-linecap: square"/>
   </g>
   <g id="line2d_31">
    <path d="M 61.850029 58.347107 
L 61.86737 58.453643 
L 64.904325 88.479308 
L 68.526737 123.090833 
L 70.588605 141.299131 
L 72.328882 155.003591 
L 73.332253 161.942922 
L 74.43688 168.626811 
L 75.653326 174.775705 
L 76.993279 180.156612 
L 78.469666 184.675572 
L 80.096784 188.430479 
L 81.890447 191.683502 
L 91.109383 206.150204 
L 94.038277 211.374825 
L 97.270696 217.558263 
L 100.83862 224.799949 
L 104.777398 233.181575 
L 113.927901 253.579201 
L 119.230503 265.571152 
L 125.086602 278.520467 
L 131.554397 291.878468 
L 138.698152 304.608026 
L 146.588809 315.330606 
L 155.304665 323.143287 
L 164.93211 328.447355 
L 175.566437 332.570544 
L 187.312728 336.778479 
L 200.286821 341.848986 
L 214.61637 348.153526 
L 230.442001 355.83344 
L 247.918573 364.920623 
L 267.21655 375.401726 
L 312.045734 400.439951 
L 338.01005 414.958743 
L 366.665686 430.809746 
L 398.286395 448.018341 
L 433.172704 466.635529 
L 471.654371 486.740761 
L 514.093031 508.44281 
L 560.885058 531.878266 
L 577 539.792146 
L 577 539.792146 
" clip-path="url(#p3157751253)" style="fill: none; stroke: #9467bd; stroke-width: 1.5; stroke-linecap: square"/>
   </g>
   <g id="line2d_32">
    <path d="M 61.850029 52.838883 
L 61.865311 52.930795 
L 67.95941 116.072207 
L 69.835252 133.796471 
L 71.417211 147.185514 
L 72.328882 154.003696 
L 73.332253 160.613489 
L 74.43688 166.747964 
L 75.653326 172.172542 
L 76.993279 176.772446 
L 78.469666 180.612185 
L 80.096784 183.92306 
L 83.868146 190.261952 
L 86.049228 193.910941 
L 88.455087 198.204386 
L 91.109383 203.317239 
L 94.038277 209.384748 
L 97.270696 216.51513 
L 100.83862 224.796342 
L 109.1261 245.024761 
L 113.927901 256.914894 
L 119.230503 269.678481 
L 125.086602 282.645904 
L 131.554397 294.631663 
L 138.698152 304.247932 
L 146.588809 310.886927 
L 155.304665 315.320761 
L 175.566437 323.041306 
L 187.312728 328.144183 
L 200.286821 334.580996 
L 214.61637 342.448276 
L 230.442001 351.75627 
L 247.918573 362.482746 
L 288.523503 388.086047 
L 312.045734 402.937262 
L 338.01005 419.167634 
L 366.665686 436.81441 
L 398.286395 455.940117 
L 433.172704 476.633818 
L 471.654371 499.010567 
L 514.093031 523.210041 
L 560.885058 549.395172 
L 577 558.25407 
L 577 558.25407 
" clip-path="url(#p3157751253)" style="fill: none; stroke: #8c564b; stroke-width: 1.5; stroke-linecap: square"/>
   </g>
   <g id="line2d_33">
    <path d="M 61.850029 47.673379 
L 61.865311 47.771031 
L 67.442887 109.226186 
L 69.150092 126.440576 
L 70.588605 139.512446 
L 72.328882 152.770658 
L 73.332253 158.91704 
L 74.43688 164.419931 
L 75.653326 169.139807 
L 76.993279 173.101046 
L 78.469666 176.496658 
L 80.096784 179.628151 
L 83.868146 186.381381 
L 86.049228 190.541871 
L 88.455087 195.49402 
L 91.109383 201.384783 
L 94.038277 208.331778 
L 97.270696 216.429828 
L 104.777398 236.300603 
L 109.1261 247.999521 
L 113.927901 260.521612 
L 119.230503 273.127113 
L 125.086602 284.553171 
L 131.554397 293.432395 
L 138.698152 299.341946 
L 146.588809 303.239221 
L 155.304665 306.589749 
L 164.93211 310.495734 
L 175.566437 315.545333 
L 187.312728 321.98641 
L 200.286821 329.89351 
L 214.61637 339.265342 
L 230.442001 350.074152 
L 267.21655 375.894019 
L 288.523503 390.883472 
L 312.045734 407.277253 
L 338.01005 425.117495 
L 366.665686 444.471072 
L 398.286395 465.429941 
L 433.172704 488.110729 
L 471.654371 512.653808 
L 514.093031 539.221923 
L 560.885058 567.998574 
L 575.771696 577 
L 575.771696 577 
" clip-path="url(#p3157751253)" style="fill: none; stroke: #e377c2; stroke-width: 1.5; stroke-linecap: square"/>
   </g>
   <g id="line2d_34">
    <path d="M 61.850029 42.81069 
L 61.865311 42.914083 
L 66.972443 102.553453 
L 69.150092 125.491318 
L 70.588605 138.577097 
L 71.417211 145.077957 
L 72.328882 151.248113 
L 73.332253 156.849561 
L 74.43688 161.717865 
L 75.653326 165.833283 
L 76.993279 169.343343 
L 78.469666 172.520172 
L 83.868146 183.142559 
L 86.049228 187.896333 
L 88.455087 193.561007 
L 91.109383 200.26461 
L 94.038277 208.109953 
L 100.83862 227.468686 
L 104.777398 238.911611 
L 109.1261 251.169999 
L 113.927901 263.484679 
L 119.230503 274.566716 
L 125.086602 283.048061 
L 131.554397 288.558036 
L 138.698152 292.11427 
L 146.588809 295.199612 
L 155.304665 298.903608 
L 164.93211 303.797488 
L 175.566437 310.116387 
L 187.312728 317.926272 
L 200.286821 327.220121 
L 214.61637 337.966204 
L 247.918573 363.696328 
L 267.21655 378.656667 
L 288.523503 395.031893 
L 312.045734 412.864396 
L 338.01005 432.221159 
L 366.665686 453.193967 
L 398.286395 475.898455 
L 433.172704 500.472957 
L 471.654371 527.078086 
L 514.093031 555.896218 
L 545.709149 577 
L 545.709149 577 
" clip-path="url(#p3157751253)" style="fill: none; stroke: #7f7f7f; stroke-width: 1.5; stroke-linecap: square"/>
   </g>
   <g id="line2d_35">
    <path d="M 61.850029 38.198927 
L 61.865311 38.308059 
L 66.972443 101.057318 
L 68.526737 118.276221 
L 69.835252 131.10234 
L 71.417211 143.758922 
L 72.328882 149.473647 
L 73.332253 154.512793 
L 74.43688 158.810667 
L 75.653326 162.463276 
L 76.993279 165.705902 
L 83.868146 180.538777 
L 86.049228 185.93396 
L 88.455087 192.341914 
L 91.109383 199.875017 
L 97.270696 218.594389 
L 104.777398 241.72358 
L 109.1261 253.837669 
L 113.927901 264.812407 
L 119.230503 273.262806 
L 125.086602 278.753213 
L 131.554397 282.260516 
L 138.698152 285.287033 
L 146.588809 288.965113 
L 155.304665 293.903846 
L 164.93211 300.368326 
L 175.566437 308.449802 
L 187.312728 318.16231 
L 200.286821 329.486141 
L 247.918573 372.429199 
L 267.21655 389.027768 
L 288.523503 405.816019 
L 312.045734 421.634912 
L 338.01005 435.228082 
L 366.665686 446.07704 
L 398.286395 454.857817 
L 433.172704 462.847091 
L 471.654371 471.148214 
L 514.093031 480.459135 
L 560.885058 491.175693 
L 577 495.036247 
L 577 495.036247 
" clip-path="url(#p3157751253)" style="fill: none; stroke: #bcbd22; stroke-width: 1.5; stroke-linecap: square"/>
   </g>
   <g id="line2d_36">
    <path d="M 61.850029 33.819447 
L 61.863408 33.910569 
L 63.703594 58.216715 
L 66.972443 99.746149 
L 68.526737 117.402637 
L 69.835252 130.17099 
L 70.588605 136.400648 
L 71.417211 142.229746 
L 72.328882 147.452344 
L 73.332253 151.958311 
L 74.43688 155.787283 
L 75.653326 159.12854 
L 78.469666 165.514225 
L 81.890447 173.426168 
L 83.868146 178.520834 
L 86.049228 184.592031 
L 88.455087 191.763377 
L 91.109383 200.128123 
L 100.83862 232.226518 
L 104.777398 244.195095 
L 109.1261 255.22693 
L 113.927901 263.902935 
L 119.230503 269.617151 
L 125.086602 273.208914 
L 131.554397 276.193234 
L 138.698152 279.785261 
L 146.588809 284.666218 
L 155.304665 291.146932 
L 164.93211 299.343936 
L 175.566437 309.277617 
L 187.312728 320.904597 
L 214.61637 348.569395 
L 230.442001 363.732646 
L 247.918573 378.565256 
L 267.21655 391.75144 
L 288.523503 402.40351 
L 312.045734 410.813161 
L 338.01005 418.177537 
L 366.665686 425.725081 
L 398.286395 434.280846 
L 433.172704 444.305131 
L 471.654371 456.048602 
L 514.093031 469.666194 
L 560.885058 485.277699 
L 577 490.813401 
L 577 490.813401 
" clip-path="url(#p3157751253)" style="fill: none; stroke: #17becf; stroke-width: 1.5; stroke-linecap: square"/>
   </g>
   <g id="patch_3">
    <path d="M 61.85 523.96 
L 61.85 16.2 
" style="fill: none; stroke: #000000; stroke-width: 0.8; stroke-linejoin: miter; stroke-linecap: square"/>
   </g>
   <g id="patch_4">
    <path d="M 560.745 523.96 
L 560.745 16.2 
" style="fill: none; stroke: #000000; stroke-width: 0.8; stroke-linejoin: miter; stroke-linecap: square"/>
   </g>
   <g id="patch_5">
    <path d="M 61.85 523.96 
L 560.745 523.96 
" style="fill: none; stroke: #000000; stroke-width: 0.8; stroke-linejoin: miter; stroke-linecap: square"/>
   </g>
   <g id="patch_6">
    <path d="M 61.85 16.2 
L 560.745 16.2 
" style="fill: none; stroke: #000000; stroke-width: 0.8; stroke-linejoin: miter; stroke-linecap: square"/>
   </g>
   <g id="legend_1">
    <g id="line2d_37">
     <path d="M 422.529375 29.298438 
L 432.529375 29.298438 
L 442.529375 29.298438 
" style="fill: none; stroke: #1f77b4; stroke-width: 1.5; stroke-linecap: square"/>
    </g>
    <g id="text_19">
     <!--   H  -0.406534 Eh -->
     <g transform="translate(450.529375 32.798438) scale(0.1 -0.1)">
      <defs>
       <path id="DejaVuSans-48" d="M 628 4666 
L 1259 4666 
L 1259 2753 
L 3553 2753 
L 3553 4666 
L 4184 4666 
L 4184 0 
L 3553 0 
L 3553 2222 
L 1259 2222 
L 1259 0 
L 628 0 
L 628 4666 
z
" transform="scale(0.015625)"/>
       <path id="DejaVuSans-2d" d="M 313 2009 
L 1997 2009 
L 1997 1497 
L 313 1497 
L 313 2009 
z
" transform="scale(0.015625)"/>
       <path id="DejaVuSans-2e" d="M 684 794 
L 1344 794 
L 1344 0 
L 684 0 
L 684 794 
z
" transform="scale(0.015625)"/>
       <path id="DejaVuSans-45" d="M 628 4666 
L 3578 4666 
L 3578 4134 
L 1259 4134 
L 1259 2753 
L 3481 2753 
L 3481 2222 
L 1259 2222 
L 1259 531 
L 3634 531 
L 3634 0 
L 628 0 
L 628 4666 
z
" transform="scale(0.015625)"/>
      </defs>
      <use xlink:href="#DejaVuSans-20"/>
      <use xlink:href="#DejaVuSans-20" transform="translate(31.787109 0)"/>
      <use xlink:href="#DejaVuSans-48" transform="translate(63.574219 0)"/>
      <use xlink:href="#DejaVuSans-20" transform="translate(138.769531 0)"/>
      <use xlink:href="#DejaVuSans-20" transform="translate(170.556641 0)"/>
      <use xlink:href="#DejaVuSans-2d" transform="translate(202.34375 0)"/>
      <use xlink:href="#DejaVuSans-30" transform="translate(238.427734 0)"/>
      <use xlink:href="#DejaVuSans-2e" transform="translate(302.050781 0)"/>
      <use xlink:href="#DejaVuSans-34" transform="translate(333.837891 0)"/>
      <use xlink:href="#DejaVuSans-30" transform="translate(397.460938 0)"/>
      <use xlink:href="#DejaVuSans-36" transform="translate(461.083984 0)"/>
      <use xlink:href="#DejaVuSans-35" transform="translate(524.707031 0)"/>
      <use xlink:href="#DejaVuSans-33" transform="translate(588.330078 0)"/>
      <use xlink:href="#DejaVuSans-34" transform="translate(651.953125 0)"/>
      <use xlink:href="#DejaVuSans-20" transform="translate(715.576172 0)"/>
      <use xlink:href="#DejaVuSans-45" transform="translate(747.363281 0)"/>
      <use xlink:href="#DejaVuSans-68" transform="translate(810.546875 0)"/>
     </g>
    </g>
    <g id="line2d_38">
     <path d="M 422.529375 43.976563 
L 432.529375 43.976563 
L 442.529375 43.976563 
" style="fill: none; stroke: #ff7f0e; stroke-width: 1.5; stroke-linecap: square"/>
    </g>
    <g id="text_20">
     <!--  He  -2.723640 Eh -->
     <g transform="translate(450.529375 47.476563) scale(0.1 -0.1)">
      <defs>
       <path id="DejaVuSans-37" d="M 525 4666 
L 3525 4666 
L 3525 4397 
L 1831 0 
L 1172 0 
L 2766 4134 
L 525 4134 
L 525 4666 
z
" transform="scale(0.015625)"/>
      </defs>
      <use xlink:href="#DejaVuSans-20"/>
      <use xlink:href="#DejaVuSans-48" transform="translate(31.787109 0)"/>
      <use xlink:href="#DejaVuSans-65" transform="translate(106.982422 0)"/>
      <use xlink:href="#DejaVuSans-20" transform="translate(168.505859 0)"/>
      <use xlink:href="#DejaVuSans-20" transform="translate(200.292969 0)"/>
      <use xlink:href="#DejaVuSans-2d" transform="translate(232.080078 0)"/>
      <use xlink:href="#DejaVuSans-32" transform="translate(268.164062 0)"/>
      <use xlink:href="#DejaVuSans-2e" transform="translate(331.787109 0)"/>
      <use xlink:href="#DejaVuSans-37" transform="translate(363.574219 0)"/>
      <use xlink:href="#DejaVuSans-32" transform="translate(427.197266 0)"/>
      <use xlink:href="#DejaVuSans-33" transform="translate(490.820312 0)"/>
      <use xlink:href="#DejaVuSans-36" transform="translate(554.443359 0)"/>
      <use xlink:href="#DejaVuSans-34" transform="translate(618.066406 0)"/>
      <use xlink:href="#DejaVuSans-30" transform="translate(681.689453 0)"/>
      <use xlink:href="#DejaVuSans-20" transform="translate(745.3125 0)"/>
      <use xlink:href="#DejaVuSans-45" transform="translate(777.099609 0)"/>
      <use xlink:href="#DejaVuSans-68" transform="translate(840.283203 0)"/>
     </g>
    </g>
    <g id="line2d_39">
     <path d="M 422.529375 58.654688 
L 432.529375 58.654688 
L 442.529375 58.654688 
" style="fill: none; stroke: #2ca02c; stroke-width: 1.5; stroke-linecap: square"/>
    </g>
    <g id="text_21">
     <!--  Li  -7.174881 Eh -->
     <g transform="translate(450.529375 62.154688) scale(0.1 -0.1)">
      <defs>
       <path id="DejaVuSans-4c" d="M 628 4666 
L 1259 4666 
L 1259 531 
L 3531 531 
L 3531 0 
L 628 0 
L 628 4666 
z
" transform="scale(0.015625)"/>
       <path id="DejaVuSans-38" d="M 2034 2216 
Q 1584 2216 1326 1975 
Q 1069 1734 1069 1313 
Q 1069 891 1326 650 
Q 1584 409 2034 409 
Q 2484 409 2743 651 
Q 3003 894 3003 1313 
Q 3003 1734 2745 1975 
Q 2488 2216 2034 2216 
z
M 1403 2484 
Q 997 2584 770 2862 
Q 544 3141 544 3541 
Q 544 4100 942 4425 
Q 1341 4750 2034 4750 
Q 2731 4750 3128 4425 
Q 3525 4100 3525 3541 
Q 3525 3141 3298 2862 
Q 3072 2584 2669 2484 
Q 3125 2378 3379 2068 
Q 3634 1759 3634 1313 
Q 3634 634 3220 271 
Q 2806 -91 2034 -91 
Q 1263 -91 848 271 
Q 434 634 434 1313 
Q 434 1759 690 2068 
Q 947 2378 1403 2484 
z
M 1172 3481 
Q 1172 3119 1398 2916 
Q 1625 2713 2034 2713 
Q 2441 2713 2670 2916 
Q 2900 3119 2900 3481 
Q 2900 3844 2670 4047 
Q 2441 4250 2034 4250 
Q 1625 4250 1398 4047 
Q 1172 3844 1172 3481 
z
" transform="scale(0.015625)"/>
      </defs>
      <use xlink:href="#DejaVuSans-20"/>
      <use xlink:href="#DejaVuSans-4c" transform="translate(31.787109 0)"/>
      <use xlink:href="#DejaVuSans-69" transform="translate(87.5 0)"/>
      <use xlink:href="#DejaVuSans-20" transform="translate(115.283203 0)"/>
      <use xlink:href="#DejaVuSans-20" transform="translate(147.070312 0)"/>
      <use xlink:href="#DejaVuSans-2d" transform="translate(178.857422 0)"/>
      <use xlink:href="#DejaVuSans-37" transform="translate(214.941406 0)"/>
      <use xlink:href="#DejaVuSans-2e" transform="translate(278.564453 0)"/>
      <use xlink:href="#DejaVuSans-31" transform="translate(310.351562 0)"/>
      <use xlink:href="#DejaVuSans-37" transform="translate(373.974609 0)"/>
      <use xlink:href="#DejaVuSans-34" transform="translate(437.597656 0)"/>
      <use xlink:href="#DejaVuSans-38" transform="translate(501.220703 0)"/>
      <use xlink:href="#DejaVuSans-38" transform="translate(564.84375 0)"/>
      <use xlink:href="#DejaVuSans-31" transform="translate(628.466797 0)"/>
      <use xlink:href="#DejaVuSans-20" transform="translate(692.089844 0)"/>
      <use xlink:href="#DejaVuSans-45" transform="translate(723.876953 0)"/>
      <use xlink:href="#DejaVuSans-68" transform="translate(787.060547 0)"/>
     </g>
    </g>
    <g id="line2d_40">
     <path d="M 422.529375 73.332813 
L 432.529375 73.332813 
L 442.529375 73.332813 
" style="fill: none; stroke: #d62728; stroke-width: 1.5; stroke-linecap: square"/>
    </g>
    <g id="text_22">
     <!--  Be -14.223291 Eh -->
     <g transform="translate(450.529375 76.832813) scale(0.1 -0.1)">
      <defs>
       <path id="DejaVuSans-39" d="M 703 97 
L 703 672 
Q 941 559 1184 500 
Q 1428 441 1663 441 
Q 2288 441 2617 861 
Q 2947 1281 2994 2138 
Q 2813 1869 2534 1725 
Q 2256 1581 1919 1581 
Q 1219 1581 811 2004 
Q 403 2428 403 3163 
Q 403 3881 828 4315 
Q 1253 4750 1959 4750 
Q 2769 4750 3195 4129 
Q 3622 3509 3622 2328 
Q 3622 1225 3098 567 
Q 2575 -91 1691 -91 
Q 1453 -91 1209 -44 
Q 966 3 703 97 
z
M 1959 2075 
Q 2384 2075 2632 2365 
Q 2881 2656 2881 3163 
Q 2881 3666 2632 3958 
Q 2384 4250 1959 4250 
Q 1534 4250 1286 3958 
Q 1038 3666 1038 3163 
Q 1038 2656 1286 2365 
Q 1534 2075 1959 2075 
z
" transform="scale(0.015625)"/>
      </defs>
      <use xlink:href="#DejaVuSans-20"/>
      <use xlink:href="#DejaVuSans-42" transform="translate(31.787109 0)"/>
      <use xlink:href="#DejaVuSans-65" transform="translate(100.390625 0)"/>
      <use xlink:href="#DejaVuSans-20" transform="translate(161.914062 0)"/>
      <use xlink:href="#DejaVuSans-2d" transform="translate(193.701172 0)"/>
      <use xlink:href="#DejaVuSans-31" transform="translate(229.785156 0)"/>
      <use xlink:href="#DejaVuSans-34" transform="translate(293.408203 0)"/>
      <use xlink:href="#DejaVuSans-2e" transform="translate(357.03125 0)"/>
      <use xlink:href="#DejaVuSans-32" transform="translate(388.818359 0)"/>
      <use xlink:href="#DejaVuSans-32" transform="translate(452.441406 0)"/>
      <use xlink:href="#DejaVuSans-33" transform="translate(516.064453 0)"/>
      <use xlink:href="#DejaVuSans-32" transform="translate(579.6875 0)"/>
      <use xlink:href="#DejaVuSans-39" transform="translate(643.310547 0)"/>
      <use xlink:href="#DejaVuSans-31" transform="translate(706.933594 0)"/>
      <use xlink:href="#DejaVuSans-20" transform="translate(770.556641 0)"/>
      <use xlink:href="#DejaVuSans-45" transform="translate(802.34375 0)"/>
      <use xlink:href="#DejaVuSans-68" transform="translate(865.527344 0)"/>
     </g>
    </g>
    <g id="line2d_41">
     <path d="M 422.529375 88.010938 
L 432.529375 88.010938 
L 442.529375 88.010938 
" style="fill: none; stroke: #9467bd; stroke-width: 1.5; stroke-linecap: square"/>
    </g>
    <g id="text_23">
     <!--   B -24.050406 Eh -->
     <g transform="translate(450.529375 91.510938) scale(0.1 -0.1)">
      <use xlink:href="#DejaVuSans-20"/>
      <use xlink:href="#DejaVuSans-20" transform="translate(31.787109 0)"/>
      <use xlink:href="#DejaVuSans-42" transform="translate(63.574219 0)"/>
      <use xlink:href="#DejaVuSans-20" transform="translate(132.177734 0)"/>
      <use xlink:href="#DejaVuSans-2d" transform="translate(163.964844 0)"/>
      <use xlink:href="#DejaVuSans-32" transform="translate(200.048828 0)"/>
      <use xlink:href="#DejaVuSans-34" transform="translate(263.671875 0)"/>
      <use xlink:href="#DejaVuSans-2e" transform="translate(327.294922 0)"/>
      <use xlink:href="#DejaVuSans-30" transform="translate(359.082031 0)"/>
      <use xlink:href="#DejaVuSans-35" transform="translate(422.705078 0)"/>
      <use xlink:href="#DejaVuSans-30" transform="translate(486.328125 0)"/>
      <use xlink:href="#DejaVuSans-34" transform="translate(549.951172 0)"/>
      <use xlink:href="#DejaVuSans-30" transform="translate(613.574219 0)"/>
      <use xlink:href="#DejaVuSans-36" transform="translate(677.197266 0)"/>
      <use xlink:href="#DejaVuSans-20" transform="translate(740.820312 0)"/>
      <use xlink:href="#DejaVuSans-45" transform="translate(772.607422 0)"/>
      <use xlink:href="#DejaVuSans-68" transform="translate(835.791016 0)"/>
     </g>
    </g>
    <g id="line2d_42">
     <path d="M 422.529375 102.689063 
L 432.529375 102.689063 
L 442.529375 102.689063 
" style="fill: none; stroke: #8c564b; stroke-width: 1.5; stroke-linecap: square"/>
    </g>
    <g id="text_24">
     <!--   C -37.053605 Eh -->
     <g transform="translate(450.529375 106.189063) scale(0.1 -0.1)">
      <defs>
       <path id="DejaVuSans-43" d="M 4122 4306 
L 4122 3641 
Q 3803 3938 3442 4084 
Q 3081 4231 2675 4231 
Q 1875 4231 1450 3742 
Q 1025 3253 1025 2328 
Q 1025 1406 1450 917 
Q 1875 428 2675 428 
Q 3081 428 3442 575 
Q 3803 722 4122 1019 
L 4122 359 
Q 3791 134 3420 21 
Q 3050 -91 2638 -91 
Q 1578 -91 968 557 
Q 359 1206 359 2328 
Q 359 3453 968 4101 
Q 1578 4750 2638 4750 
Q 3056 4750 3426 4639 
Q 3797 4528 4122 4306 
z
" transform="scale(0.015625)"/>
      </defs>
      <use xlink:href="#DejaVuSans-20"/>
      <use xlink:href="#DejaVuSans-20" transform="translate(31.787109 0)"/>
      <use xlink:href="#DejaVuSans-43" transform="translate(63.574219 0)"/>
      <use xlink:href="#DejaVuSans-20" transform="translate(133.398438 0)"/>
      <use xlink:href="#DejaVuSans-2d" transform="translate(165.185547 0)"/>
      <use xlink:href="#DejaVuSans-33" transform="translate(201.269531 0)"/>
      <use xlink:href="#DejaVuSans-37" transform="translate(264.892578 0)"/>
      <use xlink:href="#DejaVuSans-2e" transform="translate(328.515625 0)"/>
      <use xlink:href="#DejaVuSans-30" transform="translate(360.302734 0)"/>
      <use xlink:href="#DejaVuSans-35" transform="translate(423.925781 0)"/>
      <use xlink:href="#DejaVuSans-33" transform="translate(487.548828 0)"/>
      <use xlink:href="#DejaVuSans-36" transform="translate(551.171875 0)"/>
      <use xlink:href="#DejaVuSans-30" transform="translate(614.794922 0)"/>
      <use xlink:href="#DejaVuSans-35" transform="translate(678.417969 0)"/>
      <use xlink:href="#DejaVuSans-20" transform="translate(742.041016 0)"/>
      <use xlink:href="#DejaVuSans-45" transform="translate(773.828125 0)"/>
      <use xlink:href="#DejaVuSans-68" transform="translate(837.011719 0)"/>
     </g>
    </g>
    <g id="line2d_43">
     <path d="M 422.529375 117.367188 
L 432.529375 117.367188 
L 442.529375 117.367188 
" style="fill: none; stroke: #e377c2; stroke-width: 1.5; stroke-linecap: square"/>
    </g>
    <g id="text_25">
     <!--   N -53.567903 Eh -->
     <g transform="translate(450.529375 120.867188) scale(0.1 -0.1)">
      <defs>
       <path id="DejaVuSans-4e" d="M 628 4666 
L 1478 4666 
L 3547 763 
L 3547 4666 
L 4159 4666 
L 4159 0 
L 3309 0 
L 1241 3903 
L 1241 0 
L 628 0 
L 628 4666 
z
" transform="scale(0.015625)"/>
      </defs>
      <use xlink:href="#DejaVuSans-20"/>
      <use xlink:href="#DejaVuSans-20" transform="translate(31.787109 0)"/>
      <use xlink:href="#DejaVuSans-4e" transform="translate(63.574219 0)"/>
      <use xlink:href="#DejaVuSans-20" transform="translate(138.378906 0)"/>
      <use xlink:href="#DejaVuSans-2d" transform="translate(170.166016 0)"/>
      <use xlink:href="#DejaVuSans-35" transform="translate(206.25 0)"/>
      <use xlink:href="#DejaVuSans-33" transform="translate(269.873047 0)"/>
      <use xlink:href="#DejaVuSans-2e" transform="translate(333.496094 0)"/>
      <use xlink:href="#DejaVuSans-35" transform="translate(365.283203 0)"/>
      <use xlink:href="#DejaVuSans-36" transform="translate(428.90625 0)"/>
      <use xlink:href="#DejaVuSans-37" transform="translate(492.529297 0)"/>
      <use xlink:href="#DejaVuSans-39" transform="translate(556.152344 0)"/>
      <use xlink:href="#DejaVuSans-30" transform="translate(619.775391 0)"/>
      <use xlink:href="#DejaVuSans-33" transform="translate(683.398438 0)"/>
      <use xlink:href="#DejaVuSans-20" transform="translate(747.021484 0)"/>
      <use xlink:href="#DejaVuSans-45" transform="translate(778.808594 0)"/>
      <use xlink:href="#DejaVuSans-68" transform="translate(841.992188 0)"/>
     </g>
    </g>
    <g id="line2d_44">
     <path d="M 422.529375 132.045313 
L 432.529375 132.045313 
L 442.529375 132.045313 
" style="fill: none; stroke: #7f7f7f; stroke-width: 1.5; stroke-linecap: square"/>
    </g>
    <g id="text_26">
     <!--   O -73.925424 Eh -->
     <g transform="translate(450.529375 135.545313) scale(0.1 -0.1)">
      <defs>
       <path id="DejaVuSans-4f" d="M 2522 4238 
Q 1834 4238 1429 3725 
Q 1025 3213 1025 2328 
Q 1025 1447 1429 934 
Q 1834 422 2522 422 
Q 3209 422 3611 934 
Q 4013 1447 4013 2328 
Q 4013 3213 3611 3725 
Q 3209 4238 2522 4238 
z
M 2522 4750 
Q 3503 4750 4090 4092 
Q 4678 3434 4678 2328 
Q 4678 1225 4090 567 
Q 3503 -91 2522 -91 
Q 1538 -91 948 565 
Q 359 1222 359 2328 
Q 359 3434 948 4092 
Q 1538 4750 2522 4750 
z
" transform="scale(0.015625)"/>
      </defs>
      <use xlink:href="#DejaVuSans-20"/>
      <use xlink:href="#DejaVuSans-20" transform="translate(31.787109 0)"/>
      <use xlink:href="#DejaVuSans-4f" transform="translate(63.574219 0)"/>
      <use xlink:href="#DejaVuSans-20" transform="translate(142.285156 0)"/>
      <use xlink:href="#DejaVuSans-2d" transform="translate(174.072266 0)"/>
      <use xlink:href="#DejaVuSans-37" transform="translate(210.15625 0)"/>
      <use xlink:href="#DejaVuSans-33" transform="translate(273.779297 0)"/>
      <use xlink:href="#DejaVuSans-2e" transform="translate(337.402344 0)"/>
      <use xlink:href="#DejaVuSans-39" transform="translate(369.189453 0)"/>
      <use xlink:href="#DejaVuSans-32" transform="translate(432.8125 0)"/>
      <use xlink:href="#DejaVuSans-35" transform="translate(496.435547 0)"/>
      <use xlink:href="#DejaVuSans-34" transform="translate(560.058594 0)"/>
      <use xlink:href="#DejaVuSans-32" transform="translate(623.681641 0)"/>
      <use xlink:href="#DejaVuSans-34" transform="translate(687.304688 0)"/>
      <use xlink:href="#DejaVuSans-20" transform="translate(750.927734 0)"/>
      <use xlink:href="#DejaVuSans-45" transform="translate(782.714844 0)"/>
      <use xlink:href="#DejaVuSans-68" transform="translate(845.898438 0)"/>
     </g>
    </g>
    <g id="line2d_45">
     <path d="M 422.529375 146.723438 
L 432.529375 146.723438 
L 442.529375 146.723438 
" style="fill: none; stroke: #bcbd22; stroke-width: 1.5; stroke-linecap: square"/>
    </g>
    <g id="text_27">
     <!--   F -98.456607 Eh -->
     <g transform="translate(450.529375 150.223438) scale(0.1 -0.1)">
      <defs>
       <path id="DejaVuSans-46" d="M 628 4666 
L 3309 4666 
L 3309 4134 
L 1259 4134 
L 1259 2759 
L 3109 2759 
L 3109 2228 
L 1259 2228 
L 1259 0 
L 628 0 
L 628 4666 
z
" transform="scale(0.015625)"/>
      </defs>
      <use xlink:href="#DejaVuSans-20"/>
      <use xlink:href="#DejaVuSans-20" transform="translate(31.787109 0)"/>
      <use xlink:href="#DejaVuSans-46" transform="translate(63.574219 0)"/>
      <use xlink:href="#DejaVuSans-20" transform="translate(121.09375 0)"/>
      <use xlink:href="#DejaVuSans-2d" transform="translate(152.880859 0)"/>
      <use xlink:href="#DejaVuSans-39" transform="translate(188.964844 0)"/>
      <use xlink:href="#DejaVuSans-38" transform="translate(252.587891 0)"/>
      <use xlink:href="#DejaVuSans-2e" transform="translate(316.210938 0)"/>
      <use xlink:href="#DejaVuSans-34" transform="translate(347.998047 0)"/>
      <use xlink:href="#DejaVuSans-35" transform="translate(411.621094 0)"/>
      <use xlink:href="#DejaVuSans-36" transform="translate(475.244141 0)"/>
      <use xlink:href="#DejaVuSans-36" transform="translate(538.867188 0)"/>
      <use xlink:href="#DejaVuSans-30" transform="translate(602.490234 0)"/>
      <use xlink:href="#DejaVuSans-37" transform="translate(666.113281 0)"/>
      <use xlink:href="#DejaVuSans-20" transform="translate(729.736328 0)"/>
      <use xlink:href="#DejaVuSans-45" transform="translate(761.523438 0)"/>
      <use xlink:href="#DejaVuSans-68" transform="translate(824.707031 0)"/>
     </g>
    </g>
    <g id="line2d_46">
     <path d="M 422.529375 161.401563 
L 432.529375 161.401563 
L 442.529375 161.401563 
" style="fill: none; stroke: #17becf; stroke-width: 1.5; stroke-linecap: square"/>
    </g>
    <g id="text_28">
     <!--  Ne -127.490741 Eh -->
     <g transform="translate(450.529375 164.901563) scale(0.1 -0.1)">
      <use xlink:href="#DejaVuSans-20"/>
      <use xlink:href="#DejaVuSans-4e" transform="translate(31.787109 0)"/>
      <use xlink:href="#DejaVuSans-65" transform="translate(106.591797 0)"/>
      <use xlink:href="#DejaVuSans-20" transform="translate(168.115234 0)"/>
      <use xlink:href="#DejaVuSans-2d" transform="translate(199.902344 0)"/>
      <use xlink:href="#DejaVuSans-31" transform="translate(235.986328 0)"/>
      <use xlink:href="#DejaVuSans-32" transform="translate(299.609375 0)"/>
      <use xlink:href="#DejaVuSans-37" transform="translate(363.232422 0)"/>
      <use xlink:href="#DejaVuSans-2e" transform="translate(426.855469 0)"/>
      <use xlink:href="#DejaVuSans-34" transform="translate(458.642578 0)"/>
      <use xlink:href="#DejaVuSans-39" transform="translate(522.265625 0)"/>
      <use xlink:href="#DejaVuSans-30" transform="translate(585.888672 0)"/>
      <use xlink:href="#DejaVuSans-37" transform="translate(649.511719 0)"/>
      <use xlink:href="#DejaVuSans-34" transform="translate(713.134766 0)"/>
      <use xlink:href="#DejaVuSans-31" transform="translate(776.757812 0)"/>
      <use xlink:href="#DejaVuSans-20" transform="translate(840.380859 0)"/>
      <use xlink:href="#DejaVuSans-45" transform="translate(872.167969 0)"/>
      <use xlink:href="#DejaVuSans-68" transform="translate(935.351562 0)"/>
     </g>
    </g>
    <g id="line2d_47">
     <path d="M 422.529375 176.079688 
L 432.529375 176.079688 
L 442.529375 176.079688 
" style="fill: none; stroke: #1f77b4; stroke-width: 1.5; stroke-linecap: square"/>
    </g>
    <g id="text_29">
     <!--  Na -160.628227 Eh -->
     <g transform="translate(450.529375 179.579688) scale(0.1 -0.1)">
      <use xlink:href="#DejaVuSans-20"/>
      <use xlink:href="#DejaVuSans-4e" transform="translate(31.787109 0)"/>
      <use xlink:href="#DejaVuSans-61" transform="translate(106.591797 0)"/>
      <use xlink:href="#DejaVuSans-20" transform="translate(167.871094 0)"/>
      <use xlink:href="#DejaVuSans-2d" transform="translate(199.658203 0)"/>
      <use xlink:href="#DejaVuSans-31" transform="translate(235.742188 0)"/>
      <use xlink:href="#DejaVuSans-36" transform="translate(299.365234 0)"/>
      <use xlink:href="#DejaVuSans-30" transform="translate(362.988281 0)"/>
      <use xlink:href="#DejaVuSans-2e" transform="translate(426.611328 0)"/>
      <use xlink:href="#DejaVuSans-36" transform="translate(458.398438 0)"/>
      <use xlink:href="#DejaVuSans-32" transform="translate(522.021484 0)"/>
      <use xlink:href="#DejaVuSans-38" transform="translate(585.644531 0)"/>
      <use xlink:href="#DejaVuSans-32" transform="translate(649.267578 0)"/>
      <use xlink:href="#DejaVuSans-32" transform="translate(712.890625 0)"/>
      <use xlink:href="#DejaVuSans-37" transform="translate(776.513672 0)"/>
      <use xlink:href="#DejaVuSans-20" transform="translate(840.136719 0)"/>
      <use xlink:href="#DejaVuSans-45" transform="translate(871.923828 0)"/>
      <use xlink:href="#DejaVuSans-68" transform="translate(935.107422 0)"/>
     </g>
    </g>
    <g id="line2d_48">
     <path d="M 422.529375 190.757813 
L 432.529375 190.757813 
L 442.529375 190.757813 
" style="fill: none; stroke: #ff7f0e; stroke-width: 1.5; stroke-linecap: square"/>
    </g>
    <g id="text_30">
     <!--  Mg -198.248792 Eh -->
     <g transform="translate(450.529375 194.257813) scale(0.1 -0.1)">
      <defs>
       <path id="DejaVuSans-4d" d="M 628 4666 
L 1569 4666 
L 2759 1491 
L 3956 4666 
L 4897 4666 
L 4897 0 
L 4281 0 
L 4281 4097 
L 3078 897 
L 2444 897 
L 1241 4097 
L 1241 0 
L 628 0 
L 628 4666 
z
" transform="scale(0.015625)"/>
      </defs>
      <use xlink:href="#DejaVuSans-20"/>
      <use xlink:href="#DejaVuSans-4d" transform="translate(31.787109 0)"/>
      <use xlink:href="#DejaVuSans-67" transform="translate(118.066406 0)"/>
      <use xlink:href="#DejaVuSans-20" transform="translate(181.542969 0)"/>
      <use xlink:href="#DejaVuSans-2d" transform="translate(213.330078 0)"/>
      <use xlink:href="#DejaVuSans-31" transform="translate(249.414062 0)"/>
      <use xlink:href="#DejaVuSans-39" transform="translate(313.037109 0)"/>
      <use xlink:href="#DejaVuSans-38" transform="translate(376.660156 0)"/>
      <use xlink:href="#DejaVuSans-2e" transform="translate(440.283203 0)"/>
      <use xlink:href="#DejaVuSans-32" transform="translate(472.070312 0)"/>
      <use xlink:href="#DejaVuSans-34" transform="translate(535.693359 0)"/>
      <use xlink:href="#DejaVuSans-38" transform="translate(599.316406 0)"/>
      <use xlink:href="#DejaVuSans-37" transform="translate(662.939453 0)"/>
      <use xlink:href="#DejaVuSans-39" transform="translate(726.5625 0)"/>
      <use xlink:href="#DejaVuSans-32" transform="translate(790.185547 0)"/>
      <use xlink:href="#DejaVuSans-20" transform="translate(853.808594 0)"/>
      <use xlink:href="#DejaVuSans-45" transform="translate(885.595703 0)"/>
      <use xlink:href="#DejaVuSans-68" transform="translate(948.779297 0)"/>
     </g>
    </g>
    <g id="line2d_49">
     <path d="M 422.529375 205.435938 
L 432.529375 205.435938 
L 442.529375 205.435938 
" style="fill: none; stroke: #2ca02c; stroke-width: 1.5; stroke-linecap: square"/>
    </g>
    <g id="text_31">
     <!--  Al -240.346857 Eh -->
     <g transform="translate(450.529375 208.935938) scale(0.1 -0.1)">
      <defs>
       <path id="DejaVuSans-41" d="M 2188 4044 
L 1331 1722 
L 3047 1722 
L 2188 4044 
z
M 1831 4666 
L 2547 4666 
L 4325 0 
L 3669 0 
L 3244 1197 
L 1141 1197 
L 716 0 
L 50 0 
L 1831 4666 
z
" transform="scale(0.015625)"/>
      </defs>
      <use xlink:href="#DejaVuSans-20"/>
      <use xlink:href="#DejaVuSans-41" transform="translate(31.787109 0)"/>
      <use xlink:href="#DejaVuSans-6c" transform="translate(100.195312 0)"/>
      <use xlink:href="#DejaVuSans-20" transform="translate(127.978516 0)"/>
      <use xlink:href="#DejaVuSans-2d" transform="translate(159.765625 0)"/>
      <use xlink:href="#DejaVuSans-32" transform="translate(195.849609 0)"/>
      <use xlink:href="#DejaVuSans-34" transform="translate(259.472656 0)"/>
      <use xlink:href="#DejaVuSans-30" transform="translate(323.095703 0)"/>
      <use xlink:href="#DejaVuSans-2e" transform="translate(386.71875 0)"/>
      <use xlink:href="#DejaVuSans-33" transform="translate(418.505859 0)"/>
      <use xlink:href="#DejaVuSans-34" transform="translate(482.128906 0)"/>
      <use xlink:href="#DejaVuSans-36" transform="translate(545.751953 0)"/>
      <use xlink:href="#DejaVuSans-38" transform="translate(609.375 0)"/>
      <use xlink:href="#DejaVuSans-35" transform="translate(672.998047 0)"/>
      <use xlink:href="#DejaVuSans-37" transform="translate(736.621094 0)"/>
      <use xlink:href="#DejaVuSans-20" transform="translate(800.244141 0)"/>
      <use xlink:href="#DejaVuSans-45" transform="translate(832.03125 0)"/>
      <use xlink:href="#DejaVuSans-68" transform="translate(895.214844 0)"/>
     </g>
    </g>
    <g id="line2d_50">
     <path d="M 422.529375 220.114063 
L 432.529375 220.114063 
L 442.529375 220.114063 
" style="fill: none; stroke: #d62728; stroke-width: 1.5; stroke-linecap: square"/>
    </g>
    <g id="text_32">
     <!--  Si -287.145287 Eh -->
     <g transform="translate(450.529375 223.614063) scale(0.1 -0.1)">
      <defs>
       <path id="DejaVuSans-53" d="M 3425 4513 
L 3425 3897 
Q 3066 4069 2747 4153 
Q 2428 4238 2131 4238 
Q 1616 4238 1336 4038 
Q 1056 3838 1056 3469 
Q 1056 3159 1242 3001 
Q 1428 2844 1947 2747 
L 2328 2669 
Q 3034 2534 3370 2195 
Q 3706 1856 3706 1288 
Q 3706 609 3251 259 
Q 2797 -91 1919 -91 
Q 1588 -91 1214 -16 
Q 841 59 441 206 
L 441 856 
Q 825 641 1194 531 
Q 1563 422 1919 422 
Q 2459 422 2753 634 
Q 3047 847 3047 1241 
Q 3047 1584 2836 1778 
Q 2625 1972 2144 2069 
L 1759 2144 
Q 1053 2284 737 2584 
Q 422 2884 422 3419 
Q 422 4038 858 4394 
Q 1294 4750 2059 4750 
Q 2388 4750 2728 4690 
Q 3069 4631 3425 4513 
z
" transform="scale(0.015625)"/>
      </defs>
      <use xlink:href="#DejaVuSans-20"/>
      <use xlink:href="#DejaVuSans-53" transform="translate(31.787109 0)"/>
      <use xlink:href="#DejaVuSans-69" transform="translate(95.263672 0)"/>
      <use xlink:href="#DejaVuSans-20" transform="translate(123.046875 0)"/>
      <use xlink:href="#DejaVuSans-2d" transform="translate(154.833984 0)"/>
      <use xlink:href="#DejaVuSans-32" transform="translate(190.917969 0)"/>
      <use xlink:href="#DejaVuSans-38" transform="translate(254.541016 0)"/>
      <use xlink:href="#DejaVuSans-37" transform="translate(318.164062 0)"/>
      <use xlink:href="#DejaVuSans-2e" transform="translate(381.787109 0)"/>
      <use xlink:href="#DejaVuSans-31" transform="translate(413.574219 0)"/>
      <use xlink:href="#DejaVuSans-34" transform="translate(477.197266 0)"/>
      <use xlink:href="#DejaVuSans-35" transform="translate(540.820312 0)"/>
      <use xlink:href="#DejaVuSans-32" transform="translate(604.443359 0)"/>
      <use xlink:href="#DejaVuSans-38" transform="translate(668.066406 0)"/>
      <use xlink:href="#DejaVuSans-37" transform="translate(731.689453 0)"/>
      <use xlink:href="#DejaVuSans-20" transform="translate(795.3125 0)"/>
      <use xlink:href="#DejaVuSans-45" transform="translate(827.099609 0)"/>
      <use xlink:href="#DejaVuSans-68" transform="translate(890.283203 0)"/>
     </g>
    </g>
    <g id="line2d_51">
     <path d="M 422.529375 234.792188 
L 432.529375 234.792188 
L 442.529375 234.792188 
" style="fill: none; stroke: #9467bd; stroke-width: 1.5; stroke-linecap: square"/>
    </g>
    <g id="text_33">
     <!--   P -338.804261 Eh -->
     <g transform="translate(450.529375 238.292188) scale(0.1 -0.1)">
      <defs>
       <path id="DejaVuSans-50" d="M 1259 4147 
L 1259 2394 
L 2053 2394 
Q 2494 2394 2734 2622 
Q 2975 2850 2975 3272 
Q 2975 3691 2734 3919 
Q 2494 4147 2053 4147 
L 1259 4147 
z
M 628 4666 
L 2053 4666 
Q 2838 4666 3239 4311 
Q 3641 3956 3641 3272 
Q 3641 2581 3239 2228 
Q 2838 1875 2053 1875 
L 1259 1875 
L 1259 0 
L 628 0 
L 628 4666 
z
" transform="scale(0.015625)"/>
      </defs>
      <use xlink:href="#DejaVuSans-20"/>
      <use xlink:href="#DejaVuSans-20" transform="translate(31.787109 0)"/>
      <use xlink:href="#DejaVuSans-50" transform="translate(63.574219 0)"/>
      <use xlink:href="#DejaVuSans-20" transform="translate(123.876953 0)"/>
      <use xlink:href="#DejaVuSans-2d" transform="translate(155.664062 0)"/>
      <use xlink:href="#DejaVuSans-33" transform="translate(191.748047 0)"/>
      <use xlink:href="#DejaVuSans-33" transform="translate(255.371094 0)"/>
      <use xlink:href="#DejaVuSans-38" transform="translate(318.994141 0)"/>
      <use xlink:href="#DejaVuSans-2e" transform="translate(382.617188 0)"/>
      <use xlink:href="#DejaVuSans-38" transform="translate(414.404297 0)"/>
      <use xlink:href="#DejaVuSans-30" transform="translate(478.027344 0)"/>
      <use xlink:href="#DejaVuSans-34" transform="translate(541.650391 0)"/>
      <use xlink:href="#DejaVuSans-32" transform="translate(605.273438 0)"/>
      <use xlink:href="#DejaVuSans-36" transform="translate(668.896484 0)"/>
      <use xlink:href="#DejaVuSans-31" transform="translate(732.519531 0)"/>
      <use xlink:href="#DejaVuSans-20" transform="translate(796.142578 0)"/>
      <use xlink:href="#DejaVuSans-45" transform="translate(827.929688 0)"/>
      <use xlink:href="#DejaVuSans-68" transform="translate(891.113281 0)"/>
     </g>
    </g>
    <g id="line2d_52">
     <path d="M 422.529375 249.470313 
L 432.529375 249.470313 
L 442.529375 249.470313 
" style="fill: none; stroke: #8c564b; stroke-width: 1.5; stroke-linecap: square"/>
    </g>
    <g id="text_34">
     <!--   S -395.481608 Eh -->
     <g transform="translate(450.529375 252.970313) scale(0.1 -0.1)">
      <use xlink:href="#DejaVuSans-20"/>
      <use xlink:href="#DejaVuSans-20" transform="translate(31.787109 0)"/>
      <use xlink:href="#DejaVuSans-53" transform="translate(63.574219 0)"/>
      <use xlink:href="#DejaVuSans-20" transform="translate(127.050781 0)"/>
      <use xlink:href="#DejaVuSans-2d" transform="translate(158.837891 0)"/>
      <use xlink:href="#DejaVuSans-33" transform="translate(194.921875 0)"/>
      <use xlink:href="#DejaVuSans-39" transform="translate(258.544922 0)"/>
      <use xlink:href="#DejaVuSans-35" transform="translate(322.167969 0)"/>
      <use xlink:href="#DejaVuSans-2e" transform="translate(385.791016 0)"/>
      <use xlink:href="#DejaVuSans-34" transform="translate(417.578125 0)"/>
      <use xlink:href="#DejaVuSans-38" transform="translate(481.201172 0)"/>
      <use xlink:href="#DejaVuSans-31" transform="translate(544.824219 0)"/>
      <use xlink:href="#DejaVuSans-36" transform="translate(608.447266 0)"/>
      <use xlink:href="#DejaVuSans-30" transform="translate(672.070312 0)"/>
      <use xlink:href="#DejaVuSans-38" transform="translate(735.693359 0)"/>
      <use xlink:href="#DejaVuSans-20" transform="translate(799.316406 0)"/>
      <use xlink:href="#DejaVuSans-45" transform="translate(831.103516 0)"/>
      <use xlink:href="#DejaVuSans-68" transform="translate(894.287109 0)"/>
     </g>
    </g>
    <g id="line2d_53">
     <path d="M 422.529375 264.148438 
L 432.529375 264.148438 
L 442.529375 264.148438 
" style="fill: none; stroke: #e377c2; stroke-width: 1.5; stroke-linecap: square"/>
    </g>
    <g id="text_35">
     <!--  Cl -457.333995 Eh -->
     <g transform="translate(450.529375 267.648438) scale(0.1 -0.1)">
      <use xlink:href="#DejaVuSans-20"/>
      <use xlink:href="#DejaVuSans-43" transform="translate(31.787109 0)"/>
      <use xlink:href="#DejaVuSans-6c" transform="translate(101.611328 0)"/>
      <use xlink:href="#DejaVuSans-20" transform="translate(129.394531 0)"/>
      <use xlink:href="#DejaVuSans-2d" transform="translate(161.181641 0)"/>
      <use xlink:href="#DejaVuSans-34" transform="translate(197.265625 0)"/>
      <use xlink:href="#DejaVuSans-35" transform="translate(260.888672 0)"/>
      <use xlink:href="#DejaVuSans-37" transform="translate(324.511719 0)"/>
      <use xlink:href="#DejaVuSans-2e" transform="translate(388.134766 0)"/>
      <use xlink:href="#DejaVuSans-33" transform="translate(419.921875 0)"/>
      <use xlink:href="#DejaVuSans-33" transform="translate(483.544922 0)"/>
      <use xlink:href="#DejaVuSans-33" transform="translate(547.167969 0)"/>
      <use xlink:href="#DejaVuSans-39" transform="translate(610.791016 0)"/>
      <use xlink:href="#DejaVuSans-39" transform="translate(674.414062 0)"/>
      <use xlink:href="#DejaVuSans-35" transform="translate(738.037109 0)"/>
      <use xlink:href="#DejaVuSans-20" transform="translate(801.660156 0)"/>
      <use xlink:href="#DejaVuSans-45" transform="translate(833.447266 0)"/>
      <use xlink:href="#DejaVuSans-68" transform="translate(896.630859 0)"/>
     </g>
    </g>
    <g id="line2d_54">
     <path d="M 422.529375 278.826563 
L 432.529375 278.826563 
L 442.529375 278.826563 
" style="fill: none; stroke: #7f7f7f; stroke-width: 1.5; stroke-linecap: square"/>
    </g>
    <g id="text_36">
     <!--  Ar -524.517424 Eh -->
     <g transform="translate(450.529375 282.326563) scale(0.1 -0.1)">
      <use xlink:href="#DejaVuSans-20"/>
      <use xlink:href="#DejaVuSans-41" transform="translate(31.787109 0)"/>
      <use xlink:href="#DejaVuSans-72" transform="translate(100.195312 0)"/>
      <use xlink:href="#DejaVuSans-20" transform="translate(141.308594 0)"/>
      <use xlink:href="#DejaVuSans-2d" transform="translate(173.095703 0)"/>
      <use xlink:href="#DejaVuSans-35" transform="translate(209.179688 0)"/>
      <use xlink:href="#DejaVuSans-32" transform="translate(272.802734 0)"/>
      <use xlink:href="#DejaVuSans-34" transform="translate(336.425781 0)"/>
      <use xlink:href="#DejaVuSans-2e" transform="translate(400.048828 0)"/>
      <use xlink:href="#DejaVuSans-35" transform="translate(431.835938 0)"/>
      <use xlink:href="#DejaVuSans-31" transform="translate(495.458984 0)"/>
      <use xlink:href="#DejaVuSans-37" transform="translate(559.082031 0)"/>
      <use xlink:href="#DejaVuSans-34" transform="translate(622.705078 0)"/>
      <use xlink:href="#DejaVuSans-32" transform="translate(686.328125 0)"/>
      <use xlink:href="#DejaVuSans-34" transform="translate(749.951172 0)"/>
      <use xlink:href="#DejaVuSans-20" transform="translate(813.574219 0)"/>
      <use xlink:href="#DejaVuSans-45" transform="translate(845.361328 0)"/>
      <use xlink:href="#DejaVuSans-68" transform="translate(908.544922 0)"/>
     </g>
    </g>
    <g id="line2d_55">
     <path d="M 422.529375 293.504688 
L 432.529375 293.504688 
L 442.529375 293.504688 
" style="fill: none; stroke: #bcbd22; stroke-width: 1.5; stroke-linecap: square"/>
    </g>
    <g id="text_37">
     <!--   K -596.699049 Eh -->
     <g transform="translate(450.529375 297.004688) scale(0.1 -0.1)">
      <defs>
       <path id="DejaVuSans-4b" d="M 628 4666 
L 1259 4666 
L 1259 2694 
L 3353 4666 
L 4166 4666 
L 1850 2491 
L 4331 0 
L 3500 0 
L 1259 2247 
L 1259 0 
L 628 0 
L 628 4666 
z
" transform="scale(0.015625)"/>
      </defs>
      <use xlink:href="#DejaVuSans-20"/>
      <use xlink:href="#DejaVuSans-20" transform="translate(31.787109 0)"/>
      <use xlink:href="#DejaVuSans-4b" transform="translate(63.574219 0)"/>
      <use xlink:href="#DejaVuSans-20" transform="translate(129.150391 0)"/>
      <use xlink:href="#DejaVuSans-2d" transform="translate(160.9375 0)"/>
      <use xlink:href="#DejaVuSans-35" transform="translate(197.021484 0)"/>
      <use xlink:href="#DejaVuSans-39" transform="translate(260.644531 0)"/>
      <use xlink:href="#DejaVuSans-36" transform="translate(324.267578 0)"/>
      <use xlink:href="#DejaVuSans-2e" transform="translate(387.890625 0)"/>
      <use xlink:href="#DejaVuSans-36" transform="translate(419.677734 0)"/>
      <use xlink:href="#DejaVuSans-39" transform="translate(483.300781 0)"/>
      <use xlink:href="#DejaVuSans-39" transform="translate(546.923828 0)"/>
      <use xlink:href="#DejaVuSans-30" transform="translate(610.546875 0)"/>
      <use xlink:href="#DejaVuSans-34" transform="translate(674.169922 0)"/>
      <use xlink:href="#DejaVuSans-39" transform="translate(737.792969 0)"/>
      <use xlink:href="#DejaVuSans-20" transform="translate(801.416016 0)"/>
      <use xlink:href="#DejaVuSans-45" transform="translate(833.203125 0)"/>
      <use xlink:href="#DejaVuSans-68" transform="translate(896.386719 0)"/>
     </g>
    </g>
    <g id="line2d_56">
     <path d="M 422.529375 308.182813 
L 432.529375 308.182813 
L 442.529375 308.182813 
" style="fill: none; stroke: #17becf; stroke-width: 1.5; stroke-linecap: square"/>
    </g>
    <g id="text_38">
     <!--  Ca -674.160115 Eh -->
     <g transform="translate(450.529375 311.682813) scale(0.1 -0.1)">
      <use xlink:href="#DejaVuSans-20"/>
      <use xlink:href="#DejaVuSans-43" transform="translate(31.787109 0)"/>
      <use xlink:href="#DejaVuSans-61" transform="translate(101.611328 0)"/>
      <use xlink:href="#DejaVuSans-20" transform="translate(162.890625 0)"/>
      <use xlink:href="#DejaVuSans-2d" transform="translate(194.677734 0)"/>
      <use xlink:href="#DejaVuSans-36" transform="translate(230.761719 0)"/>
      <use xlink:href="#DejaVuSans-37" transform="translate(294.384766 0)"/>
      <use xlink:href="#DejaVuSans-34" transform="translate(358.007812 0)"/>
      <use xlink:href="#DejaVuSans-2e" transform="translate(421.630859 0)"/>
      <use xlink:href="#DejaVuSans-31" transform="translate(453.417969 0)"/>
      <use xlink:href="#DejaVuSans-36" transform="translate(517.041016 0)"/>
      <use xlink:href="#DejaVuSans-30" transform="translate(580.664062 0)"/>
      <use xlink:href="#DejaVuSans-31" transform="translate(644.287109 0)"/>
      <use xlink:href="#DejaVuSans-31" transform="translate(707.910156 0)"/>
      <use xlink:href="#DejaVuSans-35" transform="translate(771.533203 0)"/>
      <use xlink:href="#DejaVuSans-20" transform="translate(835.15625 0)"/>
      <use xlink:href="#DejaVuSans-45" transform="translate(866.943359 0)"/>
      <use xlink:href="#DejaVuSans-68" transform="translate(930.126953 0)"/>
     </g>
    </g>
   </g>
  </g>
 </g>
 <defs>
  <clipPath id="p3157751253">
   <rect x="61.85" y="16.2" width="498.895" height="507.76"/>
  </clipPath>
 </defs>
</svg>
