<?xml version="1.0" encoding="utf-8" standalone="no"?>
<!DOCTYPE svg PUBLIC "-//W3C//DTD SVG 1.1//EN"
  "http://www.w3.org/Graphics/SVG/1.1/DTD/svg11.dtd">
<svg xmlns:xlink="http://www.w3.org/1999/xlink" width="432pt" height="648pt" viewBox="0 0 432 648" xmlns="http://www.w3.org/2000/svg" version="1.1">
 <metadata>
  <rdf:RDF xmlns:dc="http://purl.org/dc/elements/1.1/" xmlns:cc="http://creativecommons.org/ns#" xmlns:rdf="http://www.w3.org/1999/02/22-rdf-syntax-ns#">
   <cc:Work>
    <dc:type rdf:resource="http://purl.org/dc/dcmitype/StillImage"/>
    <dc:date>2025-07-31T22:43:18.571177</dc:date>
    <dc:format>image/svg+xml</dc:format>
    <dc:creator>
     <cc:Agent>
      <dc:title>Matplotlib v3.10.0, https://matplotlib.org/</dc:title>
     </cc:Agent>
    </dc:creator>
   </cc:Work>
  </rdf:RDF>
 </metadata>
 <defs>
  <style type="text/css">*{stroke-linejoin: round; stroke-linecap: butt}</style>
 </defs>
 <g id="figure_1">
  <g id="patch_1">
   <path d="M 0 648 
L 432 648 
L 432 0 
L 0 0 
z
" style="fill: #ffffff"/>
  </g>
  <g id="axes_1">
   <g id="patch_2">
    <path d="M 76.79 197.54377 
L 407.016682 197.54377 
L 407.016682 38.16 
L 76.79 38.16 
z
" style="fill: #ffffff"/>
   </g>
   <g id="PathCollection_1">
    <path d="M 91.800304 48.940251 
C 92.737938 48.940251 93.637296 48.567725 94.300304 47.904717 
C 94.963311 47.241709 95.335838 46.342351 95.335838 45.404717 
C 95.335838 44.467082 94.963311 43.567725 94.300304 42.904717 
C 93.637296 42.241709 92.737938 41.869183 91.800304 41.869183 
C 90.862669 41.869183 89.963311 42.241709 89.300304 42.904717 
C 88.637296 43.567725 88.26477 44.467082 88.26477 45.404717 
C 88.26477 46.342351 88.637296 47.241709 89.300304 47.904717 
C 89.963311 48.567725 90.862669 48.940251 91.800304 48.940251 
L 91.800304 48.940251 
z
" clip-path="url(#p9cef888f8e)" style="fill: none; stroke: #0c5fa3"/>
   </g>
   <g id="PathCollection_2">
    <defs>
     <path id="me4eea3d451" d="M 0 1.581139 
C 0.419323 1.581139 0.821528 1.41454 1.118034 1.118034 
C 1.41454 0.821528 1.581139 0.419323 1.581139 0 
C 1.581139 -0.419323 1.41454 -0.821528 1.118034 -1.118034 
C 0.821528 -1.41454 0.419323 -1.581139 0 -1.581139 
C -0.419323 -1.581139 -0.821528 -1.41454 -1.118034 -1.118034 
C -1.41454 -0.821528 -1.581139 -0.419323 -1.581139 0 
C -1.581139 0.419323 -1.41454 0.821528 -1.118034 1.118034 
C -0.821528 1.41454 -0.419323 1.581139 0 1.581139 
z
" style="stroke: #c6e4a1"/>
    </defs>
    <g clip-path="url(#p9cef888f8e)">
     <use xlink:href="#me4eea3d451" x="91.800304" y="45.404717" style="fill: #1f77b4; stroke: #c6e4a1"/>
    </g>
   </g>
   <g id="PathCollection_3">
    <path d="M 151.841519 77.92304 
C 152.779153 77.92304 153.678511 77.550514 154.341519 76.887506 
C 155.004526 76.224499 155.377053 75.325141 155.377053 74.387506 
C 155.377053 73.449872 155.004526 72.550514 154.341519 71.887506 
C 153.678511 71.224499 152.779153 70.851972 151.841519 70.851972 
C 150.903884 70.851972 150.004526 71.224499 149.341519 71.887506 
C 148.678511 72.550514 148.305985 73.449872 148.305985 74.387506 
C 148.305985 75.325141 148.678511 76.224499 149.341519 76.887506 
C 150.004526 77.550514 150.903884 77.92304 151.841519 77.92304 
L 151.841519 77.92304 
z
" clip-path="url(#p9cef888f8e)" style="fill: none; stroke: #d6f48c"/>
   </g>
   <g id="PathCollection_4">
    <defs>
     <path id="mcdd2aeeb67" d="M 0 1.581139 
C 0.419323 1.581139 0.821528 1.41454 1.118034 1.118034 
C 1.41454 0.821528 1.581139 0.419323 1.581139 0 
C 1.581139 -0.419323 1.41454 -0.821528 1.118034 -1.118034 
C 0.821528 -1.41454 0.419323 -1.581139 0 -1.581139 
C -0.419323 -1.581139 -0.821528 -1.41454 -1.118034 -1.118034 
C -1.41454 -0.821528 -1.581139 -0.419323 -1.581139 0 
C -1.581139 0.419323 -1.41454 0.821528 -1.118034 1.118034 
C -0.821528 1.41454 -0.419323 1.581139 0 1.581139 
z
" style="stroke: #cf4679"/>
    </defs>
    <g clip-path="url(#p9cef888f8e)">
     <use xlink:href="#mcdd2aeeb67" x="151.841519" y="74.387506" style="fill: #ff7f0e; stroke: #cf4679"/>
    </g>
   </g>
   <g id="PathCollection_5">
    <path d="M 211.882733 106.902081 
C 212.820368 106.902081 213.719726 106.529555 214.382733 105.866547 
C 215.045741 105.203539 215.418267 104.304182 215.418267 103.366547 
C 215.418267 102.428913 215.045741 101.529555 214.382733 100.866547 
C 213.719726 100.203539 212.820368 99.831013 211.882733 99.831013 
C 210.945099 99.831013 210.045741 100.203539 209.382733 100.866547 
C 208.719726 101.529555 208.3472 102.428913 208.3472 103.366547 
C 208.3472 104.304182 208.719726 105.203539 209.382733 105.866547 
C 210.045741 106.529555 210.945099 106.902081 211.882733 106.902081 
L 211.882733 106.902081 
z
" clip-path="url(#p9cef888f8e)" style="fill: none; stroke: #3c6ca9"/>
   </g>
   <g id="PathCollection_6">
    <defs>
     <path id="mfade5e6d0a" d="M 0 1.581139 
C 0.419323 1.581139 0.821528 1.41454 1.118034 1.118034 
C 1.41454 0.821528 1.581139 0.419323 1.581139 0 
C 1.581139 -0.419323 1.41454 -0.821528 1.118034 -1.118034 
C 0.821528 -1.41454 0.419323 -1.581139 0 -1.581139 
C -0.419323 -1.581139 -0.821528 -1.41454 -1.118034 -1.118034 
C -1.41454 -0.821528 -1.581139 -0.419323 -1.581139 0 
C -1.581139 0.419323 -1.41454 0.821528 -1.118034 1.118034 
C -0.821528 1.41454 -0.419323 1.581139 0 1.581139 
z
" style="stroke: #9644e8"/>
    </defs>
    <g clip-path="url(#p9cef888f8e)">
     <use xlink:href="#mfade5e6d0a" x="211.882733" y="103.366547" style="fill: #2ca02c; stroke: #9644e8"/>
    </g>
   </g>
   <g id="PathCollection_7">
    <path d="M 271.923948 135.880097 
C 272.861583 135.880097 273.760941 135.507571 274.423948 134.844563 
C 275.086956 134.181556 275.459482 133.282198 275.459482 132.344563 
C 275.459482 131.406929 275.086956 130.507571 274.423948 129.844563 
C 273.760941 129.181556 272.861583 128.80903 271.923948 128.80903 
C 270.986314 128.80903 270.086956 129.181556 269.423948 129.844563 
C 268.760941 130.507571 268.388414 131.406929 268.388414 132.344563 
C 268.388414 133.282198 268.760941 134.181556 269.423948 134.844563 
C 270.086956 135.507571 270.986314 135.880097 271.923948 135.880097 
L 271.923948 135.880097 
z
" clip-path="url(#p9cef888f8e)" style="fill: none; stroke: #2602fa"/>
   </g>
   <g id="PathCollection_8">
    <defs>
     <path id="m4ac8bb7781" d="M 0 1.581139 
C 0.419323 1.581139 0.821528 1.41454 1.118034 1.118034 
C 1.41454 0.821528 1.581139 0.419323 1.581139 0 
C 1.581139 -0.419323 1.41454 -0.821528 1.118034 -1.118034 
C 0.821528 -1.41454 0.419323 -1.581139 0 -1.581139 
C -0.419323 -1.581139 -0.821528 -1.41454 -1.118034 -1.118034 
C -1.41454 -0.821528 -1.581139 -0.419323 -1.581139 0 
C -1.581139 0.419323 -1.41454 0.821528 -1.118034 1.118034 
C -0.821528 1.41454 -0.419323 1.581139 0 1.581139 
z
" style="stroke: #5d0258"/>
    </defs>
    <g clip-path="url(#p9cef888f8e)">
     <use xlink:href="#m4ac8bb7781" x="271.923948" y="132.344563" style="fill: #d62728; stroke: #5d0258"/>
    </g>
   </g>
   <g id="PathCollection_9">
    <path d="M 331.965163 164.856314 
C 332.902798 164.856314 333.802156 164.483788 334.465163 163.820781 
C 335.128171 163.157773 335.500697 162.258415 335.500697 161.320781 
C 335.500697 160.383146 335.128171 159.483788 334.465163 158.820781 
C 333.802156 158.157773 332.902798 157.785247 331.965163 157.785247 
C 331.027529 157.785247 330.128171 158.157773 329.465163 158.820781 
C 328.802156 159.483788 328.429629 160.383146 328.429629 161.320781 
C 328.429629 162.258415 328.802156 163.157773 329.465163 163.820781 
C 330.128171 164.483788 331.027529 164.856314 331.965163 164.856314 
L 331.965163 164.856314 
z
" clip-path="url(#p9cef888f8e)" style="fill: none; stroke: #f7a972"/>
   </g>
   <g id="PathCollection_10">
    <defs>
     <path id="mf25c35c9cf" d="M 0 1.581139 
C 0.419323 1.581139 0.821528 1.41454 1.118034 1.118034 
C 1.41454 0.821528 1.581139 0.419323 1.581139 0 
C 1.581139 -0.419323 1.41454 -0.821528 1.118034 -1.118034 
C 0.821528 -1.41454 0.419323 -1.581139 0 -1.581139 
C -0.419323 -1.581139 -0.821528 -1.41454 -1.118034 -1.118034 
C -1.41454 -0.821528 -1.581139 -0.419323 -1.581139 0 
C -1.581139 0.419323 -1.41454 0.821528 -1.118034 1.118034 
C -0.821528 1.41454 -0.419323 1.581139 0 1.581139 
z
" style="stroke: #5ff526"/>
    </defs>
    <g clip-path="url(#p9cef888f8e)">
     <use xlink:href="#mf25c35c9cf" x="331.965163" y="161.320781" style="fill: #9467bd; stroke: #5ff526"/>
    </g>
   </g>
   <g id="PathCollection_11">
    <path d="M 392.006378 193.834587 
C 392.944013 193.834587 393.84337 193.46206 394.506378 192.799053 
C 395.169386 192.136045 395.541912 191.236687 395.541912 190.299053 
C 395.541912 189.361418 395.169386 188.46206 394.506378 187.799053 
C 393.84337 187.136045 392.944013 186.763519 392.006378 186.763519 
C 391.068744 186.763519 390.169386 187.136045 389.506378 187.799053 
C 388.84337 188.46206 388.470844 189.361418 388.470844 190.299053 
C 388.470844 191.236687 388.84337 192.136045 389.506378 192.799053 
C 390.169386 193.46206 391.068744 193.834587 392.006378 193.834587 
L 392.006378 193.834587 
z
" clip-path="url(#p9cef888f8e)" style="fill: none; stroke: #f9c053"/>
   </g>
   <g id="PathCollection_12">
    <defs>
     <path id="m612321192d" d="M 0 1.581139 
C 0.419323 1.581139 0.821528 1.41454 1.118034 1.118034 
C 1.41454 0.821528 1.581139 0.419323 1.581139 0 
C 1.581139 -0.419323 1.41454 -0.821528 1.118034 -1.118034 
C 0.821528 -1.41454 0.419323 -1.581139 0 -1.581139 
C -0.419323 -1.581139 -0.821528 -1.41454 -1.118034 -1.118034 
C -1.41454 -0.821528 -1.581139 -0.419323 -1.581139 0 
C -1.581139 0.419323 -1.41454 0.821528 -1.118034 1.118034 
C -0.821528 1.41454 -0.419323 1.581139 0 1.581139 
z
" style="stroke: #7fd6b3"/>
    </defs>
    <g clip-path="url(#p9cef888f8e)">
     <use xlink:href="#m612321192d" x="392.006378" y="190.299053" style="fill: #8c564b; stroke: #7fd6b3"/>
    </g>
   </g>
   <g id="matplotlib.axis_1">
    <g id="xtick_1">
     <g id="line2d_1">
      <defs>
       <path id="mde9a91768f" d="M 0 0 
L 0 3.5 
" style="stroke: #000000; stroke-width: 0.8"/>
      </defs>
      <g>
       <use xlink:href="#mde9a91768f" x="91.800304" y="197.54377" style="stroke: #000000; stroke-width: 0.8"/>
      </g>
     </g>
    </g>
    <g id="xtick_2">
     <g id="line2d_2">
      <g>
       <use xlink:href="#mde9a91768f" x="151.841519" y="197.54377" style="stroke: #000000; stroke-width: 0.8"/>
      </g>
     </g>
    </g>
    <g id="xtick_3">
     <g id="line2d_3">
      <g>
       <use xlink:href="#mde9a91768f" x="211.882733" y="197.54377" style="stroke: #000000; stroke-width: 0.8"/>
      </g>
     </g>
    </g>
    <g id="xtick_4">
     <g id="line2d_4">
      <g>
       <use xlink:href="#mde9a91768f" x="271.923948" y="197.54377" style="stroke: #000000; stroke-width: 0.8"/>
      </g>
     </g>
    </g>
    <g id="xtick_5">
     <g id="line2d_5">
      <g>
       <use xlink:href="#mde9a91768f" x="331.965163" y="197.54377" style="stroke: #000000; stroke-width: 0.8"/>
      </g>
     </g>
    </g>
    <g id="xtick_6">
     <g id="line2d_6">
      <g>
       <use xlink:href="#mde9a91768f" x="392.006378" y="197.54377" style="stroke: #000000; stroke-width: 0.8"/>
      </g>
     </g>
    </g>
   </g>
   <g id="matplotlib.axis_2">
    <g id="ytick_1">
     <g id="line2d_7">
      <defs>
       <path id="me8d0a951d9" d="M 0 0 
L -3.5 0 
" style="stroke: #000000; stroke-width: 0.8"/>
      </defs>
      <g>
       <use xlink:href="#me8d0a951d9" x="76.79" y="182.699762" style="stroke: #000000; stroke-width: 0.8"/>
      </g>
     </g>
     <g id="text_1">
      <!-- −300 -->
      <g transform="translate(31.335938 188.018668) scale(0.14 -0.14)">
       <defs>
        <path id="DejaVuSans-2212" d="M 678 2272 
L 4684 2272 
L 4684 1741 
L 678 1741 
L 678 2272 
z
" transform="scale(0.015625)"/>
        <path id="DejaVuSans-33" d="M 2597 2516 
Q 3050 2419 3304 2112 
Q 3559 1806 3559 1356 
Q 3559 666 3084 287 
Q 2609 -91 1734 -91 
Q 1441 -91 1130 -33 
Q 819 25 488 141 
L 488 750 
Q 750 597 1062 519 
Q 1375 441 1716 441 
Q 2309 441 2620 675 
Q 2931 909 2931 1356 
Q 2931 1769 2642 2001 
Q 2353 2234 1838 2234 
L 1294 2234 
L 1294 2753 
L 1863 2753 
Q 2328 2753 2575 2939 
Q 2822 3125 2822 3475 
Q 2822 3834 2567 4026 
Q 2313 4219 1838 4219 
Q 1578 4219 1281 4162 
Q 984 4106 628 3988 
L 628 4550 
Q 988 4650 1302 4700 
Q 1616 4750 1894 4750 
Q 2613 4750 3031 4423 
Q 3450 4097 3450 3541 
Q 3450 3153 3228 2886 
Q 3006 2619 2597 2516 
z
" transform="scale(0.015625)"/>
        <path id="DejaVuSans-30" d="M 2034 4250 
Q 1547 4250 1301 3770 
Q 1056 3291 1056 2328 
Q 1056 1369 1301 889 
Q 1547 409 2034 409 
Q 2525 409 2770 889 
Q 3016 1369 3016 2328 
Q 3016 3291 2770 3770 
Q 2525 4250 2034 4250 
z
M 2034 4750 
Q 2819 4750 3233 4129 
Q 3647 3509 3647 2328 
Q 3647 1150 3233 529 
Q 2819 -91 2034 -91 
Q 1250 -91 836 529 
Q 422 1150 422 2328 
Q 422 3509 836 4129 
Q 1250 4750 2034 4750 
z
" transform="scale(0.015625)"/>
       </defs>
       <use xlink:href="#DejaVuSans-2212"/>
       <use xlink:href="#DejaVuSans-33" transform="translate(83.789062 0)"/>
       <use xlink:href="#DejaVuSans-30" transform="translate(147.412109 0)"/>
       <use xlink:href="#DejaVuSans-30" transform="translate(211.035156 0)"/>
      </g>
     </g>
    </g>
    <g id="ytick_2">
     <g id="line2d_8">
      <g>
       <use xlink:href="#me8d0a951d9" x="76.79" y="145.583264" style="stroke: #000000; stroke-width: 0.8"/>
      </g>
     </g>
     <g id="text_2">
      <!-- −250 -->
      <g transform="translate(31.335938 150.90217) scale(0.14 -0.14)">
       <defs>
        <path id="DejaVuSans-32" d="M 1228 531 
L 3431 531 
L 3431 0 
L 469 0 
L 469 531 
Q 828 903 1448 1529 
Q 2069 2156 2228 2338 
Q 2531 2678 2651 2914 
Q 2772 3150 2772 3378 
Q 2772 3750 2511 3984 
Q 2250 4219 1831 4219 
Q 1534 4219 1204 4116 
Q 875 4013 500 3803 
L 500 4441 
Q 881 4594 1212 4672 
Q 1544 4750 1819 4750 
Q 2544 4750 2975 4387 
Q 3406 4025 3406 3419 
Q 3406 3131 3298 2873 
Q 3191 2616 2906 2266 
Q 2828 2175 2409 1742 
Q 1991 1309 1228 531 
z
" transform="scale(0.015625)"/>
        <path id="DejaVuSans-35" d="M 691 4666 
L 3169 4666 
L 3169 4134 
L 1269 4134 
L 1269 2991 
Q 1406 3038 1543 3061 
Q 1681 3084 1819 3084 
Q 2600 3084 3056 2656 
Q 3513 2228 3513 1497 
Q 3513 744 3044 326 
Q 2575 -91 1722 -91 
Q 1428 -91 1123 -41 
Q 819 9 494 109 
L 494 744 
Q 775 591 1075 516 
Q 1375 441 1709 441 
Q 2250 441 2565 725 
Q 2881 1009 2881 1497 
Q 2881 1984 2565 2268 
Q 2250 2553 1709 2553 
Q 1456 2553 1204 2497 
Q 953 2441 691 2322 
L 691 4666 
z
" transform="scale(0.015625)"/>
       </defs>
       <use xlink:href="#DejaVuSans-2212"/>
       <use xlink:href="#DejaVuSans-32" transform="translate(83.789062 0)"/>
       <use xlink:href="#DejaVuSans-35" transform="translate(147.412109 0)"/>
       <use xlink:href="#DejaVuSans-30" transform="translate(211.035156 0)"/>
      </g>
     </g>
    </g>
    <g id="ytick_3">
     <g id="line2d_9">
      <g>
       <use xlink:href="#me8d0a951d9" x="76.79" y="108.466766" style="stroke: #000000; stroke-width: 0.8"/>
      </g>
     </g>
     <g id="text_3">
      <!-- −200 -->
      <g transform="translate(31.335938 113.785672) scale(0.14 -0.14)">
       <use xlink:href="#DejaVuSans-2212"/>
       <use xlink:href="#DejaVuSans-32" transform="translate(83.789062 0)"/>
       <use xlink:href="#DejaVuSans-30" transform="translate(147.412109 0)"/>
       <use xlink:href="#DejaVuSans-30" transform="translate(211.035156 0)"/>
      </g>
     </g>
    </g>
    <g id="ytick_4">
     <g id="line2d_10">
      <g>
       <use xlink:href="#me8d0a951d9" x="76.79" y="71.350267" style="stroke: #000000; stroke-width: 0.8"/>
      </g>
     </g>
     <g id="text_4">
      <!-- −150 -->
      <g transform="translate(31.335938 76.669173) scale(0.14 -0.14)">
       <defs>
        <path id="DejaVuSans-31" d="M 794 531 
L 1825 531 
L 1825 4091 
L 703 3866 
L 703 4441 
L 1819 4666 
L 2450 4666 
L 2450 531 
L 3481 531 
L 3481 0 
L 794 0 
L 794 531 
z
" transform="scale(0.015625)"/>
       </defs>
       <use xlink:href="#DejaVuSans-2212"/>
       <use xlink:href="#DejaVuSans-31" transform="translate(83.789062 0)"/>
       <use xlink:href="#DejaVuSans-35" transform="translate(147.412109 0)"/>
       <use xlink:href="#DejaVuSans-30" transform="translate(211.035156 0)"/>
      </g>
     </g>
    </g>
    <g id="text_5">
     <!-- energy [Eh] -->
     <g transform="translate(24.008437 164.639385) rotate(-90) scale(0.16 -0.16)">
      <defs>
       <path id="DejaVuSans-65" d="M 3597 1894 
L 3597 1613 
L 953 1613 
Q 991 1019 1311 708 
Q 1631 397 2203 397 
Q 2534 397 2845 478 
Q 3156 559 3463 722 
L 3463 178 
Q 3153 47 2828 -22 
Q 2503 -91 2169 -91 
Q 1331 -91 842 396 
Q 353 884 353 1716 
Q 353 2575 817 3079 
Q 1281 3584 2069 3584 
Q 2775 3584 3186 3129 
Q 3597 2675 3597 1894 
z
M 3022 2063 
Q 3016 2534 2758 2815 
Q 2500 3097 2075 3097 
Q 1594 3097 1305 2825 
Q 1016 2553 972 2059 
L 3022 2063 
z
" transform="scale(0.015625)"/>
       <path id="DejaVuSans-6e" d="M 3513 2113 
L 3513 0 
L 2938 0 
L 2938 2094 
Q 2938 2591 2744 2837 
Q 2550 3084 2163 3084 
Q 1697 3084 1428 2787 
Q 1159 2491 1159 1978 
L 1159 0 
L 581 0 
L 581 3500 
L 1159 3500 
L 1159 2956 
Q 1366 3272 1645 3428 
Q 1925 3584 2291 3584 
Q 2894 3584 3203 3211 
Q 3513 2838 3513 2113 
z
" transform="scale(0.015625)"/>
       <path id="DejaVuSans-72" d="M 2631 2963 
Q 2534 3019 2420 3045 
Q 2306 3072 2169 3072 
Q 1681 3072 1420 2755 
Q 1159 2438 1159 1844 
L 1159 0 
L 581 0 
L 581 3500 
L 1159 3500 
L 1159 2956 
Q 1341 3275 1631 3429 
Q 1922 3584 2338 3584 
Q 2397 3584 2469 3576 
Q 2541 3569 2628 3553 
L 2631 2963 
z
" transform="scale(0.015625)"/>
       <path id="DejaVuSans-67" d="M 2906 1791 
Q 2906 2416 2648 2759 
Q 2391 3103 1925 3103 
Q 1463 3103 1205 2759 
Q 947 2416 947 1791 
Q 947 1169 1205 825 
Q 1463 481 1925 481 
Q 2391 481 2648 825 
Q 2906 1169 2906 1791 
z
M 3481 434 
Q 3481 -459 3084 -895 
Q 2688 -1331 1869 -1331 
Q 1566 -1331 1297 -1286 
Q 1028 -1241 775 -1147 
L 775 -588 
Q 1028 -725 1275 -790 
Q 1522 -856 1778 -856 
Q 2344 -856 2625 -561 
Q 2906 -266 2906 331 
L 2906 616 
Q 2728 306 2450 153 
Q 2172 0 1784 0 
Q 1141 0 747 490 
Q 353 981 353 1791 
Q 353 2603 747 3093 
Q 1141 3584 1784 3584 
Q 2172 3584 2450 3431 
Q 2728 3278 2906 2969 
L 2906 3500 
L 3481 3500 
L 3481 434 
z
" transform="scale(0.015625)"/>
       <path id="DejaVuSans-79" d="M 2059 -325 
Q 1816 -950 1584 -1140 
Q 1353 -1331 966 -1331 
L 506 -1331 
L 506 -850 
L 844 -850 
Q 1081 -850 1212 -737 
Q 1344 -625 1503 -206 
L 1606 56 
L 191 3500 
L 800 3500 
L 1894 763 
L 2988 3500 
L 3597 3500 
L 2059 -325 
z
" transform="scale(0.015625)"/>
       <path id="DejaVuSans-20" transform="scale(0.015625)"/>
       <path id="DejaVuSans-5b" d="M 550 4863 
L 1875 4863 
L 1875 4416 
L 1125 4416 
L 1125 -397 
L 1875 -397 
L 1875 -844 
L 550 -844 
L 550 4863 
z
" transform="scale(0.015625)"/>
       <path id="DejaVuSans-45" d="M 628 4666 
L 3578 4666 
L 3578 4134 
L 1259 4134 
L 1259 2753 
L 3481 2753 
L 3481 2222 
L 1259 2222 
L 1259 531 
L 3634 531 
L 3634 0 
L 628 0 
L 628 4666 
z
" transform="scale(0.015625)"/>
       <path id="DejaVuSans-68" d="M 3513 2113 
L 3513 0 
L 2938 0 
L 2938 2094 
Q 2938 2591 2744 2837 
Q 2550 3084 2163 3084 
Q 1697 3084 1428 2787 
Q 1159 2491 1159 1978 
L 1159 0 
L 581 0 
L 581 4863 
L 1159 4863 
L 1159 2956 
Q 1366 3272 1645 3428 
Q 1925 3584 2291 3584 
Q 2894 3584 3203 3211 
Q 3513 2838 3513 2113 
z
" transform="scale(0.015625)"/>
       <path id="DejaVuSans-5d" d="M 1947 4863 
L 1947 -844 
L 622 -844 
L 622 -397 
L 1369 -397 
L 1369 4416 
L 622 4416 
L 622 4863 
L 1947 4863 
z
" transform="scale(0.015625)"/>
      </defs>
      <use xlink:href="#DejaVuSans-65"/>
      <use xlink:href="#DejaVuSans-6e" transform="translate(61.523438 0)"/>
      <use xlink:href="#DejaVuSans-65" transform="translate(124.902344 0)"/>
      <use xlink:href="#DejaVuSans-72" transform="translate(186.425781 0)"/>
      <use xlink:href="#DejaVuSans-67" transform="translate(225.789062 0)"/>
      <use xlink:href="#DejaVuSans-79" transform="translate(289.265625 0)"/>
      <use xlink:href="#DejaVuSans-20" transform="translate(348.445312 0)"/>
      <use xlink:href="#DejaVuSans-5b" transform="translate(380.232422 0)"/>
      <use xlink:href="#DejaVuSans-45" transform="translate(419.246094 0)"/>
      <use xlink:href="#DejaVuSans-68" transform="translate(482.429688 0)"/>
      <use xlink:href="#DejaVuSans-5d" transform="translate(545.808594 0)"/>
     </g>
    </g>
   </g>
   <g id="patch_3">
    <path d="M 76.79 197.54377 
L 76.79 38.16 
" style="fill: none; stroke: #000000; stroke-width: 0.8; stroke-linejoin: miter; stroke-linecap: square"/>
   </g>
   <g id="patch_4">
    <path d="M 407.016682 197.54377 
L 407.016682 38.16 
" style="fill: none; stroke: #000000; stroke-width: 0.8; stroke-linejoin: miter; stroke-linecap: square"/>
   </g>
   <g id="patch_5">
    <path d="M 76.79 197.54377 
L 407.016682 197.54377 
" style="fill: none; stroke: #000000; stroke-width: 0.8; stroke-linejoin: miter; stroke-linecap: square"/>
   </g>
   <g id="patch_6">
    <path d="M 76.79 38.16 
L 407.016682 38.16 
" style="fill: none; stroke: #000000; stroke-width: 0.8; stroke-linejoin: miter; stroke-linecap: square"/>
   </g>
   <g id="legend_1">
    <g id="PathCollection_13">
     <path d="M 359.318244 55.668971 
C 360.255879 55.668971 361.155237 55.296445 361.818244 54.633438 
C 362.481252 53.97043 362.853778 53.071072 362.853778 52.133438 
C 362.853778 51.195803 362.481252 50.296445 361.818244 49.633438 
C 361.155237 48.97043 360.255879 48.597904 359.318244 48.597904 
C 358.38061 48.597904 357.481252 48.97043 356.818244 49.633438 
C 356.155237 50.296445 355.78271 51.195803 355.78271 52.133438 
C 355.78271 53.071072 356.155237 53.97043 356.818244 54.633438 
C 357.481252 55.296445 358.38061 55.668971 359.318244 55.668971 
L 359.318244 55.668971 
z
" style="fill: none; stroke: #0c5fa3"/>
    </g>
    <g id="text_6">
     <!-- me -->
     <g transform="translate(377.318244 54.758438) scale(0.1 -0.1)">
      <defs>
       <path id="DejaVuSans-6d" d="M 3328 2828 
Q 3544 3216 3844 3400 
Q 4144 3584 4550 3584 
Q 5097 3584 5394 3201 
Q 5691 2819 5691 2113 
L 5691 0 
L 5113 0 
L 5113 2094 
Q 5113 2597 4934 2840 
Q 4756 3084 4391 3084 
Q 3944 3084 3684 2787 
Q 3425 2491 3425 1978 
L 3425 0 
L 2847 0 
L 2847 2094 
Q 2847 2600 2669 2842 
Q 2491 3084 2119 3084 
Q 1678 3084 1418 2786 
Q 1159 2488 1159 1978 
L 1159 0 
L 581 0 
L 581 3500 
L 1159 3500 
L 1159 2956 
Q 1356 3278 1631 3431 
Q 1906 3584 2284 3584 
Q 2666 3584 2933 3390 
Q 3200 3197 3328 2828 
z
" transform="scale(0.015625)"/>
      </defs>
      <use xlink:href="#DejaVuSans-6d"/>
      <use xlink:href="#DejaVuSans-65" transform="translate(97.412109 0)"/>
     </g>
    </g>
    <g id="PathCollection_14">
     <g>
      <use xlink:href="#me4eea3d451" x="359.318244" y="66.811563" style="fill: #1f77b4; stroke: #c6e4a1"/>
     </g>
    </g>
    <g id="text_7">
     <!-- psi4 -->
     <g transform="translate(377.318244 69.436563) scale(0.1 -0.1)">
      <defs>
       <path id="DejaVuSans-70" d="M 1159 525 
L 1159 -1331 
L 581 -1331 
L 581 3500 
L 1159 3500 
L 1159 2969 
Q 1341 3281 1617 3432 
Q 1894 3584 2278 3584 
Q 2916 3584 3314 3078 
Q 3713 2572 3713 1747 
Q 3713 922 3314 415 
Q 2916 -91 2278 -91 
Q 1894 -91 1617 61 
Q 1341 213 1159 525 
z
M 3116 1747 
Q 3116 2381 2855 2742 
Q 2594 3103 2138 3103 
Q 1681 3103 1420 2742 
Q 1159 2381 1159 1747 
Q 1159 1113 1420 752 
Q 1681 391 2138 391 
Q 2594 391 2855 752 
Q 3116 1113 3116 1747 
z
" transform="scale(0.015625)"/>
       <path id="DejaVuSans-73" d="M 2834 3397 
L 2834 2853 
Q 2591 2978 2328 3040 
Q 2066 3103 1784 3103 
Q 1356 3103 1142 2972 
Q 928 2841 928 2578 
Q 928 2378 1081 2264 
Q 1234 2150 1697 2047 
L 1894 2003 
Q 2506 1872 2764 1633 
Q 3022 1394 3022 966 
Q 3022 478 2636 193 
Q 2250 -91 1575 -91 
Q 1294 -91 989 -36 
Q 684 19 347 128 
L 347 722 
Q 666 556 975 473 
Q 1284 391 1588 391 
Q 1994 391 2212 530 
Q 2431 669 2431 922 
Q 2431 1156 2273 1281 
Q 2116 1406 1581 1522 
L 1381 1569 
Q 847 1681 609 1914 
Q 372 2147 372 2553 
Q 372 3047 722 3315 
Q 1072 3584 1716 3584 
Q 2034 3584 2315 3537 
Q 2597 3491 2834 3397 
z
" transform="scale(0.015625)"/>
       <path id="DejaVuSans-69" d="M 603 3500 
L 1178 3500 
L 1178 0 
L 603 0 
L 603 3500 
z
M 603 4863 
L 1178 4863 
L 1178 4134 
L 603 4134 
L 603 4863 
z
" transform="scale(0.015625)"/>
       <path id="DejaVuSans-34" d="M 2419 4116 
L 825 1625 
L 2419 1625 
L 2419 4116 
z
M 2253 4666 
L 3047 4666 
L 3047 1625 
L 3713 1625 
L 3713 1100 
L 3047 1100 
L 3047 0 
L 2419 0 
L 2419 1100 
L 313 1100 
L 313 1709 
L 2253 4666 
z
" transform="scale(0.015625)"/>
      </defs>
      <use xlink:href="#DejaVuSans-70"/>
      <use xlink:href="#DejaVuSans-73" transform="translate(63.476562 0)"/>
      <use xlink:href="#DejaVuSans-69" transform="translate(115.576172 0)"/>
      <use xlink:href="#DejaVuSans-34" transform="translate(143.359375 0)"/>
     </g>
    </g>
   </g>
  </g>
  <g id="axes_2">
   <g id="patch_7">
    <path d="M 76.79 382.147539 
L 407.016682 382.147539 
L 407.016682 222.76377 
L 76.79 222.76377 
z
" style="fill: #ffffff"/>
   </g>
   <g id="PathCollection_15">
    <path d="M 91.800304 378.438356 
C 92.737938 378.438356 93.637296 378.06583 94.300304 377.402822 
C 94.963311 376.739814 95.335838 375.840457 95.335838 374.902822 
C 95.335838 373.965188 94.963311 373.06583 94.300304 372.402822 
C 93.637296 371.739814 92.737938 371.367288 91.800304 371.367288 
C 90.862669 371.367288 89.963311 371.739814 89.300304 372.402822 
C 88.637296 373.06583 88.26477 373.965188 88.26477 374.902822 
C 88.26477 375.840457 88.637296 376.739814 89.300304 377.402822 
C 89.963311 378.06583 90.862669 378.438356 91.800304 378.438356 
L 91.800304 378.438356 
z
" clip-path="url(#pf775efd0f5)" style="fill: none; stroke: #81ce85"/>
   </g>
   <g id="PathCollection_16">
    <path d="M 151.841519 374.231482 
C 152.779153 374.231482 153.678511 373.858956 154.341519 373.195948 
C 155.004526 372.53294 155.377053 371.633583 155.377053 370.695948 
C 155.377053 369.758314 155.004526 368.858956 154.341519 368.195948 
C 153.678511 367.53294 152.779153 367.160414 151.841519 367.160414 
C 150.903884 367.160414 150.004526 367.53294 149.341519 368.195948 
C 148.678511 368.858956 148.305985 369.758314 148.305985 370.695948 
C 148.305985 371.633583 148.678511 372.53294 149.341519 373.195948 
C 150.004526 373.858956 150.903884 374.231482 151.841519 374.231482 
L 151.841519 374.231482 
z
" clip-path="url(#pf775efd0f5)" style="fill: none; stroke: #2cb3b2"/>
   </g>
   <g id="PathCollection_17">
    <path d="M 211.882733 364.822531 
C 212.820368 364.822531 213.719726 364.450005 214.382733 363.786997 
C 215.045741 363.123989 215.418267 362.224632 215.418267 361.286997 
C 215.418267 360.349362 215.045741 359.450005 214.382733 358.786997 
C 213.719726 358.123989 212.820368 357.751463 211.882733 357.751463 
C 210.945099 357.751463 210.045741 358.123989 209.382733 358.786997 
C 208.719726 359.450005 208.3472 360.349362 208.3472 361.286997 
C 208.3472 362.224632 208.719726 363.123989 209.382733 363.786997 
C 210.045741 364.450005 210.945099 364.822531 211.882733 364.822531 
L 211.882733 364.822531 
z
" clip-path="url(#pf775efd0f5)" style="fill: none; stroke: #11931f"/>
   </g>
   <g id="PathCollection_18">
    <path d="M 271.923948 339.814838 
C 272.861583 339.814838 273.760941 339.442312 274.423948 338.779305 
C 275.086956 338.116297 275.459482 337.216939 275.459482 336.279305 
C 275.459482 335.34167 275.086956 334.442312 274.423948 333.779305 
C 273.760941 333.116297 272.861583 332.743771 271.923948 332.743771 
C 270.986314 332.743771 270.086956 333.116297 269.423948 333.779305 
C 268.760941 334.442312 268.388414 335.34167 268.388414 336.279305 
C 268.388414 337.216939 268.760941 338.116297 269.423948 338.779305 
C 270.086956 339.442312 270.986314 339.814838 271.923948 339.814838 
L 271.923948 339.814838 
z
" clip-path="url(#pf775efd0f5)" style="fill: none; stroke: #44215b"/>
   </g>
   <g id="PathCollection_19">
    <path d="M 331.965163 298.931528 
C 332.902798 298.931528 333.802156 298.559002 334.465163 297.895994 
C 335.128171 297.232986 335.500697 296.333628 335.500697 295.395994 
C 335.500697 294.458359 335.128171 293.559002 334.465163 292.895994 
C 333.802156 292.232986 332.902798 291.86046 331.965163 291.86046 
C 331.027529 291.86046 330.128171 292.232986 329.465163 292.895994 
C 328.802156 293.559002 328.429629 294.458359 328.429629 295.395994 
C 328.429629 296.333628 328.802156 297.232986 329.465163 297.895994 
C 330.128171 298.559002 331.027529 298.931528 331.965163 298.931528 
L 331.965163 298.931528 
z
" clip-path="url(#pf775efd0f5)" style="fill: none; stroke: #232a94"/>
   </g>
   <g id="PathCollection_20">
    <path d="M 392.006378 233.54402 
C 392.944013 233.54402 393.84337 233.171494 394.506378 232.508486 
C 395.169386 231.845479 395.541912 230.946121 395.541912 230.008486 
C 395.541912 229.070852 395.169386 228.171494 394.506378 227.508486 
C 393.84337 226.845479 392.944013 226.472952 392.006378 226.472952 
C 391.068744 226.472952 390.169386 226.845479 389.506378 227.508486 
C 388.84337 228.171494 388.470844 229.070852 388.470844 230.008486 
C 388.470844 230.946121 388.84337 231.845479 389.506378 232.508486 
C 390.169386 233.171494 391.068744 233.54402 392.006378 233.54402 
L 392.006378 233.54402 
z
" clip-path="url(#pf775efd0f5)" style="fill: none; stroke: #85e061"/>
   </g>
   <g id="matplotlib.axis_3">
    <g id="xtick_7">
     <g id="line2d_11">
      <g>
       <use xlink:href="#mde9a91768f" x="91.800304" y="382.147539" style="stroke: #000000; stroke-width: 0.8"/>
      </g>
     </g>
    </g>
    <g id="xtick_8">
     <g id="line2d_12">
      <g>
       <use xlink:href="#mde9a91768f" x="151.841519" y="382.147539" style="stroke: #000000; stroke-width: 0.8"/>
      </g>
     </g>
    </g>
    <g id="xtick_9">
     <g id="line2d_13">
      <g>
       <use xlink:href="#mde9a91768f" x="211.882733" y="382.147539" style="stroke: #000000; stroke-width: 0.8"/>
      </g>
     </g>
    </g>
    <g id="xtick_10">
     <g id="line2d_14">
      <g>
       <use xlink:href="#mde9a91768f" x="271.923948" y="382.147539" style="stroke: #000000; stroke-width: 0.8"/>
      </g>
     </g>
    </g>
    <g id="xtick_11">
     <g id="line2d_15">
      <g>
       <use xlink:href="#mde9a91768f" x="331.965163" y="382.147539" style="stroke: #000000; stroke-width: 0.8"/>
      </g>
     </g>
    </g>
    <g id="xtick_12">
     <g id="line2d_16">
      <g>
       <use xlink:href="#mde9a91768f" x="392.006378" y="382.147539" style="stroke: #000000; stroke-width: 0.8"/>
      </g>
     </g>
    </g>
   </g>
   <g id="matplotlib.axis_4">
    <g id="ytick_5">
     <g id="line2d_17">
      <g>
       <use xlink:href="#me8d0a951d9" x="76.79" y="376.145273" style="stroke: #000000; stroke-width: 0.8"/>
      </g>
     </g>
     <g id="text_8">
      <!-- 0 -->
      <g transform="translate(60.8825 381.464179) scale(0.14 -0.14)">
       <use xlink:href="#DejaVuSans-30"/>
      </g>
     </g>
    </g>
    <g id="ytick_6">
     <g id="line2d_18">
      <g>
       <use xlink:href="#me8d0a951d9" x="76.79" y="334.771837" style="stroke: #000000; stroke-width: 0.8"/>
      </g>
     </g>
     <g id="text_9">
      <!-- 100 -->
      <g transform="translate(43.0675 340.090744) scale(0.14 -0.14)">
       <use xlink:href="#DejaVuSans-31"/>
       <use xlink:href="#DejaVuSans-30" transform="translate(63.623047 0)"/>
       <use xlink:href="#DejaVuSans-30" transform="translate(127.246094 0)"/>
      </g>
     </g>
    </g>
    <g id="ytick_7">
     <g id="line2d_19">
      <g>
       <use xlink:href="#me8d0a951d9" x="76.79" y="293.398402" style="stroke: #000000; stroke-width: 0.8"/>
      </g>
     </g>
     <g id="text_10">
      <!-- 200 -->
      <g transform="translate(43.0675 298.717308) scale(0.14 -0.14)">
       <use xlink:href="#DejaVuSans-32"/>
       <use xlink:href="#DejaVuSans-30" transform="translate(63.623047 0)"/>
       <use xlink:href="#DejaVuSans-30" transform="translate(127.246094 0)"/>
      </g>
     </g>
    </g>
    <g id="ytick_8">
     <g id="line2d_20">
      <g>
       <use xlink:href="#me8d0a951d9" x="76.79" y="252.024966" style="stroke: #000000; stroke-width: 0.8"/>
      </g>
     </g>
     <g id="text_11">
      <!-- 300 -->
      <g transform="translate(43.0675 257.343872) scale(0.14 -0.14)">
       <use xlink:href="#DejaVuSans-33"/>
       <use xlink:href="#DejaVuSans-30" transform="translate(63.623047 0)"/>
       <use xlink:href="#DejaVuSans-30" transform="translate(127.246094 0)"/>
      </g>
     </g>
    </g>
    <g id="text_12">
     <!-- wall time [sec] -->
     <g transform="translate(35.74 361.235654) rotate(-90) scale(0.16 -0.16)">
      <defs>
       <path id="DejaVuSans-77" d="M 269 3500 
L 844 3500 
L 1563 769 
L 2278 3500 
L 2956 3500 
L 3675 769 
L 4391 3500 
L 4966 3500 
L 4050 0 
L 3372 0 
L 2619 2869 
L 1863 0 
L 1184 0 
L 269 3500 
z
" transform="scale(0.015625)"/>
       <path id="DejaVuSans-61" d="M 2194 1759 
Q 1497 1759 1228 1600 
Q 959 1441 959 1056 
Q 959 750 1161 570 
Q 1363 391 1709 391 
Q 2188 391 2477 730 
Q 2766 1069 2766 1631 
L 2766 1759 
L 2194 1759 
z
M 3341 1997 
L 3341 0 
L 2766 0 
L 2766 531 
Q 2569 213 2275 61 
Q 1981 -91 1556 -91 
Q 1019 -91 701 211 
Q 384 513 384 1019 
Q 384 1609 779 1909 
Q 1175 2209 1959 2209 
L 2766 2209 
L 2766 2266 
Q 2766 2663 2505 2880 
Q 2244 3097 1772 3097 
Q 1472 3097 1187 3025 
Q 903 2953 641 2809 
L 641 3341 
Q 956 3463 1253 3523 
Q 1550 3584 1831 3584 
Q 2591 3584 2966 3190 
Q 3341 2797 3341 1997 
z
" transform="scale(0.015625)"/>
       <path id="DejaVuSans-6c" d="M 603 4863 
L 1178 4863 
L 1178 0 
L 603 0 
L 603 4863 
z
" transform="scale(0.015625)"/>
       <path id="DejaVuSans-74" d="M 1172 4494 
L 1172 3500 
L 2356 3500 
L 2356 3053 
L 1172 3053 
L 1172 1153 
Q 1172 725 1289 603 
Q 1406 481 1766 481 
L 2356 481 
L 2356 0 
L 1766 0 
Q 1100 0 847 248 
Q 594 497 594 1153 
L 594 3053 
L 172 3053 
L 172 3500 
L 594 3500 
L 594 4494 
L 1172 4494 
z
" transform="scale(0.015625)"/>
       <path id="DejaVuSans-63" d="M 3122 3366 
L 3122 2828 
Q 2878 2963 2633 3030 
Q 2388 3097 2138 3097 
Q 1578 3097 1268 2742 
Q 959 2388 959 1747 
Q 959 1106 1268 751 
Q 1578 397 2138 397 
Q 2388 397 2633 464 
Q 2878 531 3122 666 
L 3122 134 
Q 2881 22 2623 -34 
Q 2366 -91 2075 -91 
Q 1284 -91 818 406 
Q 353 903 353 1747 
Q 353 2603 823 3093 
Q 1294 3584 2113 3584 
Q 2378 3584 2631 3529 
Q 2884 3475 3122 3366 
z
" transform="scale(0.015625)"/>
      </defs>
      <use xlink:href="#DejaVuSans-77"/>
      <use xlink:href="#DejaVuSans-61" transform="translate(81.787109 0)"/>
      <use xlink:href="#DejaVuSans-6c" transform="translate(143.066406 0)"/>
      <use xlink:href="#DejaVuSans-6c" transform="translate(170.849609 0)"/>
      <use xlink:href="#DejaVuSans-20" transform="translate(198.632812 0)"/>
      <use xlink:href="#DejaVuSans-74" transform="translate(230.419922 0)"/>
      <use xlink:href="#DejaVuSans-69" transform="translate(269.628906 0)"/>
      <use xlink:href="#DejaVuSans-6d" transform="translate(297.412109 0)"/>
      <use xlink:href="#DejaVuSans-65" transform="translate(394.824219 0)"/>
      <use xlink:href="#DejaVuSans-20" transform="translate(456.347656 0)"/>
      <use xlink:href="#DejaVuSans-5b" transform="translate(488.134766 0)"/>
      <use xlink:href="#DejaVuSans-73" transform="translate(527.148438 0)"/>
      <use xlink:href="#DejaVuSans-65" transform="translate(579.248047 0)"/>
      <use xlink:href="#DejaVuSans-63" transform="translate(640.771484 0)"/>
      <use xlink:href="#DejaVuSans-5d" transform="translate(695.751953 0)"/>
     </g>
    </g>
   </g>
   <g id="patch_8">
    <path d="M 76.79 382.147539 
L 76.79 222.76377 
" style="fill: none; stroke: #000000; stroke-width: 0.8; stroke-linejoin: miter; stroke-linecap: square"/>
   </g>
   <g id="patch_9">
    <path d="M 407.016682 382.147539 
L 407.016682 222.76377 
" style="fill: none; stroke: #000000; stroke-width: 0.8; stroke-linejoin: miter; stroke-linecap: square"/>
   </g>
   <g id="patch_10">
    <path d="M 76.79 382.147539 
L 407.016682 382.147539 
" style="fill: none; stroke: #000000; stroke-width: 0.8; stroke-linejoin: miter; stroke-linecap: square"/>
   </g>
   <g id="patch_11">
    <path d="M 76.79 222.76377 
L 407.016682 222.76377 
" style="fill: none; stroke: #000000; stroke-width: 0.8; stroke-linejoin: miter; stroke-linecap: square"/>
   </g>
   <g id="legend_2">
    <g id="PathCollection_21">
     <path d="M 95.79 240.272741 
C 96.727635 240.272741 97.626992 239.900215 98.29 239.237207 
C 98.953008 238.574199 99.325534 237.674842 99.325534 236.737207 
C 99.325534 235.799572 98.953008 234.900215 98.29 234.237207 
C 97.626992 233.574199 96.727635 233.201673 95.79 233.201673 
C 94.852365 233.201673 93.953008 233.574199 93.29 234.237207 
C 92.626992 234.900215 92.254466 235.799572 92.254466 236.737207 
C 92.254466 237.674842 92.626992 238.574199 93.29 239.237207 
C 93.953008 239.900215 94.852365 240.272741 95.79 240.272741 
L 95.79 240.272741 
z
" style="fill: none; stroke: #81ce85"/>
    </g>
    <g id="text_13">
     <!--  50 cgfs -->
     <g transform="translate(113.79 239.362207) scale(0.1 -0.1)">
      <defs>
       <path id="DejaVuSans-66" d="M 2375 4863 
L 2375 4384 
L 1825 4384 
Q 1516 4384 1395 4259 
Q 1275 4134 1275 3809 
L 1275 3500 
L 2222 3500 
L 2222 3053 
L 1275 3053 
L 1275 0 
L 697 0 
L 697 3053 
L 147 3053 
L 147 3500 
L 697 3500 
L 697 3744 
Q 697 4328 969 4595 
Q 1241 4863 1831 4863 
L 2375 4863 
z
" transform="scale(0.015625)"/>
      </defs>
      <use xlink:href="#DejaVuSans-20"/>
      <use xlink:href="#DejaVuSans-35" transform="translate(31.787109 0)"/>
      <use xlink:href="#DejaVuSans-30" transform="translate(95.410156 0)"/>
      <use xlink:href="#DejaVuSans-20" transform="translate(159.033203 0)"/>
      <use xlink:href="#DejaVuSans-63" transform="translate(190.820312 0)"/>
      <use xlink:href="#DejaVuSans-67" transform="translate(245.800781 0)"/>
      <use xlink:href="#DejaVuSans-66" transform="translate(309.277344 0)"/>
      <use xlink:href="#DejaVuSans-73" transform="translate(344.482422 0)"/>
     </g>
    </g>
    <g id="PathCollection_22">
     <path d="M 95.79 254.950866 
C 96.727635 254.950866 97.626992 254.57834 98.29 253.915332 
C 98.953008 253.252324 99.325534 252.352967 99.325534 251.415332 
C 99.325534 250.477697 98.953008 249.57834 98.29 248.915332 
C 97.626992 248.252324 96.727635 247.879798 95.79 247.879798 
C 94.852365 247.879798 93.953008 248.252324 93.29 248.915332 
C 92.626992 249.57834 92.254466 250.477697 92.254466 251.415332 
C 92.254466 252.352967 92.626992 253.252324 93.29 253.915332 
C 93.953008 254.57834 94.852365 254.950866 95.79 254.950866 
L 95.79 254.950866 
z
" style="fill: none; stroke: #2cb3b2"/>
    </g>
    <g id="text_14">
     <!--  75 cgfs -->
     <g transform="translate(113.79 254.040332) scale(0.1 -0.1)">
      <defs>
       <path id="DejaVuSans-37" d="M 525 4666 
L 3525 4666 
L 3525 4397 
L 1831 0 
L 1172 0 
L 2766 4134 
L 525 4134 
L 525 4666 
z
" transform="scale(0.015625)"/>
      </defs>
      <use xlink:href="#DejaVuSans-20"/>
      <use xlink:href="#DejaVuSans-37" transform="translate(31.787109 0)"/>
      <use xlink:href="#DejaVuSans-35" transform="translate(95.410156 0)"/>
      <use xlink:href="#DejaVuSans-20" transform="translate(159.033203 0)"/>
      <use xlink:href="#DejaVuSans-63" transform="translate(190.820312 0)"/>
      <use xlink:href="#DejaVuSans-67" transform="translate(245.800781 0)"/>
      <use xlink:href="#DejaVuSans-66" transform="translate(309.277344 0)"/>
      <use xlink:href="#DejaVuSans-73" transform="translate(344.482422 0)"/>
     </g>
    </g>
    <g id="PathCollection_23">
     <path d="M 95.79 269.628991 
C 96.727635 269.628991 97.626992 269.256465 98.29 268.593457 
C 98.953008 267.930449 99.325534 267.031092 99.325534 266.093457 
C 99.325534 265.155822 98.953008 264.256465 98.29 263.593457 
C 97.626992 262.930449 96.727635 262.557923 95.79 262.557923 
C 94.852365 262.557923 93.953008 262.930449 93.29 263.593457 
C 92.626992 264.256465 92.254466 265.155822 92.254466 266.093457 
C 92.254466 267.031092 92.626992 267.930449 93.29 268.593457 
C 93.953008 269.256465 94.852365 269.628991 95.79 269.628991 
L 95.79 269.628991 
z
" style="fill: none; stroke: #11931f"/>
    </g>
    <g id="text_15">
     <!-- 100 cgfs -->
     <g transform="translate(113.79 268.718457) scale(0.1 -0.1)">
      <use xlink:href="#DejaVuSans-31"/>
      <use xlink:href="#DejaVuSans-30" transform="translate(63.623047 0)"/>
      <use xlink:href="#DejaVuSans-30" transform="translate(127.246094 0)"/>
      <use xlink:href="#DejaVuSans-20" transform="translate(190.869141 0)"/>
      <use xlink:href="#DejaVuSans-63" transform="translate(222.65625 0)"/>
      <use xlink:href="#DejaVuSans-67" transform="translate(277.636719 0)"/>
      <use xlink:href="#DejaVuSans-66" transform="translate(341.113281 0)"/>
      <use xlink:href="#DejaVuSans-73" transform="translate(376.318359 0)"/>
     </g>
    </g>
    <g id="PathCollection_24">
     <path d="M 95.79 284.307116 
C 96.727635 284.307116 97.626992 283.93459 98.29 283.271582 
C 98.953008 282.608574 99.325534 281.709217 99.325534 280.771582 
C 99.325534 279.833947 98.953008 278.93459 98.29 278.271582 
C 97.626992 277.608574 96.727635 277.236048 95.79 277.236048 
C 94.852365 277.236048 93.953008 277.608574 93.29 278.271582 
C 92.626992 278.93459 92.254466 279.833947 92.254466 280.771582 
C 92.254466 281.709217 92.626992 282.608574 93.29 283.271582 
C 93.953008 283.93459 94.852365 284.307116 95.79 284.307116 
L 95.79 284.307116 
z
" style="fill: none; stroke: #44215b"/>
    </g>
    <g id="text_16">
     <!-- 125 cgfs -->
     <g transform="translate(113.79 283.396582) scale(0.1 -0.1)">
      <use xlink:href="#DejaVuSans-31"/>
      <use xlink:href="#DejaVuSans-32" transform="translate(63.623047 0)"/>
      <use xlink:href="#DejaVuSans-35" transform="translate(127.246094 0)"/>
      <use xlink:href="#DejaVuSans-20" transform="translate(190.869141 0)"/>
      <use xlink:href="#DejaVuSans-63" transform="translate(222.65625 0)"/>
      <use xlink:href="#DejaVuSans-67" transform="translate(277.636719 0)"/>
      <use xlink:href="#DejaVuSans-66" transform="translate(341.113281 0)"/>
      <use xlink:href="#DejaVuSans-73" transform="translate(376.318359 0)"/>
     </g>
    </g>
    <g id="PathCollection_25">
     <path d="M 95.79 298.985241 
C 96.727635 298.985241 97.626992 298.612715 98.29 297.949707 
C 98.953008 297.286699 99.325534 296.387342 99.325534 295.449707 
C 99.325534 294.512072 98.953008 293.612715 98.29 292.949707 
C 97.626992 292.286699 96.727635 291.914173 95.79 291.914173 
C 94.852365 291.914173 93.953008 292.286699 93.29 292.949707 
C 92.626992 293.612715 92.254466 294.512072 92.254466 295.449707 
C 92.254466 296.387342 92.626992 297.286699 93.29 297.949707 
C 93.953008 298.612715 94.852365 298.985241 95.79 298.985241 
L 95.79 298.985241 
z
" style="fill: none; stroke: #232a94"/>
    </g>
    <g id="text_17">
     <!-- 150 cgfs -->
     <g transform="translate(113.79 298.074707) scale(0.1 -0.1)">
      <use xlink:href="#DejaVuSans-31"/>
      <use xlink:href="#DejaVuSans-35" transform="translate(63.623047 0)"/>
      <use xlink:href="#DejaVuSans-30" transform="translate(127.246094 0)"/>
      <use xlink:href="#DejaVuSans-20" transform="translate(190.869141 0)"/>
      <use xlink:href="#DejaVuSans-63" transform="translate(222.65625 0)"/>
      <use xlink:href="#DejaVuSans-67" transform="translate(277.636719 0)"/>
      <use xlink:href="#DejaVuSans-66" transform="translate(341.113281 0)"/>
      <use xlink:href="#DejaVuSans-73" transform="translate(376.318359 0)"/>
     </g>
    </g>
    <g id="PathCollection_26">
     <path d="M 95.79 313.663366 
C 96.727635 313.663366 97.626992 313.29084 98.29 312.627832 
C 98.953008 311.964824 99.325534 311.065467 99.325534 310.127832 
C 99.325534 309.190197 98.953008 308.29084 98.29 307.627832 
C 97.626992 306.964824 96.727635 306.592298 95.79 306.592298 
C 94.852365 306.592298 93.953008 306.964824 93.29 307.627832 
C 92.626992 308.29084 92.254466 309.190197 92.254466 310.127832 
C 92.254466 311.065467 92.626992 311.964824 93.29 312.627832 
C 93.953008 313.29084 94.852365 313.663366 95.79 313.663366 
L 95.79 313.663366 
z
" style="fill: none; stroke: #85e061"/>
    </g>
    <g id="text_18">
     <!-- 175 cgfs -->
     <g transform="translate(113.79 312.752832) scale(0.1 -0.1)">
      <use xlink:href="#DejaVuSans-31"/>
      <use xlink:href="#DejaVuSans-37" transform="translate(63.623047 0)"/>
      <use xlink:href="#DejaVuSans-35" transform="translate(127.246094 0)"/>
      <use xlink:href="#DejaVuSans-20" transform="translate(190.869141 0)"/>
      <use xlink:href="#DejaVuSans-63" transform="translate(222.65625 0)"/>
      <use xlink:href="#DejaVuSans-67" transform="translate(277.636719 0)"/>
      <use xlink:href="#DejaVuSans-66" transform="translate(341.113281 0)"/>
      <use xlink:href="#DejaVuSans-73" transform="translate(376.318359 0)"/>
     </g>
    </g>
   </g>
  </g>
  <g id="axes_3">
   <g id="patch_12">
    <path d="M 76.79 566.751309 
L 407.016682 566.751309 
L 407.016682 407.367539 
L 76.79 407.367539 
z
" style="fill: #ffffff"/>
   </g>
   <g id="PathCollection_27">
    <defs>
     <path id="mae3beb780a" d="M 0 3 
C 0.795609 3 1.55874 2.683901 2.12132 2.12132 
C 2.683901 1.55874 3 0.795609 3 0 
C 3 -0.795609 2.683901 -1.55874 2.12132 -2.12132 
C 1.55874 -2.683901 0.795609 -3 0 -3 
C -0.795609 -3 -1.55874 -2.683901 -2.12132 -2.12132 
C -2.683901 -1.55874 -3 -0.795609 -3 0 
C -3 0.795609 -2.683901 1.55874 -2.12132 2.12132 
C -1.55874 2.683901 -0.795609 3 0 3 
z
" style="stroke: #1f77b4"/>
    </defs>
    <g clip-path="url(#p5daf602886)">
     <use xlink:href="#mae3beb780a" x="91.800304" y="487.25593" style="fill: #1f77b4; stroke: #1f77b4"/>
    </g>
   </g>
   <g id="PathCollection_28">
    <defs>
     <path id="m399d8bc28c" d="M 0 3 
C 0.795609 3 1.55874 2.683901 2.12132 2.12132 
C 2.683901 1.55874 3 0.795609 3 0 
C 3 -0.795609 2.683901 -1.55874 2.12132 -2.12132 
C 1.55874 -2.683901 0.795609 -3 0 -3 
C -0.795609 -3 -1.55874 -2.683901 -2.12132 -2.12132 
C -2.683901 -1.55874 -3 -0.795609 -3 0 
C -3 0.795609 -2.683901 1.55874 -2.12132 2.12132 
C -1.55874 2.683901 -0.795609 3 0 3 
z
" style="stroke: #ff7f0e"/>
    </defs>
    <g clip-path="url(#p5daf602886)">
     <use xlink:href="#m399d8bc28c" x="151.841519" y="493.912235" style="fill: #ff7f0e; stroke: #ff7f0e"/>
    </g>
   </g>
   <g id="PathCollection_29">
    <defs>
     <path id="m94bb25fbe4" d="M 0 3 
C 0.795609 3 1.55874 2.683901 2.12132 2.12132 
C 2.683901 1.55874 3 0.795609 3 0 
C 3 -0.795609 2.683901 -1.55874 2.12132 -2.12132 
C 1.55874 -2.683901 0.795609 -3 0 -3 
C -0.795609 -3 -1.55874 -2.683901 -2.12132 -2.12132 
C -2.683901 -1.55874 -3 -0.795609 -3 0 
C -3 0.795609 -2.683901 1.55874 -2.12132 2.12132 
C -1.55874 2.683901 -0.795609 3 0 3 
z
" style="stroke: #2ca02c"/>
    </defs>
    <g clip-path="url(#p5daf602886)">
     <use xlink:href="#m94bb25fbe4" x="211.882733" y="559.506592" style="fill: #2ca02c; stroke: #2ca02c"/>
    </g>
   </g>
   <g id="PathCollection_30">
    <defs>
     <path id="m0571f2b72a" d="M 0 3 
C 0.795609 3 1.55874 2.683901 2.12132 2.12132 
C 2.683901 1.55874 3 0.795609 3 0 
C 3 -0.795609 2.683901 -1.55874 2.12132 -2.12132 
C 1.55874 -2.683901 0.795609 -3 0 -3 
C -0.795609 -3 -1.55874 -2.683901 -2.12132 -2.12132 
C -2.683901 -1.55874 -3 -0.795609 -3 0 
C -3 0.795609 -2.683901 1.55874 -2.12132 2.12132 
C -1.55874 2.683901 -0.795609 3 0 3 
z
" style="stroke: #d62728"/>
    </defs>
    <g clip-path="url(#p5daf602886)">
     <use xlink:href="#m0571f2b72a" x="271.923948" y="478.202802" style="fill: #d62728; stroke: #d62728"/>
    </g>
   </g>
   <g id="PathCollection_31">
    <defs>
     <path id="m6cb956e376" d="M 0 3 
C 0.795609 3 1.55874 2.683901 2.12132 2.12132 
C 2.683901 1.55874 3 0.795609 3 0 
C 3 -0.795609 2.683901 -1.55874 2.12132 -2.12132 
C 1.55874 -2.683901 0.795609 -3 0 -3 
C -0.795609 -3 -1.55874 -2.683901 -2.12132 -2.12132 
C -2.683901 -1.55874 -3 -0.795609 -3 0 
C -3 0.795609 -2.683901 1.55874 -2.12132 2.12132 
C -1.55874 2.683901 -0.795609 3 0 3 
z
" style="stroke: #9467bd"/>
    </defs>
    <g clip-path="url(#p5daf602886)">
     <use xlink:href="#m6cb956e376" x="331.965163" y="414.612256" style="fill: #9467bd; stroke: #9467bd"/>
    </g>
   </g>
   <g id="PathCollection_32">
    <defs>
     <path id="mfbae4ec679" d="M 0 3 
C 0.795609 3 1.55874 2.683901 2.12132 2.12132 
C 2.683901 1.55874 3 0.795609 3 0 
C 3 -0.795609 2.683901 -1.55874 2.12132 -2.12132 
C 1.55874 -2.683901 0.795609 -3 0 -3 
C -0.795609 -3 -1.55874 -2.683901 -2.12132 -2.12132 
C -2.683901 -1.55874 -3 -0.795609 -3 0 
C -3 0.795609 -2.683901 1.55874 -2.12132 2.12132 
C -1.55874 2.683901 -0.795609 3 0 3 
z
" style="stroke: #8c564b"/>
    </defs>
    <g clip-path="url(#p5daf602886)">
     <use xlink:href="#mfbae4ec679" x="392.006378" y="466.279574" style="fill: #8c564b; stroke: #8c564b"/>
    </g>
   </g>
   <g id="matplotlib.axis_5">
    <g id="xtick_13">
     <g id="line2d_21">
      <g>
       <use xlink:href="#mde9a91768f" x="91.800304" y="566.751309" style="stroke: #000000; stroke-width: 0.8"/>
      </g>
     </g>
     <g id="text_19">
      <!-- methanol -->
      <g transform="translate(71.013685 628.3099) rotate(-45) scale(0.14 -0.14)">
       <defs>
        <path id="DejaVuSans-6f" d="M 1959 3097 
Q 1497 3097 1228 2736 
Q 959 2375 959 1747 
Q 959 1119 1226 758 
Q 1494 397 1959 397 
Q 2419 397 2687 759 
Q 2956 1122 2956 1747 
Q 2956 2369 2687 2733 
Q 2419 3097 1959 3097 
z
M 1959 3584 
Q 2709 3584 3137 3096 
Q 3566 2609 3566 1747 
Q 3566 888 3137 398 
Q 2709 -91 1959 -91 
Q 1206 -91 779 398 
Q 353 888 353 1747 
Q 353 2609 779 3096 
Q 1206 3584 1959 3584 
z
" transform="scale(0.015625)"/>
       </defs>
       <use xlink:href="#DejaVuSans-6d"/>
       <use xlink:href="#DejaVuSans-65" transform="translate(97.412109 0)"/>
       <use xlink:href="#DejaVuSans-74" transform="translate(158.935547 0)"/>
       <use xlink:href="#DejaVuSans-68" transform="translate(198.144531 0)"/>
       <use xlink:href="#DejaVuSans-61" transform="translate(261.523438 0)"/>
       <use xlink:href="#DejaVuSans-6e" transform="translate(322.802734 0)"/>
       <use xlink:href="#DejaVuSans-6f" transform="translate(386.181641 0)"/>
       <use xlink:href="#DejaVuSans-6c" transform="translate(447.363281 0)"/>
      </g>
     </g>
    </g>
    <g id="xtick_14">
     <g id="line2d_22">
      <g>
       <use xlink:href="#mde9a91768f" x="151.841519" y="566.751309" style="stroke: #000000; stroke-width: 0.8"/>
      </g>
     </g>
     <g id="text_20">
      <!-- ethanol -->
      <g transform="translate(135.876263 618.667173) rotate(-45) scale(0.14 -0.14)">
       <use xlink:href="#DejaVuSans-65"/>
       <use xlink:href="#DejaVuSans-74" transform="translate(61.523438 0)"/>
       <use xlink:href="#DejaVuSans-68" transform="translate(100.732422 0)"/>
       <use xlink:href="#DejaVuSans-61" transform="translate(164.111328 0)"/>
       <use xlink:href="#DejaVuSans-6e" transform="translate(225.390625 0)"/>
       <use xlink:href="#DejaVuSans-6f" transform="translate(288.769531 0)"/>
       <use xlink:href="#DejaVuSans-6c" transform="translate(349.951172 0)"/>
      </g>
     </g>
    </g>
    <g id="xtick_15">
     <g id="line2d_23">
      <g>
       <use xlink:href="#mde9a91768f" x="211.882733" y="566.751309" style="stroke: #000000; stroke-width: 0.8"/>
      </g>
     </g>
     <g id="text_21">
      <!-- 1-propanol -->
      <g transform="translate(187.868724 634.76468) rotate(-45) scale(0.14 -0.14)">
       <defs>
        <path id="DejaVuSans-2d" d="M 313 2009 
L 1997 2009 
L 1997 1497 
L 313 1497 
L 313 2009 
z
" transform="scale(0.015625)"/>
       </defs>
       <use xlink:href="#DejaVuSans-31"/>
       <use xlink:href="#DejaVuSans-2d" transform="translate(63.623047 0)"/>
       <use xlink:href="#DejaVuSans-70" transform="translate(99.707031 0)"/>
       <use xlink:href="#DejaVuSans-72" transform="translate(163.183594 0)"/>
       <use xlink:href="#DejaVuSans-6f" transform="translate(202.046875 0)"/>
       <use xlink:href="#DejaVuSans-70" transform="translate(263.228516 0)"/>
       <use xlink:href="#DejaVuSans-61" transform="translate(326.705078 0)"/>
       <use xlink:href="#DejaVuSans-6e" transform="translate(387.984375 0)"/>
       <use xlink:href="#DejaVuSans-6f" transform="translate(451.363281 0)"/>
       <use xlink:href="#DejaVuSans-6c" transform="translate(512.544922 0)"/>
      </g>
     </g>
    </g>
    <g id="xtick_16">
     <g id="line2d_24">
      <g>
       <use xlink:href="#mde9a91768f" x="271.923948" y="566.751309" style="stroke: #000000; stroke-width: 0.8"/>
      </g>
     </g>
     <g id="text_22">
      <!-- 1-butanol -->
      <g transform="translate(250.926965 628.730629) rotate(-45) scale(0.14 -0.14)">
       <defs>
        <path id="DejaVuSans-62" d="M 3116 1747 
Q 3116 2381 2855 2742 
Q 2594 3103 2138 3103 
Q 1681 3103 1420 2742 
Q 1159 2381 1159 1747 
Q 1159 1113 1420 752 
Q 1681 391 2138 391 
Q 2594 391 2855 752 
Q 3116 1113 3116 1747 
z
M 1159 2969 
Q 1341 3281 1617 3432 
Q 1894 3584 2278 3584 
Q 2916 3584 3314 3078 
Q 3713 2572 3713 1747 
Q 3713 922 3314 415 
Q 2916 -91 2278 -91 
Q 1894 -91 1617 61 
Q 1341 213 1159 525 
L 1159 0 
L 581 0 
L 581 4863 
L 1159 4863 
L 1159 2969 
z
" transform="scale(0.015625)"/>
        <path id="DejaVuSans-75" d="M 544 1381 
L 544 3500 
L 1119 3500 
L 1119 1403 
Q 1119 906 1312 657 
Q 1506 409 1894 409 
Q 2359 409 2629 706 
Q 2900 1003 2900 1516 
L 2900 3500 
L 3475 3500 
L 3475 0 
L 2900 0 
L 2900 538 
Q 2691 219 2414 64 
Q 2138 -91 1772 -91 
Q 1169 -91 856 284 
Q 544 659 544 1381 
z
M 1991 3584 
L 1991 3584 
z
" transform="scale(0.015625)"/>
       </defs>
       <use xlink:href="#DejaVuSans-31"/>
       <use xlink:href="#DejaVuSans-2d" transform="translate(63.623047 0)"/>
       <use xlink:href="#DejaVuSans-62" transform="translate(99.707031 0)"/>
       <use xlink:href="#DejaVuSans-75" transform="translate(163.183594 0)"/>
       <use xlink:href="#DejaVuSans-74" transform="translate(226.5625 0)"/>
       <use xlink:href="#DejaVuSans-61" transform="translate(265.771484 0)"/>
       <use xlink:href="#DejaVuSans-6e" transform="translate(327.050781 0)"/>
       <use xlink:href="#DejaVuSans-6f" transform="translate(390.429688 0)"/>
       <use xlink:href="#DejaVuSans-6c" transform="translate(451.611328 0)"/>
      </g>
     </g>
    </g>
    <g id="xtick_17">
     <g id="line2d_25">
      <g>
       <use xlink:href="#mde9a91768f" x="331.965163" y="566.751309" style="stroke: #000000; stroke-width: 0.8"/>
      </g>
     </g>
     <g id="text_23">
      <!-- 1-pentanol -->
      <g transform="translate(307.922538 634.821912) rotate(-45) scale(0.14 -0.14)">
       <use xlink:href="#DejaVuSans-31"/>
       <use xlink:href="#DejaVuSans-2d" transform="translate(63.623047 0)"/>
       <use xlink:href="#DejaVuSans-70" transform="translate(99.707031 0)"/>
       <use xlink:href="#DejaVuSans-65" transform="translate(163.183594 0)"/>
       <use xlink:href="#DejaVuSans-6e" transform="translate(224.707031 0)"/>
       <use xlink:href="#DejaVuSans-74" transform="translate(288.085938 0)"/>
       <use xlink:href="#DejaVuSans-61" transform="translate(327.294922 0)"/>
       <use xlink:href="#DejaVuSans-6e" transform="translate(388.574219 0)"/>
       <use xlink:href="#DejaVuSans-6f" transform="translate(451.953125 0)"/>
       <use xlink:href="#DejaVuSans-6c" transform="translate(513.134766 0)"/>
      </g>
     </g>
    </g>
    <g id="xtick_18">
     <g id="line2d_26">
      <g>
       <use xlink:href="#mde9a91768f" x="392.006378" y="566.751309" style="stroke: #000000; stroke-width: 0.8"/>
      </g>
     </g>
     <g id="text_24">
      <!-- 1-hexanol -->
      <g transform="translate(370.203514 630.34239) rotate(-45) scale(0.14 -0.14)">
       <defs>
        <path id="DejaVuSans-78" d="M 3513 3500 
L 2247 1797 
L 3578 0 
L 2900 0 
L 1881 1375 
L 863 0 
L 184 0 
L 1544 1831 
L 300 3500 
L 978 3500 
L 1906 2253 
L 2834 3500 
L 3513 3500 
z
" transform="scale(0.015625)"/>
       </defs>
       <use xlink:href="#DejaVuSans-31"/>
       <use xlink:href="#DejaVuSans-2d" transform="translate(63.623047 0)"/>
       <use xlink:href="#DejaVuSans-68" transform="translate(99.707031 0)"/>
       <use xlink:href="#DejaVuSans-65" transform="translate(163.085938 0)"/>
       <use xlink:href="#DejaVuSans-78" transform="translate(222.859375 0)"/>
       <use xlink:href="#DejaVuSans-61" transform="translate(282.039062 0)"/>
       <use xlink:href="#DejaVuSans-6e" transform="translate(343.318359 0)"/>
       <use xlink:href="#DejaVuSans-6f" transform="translate(406.697266 0)"/>
       <use xlink:href="#DejaVuSans-6c" transform="translate(467.878906 0)"/>
      </g>
     </g>
    </g>
   </g>
   <g id="matplotlib.axis_6">
    <g id="ytick_9">
     <g id="line2d_27">
      <g>
       <use xlink:href="#me8d0a951d9" x="76.79" y="542.560681" style="stroke: #000000; stroke-width: 0.8"/>
      </g>
     </g>
     <g id="text_25">
      <!-- −6 -->
      <g transform="translate(49.150938 547.879588) scale(0.14 -0.14)">
       <defs>
        <path id="DejaVuSans-36" d="M 2113 2584 
Q 1688 2584 1439 2293 
Q 1191 2003 1191 1497 
Q 1191 994 1439 701 
Q 1688 409 2113 409 
Q 2538 409 2786 701 
Q 3034 994 3034 1497 
Q 3034 2003 2786 2293 
Q 2538 2584 2113 2584 
z
M 3366 4563 
L 3366 3988 
Q 3128 4100 2886 4159 
Q 2644 4219 2406 4219 
Q 1781 4219 1451 3797 
Q 1122 3375 1075 2522 
Q 1259 2794 1537 2939 
Q 1816 3084 2150 3084 
Q 2853 3084 3261 2657 
Q 3669 2231 3669 1497 
Q 3669 778 3244 343 
Q 2819 -91 2113 -91 
Q 1303 -91 875 529 
Q 447 1150 447 2328 
Q 447 3434 972 4092 
Q 1497 4750 2381 4750 
Q 2619 4750 2861 4703 
Q 3103 4656 3366 4563 
z
" transform="scale(0.015625)"/>
       </defs>
       <use xlink:href="#DejaVuSans-2212"/>
       <use xlink:href="#DejaVuSans-36" transform="translate(83.789062 0)"/>
      </g>
     </g>
    </g>
    <g id="ytick_10">
     <g id="line2d_28">
      <g>
       <use xlink:href="#me8d0a951d9" x="76.79" y="503.608846" style="stroke: #000000; stroke-width: 0.8"/>
      </g>
     </g>
     <g id="text_26">
      <!-- −4 -->
      <g transform="translate(49.150938 508.927752) scale(0.14 -0.14)">
       <use xlink:href="#DejaVuSans-2212"/>
       <use xlink:href="#DejaVuSans-34" transform="translate(83.789062 0)"/>
      </g>
     </g>
    </g>
    <g id="ytick_11">
     <g id="line2d_29">
      <g>
       <use xlink:href="#me8d0a951d9" x="76.79" y="464.65701" style="stroke: #000000; stroke-width: 0.8"/>
      </g>
     </g>
     <g id="text_27">
      <!-- −2 -->
      <g transform="translate(49.150938 469.975917) scale(0.14 -0.14)">
       <use xlink:href="#DejaVuSans-2212"/>
       <use xlink:href="#DejaVuSans-32" transform="translate(83.789062 0)"/>
      </g>
     </g>
    </g>
    <g id="ytick_12">
     <g id="line2d_30">
      <g>
       <use xlink:href="#me8d0a951d9" x="76.79" y="425.705175" style="stroke: #000000; stroke-width: 0.8"/>
      </g>
     </g>
     <g id="text_28">
      <!-- 0 -->
      <g transform="translate(60.8825 431.024081) scale(0.14 -0.14)">
       <use xlink:href="#DejaVuSans-30"/>
      </g>
     </g>
    </g>
    <g id="text_29">
     <!-- psi4 comparison [Eh] -->
     <g transform="translate(41.823437 571.781924) rotate(-90) scale(0.16 -0.16)">
      <use xlink:href="#DejaVuSans-70"/>
      <use xlink:href="#DejaVuSans-73" transform="translate(63.476562 0)"/>
      <use xlink:href="#DejaVuSans-69" transform="translate(115.576172 0)"/>
      <use xlink:href="#DejaVuSans-34" transform="translate(143.359375 0)"/>
      <use xlink:href="#DejaVuSans-20" transform="translate(206.982422 0)"/>
      <use xlink:href="#DejaVuSans-63" transform="translate(238.769531 0)"/>
      <use xlink:href="#DejaVuSans-6f" transform="translate(293.75 0)"/>
      <use xlink:href="#DejaVuSans-6d" transform="translate(354.931641 0)"/>
      <use xlink:href="#DejaVuSans-70" transform="translate(452.34375 0)"/>
      <use xlink:href="#DejaVuSans-61" transform="translate(515.820312 0)"/>
      <use xlink:href="#DejaVuSans-72" transform="translate(577.099609 0)"/>
      <use xlink:href="#DejaVuSans-69" transform="translate(618.212891 0)"/>
      <use xlink:href="#DejaVuSans-73" transform="translate(645.996094 0)"/>
      <use xlink:href="#DejaVuSans-6f" transform="translate(698.095703 0)"/>
      <use xlink:href="#DejaVuSans-6e" transform="translate(759.277344 0)"/>
      <use xlink:href="#DejaVuSans-20" transform="translate(822.65625 0)"/>
      <use xlink:href="#DejaVuSans-5b" transform="translate(854.443359 0)"/>
      <use xlink:href="#DejaVuSans-45" transform="translate(893.457031 0)"/>
      <use xlink:href="#DejaVuSans-68" transform="translate(956.640625 0)"/>
      <use xlink:href="#DejaVuSans-5d" transform="translate(1020.019531 0)"/>
     </g>
    </g>
    <g id="text_30">
     <!-- 1e−10 -->
     <g transform="translate(76.79 404.367539) scale(0.1 -0.1)">
      <use xlink:href="#DejaVuSans-31"/>
      <use xlink:href="#DejaVuSans-65" transform="translate(63.623047 0)"/>
      <use xlink:href="#DejaVuSans-2212" transform="translate(125.146484 0)"/>
      <use xlink:href="#DejaVuSans-31" transform="translate(208.935547 0)"/>
      <use xlink:href="#DejaVuSans-30" transform="translate(272.558594 0)"/>
     </g>
    </g>
   </g>
   <g id="patch_13">
    <path d="M 76.79 566.751309 
L 76.79 407.367539 
" style="fill: none; stroke: #000000; stroke-width: 0.8; stroke-linejoin: miter; stroke-linecap: square"/>
   </g>
   <g id="patch_14">
    <path d="M 407.016682 566.751309 
L 407.016682 407.367539 
" style="fill: none; stroke: #000000; stroke-width: 0.8; stroke-linejoin: miter; stroke-linecap: square"/>
   </g>
   <g id="patch_15">
    <path d="M 76.79 566.751309 
L 407.016682 566.751309 
" style="fill: none; stroke: #000000; stroke-width: 0.8; stroke-linejoin: miter; stroke-linecap: square"/>
   </g>
   <g id="patch_16">
    <path d="M 76.79 407.367539 
L 407.016682 407.367539 
" style="fill: none; stroke: #000000; stroke-width: 0.8; stroke-linejoin: miter; stroke-linecap: square"/>
   </g>
  </g>
  <g id="text_31">
   <!-- Alcohols -->
   <g transform="translate(182.65625 25.1175) scale(0.16 -0.16)">
    <defs>
     <path id="DejaVuSans-41" d="M 2188 4044 
L 1331 1722 
L 3047 1722 
L 2188 4044 
z
M 1831 4666 
L 2547 4666 
L 4325 0 
L 3669 0 
L 3244 1197 
L 1141 1197 
L 716 0 
L 50 0 
L 1831 4666 
z
" transform="scale(0.015625)"/>
    </defs>
    <use xlink:href="#DejaVuSans-41"/>
    <use xlink:href="#DejaVuSans-6c" transform="translate(68.408203 0)"/>
    <use xlink:href="#DejaVuSans-63" transform="translate(96.191406 0)"/>
    <use xlink:href="#DejaVuSans-6f" transform="translate(151.171875 0)"/>
    <use xlink:href="#DejaVuSans-68" transform="translate(212.353516 0)"/>
    <use xlink:href="#DejaVuSans-6f" transform="translate(275.732422 0)"/>
    <use xlink:href="#DejaVuSans-6c" transform="translate(336.914062 0)"/>
    <use xlink:href="#DejaVuSans-73" transform="translate(364.697266 0)"/>
   </g>
  </g>
 </g>
 <defs>
  <clipPath id="p9cef888f8e">
   <rect x="76.79" y="38.16" width="330.226682" height="159.38377"/>
  </clipPath>
  <clipPath id="pf775efd0f5">
   <rect x="76.79" y="222.76377" width="330.226682" height="159.38377"/>
  </clipPath>
  <clipPath id="p5daf602886">
   <rect x="76.79" y="407.367539" width="330.226682" height="159.38377"/>
  </clipPath>
 </defs>
</svg>
