<?xml version="1.0" encoding="utf-8" standalone="no"?>
<!DOCTYPE svg PUBLIC "-//W3C//DTD SVG 1.1//EN"
  "http://www.w3.org/Graphics/SVG/1.1/DTD/svg11.dtd">
<svg xmlns:xlink="http://www.w3.org/1999/xlink" width="432pt" height="648pt" viewBox="0 0 432 648" xmlns="http://www.w3.org/2000/svg" version="1.1">
 <metadata>
  <rdf:RDF xmlns:dc="http://purl.org/dc/elements/1.1/" xmlns:cc="http://creativecommons.org/ns#" xmlns:rdf="http://www.w3.org/1999/02/22-rdf-syntax-ns#">
   <cc:Work>
    <dc:type rdf:resource="http://purl.org/dc/dcmitype/StillImage"/>
    <dc:date>2025-07-31T22:44:20.271519</dc:date>
    <dc:format>image/svg+xml</dc:format>
    <dc:creator>
     <cc:Agent>
      <dc:title>Matplotlib v3.10.0, https://matplotlib.org/</dc:title>
     </cc:Agent>
    </dc:creator>
   </cc:Work>
  </rdf:RDF>
 </metadata>
 <defs>
  <style type="text/css">*{stroke-linejoin: round; stroke-linecap: butt}</style>
 </defs>
 <g id="figure_1">
  <g id="patch_1">
   <path d="M 0 648 
L 432 648 
L 432 0 
L 0 0 
z
" style="fill: #ffffff"/>
  </g>
  <g id="axes_1">
   <g id="patch_2">
    <path d="M 76.79 200.72575 
L 413.380643 200.72575 
L 413.380643 38.16 
L 76.79 38.16 
z
" style="fill: #ffffff"/>
   </g>
   <g id="PathCollection_1">
    <path d="M 92.089575 49.084886 
C 93.027209 49.084886 93.926567 48.71236 94.589575 48.049352 
C 95.252582 47.386345 95.625109 46.486987 95.625109 45.549352 
C 95.625109 44.611718 95.252582 43.71236 94.589575 43.049352 
C 93.926567 42.386345 93.027209 42.013818 92.089575 42.013818 
C 91.15194 42.013818 90.252582 42.386345 89.589575 43.049352 
C 88.926567 43.71236 88.554041 44.611718 88.554041 45.549352 
C 88.554041 46.486987 88.926567 47.386345 89.589575 48.049352 
C 90.252582 48.71236 91.15194 49.084886 92.089575 49.084886 
L 92.089575 49.084886 
z
" clip-path="url(#pa55d95e6a9)" style="fill: none; stroke: #215457"/>
   </g>
   <g id="PathCollection_2">
    <defs>
     <path id="m5c579a4132" d="M 0 1.581139 
C 0.419323 1.581139 0.821528 1.41454 1.118034 1.118034 
C 1.41454 0.821528 1.581139 0.419323 1.581139 0 
C 1.581139 -0.419323 1.41454 -0.821528 1.118034 -1.118034 
C 0.821528 -1.41454 0.419323 -1.581139 0 -1.581139 
C -0.419323 -1.581139 -0.821528 -1.41454 -1.118034 -1.118034 
C -1.41454 -0.821528 -1.581139 -0.419323 -1.581139 0 
C -1.581139 0.419323 -1.41454 0.821528 -1.118034 1.118034 
C -0.821528 1.41454 -0.419323 1.581139 0 1.581139 
z
" style="stroke: #dba059"/>
    </defs>
    <g clip-path="url(#pa55d95e6a9)">
     <use xlink:href="#m5c579a4132" x="92.089575" y="45.549352" style="fill: #1f77b4; stroke: #dba059"/>
    </g>
   </g>
   <g id="PathCollection_3">
    <path d="M 153.287873 78.641697 
C 154.225508 78.641697 155.124866 78.269171 155.787873 77.606163 
C 156.450881 76.943155 156.823407 76.043797 156.823407 75.106163 
C 156.823407 74.168528 156.450881 73.269171 155.787873 72.606163 
C 155.124866 71.943155 154.225508 71.570629 153.287873 71.570629 
C 152.350239 71.570629 151.450881 71.943155 150.787873 72.606163 
C 150.124866 73.269171 149.752339 74.168528 149.752339 75.106163 
C 149.752339 76.043797 150.124866 76.943155 150.787873 77.606163 
C 151.450881 78.269171 152.350239 78.641697 153.287873 78.641697 
L 153.287873 78.641697 
z
" clip-path="url(#pa55d95e6a9)" style="fill: none; stroke: #827bfb"/>
   </g>
   <g id="PathCollection_4">
    <defs>
     <path id="m709ff391dd" d="M 0 1.581139 
C 0.419323 1.581139 0.821528 1.41454 1.118034 1.118034 
C 1.41454 0.821528 1.581139 0.419323 1.581139 0 
C 1.581139 -0.419323 1.41454 -0.821528 1.118034 -1.118034 
C 0.821528 -1.41454 0.419323 -1.581139 0 -1.581139 
C -0.419323 -1.581139 -0.821528 -1.41454 -1.118034 -1.118034 
C -1.41454 -0.821528 -1.581139 -0.419323 -1.581139 0 
C -1.581139 0.419323 -1.41454 0.821528 -1.118034 1.118034 
C -0.821528 1.41454 -0.419323 1.581139 0 1.581139 
z
" style="stroke: #2e9dc4"/>
    </defs>
    <g clip-path="url(#pa55d95e6a9)">
     <use xlink:href="#m709ff391dd" x="153.287873" y="75.106163" style="fill: #ff7f0e; stroke: #2e9dc4"/>
    </g>
   </g>
   <g id="PathCollection_5">
    <path d="M 214.486172 108.199733 
C 215.423807 108.199733 216.323164 107.827207 216.986172 107.164199 
C 217.64918 106.501192 218.021706 105.601834 218.021706 104.664199 
C 218.021706 103.726565 217.64918 102.827207 216.986172 102.164199 
C 216.323164 101.501192 215.423807 101.128665 214.486172 101.128665 
C 213.548538 101.128665 212.64918 101.501192 211.986172 102.164199 
C 211.323164 102.827207 210.950638 103.726565 210.950638 104.664199 
C 210.950638 105.601834 211.323164 106.501192 211.986172 107.164199 
C 212.64918 107.827207 213.548538 108.199733 214.486172 108.199733 
L 214.486172 108.199733 
z
" clip-path="url(#pa55d95e6a9)" style="fill: none; stroke: #11e9bc"/>
   </g>
   <g id="PathCollection_6">
    <defs>
     <path id="mf960206187" d="M 0 1.581139 
C 0.419323 1.581139 0.821528 1.41454 1.118034 1.118034 
C 1.41454 0.821528 1.581139 0.419323 1.581139 0 
C 1.581139 -0.419323 1.41454 -0.821528 1.118034 -1.118034 
C 0.821528 -1.41454 0.419323 -1.581139 0 -1.581139 
C -0.419323 -1.581139 -0.821528 -1.41454 -1.118034 -1.118034 
C -1.41454 -0.821528 -1.581139 -0.419323 -1.581139 0 
C -1.581139 0.419323 -1.41454 0.821528 -1.118034 1.118034 
C -0.821528 1.41454 -0.419323 1.581139 0 1.581139 
z
" style="stroke: #4061f1"/>
    </defs>
    <g clip-path="url(#pa55d95e6a9)">
     <use xlink:href="#mf960206187" x="214.486172" y="104.664199" style="fill: #2ca02c; stroke: #4061f1"/>
    </g>
   </g>
   <g id="PathCollection_7">
    <path d="M 275.684471 137.756436 
C 276.622105 137.756436 277.521463 137.38391 278.184471 136.720902 
C 278.847479 136.057894 279.220005 135.158537 279.220005 134.220902 
C 279.220005 133.283268 278.847479 132.38391 278.184471 131.720902 
C 277.521463 131.057894 276.622105 130.685368 275.684471 130.685368 
C 274.746836 130.685368 273.847479 131.057894 273.184471 131.720902 
C 272.521463 132.38391 272.148937 133.283268 272.148937 134.220902 
C 272.148937 135.158537 272.521463 136.057894 273.184471 136.720902 
C 273.847479 137.38391 274.746836 137.756436 275.684471 137.756436 
L 275.684471 137.756436 
z
" clip-path="url(#pa55d95e6a9)" style="fill: none; stroke: #d29f47"/>
   </g>
   <g id="PathCollection_8">
    <defs>
     <path id="m71729396ee" d="M 0 1.581139 
C 0.419323 1.581139 0.821528 1.41454 1.118034 1.118034 
C 1.41454 0.821528 1.581139 0.419323 1.581139 0 
C 1.581139 -0.419323 1.41454 -0.821528 1.118034 -1.118034 
C 0.821528 -1.41454 0.419323 -1.581139 0 -1.581139 
C -0.419323 -1.581139 -0.821528 -1.41454 -1.118034 -1.118034 
C -1.41454 -0.821528 -1.581139 -0.419323 -1.581139 0 
C -1.581139 0.419323 -1.41454 0.821528 -1.118034 1.118034 
C -0.821528 1.41454 -0.419323 1.581139 0 1.581139 
z
" style="stroke: #8f6a65"/>
    </defs>
    <g clip-path="url(#pa55d95e6a9)">
     <use xlink:href="#m71729396ee" x="275.684471" y="134.220902" style="fill: #d62728; stroke: #8f6a65"/>
    </g>
   </g>
   <g id="PathCollection_9">
    <path d="M 336.88277 167.314173 
C 337.820404 167.314173 338.719762 166.941647 339.38277 166.278639 
C 340.045777 165.615631 340.418303 164.716274 340.418303 163.778639 
C 340.418303 162.841004 340.045777 161.941647 339.38277 161.278639 
C 338.719762 160.615631 337.820404 160.243105 336.88277 160.243105 
C 335.945135 160.243105 335.045777 160.615631 334.38277 161.278639 
C 333.719762 161.941647 333.347236 162.841004 333.347236 163.778639 
C 333.347236 164.716274 333.719762 165.615631 334.38277 166.278639 
C 335.045777 166.941647 335.945135 167.314173 336.88277 167.314173 
L 336.88277 167.314173 
z
" clip-path="url(#pa55d95e6a9)" style="fill: none; stroke: #e6e9a3"/>
   </g>
   <g id="PathCollection_10">
    <defs>
     <path id="m832b1a41e1" d="M 0 1.581139 
C 0.419323 1.581139 0.821528 1.41454 1.118034 1.118034 
C 1.41454 0.821528 1.581139 0.419323 1.581139 0 
C 1.581139 -0.419323 1.41454 -0.821528 1.118034 -1.118034 
C 0.821528 -1.41454 0.419323 -1.581139 0 -1.581139 
C -0.419323 -1.581139 -0.821528 -1.41454 -1.118034 -1.118034 
C -1.41454 -0.821528 -1.581139 -0.419323 -1.581139 0 
C -1.581139 0.419323 -1.41454 0.821528 -1.118034 1.118034 
C -0.821528 1.41454 -0.419323 1.581139 0 1.581139 
z
" style="stroke: #6cb7ab"/>
    </defs>
    <g clip-path="url(#pa55d95e6a9)">
     <use xlink:href="#m832b1a41e1" x="336.88277" y="163.778639" style="fill: #9467bd; stroke: #6cb7ab"/>
    </g>
   </g>
   <g id="PathCollection_11">
    <path d="M 398.081068 196.871932 
C 399.018703 196.871932 399.91806 196.499405 400.581068 195.836398 
C 401.244076 195.17339 401.616602 194.274032 401.616602 193.336398 
C 401.616602 192.398763 401.244076 191.499405 400.581068 190.836398 
C 399.91806 190.17339 399.018703 189.800864 398.081068 189.800864 
C 397.143434 189.800864 396.244076 190.17339 395.581068 190.836398 
C 394.91806 191.499405 394.545534 192.398763 394.545534 193.336398 
C 394.545534 194.274032 394.91806 195.17339 395.581068 195.836398 
C 396.244076 196.499405 397.143434 196.871932 398.081068 196.871932 
L 398.081068 196.871932 
z
" clip-path="url(#pa55d95e6a9)" style="fill: none; stroke: #5f435e"/>
   </g>
   <g id="PathCollection_12">
    <defs>
     <path id="ma79bc96717" d="M 0 1.581139 
C 0.419323 1.581139 0.821528 1.41454 1.118034 1.118034 
C 1.41454 0.821528 1.581139 0.419323 1.581139 0 
C 1.581139 -0.419323 1.41454 -0.821528 1.118034 -1.118034 
C 0.821528 -1.41454 0.419323 -1.581139 0 -1.581139 
C -0.419323 -1.581139 -0.821528 -1.41454 -1.118034 -1.118034 
C -1.41454 -0.821528 -1.581139 -0.419323 -1.581139 0 
C -1.581139 0.419323 -1.41454 0.821528 -1.118034 1.118034 
C -0.821528 1.41454 -0.419323 1.581139 0 1.581139 
z
" style="stroke: #0e7572"/>
    </defs>
    <g clip-path="url(#pa55d95e6a9)">
     <use xlink:href="#ma79bc96717" x="398.081068" y="193.336398" style="fill: #8c564b; stroke: #0e7572"/>
    </g>
   </g>
   <g id="matplotlib.axis_1">
    <g id="xtick_1">
     <g id="line2d_1">
      <defs>
       <path id="m5fe81229f6" d="M 0 0 
L 0 3.5 
" style="stroke: #000000; stroke-width: 0.8"/>
      </defs>
      <g>
       <use xlink:href="#m5fe81229f6" x="92.089575" y="200.72575" style="stroke: #000000; stroke-width: 0.8"/>
      </g>
     </g>
    </g>
    <g id="xtick_2">
     <g id="line2d_2">
      <g>
       <use xlink:href="#m5fe81229f6" x="153.287873" y="200.72575" style="stroke: #000000; stroke-width: 0.8"/>
      </g>
     </g>
    </g>
    <g id="xtick_3">
     <g id="line2d_3">
      <g>
       <use xlink:href="#m5fe81229f6" x="214.486172" y="200.72575" style="stroke: #000000; stroke-width: 0.8"/>
      </g>
     </g>
    </g>
    <g id="xtick_4">
     <g id="line2d_4">
      <g>
       <use xlink:href="#m5fe81229f6" x="275.684471" y="200.72575" style="stroke: #000000; stroke-width: 0.8"/>
      </g>
     </g>
    </g>
    <g id="xtick_5">
     <g id="line2d_5">
      <g>
       <use xlink:href="#m5fe81229f6" x="336.88277" y="200.72575" style="stroke: #000000; stroke-width: 0.8"/>
      </g>
     </g>
    </g>
    <g id="xtick_6">
     <g id="line2d_6">
      <g>
       <use xlink:href="#m5fe81229f6" x="398.081068" y="200.72575" style="stroke: #000000; stroke-width: 0.8"/>
      </g>
     </g>
    </g>
   </g>
   <g id="matplotlib.axis_2">
    <g id="ytick_1">
     <g id="line2d_7">
      <defs>
       <path id="m897d7d0116" d="M 0 0 
L -3.5 0 
" style="stroke: #000000; stroke-width: 0.8"/>
      </defs>
      <g>
       <use xlink:href="#m897d7d0116" x="76.79" y="166.54567" style="stroke: #000000; stroke-width: 0.8"/>
      </g>
     </g>
     <g id="text_1">
      <!-- −200 -->
      <g transform="translate(31.335938 171.864576) scale(0.14 -0.14)">
       <defs>
        <path id="DejaVuSans-2212" d="M 678 2272 
L 4684 2272 
L 4684 1741 
L 678 1741 
L 678 2272 
z
" transform="scale(0.015625)"/>
        <path id="DejaVuSans-32" d="M 1228 531 
L 3431 531 
L 3431 0 
L 469 0 
L 469 531 
Q 828 903 1448 1529 
Q 2069 2156 2228 2338 
Q 2531 2678 2651 2914 
Q 2772 3150 2772 3378 
Q 2772 3750 2511 3984 
Q 2250 4219 1831 4219 
Q 1534 4219 1204 4116 
Q 875 4013 500 3803 
L 500 4441 
Q 881 4594 1212 4672 
Q 1544 4750 1819 4750 
Q 2544 4750 2975 4387 
Q 3406 4025 3406 3419 
Q 3406 3131 3298 2873 
Q 3191 2616 2906 2266 
Q 2828 2175 2409 1742 
Q 1991 1309 1228 531 
z
" transform="scale(0.015625)"/>
        <path id="DejaVuSans-30" d="M 2034 4250 
Q 1547 4250 1301 3770 
Q 1056 3291 1056 2328 
Q 1056 1369 1301 889 
Q 1547 409 2034 409 
Q 2525 409 2770 889 
Q 3016 1369 3016 2328 
Q 3016 3291 2770 3770 
Q 2525 4250 2034 4250 
z
M 2034 4750 
Q 2819 4750 3233 4129 
Q 3647 3509 3647 2328 
Q 3647 1150 3233 529 
Q 2819 -91 2034 -91 
Q 1250 -91 836 529 
Q 422 1150 422 2328 
Q 422 3509 836 4129 
Q 1250 4750 2034 4750 
z
" transform="scale(0.015625)"/>
       </defs>
       <use xlink:href="#DejaVuSans-2212"/>
       <use xlink:href="#DejaVuSans-32" transform="translate(83.789062 0)"/>
       <use xlink:href="#DejaVuSans-30" transform="translate(147.412109 0)"/>
       <use xlink:href="#DejaVuSans-30" transform="translate(211.035156 0)"/>
      </g>
     </g>
    </g>
    <g id="ytick_2">
     <g id="line2d_8">
      <g>
       <use xlink:href="#m897d7d0116" x="76.79" y="128.687288" style="stroke: #000000; stroke-width: 0.8"/>
      </g>
     </g>
     <g id="text_2">
      <!-- −150 -->
      <g transform="translate(31.335938 134.006194) scale(0.14 -0.14)">
       <defs>
        <path id="DejaVuSans-31" d="M 794 531 
L 1825 531 
L 1825 4091 
L 703 3866 
L 703 4441 
L 1819 4666 
L 2450 4666 
L 2450 531 
L 3481 531 
L 3481 0 
L 794 0 
L 794 531 
z
" transform="scale(0.015625)"/>
        <path id="DejaVuSans-35" d="M 691 4666 
L 3169 4666 
L 3169 4134 
L 1269 4134 
L 1269 2991 
Q 1406 3038 1543 3061 
Q 1681 3084 1819 3084 
Q 2600 3084 3056 2656 
Q 3513 2228 3513 1497 
Q 3513 744 3044 326 
Q 2575 -91 1722 -91 
Q 1428 -91 1123 -41 
Q 819 9 494 109 
L 494 744 
Q 775 591 1075 516 
Q 1375 441 1709 441 
Q 2250 441 2565 725 
Q 2881 1009 2881 1497 
Q 2881 1984 2565 2268 
Q 2250 2553 1709 2553 
Q 1456 2553 1204 2497 
Q 953 2441 691 2322 
L 691 4666 
z
" transform="scale(0.015625)"/>
       </defs>
       <use xlink:href="#DejaVuSans-2212"/>
       <use xlink:href="#DejaVuSans-31" transform="translate(83.789062 0)"/>
       <use xlink:href="#DejaVuSans-35" transform="translate(147.412109 0)"/>
       <use xlink:href="#DejaVuSans-30" transform="translate(211.035156 0)"/>
      </g>
     </g>
    </g>
    <g id="ytick_3">
     <g id="line2d_9">
      <g>
       <use xlink:href="#m897d7d0116" x="76.79" y="90.828906" style="stroke: #000000; stroke-width: 0.8"/>
      </g>
     </g>
     <g id="text_3">
      <!-- −100 -->
      <g transform="translate(31.335938 96.147812) scale(0.14 -0.14)">
       <use xlink:href="#DejaVuSans-2212"/>
       <use xlink:href="#DejaVuSans-31" transform="translate(83.789062 0)"/>
       <use xlink:href="#DejaVuSans-30" transform="translate(147.412109 0)"/>
       <use xlink:href="#DejaVuSans-30" transform="translate(211.035156 0)"/>
      </g>
     </g>
    </g>
    <g id="ytick_4">
     <g id="line2d_10">
      <g>
       <use xlink:href="#m897d7d0116" x="76.79" y="52.970524" style="stroke: #000000; stroke-width: 0.8"/>
      </g>
     </g>
     <g id="text_4">
      <!-- −50 -->
      <g transform="translate(40.243437 58.28943) scale(0.14 -0.14)">
       <use xlink:href="#DejaVuSans-2212"/>
       <use xlink:href="#DejaVuSans-35" transform="translate(83.789062 0)"/>
       <use xlink:href="#DejaVuSans-30" transform="translate(147.412109 0)"/>
      </g>
     </g>
    </g>
    <g id="text_5">
     <!-- energy [Eh] -->
     <g transform="translate(24.008437 166.230375) rotate(-90) scale(0.16 -0.16)">
      <defs>
       <path id="DejaVuSans-65" d="M 3597 1894 
L 3597 1613 
L 953 1613 
Q 991 1019 1311 708 
Q 1631 397 2203 397 
Q 2534 397 2845 478 
Q 3156 559 3463 722 
L 3463 178 
Q 3153 47 2828 -22 
Q 2503 -91 2169 -91 
Q 1331 -91 842 396 
Q 353 884 353 1716 
Q 353 2575 817 3079 
Q 1281 3584 2069 3584 
Q 2775 3584 3186 3129 
Q 3597 2675 3597 1894 
z
M 3022 2063 
Q 3016 2534 2758 2815 
Q 2500 3097 2075 3097 
Q 1594 3097 1305 2825 
Q 1016 2553 972 2059 
L 3022 2063 
z
" transform="scale(0.015625)"/>
       <path id="DejaVuSans-6e" d="M 3513 2113 
L 3513 0 
L 2938 0 
L 2938 2094 
Q 2938 2591 2744 2837 
Q 2550 3084 2163 3084 
Q 1697 3084 1428 2787 
Q 1159 2491 1159 1978 
L 1159 0 
L 581 0 
L 581 3500 
L 1159 3500 
L 1159 2956 
Q 1366 3272 1645 3428 
Q 1925 3584 2291 3584 
Q 2894 3584 3203 3211 
Q 3513 2838 3513 2113 
z
" transform="scale(0.015625)"/>
       <path id="DejaVuSans-72" d="M 2631 2963 
Q 2534 3019 2420 3045 
Q 2306 3072 2169 3072 
Q 1681 3072 1420 2755 
Q 1159 2438 1159 1844 
L 1159 0 
L 581 0 
L 581 3500 
L 1159 3500 
L 1159 2956 
Q 1341 3275 1631 3429 
Q 1922 3584 2338 3584 
Q 2397 3584 2469 3576 
Q 2541 3569 2628 3553 
L 2631 2963 
z
" transform="scale(0.015625)"/>
       <path id="DejaVuSans-67" d="M 2906 1791 
Q 2906 2416 2648 2759 
Q 2391 3103 1925 3103 
Q 1463 3103 1205 2759 
Q 947 2416 947 1791 
Q 947 1169 1205 825 
Q 1463 481 1925 481 
Q 2391 481 2648 825 
Q 2906 1169 2906 1791 
z
M 3481 434 
Q 3481 -459 3084 -895 
Q 2688 -1331 1869 -1331 
Q 1566 -1331 1297 -1286 
Q 1028 -1241 775 -1147 
L 775 -588 
Q 1028 -725 1275 -790 
Q 1522 -856 1778 -856 
Q 2344 -856 2625 -561 
Q 2906 -266 2906 331 
L 2906 616 
Q 2728 306 2450 153 
Q 2172 0 1784 0 
Q 1141 0 747 490 
Q 353 981 353 1791 
Q 353 2603 747 3093 
Q 1141 3584 1784 3584 
Q 2172 3584 2450 3431 
Q 2728 3278 2906 2969 
L 2906 3500 
L 3481 3500 
L 3481 434 
z
" transform="scale(0.015625)"/>
       <path id="DejaVuSans-79" d="M 2059 -325 
Q 1816 -950 1584 -1140 
Q 1353 -1331 966 -1331 
L 506 -1331 
L 506 -850 
L 844 -850 
Q 1081 -850 1212 -737 
Q 1344 -625 1503 -206 
L 1606 56 
L 191 3500 
L 800 3500 
L 1894 763 
L 2988 3500 
L 3597 3500 
L 2059 -325 
z
" transform="scale(0.015625)"/>
       <path id="DejaVuSans-20" transform="scale(0.015625)"/>
       <path id="DejaVuSans-5b" d="M 550 4863 
L 1875 4863 
L 1875 4416 
L 1125 4416 
L 1125 -397 
L 1875 -397 
L 1875 -844 
L 550 -844 
L 550 4863 
z
" transform="scale(0.015625)"/>
       <path id="DejaVuSans-45" d="M 628 4666 
L 3578 4666 
L 3578 4134 
L 1259 4134 
L 1259 2753 
L 3481 2753 
L 3481 2222 
L 1259 2222 
L 1259 531 
L 3634 531 
L 3634 0 
L 628 0 
L 628 4666 
z
" transform="scale(0.015625)"/>
       <path id="DejaVuSans-68" d="M 3513 2113 
L 3513 0 
L 2938 0 
L 2938 2094 
Q 2938 2591 2744 2837 
Q 2550 3084 2163 3084 
Q 1697 3084 1428 2787 
Q 1159 2491 1159 1978 
L 1159 0 
L 581 0 
L 581 4863 
L 1159 4863 
L 1159 2956 
Q 1366 3272 1645 3428 
Q 1925 3584 2291 3584 
Q 2894 3584 3203 3211 
Q 3513 2838 3513 2113 
z
" transform="scale(0.015625)"/>
       <path id="DejaVuSans-5d" d="M 1947 4863 
L 1947 -844 
L 622 -844 
L 622 -397 
L 1369 -397 
L 1369 4416 
L 622 4416 
L 622 4863 
L 1947 4863 
z
" transform="scale(0.015625)"/>
      </defs>
      <use xlink:href="#DejaVuSans-65"/>
      <use xlink:href="#DejaVuSans-6e" transform="translate(61.523438 0)"/>
      <use xlink:href="#DejaVuSans-65" transform="translate(124.902344 0)"/>
      <use xlink:href="#DejaVuSans-72" transform="translate(186.425781 0)"/>
      <use xlink:href="#DejaVuSans-67" transform="translate(225.789062 0)"/>
      <use xlink:href="#DejaVuSans-79" transform="translate(289.265625 0)"/>
      <use xlink:href="#DejaVuSans-20" transform="translate(348.445312 0)"/>
      <use xlink:href="#DejaVuSans-5b" transform="translate(380.232422 0)"/>
      <use xlink:href="#DejaVuSans-45" transform="translate(419.246094 0)"/>
      <use xlink:href="#DejaVuSans-68" transform="translate(482.429688 0)"/>
      <use xlink:href="#DejaVuSans-5d" transform="translate(545.808594 0)"/>
     </g>
    </g>
   </g>
   <g id="patch_3">
    <path d="M 76.79 200.72575 
L 76.79 38.16 
" style="fill: none; stroke: #000000; stroke-width: 0.8; stroke-linejoin: miter; stroke-linecap: square"/>
   </g>
   <g id="patch_4">
    <path d="M 413.380643 200.72575 
L 413.380643 38.16 
" style="fill: none; stroke: #000000; stroke-width: 0.8; stroke-linejoin: miter; stroke-linecap: square"/>
   </g>
   <g id="patch_5">
    <path d="M 76.79 200.72575 
L 413.380643 200.72575 
" style="fill: none; stroke: #000000; stroke-width: 0.8; stroke-linejoin: miter; stroke-linecap: square"/>
   </g>
   <g id="patch_6">
    <path d="M 76.79 38.16 
L 413.380643 38.16 
" style="fill: none; stroke: #000000; stroke-width: 0.8; stroke-linejoin: miter; stroke-linecap: square"/>
   </g>
   <g id="legend_1">
    <g id="PathCollection_13">
     <path d="M 365.682205 55.668971 
C 366.61984 55.668971 367.519198 55.296445 368.182205 54.633438 
C 368.845213 53.97043 369.217739 53.071072 369.217739 52.133438 
C 369.217739 51.195803 368.845213 50.296445 368.182205 49.633438 
C 367.519198 48.97043 366.61984 48.597904 365.682205 48.597904 
C 364.744571 48.597904 363.845213 48.97043 363.182205 49.633438 
C 362.519198 50.296445 362.146671 51.195803 362.146671 52.133438 
C 362.146671 53.071072 362.519198 53.97043 363.182205 54.633438 
C 363.845213 55.296445 364.744571 55.668971 365.682205 55.668971 
L 365.682205 55.668971 
z
" style="fill: none; stroke: #215457"/>
    </g>
    <g id="text_6">
     <!-- me -->
     <g transform="translate(383.682205 54.758438) scale(0.1 -0.1)">
      <defs>
       <path id="DejaVuSans-6d" d="M 3328 2828 
Q 3544 3216 3844 3400 
Q 4144 3584 4550 3584 
Q 5097 3584 5394 3201 
Q 5691 2819 5691 2113 
L 5691 0 
L 5113 0 
L 5113 2094 
Q 5113 2597 4934 2840 
Q 4756 3084 4391 3084 
Q 3944 3084 3684 2787 
Q 3425 2491 3425 1978 
L 3425 0 
L 2847 0 
L 2847 2094 
Q 2847 2600 2669 2842 
Q 2491 3084 2119 3084 
Q 1678 3084 1418 2786 
Q 1159 2488 1159 1978 
L 1159 0 
L 581 0 
L 581 3500 
L 1159 3500 
L 1159 2956 
Q 1356 3278 1631 3431 
Q 1906 3584 2284 3584 
Q 2666 3584 2933 3390 
Q 3200 3197 3328 2828 
z
" transform="scale(0.015625)"/>
      </defs>
      <use xlink:href="#DejaVuSans-6d"/>
      <use xlink:href="#DejaVuSans-65" transform="translate(97.412109 0)"/>
     </g>
    </g>
    <g id="PathCollection_14">
     <g>
      <use xlink:href="#m5c579a4132" x="365.682205" y="66.811563" style="fill: #1f77b4; stroke: #dba059"/>
     </g>
    </g>
    <g id="text_7">
     <!-- psi4 -->
     <g transform="translate(383.682205 69.436563) scale(0.1 -0.1)">
      <defs>
       <path id="DejaVuSans-70" d="M 1159 525 
L 1159 -1331 
L 581 -1331 
L 581 3500 
L 1159 3500 
L 1159 2969 
Q 1341 3281 1617 3432 
Q 1894 3584 2278 3584 
Q 2916 3584 3314 3078 
Q 3713 2572 3713 1747 
Q 3713 922 3314 415 
Q 2916 -91 2278 -91 
Q 1894 -91 1617 61 
Q 1341 213 1159 525 
z
M 3116 1747 
Q 3116 2381 2855 2742 
Q 2594 3103 2138 3103 
Q 1681 3103 1420 2742 
Q 1159 2381 1159 1747 
Q 1159 1113 1420 752 
Q 1681 391 2138 391 
Q 2594 391 2855 752 
Q 3116 1113 3116 1747 
z
" transform="scale(0.015625)"/>
       <path id="DejaVuSans-73" d="M 2834 3397 
L 2834 2853 
Q 2591 2978 2328 3040 
Q 2066 3103 1784 3103 
Q 1356 3103 1142 2972 
Q 928 2841 928 2578 
Q 928 2378 1081 2264 
Q 1234 2150 1697 2047 
L 1894 2003 
Q 2506 1872 2764 1633 
Q 3022 1394 3022 966 
Q 3022 478 2636 193 
Q 2250 -91 1575 -91 
Q 1294 -91 989 -36 
Q 684 19 347 128 
L 347 722 
Q 666 556 975 473 
Q 1284 391 1588 391 
Q 1994 391 2212 530 
Q 2431 669 2431 922 
Q 2431 1156 2273 1281 
Q 2116 1406 1581 1522 
L 1381 1569 
Q 847 1681 609 1914 
Q 372 2147 372 2553 
Q 372 3047 722 3315 
Q 1072 3584 1716 3584 
Q 2034 3584 2315 3537 
Q 2597 3491 2834 3397 
z
" transform="scale(0.015625)"/>
       <path id="DejaVuSans-69" d="M 603 3500 
L 1178 3500 
L 1178 0 
L 603 0 
L 603 3500 
z
M 603 4863 
L 1178 4863 
L 1178 4134 
L 603 4134 
L 603 4863 
z
" transform="scale(0.015625)"/>
       <path id="DejaVuSans-34" d="M 2419 4116 
L 825 1625 
L 2419 1625 
L 2419 4116 
z
M 2253 4666 
L 3047 4666 
L 3047 1625 
L 3713 1625 
L 3713 1100 
L 3047 1100 
L 3047 0 
L 2419 0 
L 2419 1100 
L 313 1100 
L 313 1709 
L 2253 4666 
z
" transform="scale(0.015625)"/>
      </defs>
      <use xlink:href="#DejaVuSans-70"/>
      <use xlink:href="#DejaVuSans-73" transform="translate(63.476562 0)"/>
      <use xlink:href="#DejaVuSans-69" transform="translate(115.576172 0)"/>
      <use xlink:href="#DejaVuSans-34" transform="translate(143.359375 0)"/>
     </g>
    </g>
   </g>
  </g>
  <g id="axes_2">
   <g id="patch_7">
    <path d="M 76.79 388.5115 
L 413.380643 388.5115 
L 413.380643 225.94575 
L 76.79 225.94575 
z
" style="fill: #ffffff"/>
   </g>
   <g id="PathCollection_15">
    <path d="M 92.089575 384.657682 
C 93.027209 384.657682 93.926567 384.285156 94.589575 383.622148 
C 95.252582 382.95914 95.625109 382.059782 95.625109 381.122148 
C 95.625109 380.184513 95.252582 379.285156 94.589575 378.622148 
C 93.926567 377.95914 93.027209 377.586614 92.089575 377.586614 
C 91.15194 377.586614 90.252582 377.95914 89.589575 378.622148 
C 88.926567 379.285156 88.554041 380.184513 88.554041 381.122148 
C 88.554041 382.059782 88.926567 382.95914 89.589575 383.622148 
C 90.252582 384.285156 91.15194 384.657682 92.089575 384.657682 
L 92.089575 384.657682 
z
" clip-path="url(#p41d888050b)" style="fill: none; stroke: #285519"/>
   </g>
   <g id="PathCollection_16">
    <path d="M 153.287873 382.037552 
C 154.225508 382.037552 155.124866 381.665026 155.787873 381.002018 
C 156.450881 380.33901 156.823407 379.439653 156.823407 378.502018 
C 156.823407 377.564384 156.450881 376.665026 155.787873 376.002018 
C 155.124866 375.33901 154.225508 374.966484 153.287873 374.966484 
C 152.350239 374.966484 151.450881 375.33901 150.787873 376.002018 
C 150.124866 376.665026 149.752339 377.564384 149.752339 378.502018 
C 149.752339 379.439653 150.124866 380.33901 150.787873 381.002018 
C 151.450881 381.665026 152.350239 382.037552 153.287873 382.037552 
L 153.287873 382.037552 
z
" clip-path="url(#p41d888050b)" style="fill: none; stroke: #e0f122"/>
   </g>
   <g id="PathCollection_17">
    <path d="M 214.486172 374.433287 
C 215.423807 374.433287 216.323164 374.060761 216.986172 373.397754 
C 217.64918 372.734746 218.021706 371.835388 218.021706 370.897754 
C 218.021706 369.960119 217.64918 369.060761 216.986172 368.397754 
C 216.323164 367.734746 215.423807 367.36222 214.486172 367.36222 
C 213.548538 367.36222 212.64918 367.734746 211.986172 368.397754 
C 211.323164 369.060761 210.950638 369.960119 210.950638 370.897754 
C 210.950638 371.835388 211.323164 372.734746 211.986172 373.397754 
C 212.64918 374.060761 213.548538 374.433287 214.486172 374.433287 
L 214.486172 374.433287 
z
" clip-path="url(#p41d888050b)" style="fill: none; stroke: #cae9d8"/>
   </g>
   <g id="PathCollection_18">
    <path d="M 275.684471 381.877819 
C 276.622105 381.877819 277.521463 381.505293 278.184471 380.842286 
C 278.847479 380.179278 279.220005 379.27992 279.220005 378.342286 
C 279.220005 377.404651 278.847479 376.505293 278.184471 375.842286 
C 277.521463 375.179278 276.622105 374.806752 275.684471 374.806752 
C 274.746836 374.806752 273.847479 375.179278 273.184471 375.842286 
C 272.521463 376.505293 272.148937 377.404651 272.148937 378.342286 
C 272.148937 379.27992 272.521463 380.179278 273.184471 380.842286 
C 273.847479 381.505293 274.746836 381.877819 275.684471 381.877819 
L 275.684471 381.877819 
z
" clip-path="url(#p41d888050b)" style="fill: none; stroke: #9ab507"/>
   </g>
   <g id="PathCollection_19">
    <path d="M 336.88277 311.97794 
C 337.820404 311.97794 338.719762 311.605414 339.38277 310.942406 
C 340.045777 310.279398 340.418303 309.38004 340.418303 308.442406 
C 340.418303 307.504771 340.045777 306.605414 339.38277 305.942406 
C 338.719762 305.279398 337.820404 304.906872 336.88277 304.906872 
C 335.945135 304.906872 335.045777 305.279398 334.38277 305.942406 
C 333.719762 306.605414 333.347236 307.504771 333.347236 308.442406 
C 333.347236 309.38004 333.719762 310.279398 334.38277 310.942406 
C 335.045777 311.605414 335.945135 311.97794 336.88277 311.97794 
L 336.88277 311.97794 
z
" clip-path="url(#p41d888050b)" style="fill: none; stroke: #ad06bd"/>
   </g>
   <g id="PathCollection_20">
    <path d="M 398.081068 236.870636 
C 399.018703 236.870636 399.91806 236.49811 400.581068 235.835102 
C 401.244076 235.172095 401.616602 234.272737 401.616602 233.335102 
C 401.616602 232.397468 401.244076 231.49811 400.581068 230.835102 
C 399.91806 230.172095 399.018703 229.799568 398.081068 229.799568 
C 397.143434 229.799568 396.244076 230.172095 395.581068 230.835102 
C 394.91806 231.49811 394.545534 232.397468 394.545534 233.335102 
C 394.545534 234.272737 394.91806 235.172095 395.581068 235.835102 
C 396.244076 236.49811 397.143434 236.870636 398.081068 236.870636 
L 398.081068 236.870636 
z
" clip-path="url(#p41d888050b)" style="fill: none; stroke: #634858"/>
   </g>
   <g id="matplotlib.axis_3">
    <g id="xtick_7">
     <g id="line2d_11">
      <g>
       <use xlink:href="#m5fe81229f6" x="92.089575" y="388.5115" style="stroke: #000000; stroke-width: 0.8"/>
      </g>
     </g>
    </g>
    <g id="xtick_8">
     <g id="line2d_12">
      <g>
       <use xlink:href="#m5fe81229f6" x="153.287873" y="388.5115" style="stroke: #000000; stroke-width: 0.8"/>
      </g>
     </g>
    </g>
    <g id="xtick_9">
     <g id="line2d_13">
      <g>
       <use xlink:href="#m5fe81229f6" x="214.486172" y="388.5115" style="stroke: #000000; stroke-width: 0.8"/>
      </g>
     </g>
    </g>
    <g id="xtick_10">
     <g id="line2d_14">
      <g>
       <use xlink:href="#m5fe81229f6" x="275.684471" y="388.5115" style="stroke: #000000; stroke-width: 0.8"/>
      </g>
     </g>
    </g>
    <g id="xtick_11">
     <g id="line2d_15">
      <g>
       <use xlink:href="#m5fe81229f6" x="336.88277" y="388.5115" style="stroke: #000000; stroke-width: 0.8"/>
      </g>
     </g>
    </g>
    <g id="xtick_12">
     <g id="line2d_16">
      <g>
       <use xlink:href="#m5fe81229f6" x="398.081068" y="388.5115" style="stroke: #000000; stroke-width: 0.8"/>
      </g>
     </g>
    </g>
   </g>
   <g id="matplotlib.axis_4">
    <g id="ytick_5">
     <g id="line2d_17">
      <g>
       <use xlink:href="#m897d7d0116" x="76.79" y="381.677995" style="stroke: #000000; stroke-width: 0.8"/>
      </g>
     </g>
     <g id="text_8">
      <!-- 0 -->
      <g transform="translate(60.8825 386.996901) scale(0.14 -0.14)">
       <use xlink:href="#DejaVuSans-30"/>
      </g>
     </g>
    </g>
    <g id="ytick_6">
     <g id="line2d_18">
      <g>
       <use xlink:href="#m897d7d0116" x="76.79" y="322.873394" style="stroke: #000000; stroke-width: 0.8"/>
      </g>
     </g>
     <g id="text_9">
      <!-- 100 -->
      <g transform="translate(43.0675 328.1923) scale(0.14 -0.14)">
       <use xlink:href="#DejaVuSans-31"/>
       <use xlink:href="#DejaVuSans-30" transform="translate(63.623047 0)"/>
       <use xlink:href="#DejaVuSans-30" transform="translate(127.246094 0)"/>
      </g>
     </g>
    </g>
    <g id="ytick_7">
     <g id="line2d_19">
      <g>
       <use xlink:href="#m897d7d0116" x="76.79" y="264.068793" style="stroke: #000000; stroke-width: 0.8"/>
      </g>
     </g>
     <g id="text_10">
      <!-- 200 -->
      <g transform="translate(43.0675 269.387699) scale(0.14 -0.14)">
       <use xlink:href="#DejaVuSans-32"/>
       <use xlink:href="#DejaVuSans-30" transform="translate(63.623047 0)"/>
       <use xlink:href="#DejaVuSans-30" transform="translate(127.246094 0)"/>
      </g>
     </g>
    </g>
    <g id="text_11">
     <!-- wall time [sec] -->
     <g transform="translate(35.74 366.008625) rotate(-90) scale(0.16 -0.16)">
      <defs>
       <path id="DejaVuSans-77" d="M 269 3500 
L 844 3500 
L 1563 769 
L 2278 3500 
L 2956 3500 
L 3675 769 
L 4391 3500 
L 4966 3500 
L 4050 0 
L 3372 0 
L 2619 2869 
L 1863 0 
L 1184 0 
L 269 3500 
z
" transform="scale(0.015625)"/>
       <path id="DejaVuSans-61" d="M 2194 1759 
Q 1497 1759 1228 1600 
Q 959 1441 959 1056 
Q 959 750 1161 570 
Q 1363 391 1709 391 
Q 2188 391 2477 730 
Q 2766 1069 2766 1631 
L 2766 1759 
L 2194 1759 
z
M 3341 1997 
L 3341 0 
L 2766 0 
L 2766 531 
Q 2569 213 2275 61 
Q 1981 -91 1556 -91 
Q 1019 -91 701 211 
Q 384 513 384 1019 
Q 384 1609 779 1909 
Q 1175 2209 1959 2209 
L 2766 2209 
L 2766 2266 
Q 2766 2663 2505 2880 
Q 2244 3097 1772 3097 
Q 1472 3097 1187 3025 
Q 903 2953 641 2809 
L 641 3341 
Q 956 3463 1253 3523 
Q 1550 3584 1831 3584 
Q 2591 3584 2966 3190 
Q 3341 2797 3341 1997 
z
" transform="scale(0.015625)"/>
       <path id="DejaVuSans-6c" d="M 603 4863 
L 1178 4863 
L 1178 0 
L 603 0 
L 603 4863 
z
" transform="scale(0.015625)"/>
       <path id="DejaVuSans-74" d="M 1172 4494 
L 1172 3500 
L 2356 3500 
L 2356 3053 
L 1172 3053 
L 1172 1153 
Q 1172 725 1289 603 
Q 1406 481 1766 481 
L 2356 481 
L 2356 0 
L 1766 0 
Q 1100 0 847 248 
Q 594 497 594 1153 
L 594 3053 
L 172 3053 
L 172 3500 
L 594 3500 
L 594 4494 
L 1172 4494 
z
" transform="scale(0.015625)"/>
       <path id="DejaVuSans-63" d="M 3122 3366 
L 3122 2828 
Q 2878 2963 2633 3030 
Q 2388 3097 2138 3097 
Q 1578 3097 1268 2742 
Q 959 2388 959 1747 
Q 959 1106 1268 751 
Q 1578 397 2138 397 
Q 2388 397 2633 464 
Q 2878 531 3122 666 
L 3122 134 
Q 2881 22 2623 -34 
Q 2366 -91 2075 -91 
Q 1284 -91 818 406 
Q 353 903 353 1747 
Q 353 2603 823 3093 
Q 1294 3584 2113 3584 
Q 2378 3584 2631 3529 
Q 2884 3475 3122 3366 
z
" transform="scale(0.015625)"/>
      </defs>
      <use xlink:href="#DejaVuSans-77"/>
      <use xlink:href="#DejaVuSans-61" transform="translate(81.787109 0)"/>
      <use xlink:href="#DejaVuSans-6c" transform="translate(143.066406 0)"/>
      <use xlink:href="#DejaVuSans-6c" transform="translate(170.849609 0)"/>
      <use xlink:href="#DejaVuSans-20" transform="translate(198.632812 0)"/>
      <use xlink:href="#DejaVuSans-74" transform="translate(230.419922 0)"/>
      <use xlink:href="#DejaVuSans-69" transform="translate(269.628906 0)"/>
      <use xlink:href="#DejaVuSans-6d" transform="translate(297.412109 0)"/>
      <use xlink:href="#DejaVuSans-65" transform="translate(394.824219 0)"/>
      <use xlink:href="#DejaVuSans-20" transform="translate(456.347656 0)"/>
      <use xlink:href="#DejaVuSans-5b" transform="translate(488.134766 0)"/>
      <use xlink:href="#DejaVuSans-73" transform="translate(527.148438 0)"/>
      <use xlink:href="#DejaVuSans-65" transform="translate(579.248047 0)"/>
      <use xlink:href="#DejaVuSans-63" transform="translate(640.771484 0)"/>
      <use xlink:href="#DejaVuSans-5d" transform="translate(695.751953 0)"/>
     </g>
    </g>
   </g>
   <g id="patch_8">
    <path d="M 76.79 388.5115 
L 76.79 225.94575 
" style="fill: none; stroke: #000000; stroke-width: 0.8; stroke-linejoin: miter; stroke-linecap: square"/>
   </g>
   <g id="patch_9">
    <path d="M 413.380643 388.5115 
L 413.380643 225.94575 
" style="fill: none; stroke: #000000; stroke-width: 0.8; stroke-linejoin: miter; stroke-linecap: square"/>
   </g>
   <g id="patch_10">
    <path d="M 76.79 388.5115 
L 413.380643 388.5115 
" style="fill: none; stroke: #000000; stroke-width: 0.8; stroke-linejoin: miter; stroke-linecap: square"/>
   </g>
   <g id="patch_11">
    <path d="M 76.79 225.94575 
L 413.380643 225.94575 
" style="fill: none; stroke: #000000; stroke-width: 0.8; stroke-linejoin: miter; stroke-linecap: square"/>
   </g>
   <g id="legend_2">
    <g id="PathCollection_21">
     <path d="M 95.79 243.454721 
C 96.727635 243.454721 97.626992 243.082195 98.29 242.419188 
C 98.953008 241.75618 99.325534 240.856822 99.325534 239.919188 
C 99.325534 238.981553 98.953008 238.082195 98.29 237.419188 
C 97.626992 236.75618 96.727635 236.383654 95.79 236.383654 
C 94.852365 236.383654 93.953008 236.75618 93.29 237.419188 
C 92.626992 238.082195 92.254466 238.981553 92.254466 239.919188 
C 92.254466 240.856822 92.626992 241.75618 93.29 242.419188 
C 93.953008 243.082195 94.852365 243.454721 95.79 243.454721 
L 95.79 243.454721 
z
" style="fill: none; stroke: #285519"/>
    </g>
    <g id="text_12">
     <!--  35 cgfs -->
     <g transform="translate(113.79 242.544188) scale(0.1 -0.1)">
      <defs>
       <path id="DejaVuSans-33" d="M 2597 2516 
Q 3050 2419 3304 2112 
Q 3559 1806 3559 1356 
Q 3559 666 3084 287 
Q 2609 -91 1734 -91 
Q 1441 -91 1130 -33 
Q 819 25 488 141 
L 488 750 
Q 750 597 1062 519 
Q 1375 441 1716 441 
Q 2309 441 2620 675 
Q 2931 909 2931 1356 
Q 2931 1769 2642 2001 
Q 2353 2234 1838 2234 
L 1294 2234 
L 1294 2753 
L 1863 2753 
Q 2328 2753 2575 2939 
Q 2822 3125 2822 3475 
Q 2822 3834 2567 4026 
Q 2313 4219 1838 4219 
Q 1578 4219 1281 4162 
Q 984 4106 628 3988 
L 628 4550 
Q 988 4650 1302 4700 
Q 1616 4750 1894 4750 
Q 2613 4750 3031 4423 
Q 3450 4097 3450 3541 
Q 3450 3153 3228 2886 
Q 3006 2619 2597 2516 
z
" transform="scale(0.015625)"/>
       <path id="DejaVuSans-66" d="M 2375 4863 
L 2375 4384 
L 1825 4384 
Q 1516 4384 1395 4259 
Q 1275 4134 1275 3809 
L 1275 3500 
L 2222 3500 
L 2222 3053 
L 1275 3053 
L 1275 0 
L 697 0 
L 697 3053 
L 147 3053 
L 147 3500 
L 697 3500 
L 697 3744 
Q 697 4328 969 4595 
Q 1241 4863 1831 4863 
L 2375 4863 
z
" transform="scale(0.015625)"/>
      </defs>
      <use xlink:href="#DejaVuSans-20"/>
      <use xlink:href="#DejaVuSans-33" transform="translate(31.787109 0)"/>
      <use xlink:href="#DejaVuSans-35" transform="translate(95.410156 0)"/>
      <use xlink:href="#DejaVuSans-20" transform="translate(159.033203 0)"/>
      <use xlink:href="#DejaVuSans-63" transform="translate(190.820312 0)"/>
      <use xlink:href="#DejaVuSans-67" transform="translate(245.800781 0)"/>
      <use xlink:href="#DejaVuSans-66" transform="translate(309.277344 0)"/>
      <use xlink:href="#DejaVuSans-73" transform="translate(344.482422 0)"/>
     </g>
    </g>
    <g id="PathCollection_22">
     <path d="M 95.79 258.132846 
C 96.727635 258.132846 97.626992 257.76032 98.29 257.097313 
C 98.953008 256.434305 99.325534 255.534947 99.325534 254.597313 
C 99.325534 253.659678 98.953008 252.76032 98.29 252.097313 
C 97.626992 251.434305 96.727635 251.061779 95.79 251.061779 
C 94.852365 251.061779 93.953008 251.434305 93.29 252.097313 
C 92.626992 252.76032 92.254466 253.659678 92.254466 254.597313 
C 92.254466 255.534947 92.626992 256.434305 93.29 257.097313 
C 93.953008 257.76032 94.852365 258.132846 95.79 258.132846 
L 95.79 258.132846 
z
" style="fill: none; stroke: #e0f122"/>
    </g>
    <g id="text_13">
     <!--  60 cgfs -->
     <g transform="translate(113.79 257.222313) scale(0.1 -0.1)">
      <defs>
       <path id="DejaVuSans-36" d="M 2113 2584 
Q 1688 2584 1439 2293 
Q 1191 2003 1191 1497 
Q 1191 994 1439 701 
Q 1688 409 2113 409 
Q 2538 409 2786 701 
Q 3034 994 3034 1497 
Q 3034 2003 2786 2293 
Q 2538 2584 2113 2584 
z
M 3366 4563 
L 3366 3988 
Q 3128 4100 2886 4159 
Q 2644 4219 2406 4219 
Q 1781 4219 1451 3797 
Q 1122 3375 1075 2522 
Q 1259 2794 1537 2939 
Q 1816 3084 2150 3084 
Q 2853 3084 3261 2657 
Q 3669 2231 3669 1497 
Q 3669 778 3244 343 
Q 2819 -91 2113 -91 
Q 1303 -91 875 529 
Q 447 1150 447 2328 
Q 447 3434 972 4092 
Q 1497 4750 2381 4750 
Q 2619 4750 2861 4703 
Q 3103 4656 3366 4563 
z
" transform="scale(0.015625)"/>
      </defs>
      <use xlink:href="#DejaVuSans-20"/>
      <use xlink:href="#DejaVuSans-36" transform="translate(31.787109 0)"/>
      <use xlink:href="#DejaVuSans-30" transform="translate(95.410156 0)"/>
      <use xlink:href="#DejaVuSans-20" transform="translate(159.033203 0)"/>
      <use xlink:href="#DejaVuSans-63" transform="translate(190.820312 0)"/>
      <use xlink:href="#DejaVuSans-67" transform="translate(245.800781 0)"/>
      <use xlink:href="#DejaVuSans-66" transform="translate(309.277344 0)"/>
      <use xlink:href="#DejaVuSans-73" transform="translate(344.482422 0)"/>
     </g>
    </g>
    <g id="PathCollection_23">
     <path d="M 95.79 272.810971 
C 96.727635 272.810971 97.626992 272.438445 98.29 271.775438 
C 98.953008 271.11243 99.325534 270.213072 99.325534 269.275438 
C 99.325534 268.337803 98.953008 267.438445 98.29 266.775438 
C 97.626992 266.11243 96.727635 265.739904 95.79 265.739904 
C 94.852365 265.739904 93.953008 266.11243 93.29 266.775438 
C 92.626992 267.438445 92.254466 268.337803 92.254466 269.275438 
C 92.254466 270.213072 92.626992 271.11243 93.29 271.775438 
C 93.953008 272.438445 94.852365 272.810971 95.79 272.810971 
L 95.79 272.810971 
z
" style="fill: none; stroke: #cae9d8"/>
    </g>
    <g id="text_14">
     <!--  85 cgfs -->
     <g transform="translate(113.79 271.900438) scale(0.1 -0.1)">
      <defs>
       <path id="DejaVuSans-38" d="M 2034 2216 
Q 1584 2216 1326 1975 
Q 1069 1734 1069 1313 
Q 1069 891 1326 650 
Q 1584 409 2034 409 
Q 2484 409 2743 651 
Q 3003 894 3003 1313 
Q 3003 1734 2745 1975 
Q 2488 2216 2034 2216 
z
M 1403 2484 
Q 997 2584 770 2862 
Q 544 3141 544 3541 
Q 544 4100 942 4425 
Q 1341 4750 2034 4750 
Q 2731 4750 3128 4425 
Q 3525 4100 3525 3541 
Q 3525 3141 3298 2862 
Q 3072 2584 2669 2484 
Q 3125 2378 3379 2068 
Q 3634 1759 3634 1313 
Q 3634 634 3220 271 
Q 2806 -91 2034 -91 
Q 1263 -91 848 271 
Q 434 634 434 1313 
Q 434 1759 690 2068 
Q 947 2378 1403 2484 
z
M 1172 3481 
Q 1172 3119 1398 2916 
Q 1625 2713 2034 2713 
Q 2441 2713 2670 2916 
Q 2900 3119 2900 3481 
Q 2900 3844 2670 4047 
Q 2441 4250 2034 4250 
Q 1625 4250 1398 4047 
Q 1172 3844 1172 3481 
z
" transform="scale(0.015625)"/>
      </defs>
      <use xlink:href="#DejaVuSans-20"/>
      <use xlink:href="#DejaVuSans-38" transform="translate(31.787109 0)"/>
      <use xlink:href="#DejaVuSans-35" transform="translate(95.410156 0)"/>
      <use xlink:href="#DejaVuSans-20" transform="translate(159.033203 0)"/>
      <use xlink:href="#DejaVuSans-63" transform="translate(190.820312 0)"/>
      <use xlink:href="#DejaVuSans-67" transform="translate(245.800781 0)"/>
      <use xlink:href="#DejaVuSans-66" transform="translate(309.277344 0)"/>
      <use xlink:href="#DejaVuSans-73" transform="translate(344.482422 0)"/>
     </g>
    </g>
    <g id="PathCollection_24">
     <path d="M 95.79 287.489096 
C 96.727635 287.489096 97.626992 287.11657 98.29 286.453563 
C 98.953008 285.790555 99.325534 284.891197 99.325534 283.953563 
C 99.325534 283.015928 98.953008 282.11657 98.29 281.453563 
C 97.626992 280.790555 96.727635 280.418029 95.79 280.418029 
C 94.852365 280.418029 93.953008 280.790555 93.29 281.453563 
C 92.626992 282.11657 92.254466 283.015928 92.254466 283.953563 
C 92.254466 284.891197 92.626992 285.790555 93.29 286.453563 
C 93.953008 287.11657 94.852365 287.489096 95.79 287.489096 
L 95.79 287.489096 
z
" style="fill: none; stroke: #9ab507"/>
    </g>
    <g id="text_15">
     <!-- 110 cgfs -->
     <g transform="translate(113.79 286.578563) scale(0.1 -0.1)">
      <use xlink:href="#DejaVuSans-31"/>
      <use xlink:href="#DejaVuSans-31" transform="translate(63.623047 0)"/>
      <use xlink:href="#DejaVuSans-30" transform="translate(127.246094 0)"/>
      <use xlink:href="#DejaVuSans-20" transform="translate(190.869141 0)"/>
      <use xlink:href="#DejaVuSans-63" transform="translate(222.65625 0)"/>
      <use xlink:href="#DejaVuSans-67" transform="translate(277.636719 0)"/>
      <use xlink:href="#DejaVuSans-66" transform="translate(341.113281 0)"/>
      <use xlink:href="#DejaVuSans-73" transform="translate(376.318359 0)"/>
     </g>
    </g>
    <g id="PathCollection_25">
     <path d="M 95.79 302.167221 
C 96.727635 302.167221 97.626992 301.794695 98.29 301.131688 
C 98.953008 300.46868 99.325534 299.569322 99.325534 298.631688 
C 99.325534 297.694053 98.953008 296.794695 98.29 296.131688 
C 97.626992 295.46868 96.727635 295.096154 95.79 295.096154 
C 94.852365 295.096154 93.953008 295.46868 93.29 296.131688 
C 92.626992 296.794695 92.254466 297.694053 92.254466 298.631688 
C 92.254466 299.569322 92.626992 300.46868 93.29 301.131688 
C 93.953008 301.794695 94.852365 302.167221 95.79 302.167221 
L 95.79 302.167221 
z
" style="fill: none; stroke: #ad06bd"/>
    </g>
    <g id="text_16">
     <!-- 135 cgfs -->
     <g transform="translate(113.79 301.256688) scale(0.1 -0.1)">
      <use xlink:href="#DejaVuSans-31"/>
      <use xlink:href="#DejaVuSans-33" transform="translate(63.623047 0)"/>
      <use xlink:href="#DejaVuSans-35" transform="translate(127.246094 0)"/>
      <use xlink:href="#DejaVuSans-20" transform="translate(190.869141 0)"/>
      <use xlink:href="#DejaVuSans-63" transform="translate(222.65625 0)"/>
      <use xlink:href="#DejaVuSans-67" transform="translate(277.636719 0)"/>
      <use xlink:href="#DejaVuSans-66" transform="translate(341.113281 0)"/>
      <use xlink:href="#DejaVuSans-73" transform="translate(376.318359 0)"/>
     </g>
    </g>
    <g id="PathCollection_26">
     <path d="M 95.79 316.845346 
C 96.727635 316.845346 97.626992 316.47282 98.29 315.809813 
C 98.953008 315.146805 99.325534 314.247447 99.325534 313.309813 
C 99.325534 312.372178 98.953008 311.47282 98.29 310.809813 
C 97.626992 310.146805 96.727635 309.774279 95.79 309.774279 
C 94.852365 309.774279 93.953008 310.146805 93.29 310.809813 
C 92.626992 311.47282 92.254466 312.372178 92.254466 313.309813 
C 92.254466 314.247447 92.626992 315.146805 93.29 315.809813 
C 93.953008 316.47282 94.852365 316.845346 95.79 316.845346 
L 95.79 316.845346 
z
" style="fill: none; stroke: #634858"/>
    </g>
    <g id="text_17">
     <!-- 160 cgfs -->
     <g transform="translate(113.79 315.934813) scale(0.1 -0.1)">
      <use xlink:href="#DejaVuSans-31"/>
      <use xlink:href="#DejaVuSans-36" transform="translate(63.623047 0)"/>
      <use xlink:href="#DejaVuSans-30" transform="translate(127.246094 0)"/>
      <use xlink:href="#DejaVuSans-20" transform="translate(190.869141 0)"/>
      <use xlink:href="#DejaVuSans-63" transform="translate(222.65625 0)"/>
      <use xlink:href="#DejaVuSans-67" transform="translate(277.636719 0)"/>
      <use xlink:href="#DejaVuSans-66" transform="translate(341.113281 0)"/>
      <use xlink:href="#DejaVuSans-73" transform="translate(376.318359 0)"/>
     </g>
    </g>
   </g>
  </g>
  <g id="axes_3">
   <g id="patch_12">
    <path d="M 76.79 576.29725 
L 413.380643 576.29725 
L 413.380643 413.7315 
L 76.79 413.7315 
z
" style="fill: #ffffff"/>
   </g>
   <g id="PathCollection_27">
    <defs>
     <path id="ma445f98e79" d="M 0 3 
C 0.795609 3 1.55874 2.683901 2.12132 2.12132 
C 2.683901 1.55874 3 0.795609 3 0 
C 3 -0.795609 2.683901 -1.55874 2.12132 -2.12132 
C 1.55874 -2.683901 0.795609 -3 0 -3 
C -0.795609 -3 -1.55874 -2.683901 -2.12132 -2.12132 
C -2.683901 -1.55874 -3 -0.795609 -3 0 
C -3 0.795609 -2.683901 1.55874 -2.12132 2.12132 
C -1.55874 2.683901 -0.795609 3 0 3 
z
" style="stroke: #1f77b4"/>
    </defs>
    <g clip-path="url(#p8abeb1dd0e)">
     <use xlink:href="#ma445f98e79" x="92.089575" y="532.461179" style="fill: #1f77b4; stroke: #1f77b4"/>
    </g>
   </g>
   <g id="PathCollection_28">
    <defs>
     <path id="m305be0ab40" d="M 0 3 
C 0.795609 3 1.55874 2.683901 2.12132 2.12132 
C 2.683901 1.55874 3 0.795609 3 0 
C 3 -0.795609 2.683901 -1.55874 2.12132 -2.12132 
C 1.55874 -2.683901 0.795609 -3 0 -3 
C -0.795609 -3 -1.55874 -2.683901 -2.12132 -2.12132 
C -2.683901 -1.55874 -3 -0.795609 -3 0 
C -3 0.795609 -2.683901 1.55874 -2.12132 2.12132 
C -1.55874 2.683901 -0.795609 3 0 3 
z
" style="stroke: #ff7f0e"/>
    </defs>
    <g clip-path="url(#p8abeb1dd0e)">
     <use xlink:href="#m305be0ab40" x="153.287873" y="504.442917" style="fill: #ff7f0e; stroke: #ff7f0e"/>
    </g>
   </g>
   <g id="PathCollection_29">
    <defs>
     <path id="mb0c22533a0" d="M 0 3 
C 0.795609 3 1.55874 2.683901 2.12132 2.12132 
C 2.683901 1.55874 3 0.795609 3 0 
C 3 -0.795609 2.683901 -1.55874 2.12132 -2.12132 
C 1.55874 -2.683901 0.795609 -3 0 -3 
C -0.795609 -3 -1.55874 -2.683901 -2.12132 -2.12132 
C -2.683901 -1.55874 -3 -0.795609 -3 0 
C -3 0.795609 -2.683901 1.55874 -2.12132 2.12132 
C -1.55874 2.683901 -0.795609 3 0 3 
z
" style="stroke: #2ca02c"/>
    </defs>
    <g clip-path="url(#p8abeb1dd0e)">
     <use xlink:href="#mb0c22533a0" x="214.486172" y="510.981041" style="fill: #2ca02c; stroke: #2ca02c"/>
    </g>
   </g>
   <g id="PathCollection_30">
    <defs>
     <path id="mc727b14c4c" d="M 0 3 
C 0.795609 3 1.55874 2.683901 2.12132 2.12132 
C 2.683901 1.55874 3 0.795609 3 0 
C 3 -0.795609 2.683901 -1.55874 2.12132 -2.12132 
C 1.55874 -2.683901 0.795609 -3 0 -3 
C -0.795609 -3 -1.55874 -2.683901 -2.12132 -2.12132 
C -2.683901 -1.55874 -3 -0.795609 -3 0 
C -3 0.795609 -2.683901 1.55874 -2.12132 2.12132 
C -1.55874 2.683901 -0.795609 3 0 3 
z
" style="stroke: #d62728"/>
    </defs>
    <g clip-path="url(#p8abeb1dd0e)">
     <use xlink:href="#mc727b14c4c" x="275.684471" y="568.907898" style="fill: #d62728; stroke: #d62728"/>
    </g>
   </g>
   <g id="PathCollection_31">
    <defs>
     <path id="m65ac6db2b1" d="M 0 3 
C 0.795609 3 1.55874 2.683901 2.12132 2.12132 
C 2.683901 1.55874 3 0.795609 3 0 
C 3 -0.795609 2.683901 -1.55874 2.12132 -2.12132 
C 1.55874 -2.683901 0.795609 -3 0 -3 
C -0.795609 -3 -1.55874 -2.683901 -2.12132 -2.12132 
C -2.683901 -1.55874 -3 -0.795609 -3 0 
C -3 0.795609 -2.683901 1.55874 -2.12132 2.12132 
C -1.55874 2.683901 -0.795609 3 0 3 
z
" style="stroke: #9467bd"/>
    </defs>
    <g clip-path="url(#p8abeb1dd0e)">
     <use xlink:href="#m65ac6db2b1" x="336.88277" y="421.120852" style="fill: #9467bd; stroke: #9467bd"/>
    </g>
   </g>
   <g id="PathCollection_32">
    <defs>
     <path id="m3589cf0e90" d="M 0 3 
C 0.795609 3 1.55874 2.683901 2.12132 2.12132 
C 2.683901 1.55874 3 0.795609 3 0 
C 3 -0.795609 2.683901 -1.55874 2.12132 -2.12132 
C 1.55874 -2.683901 0.795609 -3 0 -3 
C -0.795609 -3 -1.55874 -2.683901 -2.12132 -2.12132 
C -2.683901 -1.55874 -3 -0.795609 -3 0 
C -3 0.795609 -2.683901 1.55874 -2.12132 2.12132 
C -1.55874 2.683901 -0.795609 3 0 3 
z
" style="stroke: #8c564b"/>
    </defs>
    <g clip-path="url(#p8abeb1dd0e)">
     <use xlink:href="#m3589cf0e90" x="398.081068" y="435.861981" style="fill: #8c564b; stroke: #8c564b"/>
    </g>
   </g>
   <g id="matplotlib.axis_5">
    <g id="xtick_13">
     <g id="line2d_20">
      <g>
       <use xlink:href="#m5fe81229f6" x="92.089575" y="576.29725" style="stroke: #000000; stroke-width: 0.8"/>
      </g>
     </g>
     <g id="text_18">
      <!-- methane -->
      <g transform="translate(72.661042 635.139668) rotate(-45) scale(0.14 -0.14)">
       <use xlink:href="#DejaVuSans-6d"/>
       <use xlink:href="#DejaVuSans-65" transform="translate(97.412109 0)"/>
       <use xlink:href="#DejaVuSans-74" transform="translate(158.935547 0)"/>
       <use xlink:href="#DejaVuSans-68" transform="translate(198.144531 0)"/>
       <use xlink:href="#DejaVuSans-61" transform="translate(261.523438 0)"/>
       <use xlink:href="#DejaVuSans-6e" transform="translate(322.802734 0)"/>
       <use xlink:href="#DejaVuSans-65" transform="translate(386.181641 0)"/>
      </g>
     </g>
    </g>
    <g id="xtick_14">
     <g id="line2d_21">
      <g>
       <use xlink:href="#m5fe81229f6" x="153.287873" y="576.29725" style="stroke: #000000; stroke-width: 0.8"/>
      </g>
     </g>
     <g id="text_19">
      <!-- ethane -->
      <g transform="translate(138.680705 625.496941) rotate(-45) scale(0.14 -0.14)">
       <use xlink:href="#DejaVuSans-65"/>
       <use xlink:href="#DejaVuSans-74" transform="translate(61.523438 0)"/>
       <use xlink:href="#DejaVuSans-68" transform="translate(100.732422 0)"/>
       <use xlink:href="#DejaVuSans-61" transform="translate(164.111328 0)"/>
       <use xlink:href="#DejaVuSans-6e" transform="translate(225.390625 0)"/>
       <use xlink:href="#DejaVuSans-65" transform="translate(288.769531 0)"/>
      </g>
     </g>
    </g>
    <g id="xtick_15">
     <g id="line2d_22">
      <g>
       <use xlink:href="#m5fe81229f6" x="214.486172" y="576.29725" style="stroke: #000000; stroke-width: 0.8"/>
      </g>
     </g>
     <g id="text_20">
      <!-- propane -->
      <g transform="translate(196.765303 631.724342) rotate(-45) scale(0.14 -0.14)">
       <defs>
        <path id="DejaVuSans-6f" d="M 1959 3097 
Q 1497 3097 1228 2736 
Q 959 2375 959 1747 
Q 959 1119 1226 758 
Q 1494 397 1959 397 
Q 2419 397 2687 759 
Q 2956 1122 2956 1747 
Q 2956 2369 2687 2733 
Q 2419 3097 1959 3097 
z
M 1959 3584 
Q 2709 3584 3137 3096 
Q 3566 2609 3566 1747 
Q 3566 888 3137 398 
Q 2709 -91 1959 -91 
Q 1206 -91 779 398 
Q 353 888 353 1747 
Q 353 2609 779 3096 
Q 1206 3584 1959 3584 
z
" transform="scale(0.015625)"/>
       </defs>
       <use xlink:href="#DejaVuSans-70"/>
       <use xlink:href="#DejaVuSans-72" transform="translate(63.476562 0)"/>
       <use xlink:href="#DejaVuSans-6f" transform="translate(102.339844 0)"/>
       <use xlink:href="#DejaVuSans-70" transform="translate(163.521484 0)"/>
       <use xlink:href="#DejaVuSans-61" transform="translate(226.998047 0)"/>
       <use xlink:href="#DejaVuSans-6e" transform="translate(288.277344 0)"/>
       <use xlink:href="#DejaVuSans-65" transform="translate(351.65625 0)"/>
      </g>
     </g>
    </g>
    <g id="xtick_16">
     <g id="line2d_23">
      <g>
       <use xlink:href="#m5fe81229f6" x="275.684471" y="576.29725" style="stroke: #000000; stroke-width: 0.8"/>
      </g>
     </g>
     <g id="text_21">
      <!-- butane -->
      <g transform="translate(260.980627 625.69029) rotate(-45) scale(0.14 -0.14)">
       <defs>
        <path id="DejaVuSans-62" d="M 3116 1747 
Q 3116 2381 2855 2742 
Q 2594 3103 2138 3103 
Q 1681 3103 1420 2742 
Q 1159 2381 1159 1747 
Q 1159 1113 1420 752 
Q 1681 391 2138 391 
Q 2594 391 2855 752 
Q 3116 1113 3116 1747 
z
M 1159 2969 
Q 1341 3281 1617 3432 
Q 1894 3584 2278 3584 
Q 2916 3584 3314 3078 
Q 3713 2572 3713 1747 
Q 3713 922 3314 415 
Q 2916 -91 2278 -91 
Q 1894 -91 1617 61 
Q 1341 213 1159 525 
L 1159 0 
L 581 0 
L 581 4863 
L 1159 4863 
L 1159 2969 
z
" transform="scale(0.015625)"/>
        <path id="DejaVuSans-75" d="M 544 1381 
L 544 3500 
L 1119 3500 
L 1119 1403 
Q 1119 906 1312 657 
Q 1506 409 1894 409 
Q 2359 409 2629 706 
Q 2900 1003 2900 1516 
L 2900 3500 
L 3475 3500 
L 3475 0 
L 2900 0 
L 2900 538 
Q 2691 219 2414 64 
Q 2138 -91 1772 -91 
Q 1169 -91 856 284 
Q 544 659 544 1381 
z
M 1991 3584 
L 1991 3584 
z
" transform="scale(0.015625)"/>
       </defs>
       <use xlink:href="#DejaVuSans-62"/>
       <use xlink:href="#DejaVuSans-75" transform="translate(63.476562 0)"/>
       <use xlink:href="#DejaVuSans-74" transform="translate(126.855469 0)"/>
       <use xlink:href="#DejaVuSans-61" transform="translate(166.064453 0)"/>
       <use xlink:href="#DejaVuSans-6e" transform="translate(227.34375 0)"/>
       <use xlink:href="#DejaVuSans-65" transform="translate(290.722656 0)"/>
      </g>
     </g>
    </g>
    <g id="xtick_17">
     <g id="line2d_24">
      <g>
       <use xlink:href="#m5fe81229f6" x="336.88277" y="576.29725" style="stroke: #000000; stroke-width: 0.8"/>
      </g>
     </g>
     <g id="text_22">
      <!-- pentane -->
      <g transform="translate(319.133284 631.781573) rotate(-45) scale(0.14 -0.14)">
       <use xlink:href="#DejaVuSans-70"/>
       <use xlink:href="#DejaVuSans-65" transform="translate(63.476562 0)"/>
       <use xlink:href="#DejaVuSans-6e" transform="translate(125 0)"/>
       <use xlink:href="#DejaVuSans-74" transform="translate(188.378906 0)"/>
       <use xlink:href="#DejaVuSans-61" transform="translate(227.587891 0)"/>
       <use xlink:href="#DejaVuSans-6e" transform="translate(288.867188 0)"/>
       <use xlink:href="#DejaVuSans-65" transform="translate(352.246094 0)"/>
      </g>
     </g>
    </g>
    <g id="xtick_18">
     <g id="line2d_25">
      <g>
       <use xlink:href="#m5fe81229f6" x="398.081068" y="576.29725" style="stroke: #000000; stroke-width: 0.8"/>
      </g>
     </g>
     <g id="text_23">
      <!-- hexane -->
      <g transform="translate(382.571344 627.302052) rotate(-45) scale(0.14 -0.14)">
       <defs>
        <path id="DejaVuSans-78" d="M 3513 3500 
L 2247 1797 
L 3578 0 
L 2900 0 
L 1881 1375 
L 863 0 
L 184 0 
L 1544 1831 
L 300 3500 
L 978 3500 
L 1906 2253 
L 2834 3500 
L 3513 3500 
z
" transform="scale(0.015625)"/>
       </defs>
       <use xlink:href="#DejaVuSans-68"/>
       <use xlink:href="#DejaVuSans-65" transform="translate(63.378906 0)"/>
       <use xlink:href="#DejaVuSans-78" transform="translate(123.152344 0)"/>
       <use xlink:href="#DejaVuSans-61" transform="translate(182.332031 0)"/>
       <use xlink:href="#DejaVuSans-6e" transform="translate(243.611328 0)"/>
       <use xlink:href="#DejaVuSans-65" transform="translate(306.990234 0)"/>
      </g>
     </g>
    </g>
   </g>
   <g id="matplotlib.axis_6">
    <g id="ytick_8">
     <g id="line2d_26">
      <g>
       <use xlink:href="#m897d7d0116" x="76.79" y="563.814256" style="stroke: #000000; stroke-width: 0.8"/>
      </g>
     </g>
     <g id="text_24">
      <!-- −2 -->
      <g transform="translate(49.150938 569.133162) scale(0.14 -0.14)">
       <use xlink:href="#DejaVuSans-2212"/>
       <use xlink:href="#DejaVuSans-32" transform="translate(83.789062 0)"/>
      </g>
     </g>
    </g>
    <g id="ytick_9">
     <g id="line2d_27">
      <g>
       <use xlink:href="#m897d7d0116" x="76.79" y="523.135247" style="stroke: #000000; stroke-width: 0.8"/>
      </g>
     </g>
     <g id="text_25">
      <!-- 0 -->
      <g transform="translate(60.8825 528.454153) scale(0.14 -0.14)">
       <use xlink:href="#DejaVuSans-30"/>
      </g>
     </g>
    </g>
    <g id="ytick_10">
     <g id="line2d_28">
      <g>
       <use xlink:href="#m897d7d0116" x="76.79" y="482.456237" style="stroke: #000000; stroke-width: 0.8"/>
      </g>
     </g>
     <g id="text_26">
      <!-- 2 -->
      <g transform="translate(60.8825 487.775143) scale(0.14 -0.14)">
       <use xlink:href="#DejaVuSans-32"/>
      </g>
     </g>
    </g>
    <g id="ytick_11">
     <g id="line2d_29">
      <g>
       <use xlink:href="#m897d7d0116" x="76.79" y="441.777228" style="stroke: #000000; stroke-width: 0.8"/>
      </g>
     </g>
     <g id="text_27">
      <!-- 4 -->
      <g transform="translate(60.8825 447.096134) scale(0.14 -0.14)">
       <use xlink:href="#DejaVuSans-34"/>
      </g>
     </g>
    </g>
    <g id="text_28">
     <!-- psi4 comparison [Eh] -->
     <g transform="translate(41.823437 579.736875) rotate(-90) scale(0.16 -0.16)">
      <use xlink:href="#DejaVuSans-70"/>
      <use xlink:href="#DejaVuSans-73" transform="translate(63.476562 0)"/>
      <use xlink:href="#DejaVuSans-69" transform="translate(115.576172 0)"/>
      <use xlink:href="#DejaVuSans-34" transform="translate(143.359375 0)"/>
      <use xlink:href="#DejaVuSans-20" transform="translate(206.982422 0)"/>
      <use xlink:href="#DejaVuSans-63" transform="translate(238.769531 0)"/>
      <use xlink:href="#DejaVuSans-6f" transform="translate(293.75 0)"/>
      <use xlink:href="#DejaVuSans-6d" transform="translate(354.931641 0)"/>
      <use xlink:href="#DejaVuSans-70" transform="translate(452.34375 0)"/>
      <use xlink:href="#DejaVuSans-61" transform="translate(515.820312 0)"/>
      <use xlink:href="#DejaVuSans-72" transform="translate(577.099609 0)"/>
      <use xlink:href="#DejaVuSans-69" transform="translate(618.212891 0)"/>
      <use xlink:href="#DejaVuSans-73" transform="translate(645.996094 0)"/>
      <use xlink:href="#DejaVuSans-6f" transform="translate(698.095703 0)"/>
      <use xlink:href="#DejaVuSans-6e" transform="translate(759.277344 0)"/>
      <use xlink:href="#DejaVuSans-20" transform="translate(822.65625 0)"/>
      <use xlink:href="#DejaVuSans-5b" transform="translate(854.443359 0)"/>
      <use xlink:href="#DejaVuSans-45" transform="translate(893.457031 0)"/>
      <use xlink:href="#DejaVuSans-68" transform="translate(956.640625 0)"/>
      <use xlink:href="#DejaVuSans-5d" transform="translate(1020.019531 0)"/>
     </g>
    </g>
    <g id="text_29">
     <!-- 1e−10 -->
     <g transform="translate(76.79 410.7315) scale(0.1 -0.1)">
      <use xlink:href="#DejaVuSans-31"/>
      <use xlink:href="#DejaVuSans-65" transform="translate(63.623047 0)"/>
      <use xlink:href="#DejaVuSans-2212" transform="translate(125.146484 0)"/>
      <use xlink:href="#DejaVuSans-31" transform="translate(208.935547 0)"/>
      <use xlink:href="#DejaVuSans-30" transform="translate(272.558594 0)"/>
     </g>
    </g>
   </g>
   <g id="patch_13">
    <path d="M 76.79 576.29725 
L 76.79 413.7315 
" style="fill: none; stroke: #000000; stroke-width: 0.8; stroke-linejoin: miter; stroke-linecap: square"/>
   </g>
   <g id="patch_14">
    <path d="M 413.380643 576.29725 
L 413.380643 413.7315 
" style="fill: none; stroke: #000000; stroke-width: 0.8; stroke-linejoin: miter; stroke-linecap: square"/>
   </g>
   <g id="patch_15">
    <path d="M 76.79 576.29725 
L 413.380643 576.29725 
" style="fill: none; stroke: #000000; stroke-width: 0.8; stroke-linejoin: miter; stroke-linecap: square"/>
   </g>
   <g id="patch_16">
    <path d="M 76.79 413.7315 
L 413.380643 413.7315 
" style="fill: none; stroke: #000000; stroke-width: 0.8; stroke-linejoin: miter; stroke-linecap: square"/>
   </g>
  </g>
  <g id="text_30">
   <!-- Alkanes -->
   <g transform="translate(184.75 25.1175) scale(0.16 -0.16)">
    <defs>
     <path id="DejaVuSans-41" d="M 2188 4044 
L 1331 1722 
L 3047 1722 
L 2188 4044 
z
M 1831 4666 
L 2547 4666 
L 4325 0 
L 3669 0 
L 3244 1197 
L 1141 1197 
L 716 0 
L 50 0 
L 1831 4666 
z
" transform="scale(0.015625)"/>
     <path id="DejaVuSans-6b" d="M 581 4863 
L 1159 4863 
L 1159 1991 
L 2875 3500 
L 3609 3500 
L 1753 1863 
L 3688 0 
L 2938 0 
L 1159 1709 
L 1159 0 
L 581 0 
L 581 4863 
z
" transform="scale(0.015625)"/>
    </defs>
    <use xlink:href="#DejaVuSans-41"/>
    <use xlink:href="#DejaVuSans-6c" transform="translate(68.408203 0)"/>
    <use xlink:href="#DejaVuSans-6b" transform="translate(96.191406 0)"/>
    <use xlink:href="#DejaVuSans-61" transform="translate(152.351562 0)"/>
    <use xlink:href="#DejaVuSans-6e" transform="translate(213.630859 0)"/>
    <use xlink:href="#DejaVuSans-65" transform="translate(277.009766 0)"/>
    <use xlink:href="#DejaVuSans-73" transform="translate(338.533203 0)"/>
   </g>
  </g>
 </g>
 <defs>
  <clipPath id="pa55d95e6a9">
   <rect x="76.79" y="38.16" width="336.590643" height="162.56575"/>
  </clipPath>
  <clipPath id="p41d888050b">
   <rect x="76.79" y="225.94575" width="336.590643" height="162.56575"/>
  </clipPath>
  <clipPath id="p8abeb1dd0e">
   <rect x="76.79" y="413.7315" width="336.590643" height="162.56575"/>
  </clipPath>
 </defs>
</svg>
