<?xml version="1.0" encoding="utf-8" standalone="no"?>
<!DOCTYPE svg PUBLIC "-//W3C//DTD SVG 1.1//EN"
  "http://www.w3.org/Graphics/SVG/1.1/DTD/svg11.dtd">
<svg xmlns:xlink="http://www.w3.org/1999/xlink" width="432pt" height="648pt" viewBox="0 0 432 648" xmlns="http://www.w3.org/2000/svg" version="1.1">
 <metadata>
  <rdf:RDF xmlns:dc="http://purl.org/dc/elements/1.1/" xmlns:cc="http://creativecommons.org/ns#" xmlns:rdf="http://www.w3.org/1999/02/22-rdf-syntax-ns#">
   <cc:Work>
    <dc:type rdf:resource="http://purl.org/dc/dcmitype/StillImage"/>
    <dc:date>2025-07-31T22:44:50.078569</dc:date>
    <dc:format>image/svg+xml</dc:format>
    <dc:creator>
     <cc:Agent>
      <dc:title>Matplotlib v3.10.0, https://matplotlib.org/</dc:title>
     </cc:Agent>
    </dc:creator>
   </cc:Work>
  </rdf:RDF>
 </metadata>
 <defs>
  <style type="text/css">*{stroke-linejoin: round; stroke-linecap: butt}</style>
 </defs>
 <g id="figure_1">
  <g id="patch_1">
   <path d="M 0 648 
L 432 648 
L 432 0 
L 0 0 
z
" style="fill: #ffffff"/>
  </g>
  <g id="axes_1">
   <g id="patch_2">
    <path d="M 76.79 198.173742 
L 408.544033 198.173742 
L 408.544033 38.16 
L 76.79 38.16 
z
" style="fill: #ffffff"/>
   </g>
   <g id="PathCollection_1">
    <path d="M 91.869729 48.968886 
C 92.807363 48.968886 93.706721 48.59636 94.369729 47.933352 
C 95.032737 47.270344 95.405263 46.370986 95.405263 45.433352 
C 95.405263 44.495717 95.032737 43.59636 94.369729 42.933352 
C 93.706721 42.270344 92.807363 41.897818 91.869729 41.897818 
C 90.932094 41.897818 90.032737 42.270344 89.369729 42.933352 
C 88.706721 43.59636 88.334195 44.495717 88.334195 45.433352 
C 88.334195 46.370986 88.706721 47.270344 89.369729 47.933352 
C 90.032737 48.59636 90.932094 48.968886 91.869729 48.968886 
L 91.869729 48.968886 
z
" clip-path="url(#pd8e9d76b96)" style="fill: none; stroke: #d2e9f8"/>
   </g>
   <g id="PathCollection_2">
    <defs>
     <path id="mb534c70d56" d="M 0 1.581139 
C 0.419323 1.581139 0.821528 1.41454 1.118034 1.118034 
C 1.41454 0.821528 1.581139 0.419323 1.581139 0 
C 1.581139 -0.419323 1.41454 -0.821528 1.118034 -1.118034 
C 0.821528 -1.41454 0.419323 -1.581139 0 -1.581139 
C -0.419323 -1.581139 -0.821528 -1.41454 -1.118034 -1.118034 
C -1.41454 -0.821528 -1.581139 -0.419323 -1.581139 0 
C -1.581139 0.419323 -1.41454 0.821528 -1.118034 1.118034 
C -0.821528 1.41454 -0.419323 1.581139 0 1.581139 
z
" style="stroke: #69e0ac"/>
    </defs>
    <g clip-path="url(#pd8e9d76b96)">
     <use xlink:href="#mb534c70d56" x="91.869729" y="45.433352" style="fill: #1f77b4; stroke: #69e0ac"/>
    </g>
   </g>
   <g id="PathCollection_3">
    <path d="M 167.268373 85.339454 
C 168.206007 85.339454 169.105365 84.966928 169.768373 84.303921 
C 170.43138 83.640913 170.803906 82.741555 170.803906 81.803921 
C 170.803906 80.866286 170.43138 79.966928 169.768373 79.303921 
C 169.105365 78.640913 168.206007 78.268387 167.268373 78.268387 
C 166.330738 78.268387 165.43138 78.640913 164.768373 79.303921 
C 164.105365 79.966928 163.732839 80.866286 163.732839 81.803921 
C 163.732839 82.741555 164.105365 83.640913 164.768373 84.303921 
C 165.43138 84.966928 166.330738 85.339454 167.268373 85.339454 
L 167.268373 85.339454 
z
" clip-path="url(#pd8e9d76b96)" style="fill: none; stroke: #7f799d"/>
   </g>
   <g id="PathCollection_4">
    <defs>
     <path id="mf91fa5e90f" d="M 0 1.581139 
C 0.419323 1.581139 0.821528 1.41454 1.118034 1.118034 
C 1.41454 0.821528 1.581139 0.419323 1.581139 0 
C 1.581139 -0.419323 1.41454 -0.821528 1.118034 -1.118034 
C 0.821528 -1.41454 0.419323 -1.581139 0 -1.581139 
C -0.419323 -1.581139 -0.821528 -1.41454 -1.118034 -1.118034 
C -1.41454 -0.821528 -1.581139 -0.419323 -1.581139 0 
C -1.581139 0.419323 -1.41454 0.821528 -1.118034 1.118034 
C -0.821528 1.41454 -0.419323 1.581139 0 1.581139 
z
" style="stroke: #a75129"/>
    </defs>
    <g clip-path="url(#pd8e9d76b96)">
     <use xlink:href="#mf91fa5e90f" x="167.268373" y="81.803921" style="fill: #ff7f0e; stroke: #a75129"/>
    </g>
   </g>
   <g id="PathCollection_5">
    <path d="M 242.667016 121.705236 
C 243.604651 121.705236 244.504009 121.33271 245.167016 120.669703 
C 245.830024 120.006695 246.20255 119.107337 246.20255 118.169703 
C 246.20255 117.232068 245.830024 116.33271 245.167016 115.669703 
C 244.504009 115.006695 243.604651 114.634169 242.667016 114.634169 
C 241.729382 114.634169 240.830024 115.006695 240.167016 115.669703 
C 239.504009 116.33271 239.131482 117.232068 239.131482 118.169703 
C 239.131482 119.107337 239.504009 120.006695 240.167016 120.669703 
C 240.830024 121.33271 241.729382 121.705236 242.667016 121.705236 
L 242.667016 121.705236 
z
" clip-path="url(#pd8e9d76b96)" style="fill: none; stroke: #6719db"/>
   </g>
   <g id="PathCollection_6">
    <defs>
     <path id="ma7613e5962" d="M 0 1.581139 
C 0.419323 1.581139 0.821528 1.41454 1.118034 1.118034 
C 1.41454 0.821528 1.581139 0.419323 1.581139 0 
C 1.581139 -0.419323 1.41454 -0.821528 1.118034 -1.118034 
C 0.821528 -1.41454 0.419323 -1.581139 0 -1.581139 
C -0.419323 -1.581139 -0.821528 -1.41454 -1.118034 -1.118034 
C -1.41454 -0.821528 -1.581139 -0.419323 -1.581139 0 
C -1.581139 0.419323 -1.41454 0.821528 -1.118034 1.118034 
C -0.821528 1.41454 -0.419323 1.581139 0 1.581139 
z
" style="stroke: #b1ccfd"/>
    </defs>
    <g clip-path="url(#pd8e9d76b96)">
     <use xlink:href="#ma7613e5962" x="242.667016" y="118.169703" style="fill: #2ca02c; stroke: #b1ccfd"/>
    </g>
   </g>
   <g id="PathCollection_7">
    <path d="M 318.06566 158.070913 
C 319.003295 158.070913 319.902652 157.698387 320.56566 157.035379 
C 321.228668 156.372372 321.601194 155.473014 321.601194 154.535379 
C 321.601194 153.597745 321.228668 152.698387 320.56566 152.035379 
C 319.902652 151.372372 319.003295 150.999846 318.06566 150.999846 
C 317.128025 150.999846 316.228668 151.372372 315.56566 152.035379 
C 314.902652 152.698387 314.530126 153.597745 314.530126 154.535379 
C 314.530126 155.473014 314.902652 156.372372 315.56566 157.035379 
C 316.228668 157.698387 317.128025 158.070913 318.06566 158.070913 
L 318.06566 158.070913 
z
" clip-path="url(#pd8e9d76b96)" style="fill: none; stroke: #1d6f5b"/>
   </g>
   <g id="PathCollection_8">
    <defs>
     <path id="m3d7f169a5b" d="M 0 1.581139 
C 0.419323 1.581139 0.821528 1.41454 1.118034 1.118034 
C 1.41454 0.821528 1.581139 0.419323 1.581139 0 
C 1.581139 -0.419323 1.41454 -0.821528 1.118034 -1.118034 
C 0.821528 -1.41454 0.419323 -1.581139 0 -1.581139 
C -0.419323 -1.581139 -0.821528 -1.41454 -1.118034 -1.118034 
C -1.41454 -0.821528 -1.581139 -0.419323 -1.581139 0 
C -1.581139 0.419323 -1.41454 0.821528 -1.118034 1.118034 
C -0.821528 1.41454 -0.419323 1.581139 0 1.581139 
z
" style="stroke: #220f6d"/>
    </defs>
    <g clip-path="url(#pd8e9d76b96)">
     <use xlink:href="#m3d7f169a5b" x="318.06566" y="154.535379" style="fill: #d62728; stroke: #220f6d"/>
    </g>
   </g>
   <g id="PathCollection_9">
    <path d="M 393.464304 194.435924 
C 394.401938 194.435924 395.301296 194.063398 395.964304 193.40039 
C 396.627312 192.737382 396.999838 191.838024 396.999838 190.90039 
C 396.999838 189.962755 396.627312 189.063398 395.964304 188.40039 
C 395.301296 187.737382 394.401938 187.364856 393.464304 187.364856 
C 392.526669 187.364856 391.627312 187.737382 390.964304 188.40039 
C 390.301296 189.063398 389.92877 189.962755 389.92877 190.90039 
C 389.92877 191.838024 390.301296 192.737382 390.964304 193.40039 
C 391.627312 194.063398 392.526669 194.435924 393.464304 194.435924 
L 393.464304 194.435924 
z
" clip-path="url(#pd8e9d76b96)" style="fill: none; stroke: #a33262"/>
   </g>
   <g id="PathCollection_10">
    <defs>
     <path id="mae468d3169" d="M 0 1.581139 
C 0.419323 1.581139 0.821528 1.41454 1.118034 1.118034 
C 1.41454 0.821528 1.581139 0.419323 1.581139 0 
C 1.581139 -0.419323 1.41454 -0.821528 1.118034 -1.118034 
C 0.821528 -1.41454 0.419323 -1.581139 0 -1.581139 
C -0.419323 -1.581139 -0.821528 -1.41454 -1.118034 -1.118034 
C -1.41454 -0.821528 -1.581139 -0.419323 -1.581139 0 
C -1.581139 0.419323 -1.41454 0.821528 -1.118034 1.118034 
C -0.821528 1.41454 -0.419323 1.581139 0 1.581139 
z
" style="stroke: #7b8354"/>
    </defs>
    <g clip-path="url(#pd8e9d76b96)">
     <use xlink:href="#mae468d3169" x="393.464304" y="190.90039" style="fill: #9467bd; stroke: #7b8354"/>
    </g>
   </g>
   <g id="matplotlib.axis_1">
    <g id="xtick_1">
     <g id="line2d_1">
      <defs>
       <path id="m7665790331" d="M 0 0 
L 0 3.5 
" style="stroke: #000000; stroke-width: 0.8"/>
      </defs>
      <g>
       <use xlink:href="#m7665790331" x="91.869729" y="198.173742" style="stroke: #000000; stroke-width: 0.8"/>
      </g>
     </g>
    </g>
    <g id="xtick_2">
     <g id="line2d_2">
      <g>
       <use xlink:href="#m7665790331" x="167.268373" y="198.173742" style="stroke: #000000; stroke-width: 0.8"/>
      </g>
     </g>
    </g>
    <g id="xtick_3">
     <g id="line2d_3">
      <g>
       <use xlink:href="#m7665790331" x="242.667016" y="198.173742" style="stroke: #000000; stroke-width: 0.8"/>
      </g>
     </g>
    </g>
    <g id="xtick_4">
     <g id="line2d_4">
      <g>
       <use xlink:href="#m7665790331" x="318.06566" y="198.173742" style="stroke: #000000; stroke-width: 0.8"/>
      </g>
     </g>
    </g>
    <g id="xtick_5">
     <g id="line2d_5">
      <g>
       <use xlink:href="#m7665790331" x="393.464304" y="198.173742" style="stroke: #000000; stroke-width: 0.8"/>
      </g>
     </g>
    </g>
   </g>
   <g id="matplotlib.axis_2">
    <g id="ytick_1">
     <g id="line2d_6">
      <defs>
       <path id="mdc32ac4947" d="M 0 0 
L -3.5 0 
" style="stroke: #000000; stroke-width: 0.8"/>
      </defs>
      <g>
       <use xlink:href="#mdc32ac4947" x="76.79" y="159.047765" style="stroke: #000000; stroke-width: 0.8"/>
      </g>
     </g>
     <g id="text_1">
      <!-- −200 -->
      <g transform="translate(31.335938 164.366671) scale(0.14 -0.14)">
       <defs>
        <path id="DejaVuSans-2212" d="M 678 2272 
L 4684 2272 
L 4684 1741 
L 678 1741 
L 678 2272 
z
" transform="scale(0.015625)"/>
        <path id="DejaVuSans-32" d="M 1228 531 
L 3431 531 
L 3431 0 
L 469 0 
L 469 531 
Q 828 903 1448 1529 
Q 2069 2156 2228 2338 
Q 2531 2678 2651 2914 
Q 2772 3150 2772 3378 
Q 2772 3750 2511 3984 
Q 2250 4219 1831 4219 
Q 1534 4219 1204 4116 
Q 875 4013 500 3803 
L 500 4441 
Q 881 4594 1212 4672 
Q 1544 4750 1819 4750 
Q 2544 4750 2975 4387 
Q 3406 4025 3406 3419 
Q 3406 3131 3298 2873 
Q 3191 2616 2906 2266 
Q 2828 2175 2409 1742 
Q 1991 1309 1228 531 
z
" transform="scale(0.015625)"/>
        <path id="DejaVuSans-30" d="M 2034 4250 
Q 1547 4250 1301 3770 
Q 1056 3291 1056 2328 
Q 1056 1369 1301 889 
Q 1547 409 2034 409 
Q 2525 409 2770 889 
Q 3016 1369 3016 2328 
Q 3016 3291 2770 3770 
Q 2525 4250 2034 4250 
z
M 2034 4750 
Q 2819 4750 3233 4129 
Q 3647 3509 3647 2328 
Q 3647 1150 3233 529 
Q 2819 -91 2034 -91 
Q 1250 -91 836 529 
Q 422 1150 422 2328 
Q 422 3509 836 4129 
Q 1250 4750 2034 4750 
z
" transform="scale(0.015625)"/>
       </defs>
       <use xlink:href="#DejaVuSans-2212"/>
       <use xlink:href="#DejaVuSans-32" transform="translate(83.789062 0)"/>
       <use xlink:href="#DejaVuSans-30" transform="translate(147.412109 0)"/>
       <use xlink:href="#DejaVuSans-30" transform="translate(211.035156 0)"/>
      </g>
     </g>
    </g>
    <g id="ytick_2">
     <g id="line2d_7">
      <g>
       <use xlink:href="#mdc32ac4947" x="76.79" y="112.469227" style="stroke: #000000; stroke-width: 0.8"/>
      </g>
     </g>
     <g id="text_2">
      <!-- −150 -->
      <g transform="translate(31.335938 117.788133) scale(0.14 -0.14)">
       <defs>
        <path id="DejaVuSans-31" d="M 794 531 
L 1825 531 
L 1825 4091 
L 703 3866 
L 703 4441 
L 1819 4666 
L 2450 4666 
L 2450 531 
L 3481 531 
L 3481 0 
L 794 0 
L 794 531 
z
" transform="scale(0.015625)"/>
        <path id="DejaVuSans-35" d="M 691 4666 
L 3169 4666 
L 3169 4134 
L 1269 4134 
L 1269 2991 
Q 1406 3038 1543 3061 
Q 1681 3084 1819 3084 
Q 2600 3084 3056 2656 
Q 3513 2228 3513 1497 
Q 3513 744 3044 326 
Q 2575 -91 1722 -91 
Q 1428 -91 1123 -41 
Q 819 9 494 109 
L 494 744 
Q 775 591 1075 516 
Q 1375 441 1709 441 
Q 2250 441 2565 725 
Q 2881 1009 2881 1497 
Q 2881 1984 2565 2268 
Q 2250 2553 1709 2553 
Q 1456 2553 1204 2497 
Q 953 2441 691 2322 
L 691 4666 
z
" transform="scale(0.015625)"/>
       </defs>
       <use xlink:href="#DejaVuSans-2212"/>
       <use xlink:href="#DejaVuSans-31" transform="translate(83.789062 0)"/>
       <use xlink:href="#DejaVuSans-35" transform="translate(147.412109 0)"/>
       <use xlink:href="#DejaVuSans-30" transform="translate(211.035156 0)"/>
      </g>
     </g>
    </g>
    <g id="ytick_3">
     <g id="line2d_8">
      <g>
       <use xlink:href="#mdc32ac4947" x="76.79" y="65.890688" style="stroke: #000000; stroke-width: 0.8"/>
      </g>
     </g>
     <g id="text_3">
      <!-- −100 -->
      <g transform="translate(31.335938 71.209594) scale(0.14 -0.14)">
       <use xlink:href="#DejaVuSans-2212"/>
       <use xlink:href="#DejaVuSans-31" transform="translate(83.789062 0)"/>
       <use xlink:href="#DejaVuSans-30" transform="translate(147.412109 0)"/>
       <use xlink:href="#DejaVuSans-30" transform="translate(211.035156 0)"/>
      </g>
     </g>
    </g>
    <g id="text_4">
     <!-- energy [Eh] -->
     <g transform="translate(24.008437 164.954371) rotate(-90) scale(0.16 -0.16)">
      <defs>
       <path id="DejaVuSans-65" d="M 3597 1894 
L 3597 1613 
L 953 1613 
Q 991 1019 1311 708 
Q 1631 397 2203 397 
Q 2534 397 2845 478 
Q 3156 559 3463 722 
L 3463 178 
Q 3153 47 2828 -22 
Q 2503 -91 2169 -91 
Q 1331 -91 842 396 
Q 353 884 353 1716 
Q 353 2575 817 3079 
Q 1281 3584 2069 3584 
Q 2775 3584 3186 3129 
Q 3597 2675 3597 1894 
z
M 3022 2063 
Q 3016 2534 2758 2815 
Q 2500 3097 2075 3097 
Q 1594 3097 1305 2825 
Q 1016 2553 972 2059 
L 3022 2063 
z
" transform="scale(0.015625)"/>
       <path id="DejaVuSans-6e" d="M 3513 2113 
L 3513 0 
L 2938 0 
L 2938 2094 
Q 2938 2591 2744 2837 
Q 2550 3084 2163 3084 
Q 1697 3084 1428 2787 
Q 1159 2491 1159 1978 
L 1159 0 
L 581 0 
L 581 3500 
L 1159 3500 
L 1159 2956 
Q 1366 3272 1645 3428 
Q 1925 3584 2291 3584 
Q 2894 3584 3203 3211 
Q 3513 2838 3513 2113 
z
" transform="scale(0.015625)"/>
       <path id="DejaVuSans-72" d="M 2631 2963 
Q 2534 3019 2420 3045 
Q 2306 3072 2169 3072 
Q 1681 3072 1420 2755 
Q 1159 2438 1159 1844 
L 1159 0 
L 581 0 
L 581 3500 
L 1159 3500 
L 1159 2956 
Q 1341 3275 1631 3429 
Q 1922 3584 2338 3584 
Q 2397 3584 2469 3576 
Q 2541 3569 2628 3553 
L 2631 2963 
z
" transform="scale(0.015625)"/>
       <path id="DejaVuSans-67" d="M 2906 1791 
Q 2906 2416 2648 2759 
Q 2391 3103 1925 3103 
Q 1463 3103 1205 2759 
Q 947 2416 947 1791 
Q 947 1169 1205 825 
Q 1463 481 1925 481 
Q 2391 481 2648 825 
Q 2906 1169 2906 1791 
z
M 3481 434 
Q 3481 -459 3084 -895 
Q 2688 -1331 1869 -1331 
Q 1566 -1331 1297 -1286 
Q 1028 -1241 775 -1147 
L 775 -588 
Q 1028 -725 1275 -790 
Q 1522 -856 1778 -856 
Q 2344 -856 2625 -561 
Q 2906 -266 2906 331 
L 2906 616 
Q 2728 306 2450 153 
Q 2172 0 1784 0 
Q 1141 0 747 490 
Q 353 981 353 1791 
Q 353 2603 747 3093 
Q 1141 3584 1784 3584 
Q 2172 3584 2450 3431 
Q 2728 3278 2906 2969 
L 2906 3500 
L 3481 3500 
L 3481 434 
z
" transform="scale(0.015625)"/>
       <path id="DejaVuSans-79" d="M 2059 -325 
Q 1816 -950 1584 -1140 
Q 1353 -1331 966 -1331 
L 506 -1331 
L 506 -850 
L 844 -850 
Q 1081 -850 1212 -737 
Q 1344 -625 1503 -206 
L 1606 56 
L 191 3500 
L 800 3500 
L 1894 763 
L 2988 3500 
L 3597 3500 
L 2059 -325 
z
" transform="scale(0.015625)"/>
       <path id="DejaVuSans-20" transform="scale(0.015625)"/>
       <path id="DejaVuSans-5b" d="M 550 4863 
L 1875 4863 
L 1875 4416 
L 1125 4416 
L 1125 -397 
L 1875 -397 
L 1875 -844 
L 550 -844 
L 550 4863 
z
" transform="scale(0.015625)"/>
       <path id="DejaVuSans-45" d="M 628 4666 
L 3578 4666 
L 3578 4134 
L 1259 4134 
L 1259 2753 
L 3481 2753 
L 3481 2222 
L 1259 2222 
L 1259 531 
L 3634 531 
L 3634 0 
L 628 0 
L 628 4666 
z
" transform="scale(0.015625)"/>
       <path id="DejaVuSans-68" d="M 3513 2113 
L 3513 0 
L 2938 0 
L 2938 2094 
Q 2938 2591 2744 2837 
Q 2550 3084 2163 3084 
Q 1697 3084 1428 2787 
Q 1159 2491 1159 1978 
L 1159 0 
L 581 0 
L 581 4863 
L 1159 4863 
L 1159 2956 
Q 1366 3272 1645 3428 
Q 1925 3584 2291 3584 
Q 2894 3584 3203 3211 
Q 3513 2838 3513 2113 
z
" transform="scale(0.015625)"/>
       <path id="DejaVuSans-5d" d="M 1947 4863 
L 1947 -844 
L 622 -844 
L 622 -397 
L 1369 -397 
L 1369 4416 
L 622 4416 
L 622 4863 
L 1947 4863 
z
" transform="scale(0.015625)"/>
      </defs>
      <use xlink:href="#DejaVuSans-65"/>
      <use xlink:href="#DejaVuSans-6e" transform="translate(61.523438 0)"/>
      <use xlink:href="#DejaVuSans-65" transform="translate(124.902344 0)"/>
      <use xlink:href="#DejaVuSans-72" transform="translate(186.425781 0)"/>
      <use xlink:href="#DejaVuSans-67" transform="translate(225.789062 0)"/>
      <use xlink:href="#DejaVuSans-79" transform="translate(289.265625 0)"/>
      <use xlink:href="#DejaVuSans-20" transform="translate(348.445312 0)"/>
      <use xlink:href="#DejaVuSans-5b" transform="translate(380.232422 0)"/>
      <use xlink:href="#DejaVuSans-45" transform="translate(419.246094 0)"/>
      <use xlink:href="#DejaVuSans-68" transform="translate(482.429688 0)"/>
      <use xlink:href="#DejaVuSans-5d" transform="translate(545.808594 0)"/>
     </g>
    </g>
   </g>
   <g id="patch_3">
    <path d="M 76.79 198.173742 
L 76.79 38.16 
" style="fill: none; stroke: #000000; stroke-width: 0.8; stroke-linejoin: miter; stroke-linecap: square"/>
   </g>
   <g id="patch_4">
    <path d="M 408.544033 198.173742 
L 408.544033 38.16 
" style="fill: none; stroke: #000000; stroke-width: 0.8; stroke-linejoin: miter; stroke-linecap: square"/>
   </g>
   <g id="patch_5">
    <path d="M 76.79 198.173742 
L 408.544033 198.173742 
" style="fill: none; stroke: #000000; stroke-width: 0.8; stroke-linejoin: miter; stroke-linecap: square"/>
   </g>
   <g id="patch_6">
    <path d="M 76.79 38.16 
L 408.544033 38.16 
" style="fill: none; stroke: #000000; stroke-width: 0.8; stroke-linejoin: miter; stroke-linecap: square"/>
   </g>
   <g id="legend_1">
    <g id="PathCollection_11">
     <path d="M 360.845595 55.668971 
C 361.78323 55.668971 362.682587 55.296445 363.345595 54.633438 
C 364.008603 53.97043 364.381129 53.071072 364.381129 52.133438 
C 364.381129 51.195803 364.008603 50.296445 363.345595 49.633438 
C 362.682587 48.97043 361.78323 48.597904 360.845595 48.597904 
C 359.90796 48.597904 359.008603 48.97043 358.345595 49.633438 
C 357.682587 50.296445 357.310061 51.195803 357.310061 52.133438 
C 357.310061 53.071072 357.682587 53.97043 358.345595 54.633438 
C 359.008603 55.296445 359.90796 55.668971 360.845595 55.668971 
L 360.845595 55.668971 
z
" style="fill: none; stroke: #d2e9f8"/>
    </g>
    <g id="text_5">
     <!-- me -->
     <g transform="translate(378.845595 54.758438) scale(0.1 -0.1)">
      <defs>
       <path id="DejaVuSans-6d" d="M 3328 2828 
Q 3544 3216 3844 3400 
Q 4144 3584 4550 3584 
Q 5097 3584 5394 3201 
Q 5691 2819 5691 2113 
L 5691 0 
L 5113 0 
L 5113 2094 
Q 5113 2597 4934 2840 
Q 4756 3084 4391 3084 
Q 3944 3084 3684 2787 
Q 3425 2491 3425 1978 
L 3425 0 
L 2847 0 
L 2847 2094 
Q 2847 2600 2669 2842 
Q 2491 3084 2119 3084 
Q 1678 3084 1418 2786 
Q 1159 2488 1159 1978 
L 1159 0 
L 581 0 
L 581 3500 
L 1159 3500 
L 1159 2956 
Q 1356 3278 1631 3431 
Q 1906 3584 2284 3584 
Q 2666 3584 2933 3390 
Q 3200 3197 3328 2828 
z
" transform="scale(0.015625)"/>
      </defs>
      <use xlink:href="#DejaVuSans-6d"/>
      <use xlink:href="#DejaVuSans-65" transform="translate(97.412109 0)"/>
     </g>
    </g>
    <g id="PathCollection_12">
     <g>
      <use xlink:href="#mb534c70d56" x="360.845595" y="66.811563" style="fill: #1f77b4; stroke: #69e0ac"/>
     </g>
    </g>
    <g id="text_6">
     <!-- psi4 -->
     <g transform="translate(378.845595 69.436563) scale(0.1 -0.1)">
      <defs>
       <path id="DejaVuSans-70" d="M 1159 525 
L 1159 -1331 
L 581 -1331 
L 581 3500 
L 1159 3500 
L 1159 2969 
Q 1341 3281 1617 3432 
Q 1894 3584 2278 3584 
Q 2916 3584 3314 3078 
Q 3713 2572 3713 1747 
Q 3713 922 3314 415 
Q 2916 -91 2278 -91 
Q 1894 -91 1617 61 
Q 1341 213 1159 525 
z
M 3116 1747 
Q 3116 2381 2855 2742 
Q 2594 3103 2138 3103 
Q 1681 3103 1420 2742 
Q 1159 2381 1159 1747 
Q 1159 1113 1420 752 
Q 1681 391 2138 391 
Q 2594 391 2855 752 
Q 3116 1113 3116 1747 
z
" transform="scale(0.015625)"/>
       <path id="DejaVuSans-73" d="M 2834 3397 
L 2834 2853 
Q 2591 2978 2328 3040 
Q 2066 3103 1784 3103 
Q 1356 3103 1142 2972 
Q 928 2841 928 2578 
Q 928 2378 1081 2264 
Q 1234 2150 1697 2047 
L 1894 2003 
Q 2506 1872 2764 1633 
Q 3022 1394 3022 966 
Q 3022 478 2636 193 
Q 2250 -91 1575 -91 
Q 1294 -91 989 -36 
Q 684 19 347 128 
L 347 722 
Q 666 556 975 473 
Q 1284 391 1588 391 
Q 1994 391 2212 530 
Q 2431 669 2431 922 
Q 2431 1156 2273 1281 
Q 2116 1406 1581 1522 
L 1381 1569 
Q 847 1681 609 1914 
Q 372 2147 372 2553 
Q 372 3047 722 3315 
Q 1072 3584 1716 3584 
Q 2034 3584 2315 3537 
Q 2597 3491 2834 3397 
z
" transform="scale(0.015625)"/>
       <path id="DejaVuSans-69" d="M 603 3500 
L 1178 3500 
L 1178 0 
L 603 0 
L 603 3500 
z
M 603 4863 
L 1178 4863 
L 1178 4134 
L 603 4134 
L 603 4863 
z
" transform="scale(0.015625)"/>
       <path id="DejaVuSans-34" d="M 2419 4116 
L 825 1625 
L 2419 1625 
L 2419 4116 
z
M 2253 4666 
L 3047 4666 
L 3047 1625 
L 3713 1625 
L 3713 1100 
L 3047 1100 
L 3047 0 
L 2419 0 
L 2419 1100 
L 313 1100 
L 313 1709 
L 2253 4666 
z
" transform="scale(0.015625)"/>
      </defs>
      <use xlink:href="#DejaVuSans-70"/>
      <use xlink:href="#DejaVuSans-73" transform="translate(63.476562 0)"/>
      <use xlink:href="#DejaVuSans-69" transform="translate(115.576172 0)"/>
      <use xlink:href="#DejaVuSans-34" transform="translate(143.359375 0)"/>
     </g>
    </g>
   </g>
  </g>
  <g id="axes_2">
   <g id="patch_7">
    <path d="M 76.79 383.830777 
L 408.544033 383.830777 
L 408.544033 223.817035 
L 76.79 223.817035 
z
" style="fill: #ffffff"/>
   </g>
   <g id="PathCollection_13">
    <path d="M 91.869729 380.092959 
C 92.807363 380.092959 93.706721 379.720433 94.369729 379.057425 
C 95.032737 378.394417 95.405263 377.495059 95.405263 376.557425 
C 95.405263 375.61979 95.032737 374.720433 94.369729 374.057425 
C 93.706721 373.394417 92.807363 373.021891 91.869729 373.021891 
C 90.932094 373.021891 90.032737 373.394417 89.369729 374.057425 
C 88.706721 374.720433 88.334195 375.61979 88.334195 376.557425 
C 88.334195 377.495059 88.706721 378.394417 89.369729 379.057425 
C 90.032737 379.720433 90.932094 380.092959 91.869729 380.092959 
L 91.869729 380.092959 
z
" clip-path="url(#p0bb0760a9c)" style="fill: none; stroke: #354259"/>
   </g>
   <g id="PathCollection_14">
    <path d="M 167.268373 373.279689 
C 168.206007 373.279689 169.105365 372.907163 169.768373 372.244155 
C 170.43138 371.581147 170.803906 370.681789 170.803906 369.744155 
C 170.803906 368.80652 170.43138 367.907163 169.768373 367.244155 
C 169.105365 366.581147 168.206007 366.208621 167.268373 366.208621 
C 166.330738 366.208621 165.43138 366.581147 164.768373 367.244155 
C 164.105365 367.907163 163.732839 368.80652 163.732839 369.744155 
C 163.732839 370.681789 164.105365 371.581147 164.768373 372.244155 
C 165.43138 372.907163 166.330738 373.279689 167.268373 373.279689 
L 167.268373 373.279689 
z
" clip-path="url(#p0bb0760a9c)" style="fill: none; stroke: #87ca42"/>
   </g>
   <g id="PathCollection_15">
    <path d="M 242.667016 351.733241 
C 243.604651 351.733241 244.504009 351.360715 245.167016 350.697707 
C 245.830024 350.0347 246.20255 349.135342 246.20255 348.197707 
C 246.20255 347.260073 245.830024 346.360715 245.167016 345.697707 
C 244.504009 345.0347 243.604651 344.662173 242.667016 344.662173 
C 241.729382 344.662173 240.830024 345.0347 240.167016 345.697707 
C 239.504009 346.360715 239.131482 347.260073 239.131482 348.197707 
C 239.131482 349.135342 239.504009 350.0347 240.167016 350.697707 
C 240.830024 351.360715 241.729382 351.733241 242.667016 351.733241 
L 242.667016 351.733241 
z
" clip-path="url(#p0bb0760a9c)" style="fill: none; stroke: #ab5569"/>
   </g>
   <g id="PathCollection_16">
    <path d="M 318.06566 309.309474 
C 319.003295 309.309474 319.902652 308.936948 320.56566 308.27394 
C 321.228668 307.610932 321.601194 306.711574 321.601194 305.77394 
C 321.601194 304.836305 321.228668 303.936948 320.56566 303.27394 
C 319.902652 302.610932 319.003295 302.238406 318.06566 302.238406 
C 317.128025 302.238406 316.228668 302.610932 315.56566 303.27394 
C 314.902652 303.936948 314.530126 304.836305 314.530126 305.77394 
C 314.530126 306.711574 314.902652 307.610932 315.56566 308.27394 
C 316.228668 308.936948 317.128025 309.309474 318.06566 309.309474 
L 318.06566 309.309474 
z
" clip-path="url(#p0bb0760a9c)" style="fill: none; stroke: #b04249"/>
   </g>
   <g id="PathCollection_17">
    <path d="M 393.464304 234.625921 
C 394.401938 234.625921 395.301296 234.253395 395.964304 233.590387 
C 396.627312 232.927379 396.999838 232.028021 396.999838 231.090387 
C 396.999838 230.152752 396.627312 229.253395 395.964304 228.590387 
C 395.301296 227.927379 394.401938 227.554853 393.464304 227.554853 
C 392.526669 227.554853 391.627312 227.927379 390.964304 228.590387 
C 390.301296 229.253395 389.92877 230.152752 389.92877 231.090387 
C 389.92877 232.028021 390.301296 232.927379 390.964304 233.590387 
C 391.627312 234.253395 392.526669 234.625921 393.464304 234.625921 
L 393.464304 234.625921 
z
" clip-path="url(#p0bb0760a9c)" style="fill: none; stroke: #f79ed7"/>
   </g>
   <g id="matplotlib.axis_3">
    <g id="xtick_6">
     <g id="line2d_9">
      <g>
       <use xlink:href="#m7665790331" x="91.869729" y="383.830777" style="stroke: #000000; stroke-width: 0.8"/>
      </g>
     </g>
    </g>
    <g id="xtick_7">
     <g id="line2d_10">
      <g>
       <use xlink:href="#m7665790331" x="167.268373" y="383.830777" style="stroke: #000000; stroke-width: 0.8"/>
      </g>
     </g>
    </g>
    <g id="xtick_8">
     <g id="line2d_11">
      <g>
       <use xlink:href="#m7665790331" x="242.667016" y="383.830777" style="stroke: #000000; stroke-width: 0.8"/>
      </g>
     </g>
    </g>
    <g id="xtick_9">
     <g id="line2d_12">
      <g>
       <use xlink:href="#m7665790331" x="318.06566" y="383.830777" style="stroke: #000000; stroke-width: 0.8"/>
      </g>
     </g>
    </g>
    <g id="xtick_10">
     <g id="line2d_13">
      <g>
       <use xlink:href="#m7665790331" x="393.464304" y="383.830777" style="stroke: #000000; stroke-width: 0.8"/>
      </g>
     </g>
    </g>
   </g>
   <g id="matplotlib.axis_4">
    <g id="ytick_4">
     <g id="line2d_14">
      <g>
       <use xlink:href="#mdc32ac4947" x="76.79" y="379.080392" style="stroke: #000000; stroke-width: 0.8"/>
      </g>
     </g>
     <g id="text_7">
      <!-- 0 -->
      <g transform="translate(60.8825 384.399298) scale(0.14 -0.14)">
       <use xlink:href="#DejaVuSans-30"/>
      </g>
     </g>
    </g>
    <g id="ytick_5">
     <g id="line2d_15">
      <g>
       <use xlink:href="#mdc32ac4947" x="76.79" y="339.568538" style="stroke: #000000; stroke-width: 0.8"/>
      </g>
     </g>
     <g id="text_8">
      <!-- 50 -->
      <g transform="translate(51.975 344.887444) scale(0.14 -0.14)">
       <use xlink:href="#DejaVuSans-35"/>
       <use xlink:href="#DejaVuSans-30" transform="translate(63.623047 0)"/>
      </g>
     </g>
    </g>
    <g id="ytick_6">
     <g id="line2d_16">
      <g>
       <use xlink:href="#mdc32ac4947" x="76.79" y="300.056685" style="stroke: #000000; stroke-width: 0.8"/>
      </g>
     </g>
     <g id="text_9">
      <!-- 100 -->
      <g transform="translate(43.0675 305.375591) scale(0.14 -0.14)">
       <use xlink:href="#DejaVuSans-31"/>
       <use xlink:href="#DejaVuSans-30" transform="translate(63.623047 0)"/>
       <use xlink:href="#DejaVuSans-30" transform="translate(127.246094 0)"/>
      </g>
     </g>
    </g>
    <g id="ytick_7">
     <g id="line2d_17">
      <g>
       <use xlink:href="#mdc32ac4947" x="76.79" y="260.544831" style="stroke: #000000; stroke-width: 0.8"/>
      </g>
     </g>
     <g id="text_10">
      <!-- 150 -->
      <g transform="translate(43.0675 265.863737) scale(0.14 -0.14)">
       <use xlink:href="#DejaVuSans-31"/>
       <use xlink:href="#DejaVuSans-35" transform="translate(63.623047 0)"/>
       <use xlink:href="#DejaVuSans-30" transform="translate(127.246094 0)"/>
      </g>
     </g>
    </g>
    <g id="text_11">
     <!-- wall time [sec] -->
     <g transform="translate(35.74 362.603906) rotate(-90) scale(0.16 -0.16)">
      <defs>
       <path id="DejaVuSans-77" d="M 269 3500 
L 844 3500 
L 1563 769 
L 2278 3500 
L 2956 3500 
L 3675 769 
L 4391 3500 
L 4966 3500 
L 4050 0 
L 3372 0 
L 2619 2869 
L 1863 0 
L 1184 0 
L 269 3500 
z
" transform="scale(0.015625)"/>
       <path id="DejaVuSans-61" d="M 2194 1759 
Q 1497 1759 1228 1600 
Q 959 1441 959 1056 
Q 959 750 1161 570 
Q 1363 391 1709 391 
Q 2188 391 2477 730 
Q 2766 1069 2766 1631 
L 2766 1759 
L 2194 1759 
z
M 3341 1997 
L 3341 0 
L 2766 0 
L 2766 531 
Q 2569 213 2275 61 
Q 1981 -91 1556 -91 
Q 1019 -91 701 211 
Q 384 513 384 1019 
Q 384 1609 779 1909 
Q 1175 2209 1959 2209 
L 2766 2209 
L 2766 2266 
Q 2766 2663 2505 2880 
Q 2244 3097 1772 3097 
Q 1472 3097 1187 3025 
Q 903 2953 641 2809 
L 641 3341 
Q 956 3463 1253 3523 
Q 1550 3584 1831 3584 
Q 2591 3584 2966 3190 
Q 3341 2797 3341 1997 
z
" transform="scale(0.015625)"/>
       <path id="DejaVuSans-6c" d="M 603 4863 
L 1178 4863 
L 1178 0 
L 603 0 
L 603 4863 
z
" transform="scale(0.015625)"/>
       <path id="DejaVuSans-74" d="M 1172 4494 
L 1172 3500 
L 2356 3500 
L 2356 3053 
L 1172 3053 
L 1172 1153 
Q 1172 725 1289 603 
Q 1406 481 1766 481 
L 2356 481 
L 2356 0 
L 1766 0 
Q 1100 0 847 248 
Q 594 497 594 1153 
L 594 3053 
L 172 3053 
L 172 3500 
L 594 3500 
L 594 4494 
L 1172 4494 
z
" transform="scale(0.015625)"/>
       <path id="DejaVuSans-63" d="M 3122 3366 
L 3122 2828 
Q 2878 2963 2633 3030 
Q 2388 3097 2138 3097 
Q 1578 3097 1268 2742 
Q 959 2388 959 1747 
Q 959 1106 1268 751 
Q 1578 397 2138 397 
Q 2388 397 2633 464 
Q 2878 531 3122 666 
L 3122 134 
Q 2881 22 2623 -34 
Q 2366 -91 2075 -91 
Q 1284 -91 818 406 
Q 353 903 353 1747 
Q 353 2603 823 3093 
Q 1294 3584 2113 3584 
Q 2378 3584 2631 3529 
Q 2884 3475 3122 3366 
z
" transform="scale(0.015625)"/>
      </defs>
      <use xlink:href="#DejaVuSans-77"/>
      <use xlink:href="#DejaVuSans-61" transform="translate(81.787109 0)"/>
      <use xlink:href="#DejaVuSans-6c" transform="translate(143.066406 0)"/>
      <use xlink:href="#DejaVuSans-6c" transform="translate(170.849609 0)"/>
      <use xlink:href="#DejaVuSans-20" transform="translate(198.632812 0)"/>
      <use xlink:href="#DejaVuSans-74" transform="translate(230.419922 0)"/>
      <use xlink:href="#DejaVuSans-69" transform="translate(269.628906 0)"/>
      <use xlink:href="#DejaVuSans-6d" transform="translate(297.412109 0)"/>
      <use xlink:href="#DejaVuSans-65" transform="translate(394.824219 0)"/>
      <use xlink:href="#DejaVuSans-20" transform="translate(456.347656 0)"/>
      <use xlink:href="#DejaVuSans-5b" transform="translate(488.134766 0)"/>
      <use xlink:href="#DejaVuSans-73" transform="translate(527.148438 0)"/>
      <use xlink:href="#DejaVuSans-65" transform="translate(579.248047 0)"/>
      <use xlink:href="#DejaVuSans-63" transform="translate(640.771484 0)"/>
      <use xlink:href="#DejaVuSans-5d" transform="translate(695.751953 0)"/>
     </g>
    </g>
   </g>
   <g id="patch_8">
    <path d="M 76.79 383.830777 
L 76.79 223.817035 
" style="fill: none; stroke: #000000; stroke-width: 0.8; stroke-linejoin: miter; stroke-linecap: square"/>
   </g>
   <g id="patch_9">
    <path d="M 408.544033 383.830777 
L 408.544033 223.817035 
" style="fill: none; stroke: #000000; stroke-width: 0.8; stroke-linejoin: miter; stroke-linecap: square"/>
   </g>
   <g id="patch_10">
    <path d="M 76.79 383.830777 
L 408.544033 383.830777 
" style="fill: none; stroke: #000000; stroke-width: 0.8; stroke-linejoin: miter; stroke-linecap: square"/>
   </g>
   <g id="patch_11">
    <path d="M 76.79 223.817035 
L 408.544033 223.817035 
" style="fill: none; stroke: #000000; stroke-width: 0.8; stroke-linejoin: miter; stroke-linecap: square"/>
   </g>
   <g id="legend_2">
    <g id="PathCollection_18">
     <path d="M 95.79 241.326006 
C 96.727635 241.326006 97.626992 240.95348 98.29 240.290472 
C 98.953008 239.627465 99.325534 238.728107 99.325534 237.790472 
C 99.325534 236.852838 98.953008 235.95348 98.29 235.290472 
C 97.626992 234.627465 96.727635 234.254939 95.79 234.254939 
C 94.852365 234.254939 93.953008 234.627465 93.29 235.290472 
C 92.626992 235.95348 92.254466 236.852838 92.254466 237.790472 
C 92.254466 238.728107 92.626992 239.627465 93.29 240.290472 
C 93.953008 240.95348 94.852365 241.326006 95.79 241.326006 
L 95.79 241.326006 
z
" style="fill: none; stroke: #354259"/>
    </g>
    <g id="text_12">
     <!--  50 cgfs -->
     <g transform="translate(113.79 240.415472) scale(0.1 -0.1)">
      <defs>
       <path id="DejaVuSans-66" d="M 2375 4863 
L 2375 4384 
L 1825 4384 
Q 1516 4384 1395 4259 
Q 1275 4134 1275 3809 
L 1275 3500 
L 2222 3500 
L 2222 3053 
L 1275 3053 
L 1275 0 
L 697 0 
L 697 3053 
L 147 3053 
L 147 3500 
L 697 3500 
L 697 3744 
Q 697 4328 969 4595 
Q 1241 4863 1831 4863 
L 2375 4863 
z
" transform="scale(0.015625)"/>
      </defs>
      <use xlink:href="#DejaVuSans-20"/>
      <use xlink:href="#DejaVuSans-35" transform="translate(31.787109 0)"/>
      <use xlink:href="#DejaVuSans-30" transform="translate(95.410156 0)"/>
      <use xlink:href="#DejaVuSans-20" transform="translate(159.033203 0)"/>
      <use xlink:href="#DejaVuSans-63" transform="translate(190.820312 0)"/>
      <use xlink:href="#DejaVuSans-67" transform="translate(245.800781 0)"/>
      <use xlink:href="#DejaVuSans-66" transform="translate(309.277344 0)"/>
      <use xlink:href="#DejaVuSans-73" transform="translate(344.482422 0)"/>
     </g>
    </g>
    <g id="PathCollection_19">
     <path d="M 95.79 256.004131 
C 96.727635 256.004131 97.626992 255.631605 98.29 254.968597 
C 98.953008 254.30559 99.325534 253.406232 99.325534 252.468597 
C 99.325534 251.530963 98.953008 250.631605 98.29 249.968597 
C 97.626992 249.30559 96.727635 248.933064 95.79 248.933064 
C 94.852365 248.933064 93.953008 249.30559 93.29 249.968597 
C 92.626992 250.631605 92.254466 251.530963 92.254466 252.468597 
C 92.254466 253.406232 92.626992 254.30559 93.29 254.968597 
C 93.953008 255.631605 94.852365 256.004131 95.79 256.004131 
L 95.79 256.004131 
z
" style="fill: none; stroke: #87ca42"/>
    </g>
    <g id="text_13">
     <!--  75 cgfs -->
     <g transform="translate(113.79 255.093597) scale(0.1 -0.1)">
      <defs>
       <path id="DejaVuSans-37" d="M 525 4666 
L 3525 4666 
L 3525 4397 
L 1831 0 
L 1172 0 
L 2766 4134 
L 525 4134 
L 525 4666 
z
" transform="scale(0.015625)"/>
      </defs>
      <use xlink:href="#DejaVuSans-20"/>
      <use xlink:href="#DejaVuSans-37" transform="translate(31.787109 0)"/>
      <use xlink:href="#DejaVuSans-35" transform="translate(95.410156 0)"/>
      <use xlink:href="#DejaVuSans-20" transform="translate(159.033203 0)"/>
      <use xlink:href="#DejaVuSans-63" transform="translate(190.820312 0)"/>
      <use xlink:href="#DejaVuSans-67" transform="translate(245.800781 0)"/>
      <use xlink:href="#DejaVuSans-66" transform="translate(309.277344 0)"/>
      <use xlink:href="#DejaVuSans-73" transform="translate(344.482422 0)"/>
     </g>
    </g>
    <g id="PathCollection_20">
     <path d="M 95.79 270.682256 
C 96.727635 270.682256 97.626992 270.30973 98.29 269.646722 
C 98.953008 268.983715 99.325534 268.084357 99.325534 267.146722 
C 99.325534 266.209088 98.953008 265.30973 98.29 264.646722 
C 97.626992 263.983715 96.727635 263.611189 95.79 263.611189 
C 94.852365 263.611189 93.953008 263.983715 93.29 264.646722 
C 92.626992 265.30973 92.254466 266.209088 92.254466 267.146722 
C 92.254466 268.084357 92.626992 268.983715 93.29 269.646722 
C 93.953008 270.30973 94.852365 270.682256 95.79 270.682256 
L 95.79 270.682256 
z
" style="fill: none; stroke: #ab5569"/>
    </g>
    <g id="text_14">
     <!-- 100 cgfs -->
     <g transform="translate(113.79 269.771722) scale(0.1 -0.1)">
      <use xlink:href="#DejaVuSans-31"/>
      <use xlink:href="#DejaVuSans-30" transform="translate(63.623047 0)"/>
      <use xlink:href="#DejaVuSans-30" transform="translate(127.246094 0)"/>
      <use xlink:href="#DejaVuSans-20" transform="translate(190.869141 0)"/>
      <use xlink:href="#DejaVuSans-63" transform="translate(222.65625 0)"/>
      <use xlink:href="#DejaVuSans-67" transform="translate(277.636719 0)"/>
      <use xlink:href="#DejaVuSans-66" transform="translate(341.113281 0)"/>
      <use xlink:href="#DejaVuSans-73" transform="translate(376.318359 0)"/>
     </g>
    </g>
    <g id="PathCollection_21">
     <path d="M 95.79 285.360381 
C 96.727635 285.360381 97.626992 284.987855 98.29 284.324847 
C 98.953008 283.66184 99.325534 282.762482 99.325534 281.824847 
C 99.325534 280.887213 98.953008 279.987855 98.29 279.324847 
C 97.626992 278.66184 96.727635 278.289314 95.79 278.289314 
C 94.852365 278.289314 93.953008 278.66184 93.29 279.324847 
C 92.626992 279.987855 92.254466 280.887213 92.254466 281.824847 
C 92.254466 282.762482 92.626992 283.66184 93.29 284.324847 
C 93.953008 284.987855 94.852365 285.360381 95.79 285.360381 
L 95.79 285.360381 
z
" style="fill: none; stroke: #b04249"/>
    </g>
    <g id="text_15">
     <!-- 125 cgfs -->
     <g transform="translate(113.79 284.449847) scale(0.1 -0.1)">
      <use xlink:href="#DejaVuSans-31"/>
      <use xlink:href="#DejaVuSans-32" transform="translate(63.623047 0)"/>
      <use xlink:href="#DejaVuSans-35" transform="translate(127.246094 0)"/>
      <use xlink:href="#DejaVuSans-20" transform="translate(190.869141 0)"/>
      <use xlink:href="#DejaVuSans-63" transform="translate(222.65625 0)"/>
      <use xlink:href="#DejaVuSans-67" transform="translate(277.636719 0)"/>
      <use xlink:href="#DejaVuSans-66" transform="translate(341.113281 0)"/>
      <use xlink:href="#DejaVuSans-73" transform="translate(376.318359 0)"/>
     </g>
    </g>
    <g id="PathCollection_22">
     <path d="M 95.79 300.038506 
C 96.727635 300.038506 97.626992 299.66598 98.29 299.002972 
C 98.953008 298.339965 99.325534 297.440607 99.325534 296.502972 
C 99.325534 295.565338 98.953008 294.66598 98.29 294.002972 
C 97.626992 293.339965 96.727635 292.967439 95.79 292.967439 
C 94.852365 292.967439 93.953008 293.339965 93.29 294.002972 
C 92.626992 294.66598 92.254466 295.565338 92.254466 296.502972 
C 92.254466 297.440607 92.626992 298.339965 93.29 299.002972 
C 93.953008 299.66598 94.852365 300.038506 95.79 300.038506 
L 95.79 300.038506 
z
" style="fill: none; stroke: #f79ed7"/>
    </g>
    <g id="text_16">
     <!-- 150 cgfs -->
     <g transform="translate(113.79 299.127972) scale(0.1 -0.1)">
      <use xlink:href="#DejaVuSans-31"/>
      <use xlink:href="#DejaVuSans-35" transform="translate(63.623047 0)"/>
      <use xlink:href="#DejaVuSans-30" transform="translate(127.246094 0)"/>
      <use xlink:href="#DejaVuSans-20" transform="translate(190.869141 0)"/>
      <use xlink:href="#DejaVuSans-63" transform="translate(222.65625 0)"/>
      <use xlink:href="#DejaVuSans-67" transform="translate(277.636719 0)"/>
      <use xlink:href="#DejaVuSans-66" transform="translate(341.113281 0)"/>
      <use xlink:href="#DejaVuSans-73" transform="translate(376.318359 0)"/>
     </g>
    </g>
   </g>
  </g>
  <g id="axes_3">
   <g id="patch_12">
    <path d="M 76.79 569.487812 
L 408.544033 569.487812 
L 408.544033 409.47407 
L 76.79 409.47407 
z
" style="fill: #ffffff"/>
   </g>
   <g id="PathCollection_23">
    <defs>
     <path id="m5ad6049339" d="M 0 3 
C 0.795609 3 1.55874 2.683901 2.12132 2.12132 
C 2.683901 1.55874 3 0.795609 3 0 
C 3 -0.795609 2.683901 -1.55874 2.12132 -2.12132 
C 1.55874 -2.683901 0.795609 -3 0 -3 
C -0.795609 -3 -1.55874 -2.683901 -2.12132 -2.12132 
C -2.683901 -1.55874 -3 -0.795609 -3 0 
C -3 0.795609 -2.683901 1.55874 -2.12132 2.12132 
C -1.55874 2.683901 -0.795609 3 0 3 
z
" style="stroke: #1f77b4"/>
    </defs>
    <g clip-path="url(#p75d6fae8d1)">
     <use xlink:href="#m5ad6049339" x="91.869729" y="562.21446" style="fill: #1f77b4; stroke: #1f77b4"/>
    </g>
   </g>
   <g id="PathCollection_24">
    <defs>
     <path id="m9b7c423e76" d="M 0 3 
C 0.795609 3 1.55874 2.683901 2.12132 2.12132 
C 2.683901 1.55874 3 0.795609 3 0 
C 3 -0.795609 2.683901 -1.55874 2.12132 -2.12132 
C 1.55874 -2.683901 0.795609 -3 0 -3 
C -0.795609 -3 -1.55874 -2.683901 -2.12132 -2.12132 
C -2.683901 -1.55874 -3 -0.795609 -3 0 
C -3 0.795609 -2.683901 1.55874 -2.12132 2.12132 
C -1.55874 2.683901 -0.795609 3 0 3 
z
" style="stroke: #ff7f0e"/>
    </defs>
    <g clip-path="url(#p75d6fae8d1)">
     <use xlink:href="#m9b7c423e76" x="167.268373" y="508.504675" style="fill: #ff7f0e; stroke: #ff7f0e"/>
    </g>
   </g>
   <g id="PathCollection_25">
    <defs>
     <path id="mb5ff3abe7a" d="M 0 3 
C 0.795609 3 1.55874 2.683901 2.12132 2.12132 
C 2.683901 1.55874 3 0.795609 3 0 
C 3 -0.795609 2.683901 -1.55874 2.12132 -2.12132 
C 1.55874 -2.683901 0.795609 -3 0 -3 
C -0.795609 -3 -1.55874 -2.683901 -2.12132 -2.12132 
C -2.683901 -1.55874 -3 -0.795609 -3 0 
C -3 0.795609 -2.683901 1.55874 -2.12132 2.12132 
C -1.55874 2.683901 -0.795609 3 0 3 
z
" style="stroke: #2ca02c"/>
    </defs>
    <g clip-path="url(#p75d6fae8d1)">
     <use xlink:href="#mb5ff3abe7a" x="242.667016" y="466.912824" style="fill: #2ca02c; stroke: #2ca02c"/>
    </g>
   </g>
   <g id="PathCollection_26">
    <defs>
     <path id="m37f5f527c1" d="M 0 3 
C 0.795609 3 1.55874 2.683901 2.12132 2.12132 
C 2.683901 1.55874 3 0.795609 3 0 
C 3 -0.795609 2.683901 -1.55874 2.12132 -2.12132 
C 1.55874 -2.683901 0.795609 -3 0 -3 
C -0.795609 -3 -1.55874 -2.683901 -2.12132 -2.12132 
C -2.683901 -1.55874 -3 -0.795609 -3 0 
C -3 0.795609 -2.683901 1.55874 -2.12132 2.12132 
C -1.55874 2.683901 -0.795609 3 0 3 
z
" style="stroke: #d62728"/>
    </defs>
    <g clip-path="url(#p75d6fae8d1)">
     <use xlink:href="#m37f5f527c1" x="318.06566" y="449.043565" style="fill: #d62728; stroke: #d62728"/>
    </g>
   </g>
   <g id="PathCollection_27">
    <defs>
     <path id="me96c796fe4" d="M 0 3 
C 0.795609 3 1.55874 2.683901 2.12132 2.12132 
C 2.683901 1.55874 3 0.795609 3 0 
C 3 -0.795609 2.683901 -1.55874 2.12132 -2.12132 
C 1.55874 -2.683901 0.795609 -3 0 -3 
C -0.795609 -3 -1.55874 -2.683901 -2.12132 -2.12132 
C -2.683901 -1.55874 -3 -0.795609 -3 0 
C -3 0.795609 -2.683901 1.55874 -2.12132 2.12132 
C -1.55874 2.683901 -0.795609 3 0 3 
z
" style="stroke: #9467bd"/>
    </defs>
    <g clip-path="url(#p75d6fae8d1)">
     <use xlink:href="#me96c796fe4" x="393.464304" y="416.747422" style="fill: #9467bd; stroke: #9467bd"/>
    </g>
   </g>
   <g id="matplotlib.axis_5">
    <g id="xtick_11">
     <g id="line2d_18">
      <g>
       <use xlink:href="#m7665790331" x="91.869729" y="569.487812" style="stroke: #000000; stroke-width: 0.8"/>
      </g>
     </g>
     <g id="text_17">
      <!-- ethene -->
      <g transform="translate(77.250186 618.712251) rotate(-45) scale(0.14 -0.14)">
       <use xlink:href="#DejaVuSans-65"/>
       <use xlink:href="#DejaVuSans-74" transform="translate(61.523438 0)"/>
       <use xlink:href="#DejaVuSans-68" transform="translate(100.732422 0)"/>
       <use xlink:href="#DejaVuSans-65" transform="translate(164.111328 0)"/>
       <use xlink:href="#DejaVuSans-6e" transform="translate(225.634766 0)"/>
       <use xlink:href="#DejaVuSans-65" transform="translate(289.013672 0)"/>
      </g>
     </g>
    </g>
    <g id="xtick_12">
     <g id="line2d_19">
      <g>
       <use xlink:href="#m7665790331" x="167.268373" y="569.487812" style="stroke: #000000; stroke-width: 0.8"/>
      </g>
     </g>
     <g id="text_18">
      <!-- 1-propene -->
      <g transform="translate(144.600076 634.809758) rotate(-45) scale(0.14 -0.14)">
       <defs>
        <path id="DejaVuSans-2d" d="M 313 2009 
L 1997 2009 
L 1997 1497 
L 313 1497 
L 313 2009 
z
" transform="scale(0.015625)"/>
        <path id="DejaVuSans-6f" d="M 1959 3097 
Q 1497 3097 1228 2736 
Q 959 2375 959 1747 
Q 959 1119 1226 758 
Q 1494 397 1959 397 
Q 2419 397 2687 759 
Q 2956 1122 2956 1747 
Q 2956 2369 2687 2733 
Q 2419 3097 1959 3097 
z
M 1959 3584 
Q 2709 3584 3137 3096 
Q 3566 2609 3566 1747 
Q 3566 888 3137 398 
Q 2709 -91 1959 -91 
Q 1206 -91 779 398 
Q 353 888 353 1747 
Q 353 2609 779 3096 
Q 1206 3584 1959 3584 
z
" transform="scale(0.015625)"/>
       </defs>
       <use xlink:href="#DejaVuSans-31"/>
       <use xlink:href="#DejaVuSans-2d" transform="translate(63.623047 0)"/>
       <use xlink:href="#DejaVuSans-70" transform="translate(99.707031 0)"/>
       <use xlink:href="#DejaVuSans-72" transform="translate(163.183594 0)"/>
       <use xlink:href="#DejaVuSans-6f" transform="translate(202.046875 0)"/>
       <use xlink:href="#DejaVuSans-70" transform="translate(263.228516 0)"/>
       <use xlink:href="#DejaVuSans-65" transform="translate(326.705078 0)"/>
       <use xlink:href="#DejaVuSans-6e" transform="translate(388.228516 0)"/>
       <use xlink:href="#DejaVuSans-65" transform="translate(451.607422 0)"/>
      </g>
     </g>
    </g>
    <g id="xtick_13">
     <g id="line2d_20">
      <g>
       <use xlink:href="#m7665790331" x="242.667016" y="569.487812" style="stroke: #000000; stroke-width: 0.8"/>
      </g>
     </g>
     <g id="text_19">
      <!-- 1-butene -->
      <g transform="translate(223.015745 628.775707) rotate(-45) scale(0.14 -0.14)">
       <defs>
        <path id="DejaVuSans-62" d="M 3116 1747 
Q 3116 2381 2855 2742 
Q 2594 3103 2138 3103 
Q 1681 3103 1420 2742 
Q 1159 2381 1159 1747 
Q 1159 1113 1420 752 
Q 1681 391 2138 391 
Q 2594 391 2855 752 
Q 3116 1113 3116 1747 
z
M 1159 2969 
Q 1341 3281 1617 3432 
Q 1894 3584 2278 3584 
Q 2916 3584 3314 3078 
Q 3713 2572 3713 1747 
Q 3713 922 3314 415 
Q 2916 -91 2278 -91 
Q 1894 -91 1617 61 
Q 1341 213 1159 525 
L 1159 0 
L 581 0 
L 581 4863 
L 1159 4863 
L 1159 2969 
z
" transform="scale(0.015625)"/>
        <path id="DejaVuSans-75" d="M 544 1381 
L 544 3500 
L 1119 3500 
L 1119 1403 
Q 1119 906 1312 657 
Q 1506 409 1894 409 
Q 2359 409 2629 706 
Q 2900 1003 2900 1516 
L 2900 3500 
L 3475 3500 
L 3475 0 
L 2900 0 
L 2900 538 
Q 2691 219 2414 64 
Q 2138 -91 1772 -91 
Q 1169 -91 856 284 
Q 544 659 544 1381 
z
M 1991 3584 
L 1991 3584 
z
" transform="scale(0.015625)"/>
       </defs>
       <use xlink:href="#DejaVuSans-31"/>
       <use xlink:href="#DejaVuSans-2d" transform="translate(63.623047 0)"/>
       <use xlink:href="#DejaVuSans-62" transform="translate(99.707031 0)"/>
       <use xlink:href="#DejaVuSans-75" transform="translate(163.183594 0)"/>
       <use xlink:href="#DejaVuSans-74" transform="translate(226.5625 0)"/>
       <use xlink:href="#DejaVuSans-65" transform="translate(265.771484 0)"/>
       <use xlink:href="#DejaVuSans-6e" transform="translate(327.294922 0)"/>
       <use xlink:href="#DejaVuSans-65" transform="translate(390.673828 0)"/>
      </g>
     </g>
    </g>
    <g id="xtick_14">
     <g id="line2d_21">
      <g>
       <use xlink:href="#m7665790331" x="318.06566" y="569.487812" style="stroke: #000000; stroke-width: 0.8"/>
      </g>
     </g>
     <g id="text_20">
      <!-- 1-pentene -->
      <g transform="translate(295.368748 634.86699) rotate(-45) scale(0.14 -0.14)">
       <use xlink:href="#DejaVuSans-31"/>
       <use xlink:href="#DejaVuSans-2d" transform="translate(63.623047 0)"/>
       <use xlink:href="#DejaVuSans-70" transform="translate(99.707031 0)"/>
       <use xlink:href="#DejaVuSans-65" transform="translate(163.183594 0)"/>
       <use xlink:href="#DejaVuSans-6e" transform="translate(224.707031 0)"/>
       <use xlink:href="#DejaVuSans-74" transform="translate(288.085938 0)"/>
       <use xlink:href="#DejaVuSans-65" transform="translate(327.294922 0)"/>
       <use xlink:href="#DejaVuSans-6e" transform="translate(388.818359 0)"/>
       <use xlink:href="#DejaVuSans-65" transform="translate(452.197266 0)"/>
      </g>
     </g>
    </g>
    <g id="xtick_15">
     <g id="line2d_22">
      <g>
       <use xlink:href="#m7665790331" x="393.464304" y="569.487812" style="stroke: #000000; stroke-width: 0.8"/>
      </g>
     </g>
     <g id="text_21">
      <!-- 1-hexene -->
      <g transform="translate(373.161832 630.078109) rotate(-45) scale(0.14 -0.14)">
       <defs>
        <path id="DejaVuSans-78" d="M 3513 3500 
L 2247 1797 
L 3578 0 
L 2900 0 
L 1881 1375 
L 863 0 
L 184 0 
L 1544 1831 
L 300 3500 
L 978 3500 
L 1906 2253 
L 2834 3500 
L 3513 3500 
z
" transform="scale(0.015625)"/>
       </defs>
       <use xlink:href="#DejaVuSans-31"/>
       <use xlink:href="#DejaVuSans-2d" transform="translate(63.623047 0)"/>
       <use xlink:href="#DejaVuSans-68" transform="translate(99.707031 0)"/>
       <use xlink:href="#DejaVuSans-65" transform="translate(163.085938 0)"/>
       <use xlink:href="#DejaVuSans-78" transform="translate(222.859375 0)"/>
       <use xlink:href="#DejaVuSans-65" transform="translate(278.914062 0)"/>
       <use xlink:href="#DejaVuSans-6e" transform="translate(340.4375 0)"/>
       <use xlink:href="#DejaVuSans-65" transform="translate(403.816406 0)"/>
      </g>
     </g>
    </g>
   </g>
   <g id="matplotlib.axis_6">
    <g id="ytick_8">
     <g id="line2d_23">
      <g>
       <use xlink:href="#mdc32ac4947" x="76.79" y="528.551729" style="stroke: #000000; stroke-width: 0.8"/>
      </g>
     </g>
     <g id="text_22">
      <!-- 0.0 -->
      <g transform="translate(47.525625 533.870635) scale(0.14 -0.14)">
       <defs>
        <path id="DejaVuSans-2e" d="M 684 794 
L 1344 794 
L 1344 0 
L 684 0 
L 684 794 
z
" transform="scale(0.015625)"/>
       </defs>
       <use xlink:href="#DejaVuSans-30"/>
       <use xlink:href="#DejaVuSans-2e" transform="translate(63.623047 0)"/>
       <use xlink:href="#DejaVuSans-30" transform="translate(95.410156 0)"/>
      </g>
     </g>
    </g>
    <g id="ytick_9">
     <g id="line2d_24">
      <g>
       <use xlink:href="#mdc32ac4947" x="76.79" y="471.581934" style="stroke: #000000; stroke-width: 0.8"/>
      </g>
     </g>
     <g id="text_23">
      <!-- 0.5 -->
      <g transform="translate(47.525625 476.90084) scale(0.14 -0.14)">
       <use xlink:href="#DejaVuSans-30"/>
       <use xlink:href="#DejaVuSans-2e" transform="translate(63.623047 0)"/>
       <use xlink:href="#DejaVuSans-35" transform="translate(95.410156 0)"/>
      </g>
     </g>
    </g>
    <g id="ytick_10">
     <g id="line2d_25">
      <g>
       <use xlink:href="#mdc32ac4947" x="76.79" y="414.612139" style="stroke: #000000; stroke-width: 0.8"/>
      </g>
     </g>
     <g id="text_24">
      <!-- 1.0 -->
      <g transform="translate(47.525625 419.931045) scale(0.14 -0.14)">
       <use xlink:href="#DejaVuSans-31"/>
       <use xlink:href="#DejaVuSans-2e" transform="translate(63.623047 0)"/>
       <use xlink:href="#DejaVuSans-30" transform="translate(95.410156 0)"/>
      </g>
     </g>
    </g>
    <g id="text_25">
     <!-- psi4 comparison [Eh] -->
     <g transform="translate(40.198125 574.203441) rotate(-90) scale(0.16 -0.16)">
      <use xlink:href="#DejaVuSans-70"/>
      <use xlink:href="#DejaVuSans-73" transform="translate(63.476562 0)"/>
      <use xlink:href="#DejaVuSans-69" transform="translate(115.576172 0)"/>
      <use xlink:href="#DejaVuSans-34" transform="translate(143.359375 0)"/>
      <use xlink:href="#DejaVuSans-20" transform="translate(206.982422 0)"/>
      <use xlink:href="#DejaVuSans-63" transform="translate(238.769531 0)"/>
      <use xlink:href="#DejaVuSans-6f" transform="translate(293.75 0)"/>
      <use xlink:href="#DejaVuSans-6d" transform="translate(354.931641 0)"/>
      <use xlink:href="#DejaVuSans-70" transform="translate(452.34375 0)"/>
      <use xlink:href="#DejaVuSans-61" transform="translate(515.820312 0)"/>
      <use xlink:href="#DejaVuSans-72" transform="translate(577.099609 0)"/>
      <use xlink:href="#DejaVuSans-69" transform="translate(618.212891 0)"/>
      <use xlink:href="#DejaVuSans-73" transform="translate(645.996094 0)"/>
      <use xlink:href="#DejaVuSans-6f" transform="translate(698.095703 0)"/>
      <use xlink:href="#DejaVuSans-6e" transform="translate(759.277344 0)"/>
      <use xlink:href="#DejaVuSans-20" transform="translate(822.65625 0)"/>
      <use xlink:href="#DejaVuSans-5b" transform="translate(854.443359 0)"/>
      <use xlink:href="#DejaVuSans-45" transform="translate(893.457031 0)"/>
      <use xlink:href="#DejaVuSans-68" transform="translate(956.640625 0)"/>
      <use xlink:href="#DejaVuSans-5d" transform="translate(1020.019531 0)"/>
     </g>
    </g>
    <g id="text_26">
     <!-- 1e−9 -->
     <g transform="translate(76.79 406.47407) scale(0.1 -0.1)">
      <defs>
       <path id="DejaVuSans-39" d="M 703 97 
L 703 672 
Q 941 559 1184 500 
Q 1428 441 1663 441 
Q 2288 441 2617 861 
Q 2947 1281 2994 2138 
Q 2813 1869 2534 1725 
Q 2256 1581 1919 1581 
Q 1219 1581 811 2004 
Q 403 2428 403 3163 
Q 403 3881 828 4315 
Q 1253 4750 1959 4750 
Q 2769 4750 3195 4129 
Q 3622 3509 3622 2328 
Q 3622 1225 3098 567 
Q 2575 -91 1691 -91 
Q 1453 -91 1209 -44 
Q 966 3 703 97 
z
M 1959 2075 
Q 2384 2075 2632 2365 
Q 2881 2656 2881 3163 
Q 2881 3666 2632 3958 
Q 2384 4250 1959 4250 
Q 1534 4250 1286 3958 
Q 1038 3666 1038 3163 
Q 1038 2656 1286 2365 
Q 1534 2075 1959 2075 
z
" transform="scale(0.015625)"/>
      </defs>
      <use xlink:href="#DejaVuSans-31"/>
      <use xlink:href="#DejaVuSans-65" transform="translate(63.623047 0)"/>
      <use xlink:href="#DejaVuSans-2212" transform="translate(125.146484 0)"/>
      <use xlink:href="#DejaVuSans-39" transform="translate(208.935547 0)"/>
     </g>
    </g>
   </g>
   <g id="patch_13">
    <path d="M 76.79 569.487812 
L 76.79 409.47407 
" style="fill: none; stroke: #000000; stroke-width: 0.8; stroke-linejoin: miter; stroke-linecap: square"/>
   </g>
   <g id="patch_14">
    <path d="M 408.544033 569.487812 
L 408.544033 409.47407 
" style="fill: none; stroke: #000000; stroke-width: 0.8; stroke-linejoin: miter; stroke-linecap: square"/>
   </g>
   <g id="patch_15">
    <path d="M 76.79 569.487812 
L 408.544033 569.487812 
" style="fill: none; stroke: #000000; stroke-width: 0.8; stroke-linejoin: miter; stroke-linecap: square"/>
   </g>
   <g id="patch_16">
    <path d="M 76.79 409.47407 
L 408.544033 409.47407 
" style="fill: none; stroke: #000000; stroke-width: 0.8; stroke-linejoin: miter; stroke-linecap: square"/>
   </g>
  </g>
  <g id="text_27">
   <!-- Alkenes -->
   <g transform="translate(184.88 25.1175) scale(0.16 -0.16)">
    <defs>
     <path id="DejaVuSans-41" d="M 2188 4044 
L 1331 1722 
L 3047 1722 
L 2188 4044 
z
M 1831 4666 
L 2547 4666 
L 4325 0 
L 3669 0 
L 3244 1197 
L 1141 1197 
L 716 0 
L 50 0 
L 1831 4666 
z
" transform="scale(0.015625)"/>
     <path id="DejaVuSans-6b" d="M 581 4863 
L 1159 4863 
L 1159 1991 
L 2875 3500 
L 3609 3500 
L 1753 1863 
L 3688 0 
L 2938 0 
L 1159 1709 
L 1159 0 
L 581 0 
L 581 4863 
z
" transform="scale(0.015625)"/>
    </defs>
    <use xlink:href="#DejaVuSans-41"/>
    <use xlink:href="#DejaVuSans-6c" transform="translate(68.408203 0)"/>
    <use xlink:href="#DejaVuSans-6b" transform="translate(96.191406 0)"/>
    <use xlink:href="#DejaVuSans-65" transform="translate(150.476562 0)"/>
    <use xlink:href="#DejaVuSans-6e" transform="translate(212 0)"/>
    <use xlink:href="#DejaVuSans-65" transform="translate(275.378906 0)"/>
    <use xlink:href="#DejaVuSans-73" transform="translate(336.902344 0)"/>
   </g>
  </g>
 </g>
 <defs>
  <clipPath id="pd8e9d76b96">
   <rect x="76.79" y="38.16" width="331.754033" height="160.013742"/>
  </clipPath>
  <clipPath id="p0bb0760a9c">
   <rect x="76.79" y="223.817035" width="331.754033" height="160.013742"/>
  </clipPath>
  <clipPath id="p75d6fae8d1">
   <rect x="76.79" y="409.47407" width="331.754033" height="160.013742"/>
  </clipPath>
 </defs>
</svg>
