<?xml version="1.0" encoding="utf-8" standalone="no"?>
<!DOCTYPE svg PUBLIC "-//W3C//DTD SVG 1.1//EN"
  "http://www.w3.org/Graphics/SVG/1.1/DTD/svg11.dtd">
<svg xmlns:xlink="http://www.w3.org/1999/xlink" width="432pt" height="648pt" viewBox="0 0 432 648" xmlns="http://www.w3.org/2000/svg" version="1.1">
 <metadata>
  <rdf:RDF xmlns:dc="http://purl.org/dc/elements/1.1/" xmlns:cc="http://creativecommons.org/ns#" xmlns:rdf="http://www.w3.org/1999/02/22-rdf-syntax-ns#">
   <cc:Work>
    <dc:type rdf:resource="http://purl.org/dc/dcmitype/StillImage"/>
    <dc:date>2025-07-31T22:43:49.459769</dc:date>
    <dc:format>image/svg+xml</dc:format>
    <dc:creator>
     <cc:Agent>
      <dc:title>Matplotlib v3.10.0, https://matplotlib.org/</dc:title>
     </cc:Agent>
    </dc:creator>
   </cc:Work>
  </rdf:RDF>
 </metadata>
 <defs>
  <style type="text/css">*{stroke-linejoin: round; stroke-linecap: butt}</style>
 </defs>
 <g id="figure_1">
  <g id="patch_1">
   <path d="M 0 648 
L 432 648 
L 432 0 
L 0 0 
z
" style="fill: #ffffff"/>
  </g>
  <g id="axes_1">
   <g id="patch_2">
    <path d="M 76.79 191.45558 
L 397.884398 191.45558 
L 397.884398 38.16 
L 76.79 38.16 
z
" style="fill: #ffffff"/>
   </g>
   <g id="PathCollection_1">
    <path d="M 91.3852 48.663515 
C 92.322834 48.663515 93.222192 48.290989 93.8852 47.627981 
C 94.548208 46.964973 94.920734 46.065615 94.920734 45.127981 
C 94.920734 44.190346 94.548208 43.290989 93.8852 42.627981 
C 93.222192 41.964973 92.322834 41.592447 91.3852 41.592447 
C 90.447565 41.592447 89.548208 41.964973 88.8852 42.627981 
C 88.222192 43.290989 87.849666 44.190346 87.849666 45.127981 
C 87.849666 46.065615 88.222192 46.964973 88.8852 47.627981 
C 89.548208 48.290989 90.447565 48.663515 91.3852 48.663515 
L 91.3852 48.663515 
z
" clip-path="url(#pb38ef29108)" style="fill: none; stroke: #ec6f70"/>
   </g>
   <g id="PathCollection_2">
    <defs>
     <path id="mfcde0f8ca3" d="M 0 1.581139 
C 0.419323 1.581139 0.821528 1.41454 1.118034 1.118034 
C 1.41454 0.821528 1.581139 0.419323 1.581139 0 
C 1.581139 -0.419323 1.41454 -0.821528 1.118034 -1.118034 
C 0.821528 -1.41454 0.419323 -1.581139 0 -1.581139 
C -0.419323 -1.581139 -0.821528 -1.41454 -1.118034 -1.118034 
C -1.41454 -0.821528 -1.581139 -0.419323 -1.581139 0 
C -1.581139 0.419323 -1.41454 0.821528 -1.118034 1.118034 
C -0.821528 1.41454 -0.419323 1.581139 0 1.581139 
z
" style="stroke: #12c87e"/>
    </defs>
    <g clip-path="url(#pb38ef29108)">
     <use xlink:href="#mfcde0f8ca3" x="91.3852" y="45.127981" style="fill: #1f77b4; stroke: #12c87e"/>
    </g>
   </g>
   <g id="PathCollection_3">
    <path d="M 149.765999 76.537454 
C 150.703634 76.537454 151.602992 76.164928 152.265999 75.50192 
C 152.929007 74.838912 153.301533 73.939555 153.301533 73.00192 
C 153.301533 72.064286 152.929007 71.164928 152.265999 70.50192 
C 151.602992 69.838912 150.703634 69.466386 149.765999 69.466386 
C 148.828365 69.466386 147.929007 69.838912 147.265999 70.50192 
C 146.602992 71.164928 146.230466 72.064286 146.230466 73.00192 
C 146.230466 73.939555 146.602992 74.838912 147.265999 75.50192 
C 147.929007 76.164928 148.828365 76.537454 149.765999 76.537454 
L 149.765999 76.537454 
z
" clip-path="url(#pb38ef29108)" style="fill: none; stroke: #828e10"/>
   </g>
   <g id="PathCollection_4">
    <defs>
     <path id="mb07e83e6ce" d="M 0 1.581139 
C 0.419323 1.581139 0.821528 1.41454 1.118034 1.118034 
C 1.41454 0.821528 1.581139 0.419323 1.581139 0 
C 1.581139 -0.419323 1.41454 -0.821528 1.118034 -1.118034 
C 0.821528 -1.41454 0.419323 -1.581139 0 -1.581139 
C -0.419323 -1.581139 -0.821528 -1.41454 -1.118034 -1.118034 
C -1.41454 -0.821528 -1.581139 -0.419323 -1.581139 0 
C -1.581139 0.419323 -1.41454 0.821528 -1.118034 1.118034 
C -0.821528 1.41454 -0.419323 1.581139 0 1.581139 
z
" style="stroke: #8601a6"/>
    </defs>
    <g clip-path="url(#pb38ef29108)">
     <use xlink:href="#mb07e83e6ce" x="149.765999" y="73.00192" style="fill: #ff7f0e; stroke: #8601a6"/>
    </g>
   </g>
   <g id="PathCollection_5">
    <path d="M 208.146799 104.40932 
C 209.084434 104.40932 209.983791 104.036794 210.646799 103.373786 
C 211.309807 102.710778 211.682333 101.81142 211.682333 100.873786 
C 211.682333 99.936151 211.309807 99.036794 210.646799 98.373786 
C 209.983791 97.710778 209.084434 97.338252 208.146799 97.338252 
C 207.209165 97.338252 206.309807 97.710778 205.646799 98.373786 
C 204.983791 99.036794 204.611265 99.936151 204.611265 100.873786 
C 204.611265 101.81142 204.983791 102.710778 205.646799 103.373786 
C 206.309807 104.036794 207.209165 104.40932 208.146799 104.40932 
L 208.146799 104.40932 
z
" clip-path="url(#pb38ef29108)" style="fill: none; stroke: #a226b2"/>
   </g>
   <g id="PathCollection_6">
    <defs>
     <path id="m202097b3b0" d="M 0 1.581139 
C 0.419323 1.581139 0.821528 1.41454 1.118034 1.118034 
C 1.41454 0.821528 1.581139 0.419323 1.581139 0 
C 1.581139 -0.419323 1.41454 -0.821528 1.118034 -1.118034 
C 0.821528 -1.41454 0.419323 -1.581139 0 -1.581139 
C -0.419323 -1.581139 -0.821528 -1.41454 -1.118034 -1.118034 
C -1.41454 -0.821528 -1.581139 -0.419323 -1.581139 0 
C -1.581139 0.419323 -1.41454 0.821528 -1.118034 1.118034 
C -0.821528 1.41454 -0.419323 1.581139 0 1.581139 
z
" style="stroke: #eb726d"/>
    </defs>
    <g clip-path="url(#pb38ef29108)">
     <use xlink:href="#m202097b3b0" x="208.146799" y="100.873786" style="fill: #2ca02c; stroke: #eb726d"/>
    </g>
   </g>
   <g id="PathCollection_7">
    <path d="M 266.527599 132.280559 
C 267.465233 132.280559 268.364591 131.908033 269.027599 131.245025 
C 269.690606 130.582017 270.063133 129.68266 270.063133 128.745025 
C 270.063133 127.80739 269.690606 126.908033 269.027599 126.245025 
C 268.364591 125.582017 267.465233 125.209491 266.527599 125.209491 
C 265.589964 125.209491 264.690606 125.582017 264.027599 126.245025 
C 263.364591 126.908033 262.992065 127.80739 262.992065 128.745025 
C 262.992065 129.68266 263.364591 130.582017 264.027599 131.245025 
C 264.690606 131.908033 265.589964 132.280559 266.527599 132.280559 
L 266.527599 132.280559 
z
" clip-path="url(#pb38ef29108)" style="fill: none; stroke: #2614de"/>
   </g>
   <g id="PathCollection_8">
    <defs>
     <path id="mdfd9add7e9" d="M 0 1.581139 
C 0.419323 1.581139 0.821528 1.41454 1.118034 1.118034 
C 1.41454 0.821528 1.581139 0.419323 1.581139 0 
C 1.581139 -0.419323 1.41454 -0.821528 1.118034 -1.118034 
C 0.821528 -1.41454 0.419323 -1.581139 0 -1.581139 
C -0.419323 -1.581139 -0.821528 -1.41454 -1.118034 -1.118034 
C -1.41454 -0.821528 -1.581139 -0.419323 -1.581139 0 
C -1.581139 0.419323 -1.41454 0.821528 -1.118034 1.118034 
C -0.821528 1.41454 -0.419323 1.581139 0 1.581139 
z
" style="stroke: #2eaed9"/>
    </defs>
    <g clip-path="url(#pb38ef29108)">
     <use xlink:href="#mdfd9add7e9" x="266.527599" y="128.745025" style="fill: #d62728; stroke: #2eaed9"/>
    </g>
   </g>
   <g id="PathCollection_9">
    <path d="M 324.908398 160.151483 
C 325.846033 160.151483 326.745391 159.778957 327.408398 159.115949 
C 328.071406 158.452941 328.443932 157.553584 328.443932 156.615949 
C 328.443932 155.678314 328.071406 154.778957 327.408398 154.115949 
C 326.745391 153.452941 325.846033 153.080415 324.908398 153.080415 
C 323.970764 153.080415 323.071406 153.452941 322.408398 154.115949 
C 321.745391 154.778957 321.372864 155.678314 321.372864 156.615949 
C 321.372864 157.553584 321.745391 158.452941 322.408398 159.115949 
C 323.071406 159.778957 323.970764 160.151483 324.908398 160.151483 
L 324.908398 160.151483 
z
" clip-path="url(#pb38ef29108)" style="fill: none; stroke: #cf3e4f"/>
   </g>
   <g id="PathCollection_10">
    <defs>
     <path id="md88a6c71da" d="M 0 1.581139 
C 0.419323 1.581139 0.821528 1.41454 1.118034 1.118034 
C 1.41454 0.821528 1.581139 0.419323 1.581139 0 
C 1.581139 -0.419323 1.41454 -0.821528 1.118034 -1.118034 
C 0.821528 -1.41454 0.419323 -1.581139 0 -1.581139 
C -0.419323 -1.581139 -0.821528 -1.41454 -1.118034 -1.118034 
C -1.41454 -0.821528 -1.581139 -0.419323 -1.581139 0 
C -1.581139 0.419323 -1.41454 0.821528 -1.118034 1.118034 
C -0.821528 1.41454 -0.419323 1.581139 0 1.581139 
z
" style="stroke: #fab85c"/>
    </defs>
    <g clip-path="url(#pb38ef29108)">
     <use xlink:href="#md88a6c71da" x="324.908398" y="156.615949" style="fill: #9467bd; stroke: #fab85c"/>
    </g>
   </g>
   <g id="PathCollection_11">
    <path d="M 383.289198 188.023133 
C 384.226832 188.023133 385.12619 187.650607 385.789198 186.987599 
C 386.452206 186.324591 386.824732 185.425234 386.824732 184.487599 
C 386.824732 183.549965 386.452206 182.650607 385.789198 181.987599 
C 385.12619 181.324591 384.226832 180.952065 383.289198 180.952065 
C 382.351563 180.952065 381.452206 181.324591 380.789198 181.987599 
C 380.12619 182.650607 379.753664 183.549965 379.753664 184.487599 
C 379.753664 185.425234 380.12619 186.324591 380.789198 186.987599 
C 381.452206 187.650607 382.351563 188.023133 383.289198 188.023133 
L 383.289198 188.023133 
z
" clip-path="url(#pb38ef29108)" style="fill: none; stroke: #ea0515"/>
   </g>
   <g id="PathCollection_12">
    <defs>
     <path id="md02537b86d" d="M 0 1.581139 
C 0.419323 1.581139 0.821528 1.41454 1.118034 1.118034 
C 1.41454 0.821528 1.581139 0.419323 1.581139 0 
C 1.581139 -0.419323 1.41454 -0.821528 1.118034 -1.118034 
C 0.821528 -1.41454 0.419323 -1.581139 0 -1.581139 
C -0.419323 -1.581139 -0.821528 -1.41454 -1.118034 -1.118034 
C -1.41454 -0.821528 -1.581139 -0.419323 -1.581139 0 
C -1.581139 0.419323 -1.41454 0.821528 -1.118034 1.118034 
C -0.821528 1.41454 -0.419323 1.581139 0 1.581139 
z
" style="stroke: #ce9c96"/>
    </defs>
    <g clip-path="url(#pb38ef29108)">
     <use xlink:href="#md02537b86d" x="383.289198" y="184.487599" style="fill: #8c564b; stroke: #ce9c96"/>
    </g>
   </g>
   <g id="matplotlib.axis_1">
    <g id="xtick_1">
     <g id="line2d_1">
      <defs>
       <path id="m36f242beee" d="M 0 0 
L 0 3.5 
" style="stroke: #000000; stroke-width: 0.8"/>
      </defs>
      <g>
       <use xlink:href="#m36f242beee" x="91.3852" y="191.45558" style="stroke: #000000; stroke-width: 0.8"/>
      </g>
     </g>
    </g>
    <g id="xtick_2">
     <g id="line2d_2">
      <g>
       <use xlink:href="#m36f242beee" x="149.765999" y="191.45558" style="stroke: #000000; stroke-width: 0.8"/>
      </g>
     </g>
    </g>
    <g id="xtick_3">
     <g id="line2d_3">
      <g>
       <use xlink:href="#m36f242beee" x="208.146799" y="191.45558" style="stroke: #000000; stroke-width: 0.8"/>
      </g>
     </g>
    </g>
    <g id="xtick_4">
     <g id="line2d_4">
      <g>
       <use xlink:href="#m36f242beee" x="266.527599" y="191.45558" style="stroke: #000000; stroke-width: 0.8"/>
      </g>
     </g>
    </g>
    <g id="xtick_5">
     <g id="line2d_5">
      <g>
       <use xlink:href="#m36f242beee" x="324.908398" y="191.45558" style="stroke: #000000; stroke-width: 0.8"/>
      </g>
     </g>
    </g>
    <g id="xtick_6">
     <g id="line2d_6">
      <g>
       <use xlink:href="#m36f242beee" x="383.289198" y="191.45558" style="stroke: #000000; stroke-width: 0.8"/>
      </g>
     </g>
    </g>
   </g>
   <g id="matplotlib.axis_2">
    <g id="ytick_1">
     <g id="line2d_7">
      <defs>
       <path id="m10dc16cb2f" d="M 0 0 
L -3.5 0 
" style="stroke: #000000; stroke-width: 0.8"/>
      </defs>
      <g>
       <use xlink:href="#m10dc16cb2f" x="76.79" y="191.335443" style="stroke: #000000; stroke-width: 0.8"/>
      </g>
     </g>
     <g id="text_1">
      <!-- −300 -->
      <g transform="translate(31.335938 196.654349) scale(0.14 -0.14)">
       <defs>
        <path id="DejaVuSans-2212" d="M 678 2272 
L 4684 2272 
L 4684 1741 
L 678 1741 
L 678 2272 
z
" transform="scale(0.015625)"/>
        <path id="DejaVuSans-33" d="M 2597 2516 
Q 3050 2419 3304 2112 
Q 3559 1806 3559 1356 
Q 3559 666 3084 287 
Q 2609 -91 1734 -91 
Q 1441 -91 1130 -33 
Q 819 25 488 141 
L 488 750 
Q 750 597 1062 519 
Q 1375 441 1716 441 
Q 2309 441 2620 675 
Q 2931 909 2931 1356 
Q 2931 1769 2642 2001 
Q 2353 2234 1838 2234 
L 1294 2234 
L 1294 2753 
L 1863 2753 
Q 2328 2753 2575 2939 
Q 2822 3125 2822 3475 
Q 2822 3834 2567 4026 
Q 2313 4219 1838 4219 
Q 1578 4219 1281 4162 
Q 984 4106 628 3988 
L 628 4550 
Q 988 4650 1302 4700 
Q 1616 4750 1894 4750 
Q 2613 4750 3031 4423 
Q 3450 4097 3450 3541 
Q 3450 3153 3228 2886 
Q 3006 2619 2597 2516 
z
" transform="scale(0.015625)"/>
        <path id="DejaVuSans-30" d="M 2034 4250 
Q 1547 4250 1301 3770 
Q 1056 3291 1056 2328 
Q 1056 1369 1301 889 
Q 1547 409 2034 409 
Q 2525 409 2770 889 
Q 3016 1369 3016 2328 
Q 3016 3291 2770 3770 
Q 2525 4250 2034 4250 
z
M 2034 4750 
Q 2819 4750 3233 4129 
Q 3647 3509 3647 2328 
Q 3647 1150 3233 529 
Q 2819 -91 2034 -91 
Q 1250 -91 836 529 
Q 422 1150 422 2328 
Q 422 3509 836 4129 
Q 1250 4750 2034 4750 
z
" transform="scale(0.015625)"/>
       </defs>
       <use xlink:href="#DejaVuSans-2212"/>
       <use xlink:href="#DejaVuSans-33" transform="translate(83.789062 0)"/>
       <use xlink:href="#DejaVuSans-30" transform="translate(147.412109 0)"/>
       <use xlink:href="#DejaVuSans-30" transform="translate(211.035156 0)"/>
      </g>
     </g>
    </g>
    <g id="ytick_2">
     <g id="line2d_8">
      <g>
       <use xlink:href="#m10dc16cb2f" x="76.79" y="155.636609" style="stroke: #000000; stroke-width: 0.8"/>
      </g>
     </g>
     <g id="text_2">
      <!-- −250 -->
      <g transform="translate(31.335938 160.955515) scale(0.14 -0.14)">
       <defs>
        <path id="DejaVuSans-32" d="M 1228 531 
L 3431 531 
L 3431 0 
L 469 0 
L 469 531 
Q 828 903 1448 1529 
Q 2069 2156 2228 2338 
Q 2531 2678 2651 2914 
Q 2772 3150 2772 3378 
Q 2772 3750 2511 3984 
Q 2250 4219 1831 4219 
Q 1534 4219 1204 4116 
Q 875 4013 500 3803 
L 500 4441 
Q 881 4594 1212 4672 
Q 1544 4750 1819 4750 
Q 2544 4750 2975 4387 
Q 3406 4025 3406 3419 
Q 3406 3131 3298 2873 
Q 3191 2616 2906 2266 
Q 2828 2175 2409 1742 
Q 1991 1309 1228 531 
z
" transform="scale(0.015625)"/>
        <path id="DejaVuSans-35" d="M 691 4666 
L 3169 4666 
L 3169 4134 
L 1269 4134 
L 1269 2991 
Q 1406 3038 1543 3061 
Q 1681 3084 1819 3084 
Q 2600 3084 3056 2656 
Q 3513 2228 3513 1497 
Q 3513 744 3044 326 
Q 2575 -91 1722 -91 
Q 1428 -91 1123 -41 
Q 819 9 494 109 
L 494 744 
Q 775 591 1075 516 
Q 1375 441 1709 441 
Q 2250 441 2565 725 
Q 2881 1009 2881 1497 
Q 2881 1984 2565 2268 
Q 2250 2553 1709 2553 
Q 1456 2553 1204 2497 
Q 953 2441 691 2322 
L 691 4666 
z
" transform="scale(0.015625)"/>
       </defs>
       <use xlink:href="#DejaVuSans-2212"/>
       <use xlink:href="#DejaVuSans-32" transform="translate(83.789062 0)"/>
       <use xlink:href="#DejaVuSans-35" transform="translate(147.412109 0)"/>
       <use xlink:href="#DejaVuSans-30" transform="translate(211.035156 0)"/>
      </g>
     </g>
    </g>
    <g id="ytick_3">
     <g id="line2d_9">
      <g>
       <use xlink:href="#m10dc16cb2f" x="76.79" y="119.937775" style="stroke: #000000; stroke-width: 0.8"/>
      </g>
     </g>
     <g id="text_3">
      <!-- −200 -->
      <g transform="translate(31.335938 125.256681) scale(0.14 -0.14)">
       <use xlink:href="#DejaVuSans-2212"/>
       <use xlink:href="#DejaVuSans-32" transform="translate(83.789062 0)"/>
       <use xlink:href="#DejaVuSans-30" transform="translate(147.412109 0)"/>
       <use xlink:href="#DejaVuSans-30" transform="translate(211.035156 0)"/>
      </g>
     </g>
    </g>
    <g id="ytick_4">
     <g id="line2d_10">
      <g>
       <use xlink:href="#m10dc16cb2f" x="76.79" y="84.238941" style="stroke: #000000; stroke-width: 0.8"/>
      </g>
     </g>
     <g id="text_4">
      <!-- −150 -->
      <g transform="translate(31.335938 89.557847) scale(0.14 -0.14)">
       <defs>
        <path id="DejaVuSans-31" d="M 794 531 
L 1825 531 
L 1825 4091 
L 703 3866 
L 703 4441 
L 1819 4666 
L 2450 4666 
L 2450 531 
L 3481 531 
L 3481 0 
L 794 0 
L 794 531 
z
" transform="scale(0.015625)"/>
       </defs>
       <use xlink:href="#DejaVuSans-2212"/>
       <use xlink:href="#DejaVuSans-31" transform="translate(83.789062 0)"/>
       <use xlink:href="#DejaVuSans-35" transform="translate(147.412109 0)"/>
       <use xlink:href="#DejaVuSans-30" transform="translate(211.035156 0)"/>
      </g>
     </g>
    </g>
    <g id="ytick_5">
     <g id="line2d_11">
      <g>
       <use xlink:href="#m10dc16cb2f" x="76.79" y="48.540107" style="stroke: #000000; stroke-width: 0.8"/>
      </g>
     </g>
     <g id="text_5">
      <!-- −100 -->
      <g transform="translate(31.335938 53.859013) scale(0.14 -0.14)">
       <use xlink:href="#DejaVuSans-2212"/>
       <use xlink:href="#DejaVuSans-31" transform="translate(83.789062 0)"/>
       <use xlink:href="#DejaVuSans-30" transform="translate(147.412109 0)"/>
       <use xlink:href="#DejaVuSans-30" transform="translate(211.035156 0)"/>
      </g>
     </g>
    </g>
    <g id="text_6">
     <!-- energy [Eh] -->
     <g transform="translate(24.008437 161.59529) rotate(-90) scale(0.16 -0.16)">
      <defs>
       <path id="DejaVuSans-65" d="M 3597 1894 
L 3597 1613 
L 953 1613 
Q 991 1019 1311 708 
Q 1631 397 2203 397 
Q 2534 397 2845 478 
Q 3156 559 3463 722 
L 3463 178 
Q 3153 47 2828 -22 
Q 2503 -91 2169 -91 
Q 1331 -91 842 396 
Q 353 884 353 1716 
Q 353 2575 817 3079 
Q 1281 3584 2069 3584 
Q 2775 3584 3186 3129 
Q 3597 2675 3597 1894 
z
M 3022 2063 
Q 3016 2534 2758 2815 
Q 2500 3097 2075 3097 
Q 1594 3097 1305 2825 
Q 1016 2553 972 2059 
L 3022 2063 
z
" transform="scale(0.015625)"/>
       <path id="DejaVuSans-6e" d="M 3513 2113 
L 3513 0 
L 2938 0 
L 2938 2094 
Q 2938 2591 2744 2837 
Q 2550 3084 2163 3084 
Q 1697 3084 1428 2787 
Q 1159 2491 1159 1978 
L 1159 0 
L 581 0 
L 581 3500 
L 1159 3500 
L 1159 2956 
Q 1366 3272 1645 3428 
Q 1925 3584 2291 3584 
Q 2894 3584 3203 3211 
Q 3513 2838 3513 2113 
z
" transform="scale(0.015625)"/>
       <path id="DejaVuSans-72" d="M 2631 2963 
Q 2534 3019 2420 3045 
Q 2306 3072 2169 3072 
Q 1681 3072 1420 2755 
Q 1159 2438 1159 1844 
L 1159 0 
L 581 0 
L 581 3500 
L 1159 3500 
L 1159 2956 
Q 1341 3275 1631 3429 
Q 1922 3584 2338 3584 
Q 2397 3584 2469 3576 
Q 2541 3569 2628 3553 
L 2631 2963 
z
" transform="scale(0.015625)"/>
       <path id="DejaVuSans-67" d="M 2906 1791 
Q 2906 2416 2648 2759 
Q 2391 3103 1925 3103 
Q 1463 3103 1205 2759 
Q 947 2416 947 1791 
Q 947 1169 1205 825 
Q 1463 481 1925 481 
Q 2391 481 2648 825 
Q 2906 1169 2906 1791 
z
M 3481 434 
Q 3481 -459 3084 -895 
Q 2688 -1331 1869 -1331 
Q 1566 -1331 1297 -1286 
Q 1028 -1241 775 -1147 
L 775 -588 
Q 1028 -725 1275 -790 
Q 1522 -856 1778 -856 
Q 2344 -856 2625 -561 
Q 2906 -266 2906 331 
L 2906 616 
Q 2728 306 2450 153 
Q 2172 0 1784 0 
Q 1141 0 747 490 
Q 353 981 353 1791 
Q 353 2603 747 3093 
Q 1141 3584 1784 3584 
Q 2172 3584 2450 3431 
Q 2728 3278 2906 2969 
L 2906 3500 
L 3481 3500 
L 3481 434 
z
" transform="scale(0.015625)"/>
       <path id="DejaVuSans-79" d="M 2059 -325 
Q 1816 -950 1584 -1140 
Q 1353 -1331 966 -1331 
L 506 -1331 
L 506 -850 
L 844 -850 
Q 1081 -850 1212 -737 
Q 1344 -625 1503 -206 
L 1606 56 
L 191 3500 
L 800 3500 
L 1894 763 
L 2988 3500 
L 3597 3500 
L 2059 -325 
z
" transform="scale(0.015625)"/>
       <path id="DejaVuSans-20" transform="scale(0.015625)"/>
       <path id="DejaVuSans-5b" d="M 550 4863 
L 1875 4863 
L 1875 4416 
L 1125 4416 
L 1125 -397 
L 1875 -397 
L 1875 -844 
L 550 -844 
L 550 4863 
z
" transform="scale(0.015625)"/>
       <path id="DejaVuSans-45" d="M 628 4666 
L 3578 4666 
L 3578 4134 
L 1259 4134 
L 1259 2753 
L 3481 2753 
L 3481 2222 
L 1259 2222 
L 1259 531 
L 3634 531 
L 3634 0 
L 628 0 
L 628 4666 
z
" transform="scale(0.015625)"/>
       <path id="DejaVuSans-68" d="M 3513 2113 
L 3513 0 
L 2938 0 
L 2938 2094 
Q 2938 2591 2744 2837 
Q 2550 3084 2163 3084 
Q 1697 3084 1428 2787 
Q 1159 2491 1159 1978 
L 1159 0 
L 581 0 
L 581 4863 
L 1159 4863 
L 1159 2956 
Q 1366 3272 1645 3428 
Q 1925 3584 2291 3584 
Q 2894 3584 3203 3211 
Q 3513 2838 3513 2113 
z
" transform="scale(0.015625)"/>
       <path id="DejaVuSans-5d" d="M 1947 4863 
L 1947 -844 
L 622 -844 
L 622 -397 
L 1369 -397 
L 1369 4416 
L 622 4416 
L 622 4863 
L 1947 4863 
z
" transform="scale(0.015625)"/>
      </defs>
      <use xlink:href="#DejaVuSans-65"/>
      <use xlink:href="#DejaVuSans-6e" transform="translate(61.523438 0)"/>
      <use xlink:href="#DejaVuSans-65" transform="translate(124.902344 0)"/>
      <use xlink:href="#DejaVuSans-72" transform="translate(186.425781 0)"/>
      <use xlink:href="#DejaVuSans-67" transform="translate(225.789062 0)"/>
      <use xlink:href="#DejaVuSans-79" transform="translate(289.265625 0)"/>
      <use xlink:href="#DejaVuSans-20" transform="translate(348.445312 0)"/>
      <use xlink:href="#DejaVuSans-5b" transform="translate(380.232422 0)"/>
      <use xlink:href="#DejaVuSans-45" transform="translate(419.246094 0)"/>
      <use xlink:href="#DejaVuSans-68" transform="translate(482.429688 0)"/>
      <use xlink:href="#DejaVuSans-5d" transform="translate(545.808594 0)"/>
     </g>
    </g>
   </g>
   <g id="patch_3">
    <path d="M 76.79 191.45558 
L 76.79 38.16 
" style="fill: none; stroke: #000000; stroke-width: 0.8; stroke-linejoin: miter; stroke-linecap: square"/>
   </g>
   <g id="patch_4">
    <path d="M 397.884398 191.45558 
L 397.884398 38.16 
" style="fill: none; stroke: #000000; stroke-width: 0.8; stroke-linejoin: miter; stroke-linecap: square"/>
   </g>
   <g id="patch_5">
    <path d="M 76.79 191.45558 
L 397.884398 191.45558 
" style="fill: none; stroke: #000000; stroke-width: 0.8; stroke-linejoin: miter; stroke-linecap: square"/>
   </g>
   <g id="patch_6">
    <path d="M 76.79 38.16 
L 397.884398 38.16 
" style="fill: none; stroke: #000000; stroke-width: 0.8; stroke-linejoin: miter; stroke-linecap: square"/>
   </g>
   <g id="legend_1">
    <g id="PathCollection_13">
     <path d="M 350.18596 55.668971 
C 351.123595 55.668971 352.022953 55.296445 352.68596 54.633438 
C 353.348968 53.97043 353.721494 53.071072 353.721494 52.133438 
C 353.721494 51.195803 353.348968 50.296445 352.68596 49.633438 
C 352.022953 48.97043 351.123595 48.597904 350.18596 48.597904 
C 349.248326 48.597904 348.348968 48.97043 347.68596 49.633438 
C 347.022953 50.296445 346.650426 51.195803 346.650426 52.133438 
C 346.650426 53.071072 347.022953 53.97043 347.68596 54.633438 
C 348.348968 55.296445 349.248326 55.668971 350.18596 55.668971 
L 350.18596 55.668971 
z
" style="fill: none; stroke: #ec6f70"/>
    </g>
    <g id="text_7">
     <!-- me -->
     <g transform="translate(368.18596 54.758438) scale(0.1 -0.1)">
      <defs>
       <path id="DejaVuSans-6d" d="M 3328 2828 
Q 3544 3216 3844 3400 
Q 4144 3584 4550 3584 
Q 5097 3584 5394 3201 
Q 5691 2819 5691 2113 
L 5691 0 
L 5113 0 
L 5113 2094 
Q 5113 2597 4934 2840 
Q 4756 3084 4391 3084 
Q 3944 3084 3684 2787 
Q 3425 2491 3425 1978 
L 3425 0 
L 2847 0 
L 2847 2094 
Q 2847 2600 2669 2842 
Q 2491 3084 2119 3084 
Q 1678 3084 1418 2786 
Q 1159 2488 1159 1978 
L 1159 0 
L 581 0 
L 581 3500 
L 1159 3500 
L 1159 2956 
Q 1356 3278 1631 3431 
Q 1906 3584 2284 3584 
Q 2666 3584 2933 3390 
Q 3200 3197 3328 2828 
z
" transform="scale(0.015625)"/>
      </defs>
      <use xlink:href="#DejaVuSans-6d"/>
      <use xlink:href="#DejaVuSans-65" transform="translate(97.412109 0)"/>
     </g>
    </g>
    <g id="PathCollection_14">
     <g>
      <use xlink:href="#mfcde0f8ca3" x="350.18596" y="66.811563" style="fill: #1f77b4; stroke: #12c87e"/>
     </g>
    </g>
    <g id="text_8">
     <!-- psi4 -->
     <g transform="translate(368.18596 69.436563) scale(0.1 -0.1)">
      <defs>
       <path id="DejaVuSans-70" d="M 1159 525 
L 1159 -1331 
L 581 -1331 
L 581 3500 
L 1159 3500 
L 1159 2969 
Q 1341 3281 1617 3432 
Q 1894 3584 2278 3584 
Q 2916 3584 3314 3078 
Q 3713 2572 3713 1747 
Q 3713 922 3314 415 
Q 2916 -91 2278 -91 
Q 1894 -91 1617 61 
Q 1341 213 1159 525 
z
M 3116 1747 
Q 3116 2381 2855 2742 
Q 2594 3103 2138 3103 
Q 1681 3103 1420 2742 
Q 1159 2381 1159 1747 
Q 1159 1113 1420 752 
Q 1681 391 2138 391 
Q 2594 391 2855 752 
Q 3116 1113 3116 1747 
z
" transform="scale(0.015625)"/>
       <path id="DejaVuSans-73" d="M 2834 3397 
L 2834 2853 
Q 2591 2978 2328 3040 
Q 2066 3103 1784 3103 
Q 1356 3103 1142 2972 
Q 928 2841 928 2578 
Q 928 2378 1081 2264 
Q 1234 2150 1697 2047 
L 1894 2003 
Q 2506 1872 2764 1633 
Q 3022 1394 3022 966 
Q 3022 478 2636 193 
Q 2250 -91 1575 -91 
Q 1294 -91 989 -36 
Q 684 19 347 128 
L 347 722 
Q 666 556 975 473 
Q 1284 391 1588 391 
Q 1994 391 2212 530 
Q 2431 669 2431 922 
Q 2431 1156 2273 1281 
Q 2116 1406 1581 1522 
L 1381 1569 
Q 847 1681 609 1914 
Q 372 2147 372 2553 
Q 372 3047 722 3315 
Q 1072 3584 1716 3584 
Q 2034 3584 2315 3537 
Q 2597 3491 2834 3397 
z
" transform="scale(0.015625)"/>
       <path id="DejaVuSans-69" d="M 603 3500 
L 1178 3500 
L 1178 0 
L 603 0 
L 603 3500 
z
M 603 4863 
L 1178 4863 
L 1178 4134 
L 603 4134 
L 603 4863 
z
" transform="scale(0.015625)"/>
       <path id="DejaVuSans-34" d="M 2419 4116 
L 825 1625 
L 2419 1625 
L 2419 4116 
z
M 2253 4666 
L 3047 4666 
L 3047 1625 
L 3713 1625 
L 3713 1100 
L 3047 1100 
L 3047 0 
L 2419 0 
L 2419 1100 
L 313 1100 
L 313 1709 
L 2253 4666 
z
" transform="scale(0.015625)"/>
      </defs>
      <use xlink:href="#DejaVuSans-70"/>
      <use xlink:href="#DejaVuSans-73" transform="translate(63.476562 0)"/>
      <use xlink:href="#DejaVuSans-69" transform="translate(115.576172 0)"/>
      <use xlink:href="#DejaVuSans-34" transform="translate(143.359375 0)"/>
     </g>
    </g>
   </g>
  </g>
  <g id="axes_2">
   <g id="patch_7">
    <path d="M 76.79 369.97116 
L 397.884398 369.97116 
L 397.884398 216.67558 
L 76.79 216.67558 
z
" style="fill: #ffffff"/>
   </g>
   <g id="PathCollection_15">
    <path d="M 91.3852 366.538713 
C 92.322834 366.538713 93.222192 366.166187 93.8852 365.503179 
C 94.548208 364.840172 94.920734 363.940814 94.920734 363.003179 
C 94.920734 362.065545 94.548208 361.166187 93.8852 360.503179 
C 93.222192 359.840172 92.322834 359.467645 91.3852 359.467645 
C 90.447565 359.467645 89.548208 359.840172 88.8852 360.503179 
C 88.222192 361.166187 87.849666 362.065545 87.849666 363.003179 
C 87.849666 363.940814 88.222192 364.840172 88.8852 365.503179 
C 89.548208 366.166187 90.447565 366.538713 91.3852 366.538713 
L 91.3852 366.538713 
z
" clip-path="url(#p85603f1065)" style="fill: none; stroke: #44573d"/>
   </g>
   <g id="PathCollection_16">
    <path d="M 149.765999 361.851271 
C 150.703634 361.851271 151.602992 361.478745 152.265999 360.815737 
C 152.929007 360.152729 153.301533 359.253372 153.301533 358.315737 
C 153.301533 357.378103 152.929007 356.478745 152.265999 355.815737 
C 151.602992 355.152729 150.703634 354.780203 149.765999 354.780203 
C 148.828365 354.780203 147.929007 355.152729 147.265999 355.815737 
C 146.602992 356.478745 146.230466 357.378103 146.230466 358.315737 
C 146.230466 359.253372 146.602992 360.152729 147.265999 360.815737 
C 147.929007 361.478745 148.828365 361.851271 149.765999 361.851271 
L 149.765999 361.851271 
z
" clip-path="url(#p85603f1065)" style="fill: none; stroke: #0a1930"/>
   </g>
   <g id="PathCollection_17">
    <path d="M 208.146799 350.538032 
C 209.084434 350.538032 209.983791 350.165506 210.646799 349.502498 
C 211.309807 348.83949 211.682333 347.940132 211.682333 347.002498 
C 211.682333 346.064863 211.309807 345.165506 210.646799 344.502498 
C 209.983791 343.83949 209.084434 343.466964 208.146799 343.466964 
C 207.209165 343.466964 206.309807 343.83949 205.646799 344.502498 
C 204.983791 345.165506 204.611265 346.064863 204.611265 347.002498 
C 204.611265 347.940132 204.983791 348.83949 205.646799 349.502498 
C 206.309807 350.165506 207.209165 350.538032 208.146799 350.538032 
L 208.146799 350.538032 
z
" clip-path="url(#p85603f1065)" style="fill: none; stroke: #17c521"/>
   </g>
   <g id="PathCollection_18">
    <path d="M 266.527599 327.904269 
C 267.465233 327.904269 268.364591 327.531743 269.027599 326.868736 
C 269.690606 326.205728 270.063133 325.30637 270.063133 324.368736 
C 270.063133 323.431101 269.690606 322.531743 269.027599 321.868736 
C 268.364591 321.205728 267.465233 320.833202 266.527599 320.833202 
C 265.589964 320.833202 264.690606 321.205728 264.027599 321.868736 
C 263.364591 322.531743 262.992065 323.431101 262.992065 324.368736 
C 262.992065 325.30637 263.364591 326.205728 264.027599 326.868736 
C 264.690606 327.531743 265.589964 327.904269 266.527599 327.904269 
L 266.527599 327.904269 
z
" clip-path="url(#p85603f1065)" style="fill: none; stroke: #d91b05"/>
   </g>
   <g id="PathCollection_19">
    <path d="M 324.908398 288.412835 
C 325.846033 288.412835 326.745391 288.040309 327.408398 287.377301 
C 328.071406 286.714293 328.443932 285.814936 328.443932 284.877301 
C 328.443932 283.939667 328.071406 283.040309 327.408398 282.377301 
C 326.745391 281.714293 325.846033 281.341767 324.908398 281.341767 
C 323.970764 281.341767 323.071406 281.714293 322.408398 282.377301 
C 321.745391 283.040309 321.372864 283.939667 321.372864 284.877301 
C 321.372864 285.814936 321.745391 286.714293 322.408398 287.377301 
C 323.071406 288.040309 323.970764 288.412835 324.908398 288.412835 
L 324.908398 288.412835 
z
" clip-path="url(#p85603f1065)" style="fill: none; stroke: #4fc698"/>
   </g>
   <g id="PathCollection_20">
    <path d="M 383.289198 227.179095 
C 384.226832 227.179095 385.12619 226.806569 385.789198 226.143561 
C 386.452206 225.480553 386.824732 224.581196 386.824732 223.643561 
C 386.824732 222.705926 386.452206 221.806569 385.789198 221.143561 
C 385.12619 220.480553 384.226832 220.108027 383.289198 220.108027 
C 382.351563 220.108027 381.452206 220.480553 380.789198 221.143561 
C 380.12619 221.806569 379.753664 222.705926 379.753664 223.643561 
C 379.753664 224.581196 380.12619 225.480553 380.789198 226.143561 
C 381.452206 226.806569 382.351563 227.179095 383.289198 227.179095 
L 383.289198 227.179095 
z
" clip-path="url(#p85603f1065)" style="fill: none; stroke: #edd4a8"/>
   </g>
   <g id="matplotlib.axis_3">
    <g id="xtick_7">
     <g id="line2d_12">
      <g>
       <use xlink:href="#m36f242beee" x="91.3852" y="369.97116" style="stroke: #000000; stroke-width: 0.8"/>
      </g>
     </g>
    </g>
    <g id="xtick_8">
     <g id="line2d_13">
      <g>
       <use xlink:href="#m36f242beee" x="149.765999" y="369.97116" style="stroke: #000000; stroke-width: 0.8"/>
      </g>
     </g>
    </g>
    <g id="xtick_9">
     <g id="line2d_14">
      <g>
       <use xlink:href="#m36f242beee" x="208.146799" y="369.97116" style="stroke: #000000; stroke-width: 0.8"/>
      </g>
     </g>
    </g>
    <g id="xtick_10">
     <g id="line2d_15">
      <g>
       <use xlink:href="#m36f242beee" x="266.527599" y="369.97116" style="stroke: #000000; stroke-width: 0.8"/>
      </g>
     </g>
    </g>
    <g id="xtick_11">
     <g id="line2d_16">
      <g>
       <use xlink:href="#m36f242beee" x="324.908398" y="369.97116" style="stroke: #000000; stroke-width: 0.8"/>
      </g>
     </g>
    </g>
    <g id="xtick_12">
     <g id="line2d_17">
      <g>
       <use xlink:href="#m36f242beee" x="383.289198" y="369.97116" style="stroke: #000000; stroke-width: 0.8"/>
      </g>
     </g>
    </g>
   </g>
   <g id="matplotlib.axis_4">
    <g id="ytick_6">
     <g id="line2d_18">
      <g>
       <use xlink:href="#m10dc16cb2f" x="76.79" y="364.456198" style="stroke: #000000; stroke-width: 0.8"/>
      </g>
     </g>
     <g id="text_9">
      <!-- 0 -->
      <g transform="translate(60.8825 369.775105) scale(0.14 -0.14)">
       <use xlink:href="#DejaVuSans-30"/>
      </g>
     </g>
    </g>
    <g id="ytick_7">
     <g id="line2d_19">
      <g>
       <use xlink:href="#m10dc16cb2f" x="76.79" y="328.278136" style="stroke: #000000; stroke-width: 0.8"/>
      </g>
     </g>
     <g id="text_10">
      <!-- 100 -->
      <g transform="translate(43.0675 333.597042) scale(0.14 -0.14)">
       <use xlink:href="#DejaVuSans-31"/>
       <use xlink:href="#DejaVuSans-30" transform="translate(63.623047 0)"/>
       <use xlink:href="#DejaVuSans-30" transform="translate(127.246094 0)"/>
      </g>
     </g>
    </g>
    <g id="ytick_8">
     <g id="line2d_20">
      <g>
       <use xlink:href="#m10dc16cb2f" x="76.79" y="292.100074" style="stroke: #000000; stroke-width: 0.8"/>
      </g>
     </g>
     <g id="text_11">
      <!-- 200 -->
      <g transform="translate(43.0675 297.41898) scale(0.14 -0.14)">
       <use xlink:href="#DejaVuSans-32"/>
       <use xlink:href="#DejaVuSans-30" transform="translate(63.623047 0)"/>
       <use xlink:href="#DejaVuSans-30" transform="translate(127.246094 0)"/>
      </g>
     </g>
    </g>
    <g id="ytick_9">
     <g id="line2d_21">
      <g>
       <use xlink:href="#m10dc16cb2f" x="76.79" y="255.922012" style="stroke: #000000; stroke-width: 0.8"/>
      </g>
     </g>
     <g id="text_12">
      <!-- 300 -->
      <g transform="translate(43.0675 261.240918) scale(0.14 -0.14)">
       <use xlink:href="#DejaVuSans-33"/>
       <use xlink:href="#DejaVuSans-30" transform="translate(63.623047 0)"/>
       <use xlink:href="#DejaVuSans-30" transform="translate(127.246094 0)"/>
      </g>
     </g>
    </g>
    <g id="ytick_10">
     <g id="line2d_22">
      <g>
       <use xlink:href="#m10dc16cb2f" x="76.79" y="219.743949" style="stroke: #000000; stroke-width: 0.8"/>
      </g>
     </g>
     <g id="text_13">
      <!-- 400 -->
      <g transform="translate(43.0675 225.062856) scale(0.14 -0.14)">
       <use xlink:href="#DejaVuSans-34"/>
       <use xlink:href="#DejaVuSans-30" transform="translate(63.623047 0)"/>
       <use xlink:href="#DejaVuSans-30" transform="translate(127.246094 0)"/>
      </g>
     </g>
    </g>
    <g id="text_14">
     <!-- wall time [sec] -->
     <g transform="translate(35.74 352.10337) rotate(-90) scale(0.16 -0.16)">
      <defs>
       <path id="DejaVuSans-77" d="M 269 3500 
L 844 3500 
L 1563 769 
L 2278 3500 
L 2956 3500 
L 3675 769 
L 4391 3500 
L 4966 3500 
L 4050 0 
L 3372 0 
L 2619 2869 
L 1863 0 
L 1184 0 
L 269 3500 
z
" transform="scale(0.015625)"/>
       <path id="DejaVuSans-61" d="M 2194 1759 
Q 1497 1759 1228 1600 
Q 959 1441 959 1056 
Q 959 750 1161 570 
Q 1363 391 1709 391 
Q 2188 391 2477 730 
Q 2766 1069 2766 1631 
L 2766 1759 
L 2194 1759 
z
M 3341 1997 
L 3341 0 
L 2766 0 
L 2766 531 
Q 2569 213 2275 61 
Q 1981 -91 1556 -91 
Q 1019 -91 701 211 
Q 384 513 384 1019 
Q 384 1609 779 1909 
Q 1175 2209 1959 2209 
L 2766 2209 
L 2766 2266 
Q 2766 2663 2505 2880 
Q 2244 3097 1772 3097 
Q 1472 3097 1187 3025 
Q 903 2953 641 2809 
L 641 3341 
Q 956 3463 1253 3523 
Q 1550 3584 1831 3584 
Q 2591 3584 2966 3190 
Q 3341 2797 3341 1997 
z
" transform="scale(0.015625)"/>
       <path id="DejaVuSans-6c" d="M 603 4863 
L 1178 4863 
L 1178 0 
L 603 0 
L 603 4863 
z
" transform="scale(0.015625)"/>
       <path id="DejaVuSans-74" d="M 1172 4494 
L 1172 3500 
L 2356 3500 
L 2356 3053 
L 1172 3053 
L 1172 1153 
Q 1172 725 1289 603 
Q 1406 481 1766 481 
L 2356 481 
L 2356 0 
L 1766 0 
Q 1100 0 847 248 
Q 594 497 594 1153 
L 594 3053 
L 172 3053 
L 172 3500 
L 594 3500 
L 594 4494 
L 1172 4494 
z
" transform="scale(0.015625)"/>
       <path id="DejaVuSans-63" d="M 3122 3366 
L 3122 2828 
Q 2878 2963 2633 3030 
Q 2388 3097 2138 3097 
Q 1578 3097 1268 2742 
Q 959 2388 959 1747 
Q 959 1106 1268 751 
Q 1578 397 2138 397 
Q 2388 397 2633 464 
Q 2878 531 3122 666 
L 3122 134 
Q 2881 22 2623 -34 
Q 2366 -91 2075 -91 
Q 1284 -91 818 406 
Q 353 903 353 1747 
Q 353 2603 823 3093 
Q 1294 3584 2113 3584 
Q 2378 3584 2631 3529 
Q 2884 3475 3122 3366 
z
" transform="scale(0.015625)"/>
      </defs>
      <use xlink:href="#DejaVuSans-77"/>
      <use xlink:href="#DejaVuSans-61" transform="translate(81.787109 0)"/>
      <use xlink:href="#DejaVuSans-6c" transform="translate(143.066406 0)"/>
      <use xlink:href="#DejaVuSans-6c" transform="translate(170.849609 0)"/>
      <use xlink:href="#DejaVuSans-20" transform="translate(198.632812 0)"/>
      <use xlink:href="#DejaVuSans-74" transform="translate(230.419922 0)"/>
      <use xlink:href="#DejaVuSans-69" transform="translate(269.628906 0)"/>
      <use xlink:href="#DejaVuSans-6d" transform="translate(297.412109 0)"/>
      <use xlink:href="#DejaVuSans-65" transform="translate(394.824219 0)"/>
      <use xlink:href="#DejaVuSans-20" transform="translate(456.347656 0)"/>
      <use xlink:href="#DejaVuSans-5b" transform="translate(488.134766 0)"/>
      <use xlink:href="#DejaVuSans-73" transform="translate(527.148438 0)"/>
      <use xlink:href="#DejaVuSans-65" transform="translate(579.248047 0)"/>
      <use xlink:href="#DejaVuSans-63" transform="translate(640.771484 0)"/>
      <use xlink:href="#DejaVuSans-5d" transform="translate(695.751953 0)"/>
     </g>
    </g>
   </g>
   <g id="patch_8">
    <path d="M 76.79 369.97116 
L 76.79 216.67558 
" style="fill: none; stroke: #000000; stroke-width: 0.8; stroke-linejoin: miter; stroke-linecap: square"/>
   </g>
   <g id="patch_9">
    <path d="M 397.884398 369.97116 
L 397.884398 216.67558 
" style="fill: none; stroke: #000000; stroke-width: 0.8; stroke-linejoin: miter; stroke-linecap: square"/>
   </g>
   <g id="patch_10">
    <path d="M 76.79 369.97116 
L 397.884398 369.97116 
" style="fill: none; stroke: #000000; stroke-width: 0.8; stroke-linejoin: miter; stroke-linecap: square"/>
   </g>
   <g id="patch_11">
    <path d="M 76.79 216.67558 
L 397.884398 216.67558 
" style="fill: none; stroke: #000000; stroke-width: 0.8; stroke-linejoin: miter; stroke-linecap: square"/>
   </g>
   <g id="legend_2">
    <g id="PathCollection_21">
     <path d="M 95.79 234.184552 
C 96.727635 234.184552 97.626992 233.812025 98.29 233.149018 
C 98.953008 232.48601 99.325534 231.586652 99.325534 230.649018 
C 99.325534 229.711383 98.953008 228.812025 98.29 228.149018 
C 97.626992 227.48601 96.727635 227.113484 95.79 227.113484 
C 94.852365 227.113484 93.953008 227.48601 93.29 228.149018 
C 92.626992 228.812025 92.254466 229.711383 92.254466 230.649018 
C 92.254466 231.586652 92.626992 232.48601 93.29 233.149018 
C 93.953008 233.812025 94.852365 234.184552 95.79 234.184552 
L 95.79 234.184552 
z
" style="fill: none; stroke: #44573d"/>
    </g>
    <g id="text_15">
     <!--  55 cgfs -->
     <g transform="translate(113.79 233.274018) scale(0.1 -0.1)">
      <defs>
       <path id="DejaVuSans-66" d="M 2375 4863 
L 2375 4384 
L 1825 4384 
Q 1516 4384 1395 4259 
Q 1275 4134 1275 3809 
L 1275 3500 
L 2222 3500 
L 2222 3053 
L 1275 3053 
L 1275 0 
L 697 0 
L 697 3053 
L 147 3053 
L 147 3500 
L 697 3500 
L 697 3744 
Q 697 4328 969 4595 
Q 1241 4863 1831 4863 
L 2375 4863 
z
" transform="scale(0.015625)"/>
      </defs>
      <use xlink:href="#DejaVuSans-20"/>
      <use xlink:href="#DejaVuSans-35" transform="translate(31.787109 0)"/>
      <use xlink:href="#DejaVuSans-35" transform="translate(95.410156 0)"/>
      <use xlink:href="#DejaVuSans-20" transform="translate(159.033203 0)"/>
      <use xlink:href="#DejaVuSans-63" transform="translate(190.820312 0)"/>
      <use xlink:href="#DejaVuSans-67" transform="translate(245.800781 0)"/>
      <use xlink:href="#DejaVuSans-66" transform="translate(309.277344 0)"/>
      <use xlink:href="#DejaVuSans-73" transform="translate(344.482422 0)"/>
     </g>
    </g>
    <g id="PathCollection_22">
     <path d="M 95.79 248.862677 
C 96.727635 248.862677 97.626992 248.49015 98.29 247.827143 
C 98.953008 247.164135 99.325534 246.264777 99.325534 245.327143 
C 99.325534 244.389508 98.953008 243.49015 98.29 242.827143 
C 97.626992 242.164135 96.727635 241.791609 95.79 241.791609 
C 94.852365 241.791609 93.953008 242.164135 93.29 242.827143 
C 92.626992 243.49015 92.254466 244.389508 92.254466 245.327143 
C 92.254466 246.264777 92.626992 247.164135 93.29 247.827143 
C 93.953008 248.49015 94.852365 248.862677 95.79 248.862677 
L 95.79 248.862677 
z
" style="fill: none; stroke: #0a1930"/>
    </g>
    <g id="text_16">
     <!--  80 cgfs -->
     <g transform="translate(113.79 247.952143) scale(0.1 -0.1)">
      <defs>
       <path id="DejaVuSans-38" d="M 2034 2216 
Q 1584 2216 1326 1975 
Q 1069 1734 1069 1313 
Q 1069 891 1326 650 
Q 1584 409 2034 409 
Q 2484 409 2743 651 
Q 3003 894 3003 1313 
Q 3003 1734 2745 1975 
Q 2488 2216 2034 2216 
z
M 1403 2484 
Q 997 2584 770 2862 
Q 544 3141 544 3541 
Q 544 4100 942 4425 
Q 1341 4750 2034 4750 
Q 2731 4750 3128 4425 
Q 3525 4100 3525 3541 
Q 3525 3141 3298 2862 
Q 3072 2584 2669 2484 
Q 3125 2378 3379 2068 
Q 3634 1759 3634 1313 
Q 3634 634 3220 271 
Q 2806 -91 2034 -91 
Q 1263 -91 848 271 
Q 434 634 434 1313 
Q 434 1759 690 2068 
Q 947 2378 1403 2484 
z
M 1172 3481 
Q 1172 3119 1398 2916 
Q 1625 2713 2034 2713 
Q 2441 2713 2670 2916 
Q 2900 3119 2900 3481 
Q 2900 3844 2670 4047 
Q 2441 4250 2034 4250 
Q 1625 4250 1398 4047 
Q 1172 3844 1172 3481 
z
" transform="scale(0.015625)"/>
      </defs>
      <use xlink:href="#DejaVuSans-20"/>
      <use xlink:href="#DejaVuSans-38" transform="translate(31.787109 0)"/>
      <use xlink:href="#DejaVuSans-30" transform="translate(95.410156 0)"/>
      <use xlink:href="#DejaVuSans-20" transform="translate(159.033203 0)"/>
      <use xlink:href="#DejaVuSans-63" transform="translate(190.820312 0)"/>
      <use xlink:href="#DejaVuSans-67" transform="translate(245.800781 0)"/>
      <use xlink:href="#DejaVuSans-66" transform="translate(309.277344 0)"/>
      <use xlink:href="#DejaVuSans-73" transform="translate(344.482422 0)"/>
     </g>
    </g>
    <g id="PathCollection_23">
     <path d="M 95.79 263.540802 
C 96.727635 263.540802 97.626992 263.168275 98.29 262.505268 
C 98.953008 261.84226 99.325534 260.942902 99.325534 260.005268 
C 99.325534 259.067633 98.953008 258.168275 98.29 257.505268 
C 97.626992 256.84226 96.727635 256.469734 95.79 256.469734 
C 94.852365 256.469734 93.953008 256.84226 93.29 257.505268 
C 92.626992 258.168275 92.254466 259.067633 92.254466 260.005268 
C 92.254466 260.942902 92.626992 261.84226 93.29 262.505268 
C 93.953008 263.168275 94.852365 263.540802 95.79 263.540802 
L 95.79 263.540802 
z
" style="fill: none; stroke: #17c521"/>
    </g>
    <g id="text_17">
     <!-- 105 cgfs -->
     <g transform="translate(113.79 262.630268) scale(0.1 -0.1)">
      <use xlink:href="#DejaVuSans-31"/>
      <use xlink:href="#DejaVuSans-30" transform="translate(63.623047 0)"/>
      <use xlink:href="#DejaVuSans-35" transform="translate(127.246094 0)"/>
      <use xlink:href="#DejaVuSans-20" transform="translate(190.869141 0)"/>
      <use xlink:href="#DejaVuSans-63" transform="translate(222.65625 0)"/>
      <use xlink:href="#DejaVuSans-67" transform="translate(277.636719 0)"/>
      <use xlink:href="#DejaVuSans-66" transform="translate(341.113281 0)"/>
      <use xlink:href="#DejaVuSans-73" transform="translate(376.318359 0)"/>
     </g>
    </g>
    <g id="PathCollection_24">
     <path d="M 95.79 278.218927 
C 96.727635 278.218927 97.626992 277.8464 98.29 277.183393 
C 98.953008 276.520385 99.325534 275.621027 99.325534 274.683393 
C 99.325534 273.745758 98.953008 272.8464 98.29 272.183393 
C 97.626992 271.520385 96.727635 271.147859 95.79 271.147859 
C 94.852365 271.147859 93.953008 271.520385 93.29 272.183393 
C 92.626992 272.8464 92.254466 273.745758 92.254466 274.683393 
C 92.254466 275.621027 92.626992 276.520385 93.29 277.183393 
C 93.953008 277.8464 94.852365 278.218927 95.79 278.218927 
L 95.79 278.218927 
z
" style="fill: none; stroke: #d91b05"/>
    </g>
    <g id="text_18">
     <!-- 130 cgfs -->
     <g transform="translate(113.79 277.308393) scale(0.1 -0.1)">
      <use xlink:href="#DejaVuSans-31"/>
      <use xlink:href="#DejaVuSans-33" transform="translate(63.623047 0)"/>
      <use xlink:href="#DejaVuSans-30" transform="translate(127.246094 0)"/>
      <use xlink:href="#DejaVuSans-20" transform="translate(190.869141 0)"/>
      <use xlink:href="#DejaVuSans-63" transform="translate(222.65625 0)"/>
      <use xlink:href="#DejaVuSans-67" transform="translate(277.636719 0)"/>
      <use xlink:href="#DejaVuSans-66" transform="translate(341.113281 0)"/>
      <use xlink:href="#DejaVuSans-73" transform="translate(376.318359 0)"/>
     </g>
    </g>
    <g id="PathCollection_25">
     <path d="M 95.79 292.897052 
C 96.727635 292.897052 97.626992 292.524525 98.29 291.861518 
C 98.953008 291.19851 99.325534 290.299152 99.325534 289.361518 
C 99.325534 288.423883 98.953008 287.524525 98.29 286.861518 
C 97.626992 286.19851 96.727635 285.825984 95.79 285.825984 
C 94.852365 285.825984 93.953008 286.19851 93.29 286.861518 
C 92.626992 287.524525 92.254466 288.423883 92.254466 289.361518 
C 92.254466 290.299152 92.626992 291.19851 93.29 291.861518 
C 93.953008 292.524525 94.852365 292.897052 95.79 292.897052 
L 95.79 292.897052 
z
" style="fill: none; stroke: #4fc698"/>
    </g>
    <g id="text_19">
     <!-- 155 cgfs -->
     <g transform="translate(113.79 291.986518) scale(0.1 -0.1)">
      <use xlink:href="#DejaVuSans-31"/>
      <use xlink:href="#DejaVuSans-35" transform="translate(63.623047 0)"/>
      <use xlink:href="#DejaVuSans-35" transform="translate(127.246094 0)"/>
      <use xlink:href="#DejaVuSans-20" transform="translate(190.869141 0)"/>
      <use xlink:href="#DejaVuSans-63" transform="translate(222.65625 0)"/>
      <use xlink:href="#DejaVuSans-67" transform="translate(277.636719 0)"/>
      <use xlink:href="#DejaVuSans-66" transform="translate(341.113281 0)"/>
      <use xlink:href="#DejaVuSans-73" transform="translate(376.318359 0)"/>
     </g>
    </g>
    <g id="PathCollection_26">
     <path d="M 95.79 307.575177 
C 96.727635 307.575177 97.626992 307.20265 98.29 306.539643 
C 98.953008 305.876635 99.325534 304.977277 99.325534 304.039643 
C 99.325534 303.102008 98.953008 302.20265 98.29 301.539643 
C 97.626992 300.876635 96.727635 300.504109 95.79 300.504109 
C 94.852365 300.504109 93.953008 300.876635 93.29 301.539643 
C 92.626992 302.20265 92.254466 303.102008 92.254466 304.039643 
C 92.254466 304.977277 92.626992 305.876635 93.29 306.539643 
C 93.953008 307.20265 94.852365 307.575177 95.79 307.575177 
L 95.79 307.575177 
z
" style="fill: none; stroke: #edd4a8"/>
    </g>
    <g id="text_20">
     <!-- 180 cgfs -->
     <g transform="translate(113.79 306.664643) scale(0.1 -0.1)">
      <use xlink:href="#DejaVuSans-31"/>
      <use xlink:href="#DejaVuSans-38" transform="translate(63.623047 0)"/>
      <use xlink:href="#DejaVuSans-30" transform="translate(127.246094 0)"/>
      <use xlink:href="#DejaVuSans-20" transform="translate(190.869141 0)"/>
      <use xlink:href="#DejaVuSans-63" transform="translate(222.65625 0)"/>
      <use xlink:href="#DejaVuSans-67" transform="translate(277.636719 0)"/>
      <use xlink:href="#DejaVuSans-66" transform="translate(341.113281 0)"/>
      <use xlink:href="#DejaVuSans-73" transform="translate(376.318359 0)"/>
     </g>
    </g>
   </g>
  </g>
  <g id="axes_3">
   <g id="patch_12">
    <path d="M 76.79 548.48674 
L 397.884398 548.48674 
L 397.884398 395.19116 
L 76.79 395.19116 
z
" style="fill: #ffffff"/>
   </g>
   <g id="PathCollection_27">
    <defs>
     <path id="m7bf4766011" d="M 0 3 
C 0.795609 3 1.55874 2.683901 2.12132 2.12132 
C 2.683901 1.55874 3 0.795609 3 0 
C 3 -0.795609 2.683901 -1.55874 2.12132 -2.12132 
C 1.55874 -2.683901 0.795609 -3 0 -3 
C -0.795609 -3 -1.55874 -2.683901 -2.12132 -2.12132 
C -2.683901 -1.55874 -3 -0.795609 -3 0 
C -3 0.795609 -2.683901 1.55874 -2.12132 2.12132 
C -1.55874 2.683901 -0.795609 3 0 3 
z
" style="stroke: #1f77b4"/>
    </defs>
    <g clip-path="url(#p62a18068d8)">
     <use xlink:href="#m7bf4766011" x="91.3852" y="470.54474" style="fill: #1f77b4; stroke: #1f77b4"/>
    </g>
   </g>
   <g id="PathCollection_28">
    <defs>
     <path id="m0b9160c047" d="M 0 3 
C 0.795609 3 1.55874 2.683901 2.12132 2.12132 
C 2.683901 1.55874 3 0.795609 3 0 
C 3 -0.795609 2.683901 -1.55874 2.12132 -2.12132 
C 1.55874 -2.683901 0.795609 -3 0 -3 
C -0.795609 -3 -1.55874 -2.683901 -2.12132 -2.12132 
C -2.683901 -1.55874 -3 -0.795609 -3 0 
C -3 0.795609 -2.683901 1.55874 -2.12132 2.12132 
C -1.55874 2.683901 -0.795609 3 0 3 
z
" style="stroke: #ff7f0e"/>
    </defs>
    <g clip-path="url(#p62a18068d8)">
     <use xlink:href="#m0b9160c047" x="149.765999" y="465.634763" style="fill: #ff7f0e; stroke: #ff7f0e"/>
    </g>
   </g>
   <g id="PathCollection_29">
    <defs>
     <path id="m1838b6baa1" d="M 0 3 
C 0.795609 3 1.55874 2.683901 2.12132 2.12132 
C 2.683901 1.55874 3 0.795609 3 0 
C 3 -0.795609 2.683901 -1.55874 2.12132 -2.12132 
C 1.55874 -2.683901 0.795609 -3 0 -3 
C -0.795609 -3 -1.55874 -2.683901 -2.12132 -2.12132 
C -2.683901 -1.55874 -3 -0.795609 -3 0 
C -3 0.795609 -2.683901 1.55874 -2.12132 2.12132 
C -1.55874 2.683901 -0.795609 3 0 3 
z
" style="stroke: #2ca02c"/>
    </defs>
    <g clip-path="url(#p62a18068d8)">
     <use xlink:href="#m1838b6baa1" x="208.146799" y="479.82573" style="fill: #2ca02c; stroke: #2ca02c"/>
    </g>
   </g>
   <g id="PathCollection_30">
    <defs>
     <path id="m60a4ebfb6f" d="M 0 3 
C 0.795609 3 1.55874 2.683901 2.12132 2.12132 
C 2.683901 1.55874 3 0.795609 3 0 
C 3 -0.795609 2.683901 -1.55874 2.12132 -2.12132 
C 1.55874 -2.683901 0.795609 -3 0 -3 
C -0.795609 -3 -1.55874 -2.683901 -2.12132 -2.12132 
C -2.683901 -1.55874 -3 -0.795609 -3 0 
C -3 0.795609 -2.683901 1.55874 -2.12132 2.12132 
C -1.55874 2.683901 -0.795609 3 0 3 
z
" style="stroke: #d62728"/>
    </defs>
    <g clip-path="url(#p62a18068d8)">
     <use xlink:href="#m60a4ebfb6f" x="266.527599" y="541.518759" style="fill: #d62728; stroke: #d62728"/>
    </g>
   </g>
   <g id="PathCollection_31">
    <defs>
     <path id="m0c1c09a6d2" d="M 0 3 
C 0.795609 3 1.55874 2.683901 2.12132 2.12132 
C 2.683901 1.55874 3 0.795609 3 0 
C 3 -0.795609 2.683901 -1.55874 2.12132 -2.12132 
C 1.55874 -2.683901 0.795609 -3 0 -3 
C -0.795609 -3 -1.55874 -2.683901 -2.12132 -2.12132 
C -2.683901 -1.55874 -3 -0.795609 -3 0 
C -3 0.795609 -2.683901 1.55874 -2.12132 2.12132 
C -1.55874 2.683901 -0.795609 3 0 3 
z
" style="stroke: #9467bd"/>
    </defs>
    <g clip-path="url(#p62a18068d8)">
     <use xlink:href="#m0c1c09a6d2" x="324.908398" y="483.886272" style="fill: #9467bd; stroke: #9467bd"/>
    </g>
   </g>
   <g id="PathCollection_32">
    <defs>
     <path id="m9a4bd866c8" d="M 0 3 
C 0.795609 3 1.55874 2.683901 2.12132 2.12132 
C 2.683901 1.55874 3 0.795609 3 0 
C 3 -0.795609 2.683901 -1.55874 2.12132 -2.12132 
C 1.55874 -2.683901 0.795609 -3 0 -3 
C -0.795609 -3 -1.55874 -2.683901 -2.12132 -2.12132 
C -2.683901 -1.55874 -3 -0.795609 -3 0 
C -3 0.795609 -2.683901 1.55874 -2.12132 2.12132 
C -1.55874 2.683901 -0.795609 3 0 3 
z
" style="stroke: #8c564b"/>
    </defs>
    <g clip-path="url(#p62a18068d8)">
     <use xlink:href="#m9a4bd866c8" x="383.289198" y="402.159141" style="fill: #8c564b; stroke: #8c564b"/>
    </g>
   </g>
   <g id="matplotlib.axis_5">
    <g id="xtick_13">
     <g id="line2d_23">
      <g>
       <use xlink:href="#m36f242beee" x="91.3852" y="548.48674" style="stroke: #000000; stroke-width: 0.8"/>
      </g>
     </g>
     <g id="text_21">
      <!-- methylamine -->
      <g transform="translate(61.455469 628.331555) rotate(-45) scale(0.14 -0.14)">
       <use xlink:href="#DejaVuSans-6d"/>
       <use xlink:href="#DejaVuSans-65" transform="translate(97.412109 0)"/>
       <use xlink:href="#DejaVuSans-74" transform="translate(158.935547 0)"/>
       <use xlink:href="#DejaVuSans-68" transform="translate(198.144531 0)"/>
       <use xlink:href="#DejaVuSans-79" transform="translate(261.523438 0)"/>
       <use xlink:href="#DejaVuSans-6c" transform="translate(320.703125 0)"/>
       <use xlink:href="#DejaVuSans-61" transform="translate(348.486328 0)"/>
       <use xlink:href="#DejaVuSans-6d" transform="translate(409.765625 0)"/>
       <use xlink:href="#DejaVuSans-69" transform="translate(507.177734 0)"/>
       <use xlink:href="#DejaVuSans-6e" transform="translate(534.960938 0)"/>
       <use xlink:href="#DejaVuSans-65" transform="translate(598.339844 0)"/>
      </g>
     </g>
    </g>
    <g id="xtick_14">
     <g id="line2d_24">
      <g>
       <use xlink:href="#m36f242beee" x="149.765999" y="548.48674" style="stroke: #000000; stroke-width: 0.8"/>
      </g>
     </g>
     <g id="text_22">
      <!-- ethylamine -->
      <g transform="translate(124.657632 618.688828) rotate(-45) scale(0.14 -0.14)">
       <use xlink:href="#DejaVuSans-65"/>
       <use xlink:href="#DejaVuSans-74" transform="translate(61.523438 0)"/>
       <use xlink:href="#DejaVuSans-68" transform="translate(100.732422 0)"/>
       <use xlink:href="#DejaVuSans-79" transform="translate(164.111328 0)"/>
       <use xlink:href="#DejaVuSans-6c" transform="translate(223.291016 0)"/>
       <use xlink:href="#DejaVuSans-61" transform="translate(251.074219 0)"/>
       <use xlink:href="#DejaVuSans-6d" transform="translate(312.353516 0)"/>
       <use xlink:href="#DejaVuSans-69" transform="translate(409.765625 0)"/>
       <use xlink:href="#DejaVuSans-6e" transform="translate(437.548828 0)"/>
       <use xlink:href="#DejaVuSans-65" transform="translate(500.927734 0)"/>
      </g>
     </g>
    </g>
    <g id="xtick_15">
     <g id="line2d_25">
      <g>
       <use xlink:href="#m36f242beee" x="208.146799" y="548.48674" style="stroke: #000000; stroke-width: 0.8"/>
      </g>
     </g>
     <g id="text_23">
      <!-- 1-propylamine -->
      <g transform="translate(174.989678 634.786335) rotate(-45) scale(0.14 -0.14)">
       <defs>
        <path id="DejaVuSans-2d" d="M 313 2009 
L 1997 2009 
L 1997 1497 
L 313 1497 
L 313 2009 
z
" transform="scale(0.015625)"/>
        <path id="DejaVuSans-6f" d="M 1959 3097 
Q 1497 3097 1228 2736 
Q 959 2375 959 1747 
Q 959 1119 1226 758 
Q 1494 397 1959 397 
Q 2419 397 2687 759 
Q 2956 1122 2956 1747 
Q 2956 2369 2687 2733 
Q 2419 3097 1959 3097 
z
M 1959 3584 
Q 2709 3584 3137 3096 
Q 3566 2609 3566 1747 
Q 3566 888 3137 398 
Q 2709 -91 1959 -91 
Q 1206 -91 779 398 
Q 353 888 353 1747 
Q 353 2609 779 3096 
Q 1206 3584 1959 3584 
z
" transform="scale(0.015625)"/>
       </defs>
       <use xlink:href="#DejaVuSans-31"/>
       <use xlink:href="#DejaVuSans-2d" transform="translate(63.623047 0)"/>
       <use xlink:href="#DejaVuSans-70" transform="translate(99.707031 0)"/>
       <use xlink:href="#DejaVuSans-72" transform="translate(163.183594 0)"/>
       <use xlink:href="#DejaVuSans-6f" transform="translate(202.046875 0)"/>
       <use xlink:href="#DejaVuSans-70" transform="translate(263.228516 0)"/>
       <use xlink:href="#DejaVuSans-79" transform="translate(326.705078 0)"/>
       <use xlink:href="#DejaVuSans-6c" transform="translate(385.884766 0)"/>
       <use xlink:href="#DejaVuSans-61" transform="translate(413.667969 0)"/>
       <use xlink:href="#DejaVuSans-6d" transform="translate(474.947266 0)"/>
       <use xlink:href="#DejaVuSans-69" transform="translate(572.359375 0)"/>
       <use xlink:href="#DejaVuSans-6e" transform="translate(600.142578 0)"/>
       <use xlink:href="#DejaVuSans-65" transform="translate(663.521484 0)"/>
      </g>
     </g>
    </g>
    <g id="xtick_16">
     <g id="line2d_26">
      <g>
       <use xlink:href="#m36f242beee" x="266.527599" y="548.48674" style="stroke: #000000; stroke-width: 0.8"/>
      </g>
     </g>
     <g id="text_24">
      <!-- 1-butylamine -->
      <g transform="translate(236.387504 628.752284) rotate(-45) scale(0.14 -0.14)">
       <defs>
        <path id="DejaVuSans-62" d="M 3116 1747 
Q 3116 2381 2855 2742 
Q 2594 3103 2138 3103 
Q 1681 3103 1420 2742 
Q 1159 2381 1159 1747 
Q 1159 1113 1420 752 
Q 1681 391 2138 391 
Q 2594 391 2855 752 
Q 3116 1113 3116 1747 
z
M 1159 2969 
Q 1341 3281 1617 3432 
Q 1894 3584 2278 3584 
Q 2916 3584 3314 3078 
Q 3713 2572 3713 1747 
Q 3713 922 3314 415 
Q 2916 -91 2278 -91 
Q 1894 -91 1617 61 
Q 1341 213 1159 525 
L 1159 0 
L 581 0 
L 581 4863 
L 1159 4863 
L 1159 2969 
z
" transform="scale(0.015625)"/>
        <path id="DejaVuSans-75" d="M 544 1381 
L 544 3500 
L 1119 3500 
L 1119 1403 
Q 1119 906 1312 657 
Q 1506 409 1894 409 
Q 2359 409 2629 706 
Q 2900 1003 2900 1516 
L 2900 3500 
L 3475 3500 
L 3475 0 
L 2900 0 
L 2900 538 
Q 2691 219 2414 64 
Q 2138 -91 1772 -91 
Q 1169 -91 856 284 
Q 544 659 544 1381 
z
M 1991 3584 
L 1991 3584 
z
" transform="scale(0.015625)"/>
       </defs>
       <use xlink:href="#DejaVuSans-31"/>
       <use xlink:href="#DejaVuSans-2d" transform="translate(63.623047 0)"/>
       <use xlink:href="#DejaVuSans-62" transform="translate(99.707031 0)"/>
       <use xlink:href="#DejaVuSans-75" transform="translate(163.183594 0)"/>
       <use xlink:href="#DejaVuSans-74" transform="translate(226.5625 0)"/>
       <use xlink:href="#DejaVuSans-79" transform="translate(265.771484 0)"/>
       <use xlink:href="#DejaVuSans-6c" transform="translate(324.951172 0)"/>
       <use xlink:href="#DejaVuSans-61" transform="translate(352.734375 0)"/>
       <use xlink:href="#DejaVuSans-6d" transform="translate(414.013672 0)"/>
       <use xlink:href="#DejaVuSans-69" transform="translate(511.425781 0)"/>
       <use xlink:href="#DejaVuSans-6e" transform="translate(539.208984 0)"/>
       <use xlink:href="#DejaVuSans-65" transform="translate(602.587891 0)"/>
      </g>
     </g>
    </g>
    <g id="xtick_17">
     <g id="line2d_27">
      <g>
       <use xlink:href="#m36f242beee" x="324.908398" y="548.48674" style="stroke: #000000; stroke-width: 0.8"/>
      </g>
     </g>
     <g id="text_25">
      <!-- 1-pentylamine -->
      <g transform="translate(291.722662 634.843567) rotate(-45) scale(0.14 -0.14)">
       <use xlink:href="#DejaVuSans-31"/>
       <use xlink:href="#DejaVuSans-2d" transform="translate(63.623047 0)"/>
       <use xlink:href="#DejaVuSans-70" transform="translate(99.707031 0)"/>
       <use xlink:href="#DejaVuSans-65" transform="translate(163.183594 0)"/>
       <use xlink:href="#DejaVuSans-6e" transform="translate(224.707031 0)"/>
       <use xlink:href="#DejaVuSans-74" transform="translate(288.085938 0)"/>
       <use xlink:href="#DejaVuSans-79" transform="translate(327.294922 0)"/>
       <use xlink:href="#DejaVuSans-6c" transform="translate(386.474609 0)"/>
       <use xlink:href="#DejaVuSans-61" transform="translate(414.257812 0)"/>
       <use xlink:href="#DejaVuSans-6d" transform="translate(475.537109 0)"/>
       <use xlink:href="#DejaVuSans-69" transform="translate(572.949219 0)"/>
       <use xlink:href="#DejaVuSans-6e" transform="translate(600.732422 0)"/>
       <use xlink:href="#DejaVuSans-65" transform="translate(664.111328 0)"/>
      </g>
     </g>
    </g>
    <g id="xtick_18">
     <g id="line2d_28">
      <g>
       <use xlink:href="#m36f242beee" x="383.289198" y="548.48674" style="stroke: #000000; stroke-width: 0.8"/>
      </g>
     </g>
     <g id="text_26">
      <!-- 1-hexylamine -->
      <g transform="translate(352.343222 630.364045) rotate(-45) scale(0.14 -0.14)">
       <defs>
        <path id="DejaVuSans-78" d="M 3513 3500 
L 2247 1797 
L 3578 0 
L 2900 0 
L 1881 1375 
L 863 0 
L 184 0 
L 1544 1831 
L 300 3500 
L 978 3500 
L 1906 2253 
L 2834 3500 
L 3513 3500 
z
" transform="scale(0.015625)"/>
       </defs>
       <use xlink:href="#DejaVuSans-31"/>
       <use xlink:href="#DejaVuSans-2d" transform="translate(63.623047 0)"/>
       <use xlink:href="#DejaVuSans-68" transform="translate(99.707031 0)"/>
       <use xlink:href="#DejaVuSans-65" transform="translate(163.085938 0)"/>
       <use xlink:href="#DejaVuSans-78" transform="translate(222.859375 0)"/>
       <use xlink:href="#DejaVuSans-79" transform="translate(282.039062 0)"/>
       <use xlink:href="#DejaVuSans-6c" transform="translate(341.21875 0)"/>
       <use xlink:href="#DejaVuSans-61" transform="translate(369.001953 0)"/>
       <use xlink:href="#DejaVuSans-6d" transform="translate(430.28125 0)"/>
       <use xlink:href="#DejaVuSans-69" transform="translate(527.693359 0)"/>
       <use xlink:href="#DejaVuSans-6e" transform="translate(555.476562 0)"/>
       <use xlink:href="#DejaVuSans-65" transform="translate(618.855469 0)"/>
      </g>
     </g>
    </g>
   </g>
   <g id="matplotlib.axis_6">
    <g id="ytick_11">
     <g id="line2d_29">
      <g>
       <use xlink:href="#m10dc16cb2f" x="76.79" y="546.002376" style="stroke: #000000; stroke-width: 0.8"/>
      </g>
     </g>
     <g id="text_27">
      <!-- −7.5 -->
      <g transform="translate(35.794063 551.321282) scale(0.14 -0.14)">
       <defs>
        <path id="DejaVuSans-37" d="M 525 4666 
L 3525 4666 
L 3525 4397 
L 1831 0 
L 1172 0 
L 2766 4134 
L 525 4134 
L 525 4666 
z
" transform="scale(0.015625)"/>
        <path id="DejaVuSans-2e" d="M 684 794 
L 1344 794 
L 1344 0 
L 684 0 
L 684 794 
z
" transform="scale(0.015625)"/>
       </defs>
       <use xlink:href="#DejaVuSans-2212"/>
       <use xlink:href="#DejaVuSans-37" transform="translate(83.789062 0)"/>
       <use xlink:href="#DejaVuSans-2e" transform="translate(147.412109 0)"/>
       <use xlink:href="#DejaVuSans-35" transform="translate(179.199219 0)"/>
      </g>
     </g>
    </g>
    <g id="ytick_12">
     <g id="line2d_30">
      <g>
       <use xlink:href="#m10dc16cb2f" x="76.79" y="515.317749" style="stroke: #000000; stroke-width: 0.8"/>
      </g>
     </g>
     <g id="text_28">
      <!-- −5.0 -->
      <g transform="translate(35.794063 520.636655) scale(0.14 -0.14)">
       <use xlink:href="#DejaVuSans-2212"/>
       <use xlink:href="#DejaVuSans-35" transform="translate(83.789062 0)"/>
       <use xlink:href="#DejaVuSans-2e" transform="translate(147.412109 0)"/>
       <use xlink:href="#DejaVuSans-30" transform="translate(179.199219 0)"/>
      </g>
     </g>
    </g>
    <g id="ytick_13">
     <g id="line2d_31">
      <g>
       <use xlink:href="#m10dc16cb2f" x="76.79" y="484.633122" style="stroke: #000000; stroke-width: 0.8"/>
      </g>
     </g>
     <g id="text_29">
      <!-- −2.5 -->
      <g transform="translate(35.794063 489.952028) scale(0.14 -0.14)">
       <use xlink:href="#DejaVuSans-2212"/>
       <use xlink:href="#DejaVuSans-32" transform="translate(83.789062 0)"/>
       <use xlink:href="#DejaVuSans-2e" transform="translate(147.412109 0)"/>
       <use xlink:href="#DejaVuSans-35" transform="translate(179.199219 0)"/>
      </g>
     </g>
    </g>
    <g id="ytick_14">
     <g id="line2d_32">
      <g>
       <use xlink:href="#m10dc16cb2f" x="76.79" y="453.948495" style="stroke: #000000; stroke-width: 0.8"/>
      </g>
     </g>
     <g id="text_30">
      <!-- 0.0 -->
      <g transform="translate(47.525625 459.267401) scale(0.14 -0.14)">
       <use xlink:href="#DejaVuSans-30"/>
       <use xlink:href="#DejaVuSans-2e" transform="translate(63.623047 0)"/>
       <use xlink:href="#DejaVuSans-30" transform="translate(95.410156 0)"/>
      </g>
     </g>
    </g>
    <g id="ytick_15">
     <g id="line2d_33">
      <g>
       <use xlink:href="#m10dc16cb2f" x="76.79" y="423.263868" style="stroke: #000000; stroke-width: 0.8"/>
      </g>
     </g>
     <g id="text_31">
      <!-- 2.5 -->
      <g transform="translate(47.525625 428.582774) scale(0.14 -0.14)">
       <use xlink:href="#DejaVuSans-32"/>
       <use xlink:href="#DejaVuSans-2e" transform="translate(63.623047 0)"/>
       <use xlink:href="#DejaVuSans-35" transform="translate(95.410156 0)"/>
      </g>
     </g>
    </g>
    <g id="text_32">
     <!-- psi4 comparison [Eh] -->
     <g transform="translate(28.466562 556.56145) rotate(-90) scale(0.16 -0.16)">
      <use xlink:href="#DejaVuSans-70"/>
      <use xlink:href="#DejaVuSans-73" transform="translate(63.476562 0)"/>
      <use xlink:href="#DejaVuSans-69" transform="translate(115.576172 0)"/>
      <use xlink:href="#DejaVuSans-34" transform="translate(143.359375 0)"/>
      <use xlink:href="#DejaVuSans-20" transform="translate(206.982422 0)"/>
      <use xlink:href="#DejaVuSans-63" transform="translate(238.769531 0)"/>
      <use xlink:href="#DejaVuSans-6f" transform="translate(293.75 0)"/>
      <use xlink:href="#DejaVuSans-6d" transform="translate(354.931641 0)"/>
      <use xlink:href="#DejaVuSans-70" transform="translate(452.34375 0)"/>
      <use xlink:href="#DejaVuSans-61" transform="translate(515.820312 0)"/>
      <use xlink:href="#DejaVuSans-72" transform="translate(577.099609 0)"/>
      <use xlink:href="#DejaVuSans-69" transform="translate(618.212891 0)"/>
      <use xlink:href="#DejaVuSans-73" transform="translate(645.996094 0)"/>
      <use xlink:href="#DejaVuSans-6f" transform="translate(698.095703 0)"/>
      <use xlink:href="#DejaVuSans-6e" transform="translate(759.277344 0)"/>
      <use xlink:href="#DejaVuSans-20" transform="translate(822.65625 0)"/>
      <use xlink:href="#DejaVuSans-5b" transform="translate(854.443359 0)"/>
      <use xlink:href="#DejaVuSans-45" transform="translate(893.457031 0)"/>
      <use xlink:href="#DejaVuSans-68" transform="translate(956.640625 0)"/>
      <use xlink:href="#DejaVuSans-5d" transform="translate(1020.019531 0)"/>
     </g>
    </g>
    <g id="text_33">
     <!-- 1e−10 -->
     <g transform="translate(76.79 392.19116) scale(0.1 -0.1)">
      <use xlink:href="#DejaVuSans-31"/>
      <use xlink:href="#DejaVuSans-65" transform="translate(63.623047 0)"/>
      <use xlink:href="#DejaVuSans-2212" transform="translate(125.146484 0)"/>
      <use xlink:href="#DejaVuSans-31" transform="translate(208.935547 0)"/>
      <use xlink:href="#DejaVuSans-30" transform="translate(272.558594 0)"/>
     </g>
    </g>
   </g>
   <g id="patch_13">
    <path d="M 76.79 548.48674 
L 76.79 395.19116 
" style="fill: none; stroke: #000000; stroke-width: 0.8; stroke-linejoin: miter; stroke-linecap: square"/>
   </g>
   <g id="patch_14">
    <path d="M 397.884398 548.48674 
L 397.884398 395.19116 
" style="fill: none; stroke: #000000; stroke-width: 0.8; stroke-linejoin: miter; stroke-linecap: square"/>
   </g>
   <g id="patch_15">
    <path d="M 76.79 548.48674 
L 397.884398 548.48674 
" style="fill: none; stroke: #000000; stroke-width: 0.8; stroke-linejoin: miter; stroke-linecap: square"/>
   </g>
   <g id="patch_16">
    <path d="M 76.79 395.19116 
L 397.884398 395.19116 
" style="fill: none; stroke: #000000; stroke-width: 0.8; stroke-linejoin: miter; stroke-linecap: square"/>
   </g>
  </g>
  <g id="text_34">
   <!-- Amines -->
   <g transform="translate(186.3525 25.1175) scale(0.16 -0.16)">
    <defs>
     <path id="DejaVuSans-41" d="M 2188 4044 
L 1331 1722 
L 3047 1722 
L 2188 4044 
z
M 1831 4666 
L 2547 4666 
L 4325 0 
L 3669 0 
L 3244 1197 
L 1141 1197 
L 716 0 
L 50 0 
L 1831 4666 
z
" transform="scale(0.015625)"/>
    </defs>
    <use xlink:href="#DejaVuSans-41"/>
    <use xlink:href="#DejaVuSans-6d" transform="translate(68.408203 0)"/>
    <use xlink:href="#DejaVuSans-69" transform="translate(165.820312 0)"/>
    <use xlink:href="#DejaVuSans-6e" transform="translate(193.603516 0)"/>
    <use xlink:href="#DejaVuSans-65" transform="translate(256.982422 0)"/>
    <use xlink:href="#DejaVuSans-73" transform="translate(318.505859 0)"/>
   </g>
  </g>
 </g>
 <defs>
  <clipPath id="pb38ef29108">
   <rect x="76.79" y="38.16" width="321.094398" height="153.29558"/>
  </clipPath>
  <clipPath id="p85603f1065">
   <rect x="76.79" y="216.67558" width="321.094398" height="153.29558"/>
  </clipPath>
  <clipPath id="p62a18068d8">
   <rect x="76.79" y="395.19116" width="321.094398" height="153.29558"/>
  </clipPath>
 </defs>
</svg>
