<?xml version="1.0" encoding="utf-8" standalone="no"?>
<!DOCTYPE svg PUBLIC "-//W3C//DTD SVG 1.1//EN"
  "http://www.w3.org/Graphics/SVG/1.1/DTD/svg11.dtd">
<svg xmlns:xlink="http://www.w3.org/1999/xlink" width="432pt" height="648pt" viewBox="0 0 432 648" xmlns="http://www.w3.org/2000/svg" version="1.1">
 <metadata>
  <rdf:RDF xmlns:dc="http://purl.org/dc/elements/1.1/" xmlns:cc="http://creativecommons.org/ns#" xmlns:rdf="http://www.w3.org/1999/02/22-rdf-syntax-ns#">
   <cc:Work>
    <dc:type rdf:resource="http://purl.org/dc/dcmitype/StillImage"/>
    <dc:date>2025-07-31T22:45:23.356569</dc:date>
    <dc:format>image/svg+xml</dc:format>
    <dc:creator>
     <cc:Agent>
      <dc:title>Matplotlib v3.10.0, https://matplotlib.org/</dc:title>
     </cc:Agent>
    </dc:creator>
   </cc:Work>
  </rdf:RDF>
 </metadata>
 <defs>
  <style type="text/css">*{stroke-linejoin: round; stroke-linecap: butt}</style>
 </defs>
 <g id="figure_1">
  <g id="patch_1">
   <path d="M 0 648 
L 432 648 
L 432 0 
L 0 0 
z
" style="fill: #ffffff"/>
  </g>
  <g id="axes_1">
   <g id="patch_2">
    <path d="M 76.79 193.216276 
L 400.525442 193.216276 
L 400.525442 38.16 
L 76.79 38.16 
z
" style="fill: #ffffff"/>
   </g>
   <g id="PathCollection_1">
    <path d="M 91.505247 48.743546 
C 92.442882 48.743546 93.34224 48.37102 94.005247 47.708013 
C 94.668255 47.045005 95.040781 46.145647 95.040781 45.208013 
C 95.040781 44.270378 94.668255 43.37102 94.005247 42.708013 
C 93.34224 42.045005 92.442882 41.672479 91.505247 41.672479 
C 90.567613 41.672479 89.668255 42.045005 89.005247 42.708013 
C 88.34224 43.37102 87.969713 44.270378 87.969713 45.208013 
C 87.969713 46.145647 88.34224 47.045005 89.005247 47.708013 
C 89.668255 48.37102 90.567613 48.743546 91.505247 48.743546 
L 91.505247 48.743546 
z
" clip-path="url(#p02d9983098)" style="fill: none; stroke: #f22e40"/>
   </g>
   <g id="PathCollection_2">
    <defs>
     <path id="mc53d64fe4a" d="M 0 1.581139 
C 0.419323 1.581139 0.821528 1.41454 1.118034 1.118034 
C 1.41454 0.821528 1.581139 0.419323 1.581139 0 
C 1.581139 -0.419323 1.41454 -0.821528 1.118034 -1.118034 
C 0.821528 -1.41454 0.419323 -1.581139 0 -1.581139 
C -0.419323 -1.581139 -0.821528 -1.41454 -1.118034 -1.118034 
C -1.41454 -0.821528 -1.581139 -0.419323 -1.581139 0 
C -1.581139 0.419323 -1.41454 0.821528 -1.118034 1.118034 
C -0.821528 1.41454 -0.419323 1.581139 0 1.581139 
z
" style="stroke: #5e1cdb"/>
    </defs>
    <g clip-path="url(#p02d9983098)">
     <use xlink:href="#mc53d64fe4a" x="91.505247" y="45.208013" style="fill: #1f77b4; stroke: #5e1cdb"/>
    </g>
   </g>
   <g id="PathCollection_3">
    <path d="M 189.606896 95.711368 
C 190.544531 95.711368 191.443889 95.338842 192.106896 94.675835 
C 192.769904 94.012827 193.14243 93.113469 193.14243 92.175835 
C 193.14243 91.2382 192.769904 90.338842 192.106896 89.675835 
C 191.443889 89.012827 190.544531 88.640301 189.606896 88.640301 
C 188.669262 88.640301 187.769904 89.012827 187.106896 89.675835 
C 186.443889 90.338842 186.071362 91.2382 186.071362 92.175835 
C 186.071362 93.113469 186.443889 94.012827 187.106896 94.675835 
C 187.769904 95.338842 188.669262 95.711368 189.606896 95.711368 
L 189.606896 95.711368 
z
" clip-path="url(#p02d9983098)" style="fill: none; stroke: #d69bcb"/>
   </g>
   <g id="PathCollection_4">
    <defs>
     <path id="m94cd354307" d="M 0 1.581139 
C 0.419323 1.581139 0.821528 1.41454 1.118034 1.118034 
C 1.41454 0.821528 1.581139 0.419323 1.581139 0 
C 1.581139 -0.419323 1.41454 -0.821528 1.118034 -1.118034 
C 0.821528 -1.41454 0.419323 -1.581139 0 -1.581139 
C -0.419323 -1.581139 -0.821528 -1.41454 -1.118034 -1.118034 
C -1.41454 -0.821528 -1.581139 -0.419323 -1.581139 0 
C -1.581139 0.419323 -1.41454 0.821528 -1.118034 1.118034 
C -0.821528 1.41454 -0.419323 1.581139 0 1.581139 
z
" style="stroke: #b20b4b"/>
    </defs>
    <g clip-path="url(#p02d9983098)">
     <use xlink:href="#m94cd354307" x="189.606896" y="92.175835" style="fill: #ff7f0e; stroke: #b20b4b"/>
    </g>
   </g>
   <g id="PathCollection_5">
    <path d="M 287.708545 142.721366 
C 288.64618 142.721366 289.545538 142.34884 290.208545 141.685832 
C 290.871553 141.022824 291.244079 140.123467 291.244079 139.185832 
C 291.244079 138.248197 290.871553 137.34884 290.208545 136.685832 
C 289.545538 136.022824 288.64618 135.650298 287.708545 135.650298 
C 286.770911 135.650298 285.871553 136.022824 285.208545 136.685832 
C 284.545538 137.34884 284.173011 138.248197 284.173011 139.185832 
C 284.173011 140.123467 284.545538 141.022824 285.208545 141.685832 
C 285.871553 142.34884 286.770911 142.721366 287.708545 142.721366 
L 287.708545 142.721366 
z
" clip-path="url(#p02d9983098)" style="fill: none; stroke: #4b3bc8"/>
   </g>
   <g id="PathCollection_6">
    <defs>
     <path id="m48aebc000f" d="M 0 1.581139 
C 0.419323 1.581139 0.821528 1.41454 1.118034 1.118034 
C 1.41454 0.821528 1.581139 0.419323 1.581139 0 
C 1.581139 -0.419323 1.41454 -0.821528 1.118034 -1.118034 
C 0.821528 -1.41454 0.419323 -1.581139 0 -1.581139 
C -0.419323 -1.581139 -0.821528 -1.41454 -1.118034 -1.118034 
C -1.41454 -0.821528 -1.581139 -0.419323 -1.581139 0 
C -1.581139 0.419323 -1.41454 0.821528 -1.118034 1.118034 
C -0.821528 1.41454 -0.419323 1.581139 0 1.581139 
z
" style="stroke: #0a8e03"/>
    </defs>
    <g clip-path="url(#p02d9983098)">
     <use xlink:href="#m48aebc000f" x="287.708545" y="139.185832" style="fill: #2ca02c; stroke: #0a8e03"/>
    </g>
   </g>
   <g id="PathCollection_7">
    <path d="M 385.810194 189.703797 
C 386.747829 189.703797 387.647187 189.331271 388.310194 188.668263 
C 388.973202 188.005256 389.345728 187.105898 389.345728 186.168263 
C 389.345728 185.230629 388.973202 184.331271 388.310194 183.668263 
C 387.647187 183.005256 386.747829 182.63273 385.810194 182.63273 
C 384.87256 182.63273 383.973202 183.005256 383.310194 183.668263 
C 382.647187 184.331271 382.27466 185.230629 382.27466 186.168263 
C 382.27466 187.105898 382.647187 188.005256 383.310194 188.668263 
C 383.973202 189.331271 384.87256 189.703797 385.810194 189.703797 
L 385.810194 189.703797 
z
" clip-path="url(#p02d9983098)" style="fill: none; stroke: #2f562c"/>
   </g>
   <g id="PathCollection_8">
    <defs>
     <path id="m7d8e683141" d="M 0 1.581139 
C 0.419323 1.581139 0.821528 1.41454 1.118034 1.118034 
C 1.41454 0.821528 1.581139 0.419323 1.581139 0 
C 1.581139 -0.419323 1.41454 -0.821528 1.118034 -1.118034 
C 0.821528 -1.41454 0.419323 -1.581139 0 -1.581139 
C -0.419323 -1.581139 -0.821528 -1.41454 -1.118034 -1.118034 
C -1.41454 -0.821528 -1.581139 -0.419323 -1.581139 0 
C -1.581139 0.419323 -1.41454 0.821528 -1.118034 1.118034 
C -0.821528 1.41454 -0.419323 1.581139 0 1.581139 
z
" style="stroke: #f676bd"/>
    </defs>
    <g clip-path="url(#p02d9983098)">
     <use xlink:href="#m7d8e683141" x="385.810194" y="186.168263" style="fill: #d62728; stroke: #f676bd"/>
    </g>
   </g>
   <g id="matplotlib.axis_1">
    <g id="xtick_1">
     <g id="line2d_1">
      <defs>
       <path id="m36df097af0" d="M 0 0 
L 0 3.5 
" style="stroke: #000000; stroke-width: 0.8"/>
      </defs>
      <g>
       <use xlink:href="#m36df097af0" x="91.505247" y="193.216276" style="stroke: #000000; stroke-width: 0.8"/>
      </g>
     </g>
    </g>
    <g id="xtick_2">
     <g id="line2d_2">
      <g>
       <use xlink:href="#m36df097af0" x="189.606896" y="193.216276" style="stroke: #000000; stroke-width: 0.8"/>
      </g>
     </g>
    </g>
    <g id="xtick_3">
     <g id="line2d_3">
      <g>
       <use xlink:href="#m36df097af0" x="287.708545" y="193.216276" style="stroke: #000000; stroke-width: 0.8"/>
      </g>
     </g>
    </g>
    <g id="xtick_4">
     <g id="line2d_4">
      <g>
       <use xlink:href="#m36df097af0" x="385.810194" y="193.216276" style="stroke: #000000; stroke-width: 0.8"/>
      </g>
     </g>
    </g>
   </g>
   <g id="matplotlib.axis_2">
    <g id="ytick_1">
     <g id="line2d_5">
      <defs>
       <path id="m6e79a4af79" d="M 0 0 
L -3.5 0 
" style="stroke: #000000; stroke-width: 0.8"/>
      </defs>
      <g>
       <use xlink:href="#m6e79a4af79" x="76.79" y="144.99042" style="stroke: #000000; stroke-width: 0.8"/>
      </g>
     </g>
     <g id="text_1">
      <!-- −200 -->
      <g transform="translate(31.335938 150.309326) scale(0.14 -0.14)">
       <defs>
        <path id="DejaVuSans-2212" d="M 678 2272 
L 4684 2272 
L 4684 1741 
L 678 1741 
L 678 2272 
z
" transform="scale(0.015625)"/>
        <path id="DejaVuSans-32" d="M 1228 531 
L 3431 531 
L 3431 0 
L 469 0 
L 469 531 
Q 828 903 1448 1529 
Q 2069 2156 2228 2338 
Q 2531 2678 2651 2914 
Q 2772 3150 2772 3378 
Q 2772 3750 2511 3984 
Q 2250 4219 1831 4219 
Q 1534 4219 1204 4116 
Q 875 4013 500 3803 
L 500 4441 
Q 881 4594 1212 4672 
Q 1544 4750 1819 4750 
Q 2544 4750 2975 4387 
Q 3406 4025 3406 3419 
Q 3406 3131 3298 2873 
Q 3191 2616 2906 2266 
Q 2828 2175 2409 1742 
Q 1991 1309 1228 531 
z
" transform="scale(0.015625)"/>
        <path id="DejaVuSans-30" d="M 2034 4250 
Q 1547 4250 1301 3770 
Q 1056 3291 1056 2328 
Q 1056 1369 1301 889 
Q 1547 409 2034 409 
Q 2525 409 2770 889 
Q 3016 1369 3016 2328 
Q 3016 3291 2770 3770 
Q 2525 4250 2034 4250 
z
M 2034 4750 
Q 2819 4750 3233 4129 
Q 3647 3509 3647 2328 
Q 3647 1150 3233 529 
Q 2819 -91 2034 -91 
Q 1250 -91 836 529 
Q 422 1150 422 2328 
Q 422 3509 836 4129 
Q 1250 4750 2034 4750 
z
" transform="scale(0.015625)"/>
       </defs>
       <use xlink:href="#DejaVuSans-2212"/>
       <use xlink:href="#DejaVuSans-32" transform="translate(83.789062 0)"/>
       <use xlink:href="#DejaVuSans-30" transform="translate(147.412109 0)"/>
       <use xlink:href="#DejaVuSans-30" transform="translate(211.035156 0)"/>
      </g>
     </g>
    </g>
    <g id="ytick_2">
     <g id="line2d_6">
      <g>
       <use xlink:href="#m6e79a4af79" x="76.79" y="84.831564" style="stroke: #000000; stroke-width: 0.8"/>
      </g>
     </g>
     <g id="text_2">
      <!-- −150 -->
      <g transform="translate(31.335938 90.15047) scale(0.14 -0.14)">
       <defs>
        <path id="DejaVuSans-31" d="M 794 531 
L 1825 531 
L 1825 4091 
L 703 3866 
L 703 4441 
L 1819 4666 
L 2450 4666 
L 2450 531 
L 3481 531 
L 3481 0 
L 794 0 
L 794 531 
z
" transform="scale(0.015625)"/>
        <path id="DejaVuSans-35" d="M 691 4666 
L 3169 4666 
L 3169 4134 
L 1269 4134 
L 1269 2991 
Q 1406 3038 1543 3061 
Q 1681 3084 1819 3084 
Q 2600 3084 3056 2656 
Q 3513 2228 3513 1497 
Q 3513 744 3044 326 
Q 2575 -91 1722 -91 
Q 1428 -91 1123 -41 
Q 819 9 494 109 
L 494 744 
Q 775 591 1075 516 
Q 1375 441 1709 441 
Q 2250 441 2565 725 
Q 2881 1009 2881 1497 
Q 2881 1984 2565 2268 
Q 2250 2553 1709 2553 
Q 1456 2553 1204 2497 
Q 953 2441 691 2322 
L 691 4666 
z
" transform="scale(0.015625)"/>
       </defs>
       <use xlink:href="#DejaVuSans-2212"/>
       <use xlink:href="#DejaVuSans-31" transform="translate(83.789062 0)"/>
       <use xlink:href="#DejaVuSans-35" transform="translate(147.412109 0)"/>
       <use xlink:href="#DejaVuSans-30" transform="translate(211.035156 0)"/>
      </g>
     </g>
    </g>
    <g id="text_3">
     <!-- energy [Eh] -->
     <g transform="translate(24.008437 162.475638) rotate(-90) scale(0.16 -0.16)">
      <defs>
       <path id="DejaVuSans-65" d="M 3597 1894 
L 3597 1613 
L 953 1613 
Q 991 1019 1311 708 
Q 1631 397 2203 397 
Q 2534 397 2845 478 
Q 3156 559 3463 722 
L 3463 178 
Q 3153 47 2828 -22 
Q 2503 -91 2169 -91 
Q 1331 -91 842 396 
Q 353 884 353 1716 
Q 353 2575 817 3079 
Q 1281 3584 2069 3584 
Q 2775 3584 3186 3129 
Q 3597 2675 3597 1894 
z
M 3022 2063 
Q 3016 2534 2758 2815 
Q 2500 3097 2075 3097 
Q 1594 3097 1305 2825 
Q 1016 2553 972 2059 
L 3022 2063 
z
" transform="scale(0.015625)"/>
       <path id="DejaVuSans-6e" d="M 3513 2113 
L 3513 0 
L 2938 0 
L 2938 2094 
Q 2938 2591 2744 2837 
Q 2550 3084 2163 3084 
Q 1697 3084 1428 2787 
Q 1159 2491 1159 1978 
L 1159 0 
L 581 0 
L 581 3500 
L 1159 3500 
L 1159 2956 
Q 1366 3272 1645 3428 
Q 1925 3584 2291 3584 
Q 2894 3584 3203 3211 
Q 3513 2838 3513 2113 
z
" transform="scale(0.015625)"/>
       <path id="DejaVuSans-72" d="M 2631 2963 
Q 2534 3019 2420 3045 
Q 2306 3072 2169 3072 
Q 1681 3072 1420 2755 
Q 1159 2438 1159 1844 
L 1159 0 
L 581 0 
L 581 3500 
L 1159 3500 
L 1159 2956 
Q 1341 3275 1631 3429 
Q 1922 3584 2338 3584 
Q 2397 3584 2469 3576 
Q 2541 3569 2628 3553 
L 2631 2963 
z
" transform="scale(0.015625)"/>
       <path id="DejaVuSans-67" d="M 2906 1791 
Q 2906 2416 2648 2759 
Q 2391 3103 1925 3103 
Q 1463 3103 1205 2759 
Q 947 2416 947 1791 
Q 947 1169 1205 825 
Q 1463 481 1925 481 
Q 2391 481 2648 825 
Q 2906 1169 2906 1791 
z
M 3481 434 
Q 3481 -459 3084 -895 
Q 2688 -1331 1869 -1331 
Q 1566 -1331 1297 -1286 
Q 1028 -1241 775 -1147 
L 775 -588 
Q 1028 -725 1275 -790 
Q 1522 -856 1778 -856 
Q 2344 -856 2625 -561 
Q 2906 -266 2906 331 
L 2906 616 
Q 2728 306 2450 153 
Q 2172 0 1784 0 
Q 1141 0 747 490 
Q 353 981 353 1791 
Q 353 2603 747 3093 
Q 1141 3584 1784 3584 
Q 2172 3584 2450 3431 
Q 2728 3278 2906 2969 
L 2906 3500 
L 3481 3500 
L 3481 434 
z
" transform="scale(0.015625)"/>
       <path id="DejaVuSans-79" d="M 2059 -325 
Q 1816 -950 1584 -1140 
Q 1353 -1331 966 -1331 
L 506 -1331 
L 506 -850 
L 844 -850 
Q 1081 -850 1212 -737 
Q 1344 -625 1503 -206 
L 1606 56 
L 191 3500 
L 800 3500 
L 1894 763 
L 2988 3500 
L 3597 3500 
L 2059 -325 
z
" transform="scale(0.015625)"/>
       <path id="DejaVuSans-20" transform="scale(0.015625)"/>
       <path id="DejaVuSans-5b" d="M 550 4863 
L 1875 4863 
L 1875 4416 
L 1125 4416 
L 1125 -397 
L 1875 -397 
L 1875 -844 
L 550 -844 
L 550 4863 
z
" transform="scale(0.015625)"/>
       <path id="DejaVuSans-45" d="M 628 4666 
L 3578 4666 
L 3578 4134 
L 1259 4134 
L 1259 2753 
L 3481 2753 
L 3481 2222 
L 1259 2222 
L 1259 531 
L 3634 531 
L 3634 0 
L 628 0 
L 628 4666 
z
" transform="scale(0.015625)"/>
       <path id="DejaVuSans-68" d="M 3513 2113 
L 3513 0 
L 2938 0 
L 2938 2094 
Q 2938 2591 2744 2837 
Q 2550 3084 2163 3084 
Q 1697 3084 1428 2787 
Q 1159 2491 1159 1978 
L 1159 0 
L 581 0 
L 581 4863 
L 1159 4863 
L 1159 2956 
Q 1366 3272 1645 3428 
Q 1925 3584 2291 3584 
Q 2894 3584 3203 3211 
Q 3513 2838 3513 2113 
z
" transform="scale(0.015625)"/>
       <path id="DejaVuSans-5d" d="M 1947 4863 
L 1947 -844 
L 622 -844 
L 622 -397 
L 1369 -397 
L 1369 4416 
L 622 4416 
L 622 4863 
L 1947 4863 
z
" transform="scale(0.015625)"/>
      </defs>
      <use xlink:href="#DejaVuSans-65"/>
      <use xlink:href="#DejaVuSans-6e" transform="translate(61.523438 0)"/>
      <use xlink:href="#DejaVuSans-65" transform="translate(124.902344 0)"/>
      <use xlink:href="#DejaVuSans-72" transform="translate(186.425781 0)"/>
      <use xlink:href="#DejaVuSans-67" transform="translate(225.789062 0)"/>
      <use xlink:href="#DejaVuSans-79" transform="translate(289.265625 0)"/>
      <use xlink:href="#DejaVuSans-20" transform="translate(348.445312 0)"/>
      <use xlink:href="#DejaVuSans-5b" transform="translate(380.232422 0)"/>
      <use xlink:href="#DejaVuSans-45" transform="translate(419.246094 0)"/>
      <use xlink:href="#DejaVuSans-68" transform="translate(482.429688 0)"/>
      <use xlink:href="#DejaVuSans-5d" transform="translate(545.808594 0)"/>
     </g>
    </g>
   </g>
   <g id="patch_3">
    <path d="M 76.79 193.216276 
L 76.79 38.16 
" style="fill: none; stroke: #000000; stroke-width: 0.8; stroke-linejoin: miter; stroke-linecap: square"/>
   </g>
   <g id="patch_4">
    <path d="M 400.525442 193.216276 
L 400.525442 38.16 
" style="fill: none; stroke: #000000; stroke-width: 0.8; stroke-linejoin: miter; stroke-linecap: square"/>
   </g>
   <g id="patch_5">
    <path d="M 76.79 193.216276 
L 400.525442 193.216276 
" style="fill: none; stroke: #000000; stroke-width: 0.8; stroke-linejoin: miter; stroke-linecap: square"/>
   </g>
   <g id="patch_6">
    <path d="M 76.79 38.16 
L 400.525442 38.16 
" style="fill: none; stroke: #000000; stroke-width: 0.8; stroke-linejoin: miter; stroke-linecap: square"/>
   </g>
   <g id="legend_1">
    <g id="PathCollection_9">
     <path d="M 352.827004 55.668971 
C 353.764639 55.668971 354.663996 55.296445 355.327004 54.633438 
C 355.990012 53.97043 356.362538 53.071072 356.362538 52.133438 
C 356.362538 51.195803 355.990012 50.296445 355.327004 49.633438 
C 354.663996 48.97043 353.764639 48.597904 352.827004 48.597904 
C 351.88937 48.597904 350.990012 48.97043 350.327004 49.633438 
C 349.663996 50.296445 349.29147 51.195803 349.29147 52.133438 
C 349.29147 53.071072 349.663996 53.97043 350.327004 54.633438 
C 350.990012 55.296445 351.88937 55.668971 352.827004 55.668971 
L 352.827004 55.668971 
z
" style="fill: none; stroke: #f22e40"/>
    </g>
    <g id="text_4">
     <!-- me -->
     <g transform="translate(370.827004 54.758438) scale(0.1 -0.1)">
      <defs>
       <path id="DejaVuSans-6d" d="M 3328 2828 
Q 3544 3216 3844 3400 
Q 4144 3584 4550 3584 
Q 5097 3584 5394 3201 
Q 5691 2819 5691 2113 
L 5691 0 
L 5113 0 
L 5113 2094 
Q 5113 2597 4934 2840 
Q 4756 3084 4391 3084 
Q 3944 3084 3684 2787 
Q 3425 2491 3425 1978 
L 3425 0 
L 2847 0 
L 2847 2094 
Q 2847 2600 2669 2842 
Q 2491 3084 2119 3084 
Q 1678 3084 1418 2786 
Q 1159 2488 1159 1978 
L 1159 0 
L 581 0 
L 581 3500 
L 1159 3500 
L 1159 2956 
Q 1356 3278 1631 3431 
Q 1906 3584 2284 3584 
Q 2666 3584 2933 3390 
Q 3200 3197 3328 2828 
z
" transform="scale(0.015625)"/>
      </defs>
      <use xlink:href="#DejaVuSans-6d"/>
      <use xlink:href="#DejaVuSans-65" transform="translate(97.412109 0)"/>
     </g>
    </g>
    <g id="PathCollection_10">
     <g>
      <use xlink:href="#mc53d64fe4a" x="352.827004" y="66.811563" style="fill: #1f77b4; stroke: #5e1cdb"/>
     </g>
    </g>
    <g id="text_5">
     <!-- psi4 -->
     <g transform="translate(370.827004 69.436563) scale(0.1 -0.1)">
      <defs>
       <path id="DejaVuSans-70" d="M 1159 525 
L 1159 -1331 
L 581 -1331 
L 581 3500 
L 1159 3500 
L 1159 2969 
Q 1341 3281 1617 3432 
Q 1894 3584 2278 3584 
Q 2916 3584 3314 3078 
Q 3713 2572 3713 1747 
Q 3713 922 3314 415 
Q 2916 -91 2278 -91 
Q 1894 -91 1617 61 
Q 1341 213 1159 525 
z
M 3116 1747 
Q 3116 2381 2855 2742 
Q 2594 3103 2138 3103 
Q 1681 3103 1420 2742 
Q 1159 2381 1159 1747 
Q 1159 1113 1420 752 
Q 1681 391 2138 391 
Q 2594 391 2855 752 
Q 3116 1113 3116 1747 
z
" transform="scale(0.015625)"/>
       <path id="DejaVuSans-73" d="M 2834 3397 
L 2834 2853 
Q 2591 2978 2328 3040 
Q 2066 3103 1784 3103 
Q 1356 3103 1142 2972 
Q 928 2841 928 2578 
Q 928 2378 1081 2264 
Q 1234 2150 1697 2047 
L 1894 2003 
Q 2506 1872 2764 1633 
Q 3022 1394 3022 966 
Q 3022 478 2636 193 
Q 2250 -91 1575 -91 
Q 1294 -91 989 -36 
Q 684 19 347 128 
L 347 722 
Q 666 556 975 473 
Q 1284 391 1588 391 
Q 1994 391 2212 530 
Q 2431 669 2431 922 
Q 2431 1156 2273 1281 
Q 2116 1406 1581 1522 
L 1381 1569 
Q 847 1681 609 1914 
Q 372 2147 372 2553 
Q 372 3047 722 3315 
Q 1072 3584 1716 3584 
Q 2034 3584 2315 3537 
Q 2597 3491 2834 3397 
z
" transform="scale(0.015625)"/>
       <path id="DejaVuSans-69" d="M 603 3500 
L 1178 3500 
L 1178 0 
L 603 0 
L 603 3500 
z
M 603 4863 
L 1178 4863 
L 1178 4134 
L 603 4134 
L 603 4863 
z
" transform="scale(0.015625)"/>
       <path id="DejaVuSans-34" d="M 2419 4116 
L 825 1625 
L 2419 1625 
L 2419 4116 
z
M 2253 4666 
L 3047 4666 
L 3047 1625 
L 3713 1625 
L 3713 1100 
L 3047 1100 
L 3047 0 
L 2419 0 
L 2419 1100 
L 313 1100 
L 313 1709 
L 2253 4666 
z
" transform="scale(0.015625)"/>
      </defs>
      <use xlink:href="#DejaVuSans-70"/>
      <use xlink:href="#DejaVuSans-73" transform="translate(63.476562 0)"/>
      <use xlink:href="#DejaVuSans-69" transform="translate(115.576172 0)"/>
      <use xlink:href="#DejaVuSans-34" transform="translate(143.359375 0)"/>
     </g>
    </g>
   </g>
  </g>
  <g id="axes_2">
   <g id="patch_7">
    <path d="M 76.79 373.492552 
L 400.525442 373.492552 
L 400.525442 218.436276 
L 76.79 218.436276 
z
" style="fill: #ffffff"/>
   </g>
   <g id="PathCollection_11">
    <path d="M 91.505247 369.980073 
C 92.442882 369.980073 93.34224 369.607547 94.005247 368.944539 
C 94.668255 368.281532 95.040781 367.382174 95.040781 366.444539 
C 95.040781 365.506905 94.668255 364.607547 94.005247 363.944539 
C 93.34224 363.281532 92.442882 362.909006 91.505247 362.909006 
C 90.567613 362.909006 89.668255 363.281532 89.005247 363.944539 
C 88.34224 364.607547 87.969713 365.506905 87.969713 366.444539 
C 87.969713 367.382174 88.34224 368.281532 89.005247 368.944539 
C 89.668255 369.607547 90.567613 369.980073 91.505247 369.980073 
L 91.505247 369.980073 
z
" clip-path="url(#pdcd0b3fbe7)" style="fill: none; stroke: #177040"/>
   </g>
   <g id="PathCollection_12">
    <path d="M 189.606896 349.788937 
C 190.544531 349.788937 191.443889 349.416411 192.106896 348.753403 
C 192.769904 348.090396 193.14243 347.191038 193.14243 346.253403 
C 193.14243 345.315769 192.769904 344.416411 192.106896 343.753403 
C 191.443889 343.090396 190.544531 342.71787 189.606896 342.71787 
C 188.669262 342.71787 187.769904 343.090396 187.106896 343.753403 
C 186.443889 344.416411 186.071362 345.315769 186.071362 346.253403 
C 186.071362 347.191038 186.443889 348.090396 187.106896 348.753403 
C 187.769904 349.416411 188.669262 349.788937 189.606896 349.788937 
L 189.606896 349.788937 
z
" clip-path="url(#pdcd0b3fbe7)" style="fill: none; stroke: #4bd5f2"/>
   </g>
   <g id="PathCollection_13">
    <path d="M 287.708545 308.019794 
C 288.64618 308.019794 289.545538 307.647268 290.208545 306.98426 
C 290.871553 306.321252 291.244079 305.421895 291.244079 304.48426 
C 291.244079 303.546626 290.871553 302.647268 290.208545 301.98426 
C 289.545538 301.321252 288.64618 300.948726 287.708545 300.948726 
C 286.770911 300.948726 285.871553 301.321252 285.208545 301.98426 
C 284.545538 302.647268 284.173011 303.546626 284.173011 304.48426 
C 284.173011 305.421895 284.545538 306.321252 285.208545 306.98426 
C 285.871553 307.647268 286.770911 308.019794 287.708545 308.019794 
L 287.708545 308.019794 
z
" clip-path="url(#pdcd0b3fbe7)" style="fill: none; stroke: #68a2fd"/>
   </g>
   <g id="PathCollection_14">
    <path d="M 385.810194 229.019822 
C 386.747829 229.019822 387.647187 228.647296 388.310194 227.984289 
C 388.973202 227.321281 389.345728 226.421923 389.345728 225.484289 
C 389.345728 224.546654 388.973202 223.647296 388.310194 222.984289 
C 387.647187 222.321281 386.747829 221.948755 385.810194 221.948755 
C 384.87256 221.948755 383.973202 222.321281 383.310194 222.984289 
C 382.647187 223.647296 382.27466 224.546654 382.27466 225.484289 
C 382.27466 226.421923 382.647187 227.321281 383.310194 227.984289 
C 383.973202 228.647296 384.87256 229.019822 385.810194 229.019822 
L 385.810194 229.019822 
z
" clip-path="url(#pdcd0b3fbe7)" style="fill: none; stroke: #edbc3a"/>
   </g>
   <g id="matplotlib.axis_3">
    <g id="xtick_5">
     <g id="line2d_7">
      <g>
       <use xlink:href="#m36df097af0" x="91.505247" y="373.492552" style="stroke: #000000; stroke-width: 0.8"/>
      </g>
     </g>
    </g>
    <g id="xtick_6">
     <g id="line2d_8">
      <g>
       <use xlink:href="#m36df097af0" x="189.606896" y="373.492552" style="stroke: #000000; stroke-width: 0.8"/>
      </g>
     </g>
    </g>
    <g id="xtick_7">
     <g id="line2d_9">
      <g>
       <use xlink:href="#m36df097af0" x="287.708545" y="373.492552" style="stroke: #000000; stroke-width: 0.8"/>
      </g>
     </g>
    </g>
    <g id="xtick_8">
     <g id="line2d_10">
      <g>
       <use xlink:href="#m36df097af0" x="385.810194" y="373.492552" style="stroke: #000000; stroke-width: 0.8"/>
      </g>
     </g>
    </g>
   </g>
   <g id="matplotlib.axis_4">
    <g id="ytick_3">
     <g id="line2d_11">
      <g>
       <use xlink:href="#m6e79a4af79" x="76.79" y="337.256803" style="stroke: #000000; stroke-width: 0.8"/>
      </g>
     </g>
     <g id="text_6">
      <!-- 50 -->
      <g transform="translate(51.975 342.575709) scale(0.14 -0.14)">
       <use xlink:href="#DejaVuSans-35"/>
       <use xlink:href="#DejaVuSans-30" transform="translate(63.623047 0)"/>
      </g>
     </g>
    </g>
    <g id="ytick_4">
     <g id="line2d_12">
      <g>
       <use xlink:href="#m6e79a4af79" x="76.79" y="297.970577" style="stroke: #000000; stroke-width: 0.8"/>
      </g>
     </g>
     <g id="text_7">
      <!-- 100 -->
      <g transform="translate(43.0675 303.289484) scale(0.14 -0.14)">
       <use xlink:href="#DejaVuSans-31"/>
       <use xlink:href="#DejaVuSans-30" transform="translate(63.623047 0)"/>
       <use xlink:href="#DejaVuSans-30" transform="translate(127.246094 0)"/>
      </g>
     </g>
    </g>
    <g id="ytick_5">
     <g id="line2d_13">
      <g>
       <use xlink:href="#m6e79a4af79" x="76.79" y="258.684352" style="stroke: #000000; stroke-width: 0.8"/>
      </g>
     </g>
     <g id="text_8">
      <!-- 150 -->
      <g transform="translate(43.0675 264.003258) scale(0.14 -0.14)">
       <use xlink:href="#DejaVuSans-31"/>
       <use xlink:href="#DejaVuSans-35" transform="translate(63.623047 0)"/>
       <use xlink:href="#DejaVuSans-30" transform="translate(127.246094 0)"/>
      </g>
     </g>
    </g>
    <g id="ytick_6">
     <g id="line2d_14">
      <g>
       <use xlink:href="#m6e79a4af79" x="76.79" y="219.398126" style="stroke: #000000; stroke-width: 0.8"/>
      </g>
     </g>
     <g id="text_9">
      <!-- 200 -->
      <g transform="translate(43.0675 224.717032) scale(0.14 -0.14)">
       <use xlink:href="#DejaVuSans-32"/>
       <use xlink:href="#DejaVuSans-30" transform="translate(63.623047 0)"/>
       <use xlink:href="#DejaVuSans-30" transform="translate(127.246094 0)"/>
      </g>
     </g>
    </g>
    <g id="text_10">
     <!-- wall time [sec] -->
     <g transform="translate(35.74 354.744414) rotate(-90) scale(0.16 -0.16)">
      <defs>
       <path id="DejaVuSans-77" d="M 269 3500 
L 844 3500 
L 1563 769 
L 2278 3500 
L 2956 3500 
L 3675 769 
L 4391 3500 
L 4966 3500 
L 4050 0 
L 3372 0 
L 2619 2869 
L 1863 0 
L 1184 0 
L 269 3500 
z
" transform="scale(0.015625)"/>
       <path id="DejaVuSans-61" d="M 2194 1759 
Q 1497 1759 1228 1600 
Q 959 1441 959 1056 
Q 959 750 1161 570 
Q 1363 391 1709 391 
Q 2188 391 2477 730 
Q 2766 1069 2766 1631 
L 2766 1759 
L 2194 1759 
z
M 3341 1997 
L 3341 0 
L 2766 0 
L 2766 531 
Q 2569 213 2275 61 
Q 1981 -91 1556 -91 
Q 1019 -91 701 211 
Q 384 513 384 1019 
Q 384 1609 779 1909 
Q 1175 2209 1959 2209 
L 2766 2209 
L 2766 2266 
Q 2766 2663 2505 2880 
Q 2244 3097 1772 3097 
Q 1472 3097 1187 3025 
Q 903 2953 641 2809 
L 641 3341 
Q 956 3463 1253 3523 
Q 1550 3584 1831 3584 
Q 2591 3584 2966 3190 
Q 3341 2797 3341 1997 
z
" transform="scale(0.015625)"/>
       <path id="DejaVuSans-6c" d="M 603 4863 
L 1178 4863 
L 1178 0 
L 603 0 
L 603 4863 
z
" transform="scale(0.015625)"/>
       <path id="DejaVuSans-74" d="M 1172 4494 
L 1172 3500 
L 2356 3500 
L 2356 3053 
L 1172 3053 
L 1172 1153 
Q 1172 725 1289 603 
Q 1406 481 1766 481 
L 2356 481 
L 2356 0 
L 1766 0 
Q 1100 0 847 248 
Q 594 497 594 1153 
L 594 3053 
L 172 3053 
L 172 3500 
L 594 3500 
L 594 4494 
L 1172 4494 
z
" transform="scale(0.015625)"/>
       <path id="DejaVuSans-63" d="M 3122 3366 
L 3122 2828 
Q 2878 2963 2633 3030 
Q 2388 3097 2138 3097 
Q 1578 3097 1268 2742 
Q 959 2388 959 1747 
Q 959 1106 1268 751 
Q 1578 397 2138 397 
Q 2388 397 2633 464 
Q 2878 531 3122 666 
L 3122 134 
Q 2881 22 2623 -34 
Q 2366 -91 2075 -91 
Q 1284 -91 818 406 
Q 353 903 353 1747 
Q 353 2603 823 3093 
Q 1294 3584 2113 3584 
Q 2378 3584 2631 3529 
Q 2884 3475 3122 3366 
z
" transform="scale(0.015625)"/>
      </defs>
      <use xlink:href="#DejaVuSans-77"/>
      <use xlink:href="#DejaVuSans-61" transform="translate(81.787109 0)"/>
      <use xlink:href="#DejaVuSans-6c" transform="translate(143.066406 0)"/>
      <use xlink:href="#DejaVuSans-6c" transform="translate(170.849609 0)"/>
      <use xlink:href="#DejaVuSans-20" transform="translate(198.632812 0)"/>
      <use xlink:href="#DejaVuSans-74" transform="translate(230.419922 0)"/>
      <use xlink:href="#DejaVuSans-69" transform="translate(269.628906 0)"/>
      <use xlink:href="#DejaVuSans-6d" transform="translate(297.412109 0)"/>
      <use xlink:href="#DejaVuSans-65" transform="translate(394.824219 0)"/>
      <use xlink:href="#DejaVuSans-20" transform="translate(456.347656 0)"/>
      <use xlink:href="#DejaVuSans-5b" transform="translate(488.134766 0)"/>
      <use xlink:href="#DejaVuSans-73" transform="translate(527.148438 0)"/>
      <use xlink:href="#DejaVuSans-65" transform="translate(579.248047 0)"/>
      <use xlink:href="#DejaVuSans-63" transform="translate(640.771484 0)"/>
      <use xlink:href="#DejaVuSans-5d" transform="translate(695.751953 0)"/>
     </g>
    </g>
   </g>
   <g id="patch_8">
    <path d="M 76.79 373.492552 
L 76.79 218.436276 
" style="fill: none; stroke: #000000; stroke-width: 0.8; stroke-linejoin: miter; stroke-linecap: square"/>
   </g>
   <g id="patch_9">
    <path d="M 400.525442 373.492552 
L 400.525442 218.436276 
" style="fill: none; stroke: #000000; stroke-width: 0.8; stroke-linejoin: miter; stroke-linecap: square"/>
   </g>
   <g id="patch_10">
    <path d="M 76.79 373.492552 
L 400.525442 373.492552 
" style="fill: none; stroke: #000000; stroke-width: 0.8; stroke-linejoin: miter; stroke-linecap: square"/>
   </g>
   <g id="patch_11">
    <path d="M 76.79 218.436276 
L 400.525442 218.436276 
" style="fill: none; stroke: #000000; stroke-width: 0.8; stroke-linejoin: miter; stroke-linecap: square"/>
   </g>
   <g id="legend_2">
    <g id="PathCollection_15">
     <path d="M 95.79 235.945247 
C 96.727635 235.945247 97.626992 235.572721 98.29 234.909714 
C 98.953008 234.246706 99.325534 233.347348 99.325534 232.409714 
C 99.325534 231.472079 98.953008 230.572721 98.29 229.909714 
C 97.626992 229.246706 96.727635 228.87418 95.79 228.87418 
C 94.852365 228.87418 93.953008 229.246706 93.29 229.909714 
C 92.626992 230.572721 92.254466 231.472079 92.254466 232.409714 
C 92.254466 233.347348 92.626992 234.246706 93.29 234.909714 
C 93.953008 235.572721 94.852365 235.945247 95.79 235.945247 
L 95.79 235.945247 
z
" style="fill: none; stroke: #177040"/>
    </g>
    <g id="text_11">
     <!--  75 cgfs -->
     <g transform="translate(113.79 235.034714) scale(0.1 -0.1)">
      <defs>
       <path id="DejaVuSans-37" d="M 525 4666 
L 3525 4666 
L 3525 4397 
L 1831 0 
L 1172 0 
L 2766 4134 
L 525 4134 
L 525 4666 
z
" transform="scale(0.015625)"/>
       <path id="DejaVuSans-66" d="M 2375 4863 
L 2375 4384 
L 1825 4384 
Q 1516 4384 1395 4259 
Q 1275 4134 1275 3809 
L 1275 3500 
L 2222 3500 
L 2222 3053 
L 1275 3053 
L 1275 0 
L 697 0 
L 697 3053 
L 147 3053 
L 147 3500 
L 697 3500 
L 697 3744 
Q 697 4328 969 4595 
Q 1241 4863 1831 4863 
L 2375 4863 
z
" transform="scale(0.015625)"/>
      </defs>
      <use xlink:href="#DejaVuSans-20"/>
      <use xlink:href="#DejaVuSans-37" transform="translate(31.787109 0)"/>
      <use xlink:href="#DejaVuSans-35" transform="translate(95.410156 0)"/>
      <use xlink:href="#DejaVuSans-20" transform="translate(159.033203 0)"/>
      <use xlink:href="#DejaVuSans-63" transform="translate(190.820312 0)"/>
      <use xlink:href="#DejaVuSans-67" transform="translate(245.800781 0)"/>
      <use xlink:href="#DejaVuSans-66" transform="translate(309.277344 0)"/>
      <use xlink:href="#DejaVuSans-73" transform="translate(344.482422 0)"/>
     </g>
    </g>
    <g id="PathCollection_16">
     <path d="M 95.79 250.623372 
C 96.727635 250.623372 97.626992 250.250846 98.29 249.587839 
C 98.953008 248.924831 99.325534 248.025473 99.325534 247.087839 
C 99.325534 246.150204 98.953008 245.250846 98.29 244.587839 
C 97.626992 243.924831 96.727635 243.552305 95.79 243.552305 
C 94.852365 243.552305 93.953008 243.924831 93.29 244.587839 
C 92.626992 245.250846 92.254466 246.150204 92.254466 247.087839 
C 92.254466 248.025473 92.626992 248.924831 93.29 249.587839 
C 93.953008 250.250846 94.852365 250.623372 95.79 250.623372 
L 95.79 250.623372 
z
" style="fill: none; stroke: #4bd5f2"/>
    </g>
    <g id="text_12">
     <!-- 100 cgfs -->
     <g transform="translate(113.79 249.712839) scale(0.1 -0.1)">
      <use xlink:href="#DejaVuSans-31"/>
      <use xlink:href="#DejaVuSans-30" transform="translate(63.623047 0)"/>
      <use xlink:href="#DejaVuSans-30" transform="translate(127.246094 0)"/>
      <use xlink:href="#DejaVuSans-20" transform="translate(190.869141 0)"/>
      <use xlink:href="#DejaVuSans-63" transform="translate(222.65625 0)"/>
      <use xlink:href="#DejaVuSans-67" transform="translate(277.636719 0)"/>
      <use xlink:href="#DejaVuSans-66" transform="translate(341.113281 0)"/>
      <use xlink:href="#DejaVuSans-73" transform="translate(376.318359 0)"/>
     </g>
    </g>
    <g id="PathCollection_17">
     <path d="M 95.79 265.301497 
C 96.727635 265.301497 97.626992 264.928971 98.29 264.265964 
C 98.953008 263.602956 99.325534 262.703598 99.325534 261.765964 
C 99.325534 260.828329 98.953008 259.928971 98.29 259.265964 
C 97.626992 258.602956 96.727635 258.23043 95.79 258.23043 
C 94.852365 258.23043 93.953008 258.602956 93.29 259.265964 
C 92.626992 259.928971 92.254466 260.828329 92.254466 261.765964 
C 92.254466 262.703598 92.626992 263.602956 93.29 264.265964 
C 93.953008 264.928971 94.852365 265.301497 95.79 265.301497 
L 95.79 265.301497 
z
" style="fill: none; stroke: #68a2fd"/>
    </g>
    <g id="text_13">
     <!-- 125 cgfs -->
     <g transform="translate(113.79 264.390964) scale(0.1 -0.1)">
      <use xlink:href="#DejaVuSans-31"/>
      <use xlink:href="#DejaVuSans-32" transform="translate(63.623047 0)"/>
      <use xlink:href="#DejaVuSans-35" transform="translate(127.246094 0)"/>
      <use xlink:href="#DejaVuSans-20" transform="translate(190.869141 0)"/>
      <use xlink:href="#DejaVuSans-63" transform="translate(222.65625 0)"/>
      <use xlink:href="#DejaVuSans-67" transform="translate(277.636719 0)"/>
      <use xlink:href="#DejaVuSans-66" transform="translate(341.113281 0)"/>
      <use xlink:href="#DejaVuSans-73" transform="translate(376.318359 0)"/>
     </g>
    </g>
    <g id="PathCollection_18">
     <path d="M 95.79 279.979622 
C 96.727635 279.979622 97.626992 279.607096 98.29 278.944089 
C 98.953008 278.281081 99.325534 277.381723 99.325534 276.444089 
C 99.325534 275.506454 98.953008 274.607096 98.29 273.944089 
C 97.626992 273.281081 96.727635 272.908555 95.79 272.908555 
C 94.852365 272.908555 93.953008 273.281081 93.29 273.944089 
C 92.626992 274.607096 92.254466 275.506454 92.254466 276.444089 
C 92.254466 277.381723 92.626992 278.281081 93.29 278.944089 
C 93.953008 279.607096 94.852365 279.979622 95.79 279.979622 
L 95.79 279.979622 
z
" style="fill: none; stroke: #edbc3a"/>
    </g>
    <g id="text_14">
     <!-- 150 cgfs -->
     <g transform="translate(113.79 279.069089) scale(0.1 -0.1)">
      <use xlink:href="#DejaVuSans-31"/>
      <use xlink:href="#DejaVuSans-35" transform="translate(63.623047 0)"/>
      <use xlink:href="#DejaVuSans-30" transform="translate(127.246094 0)"/>
      <use xlink:href="#DejaVuSans-20" transform="translate(190.869141 0)"/>
      <use xlink:href="#DejaVuSans-63" transform="translate(222.65625 0)"/>
      <use xlink:href="#DejaVuSans-67" transform="translate(277.636719 0)"/>
      <use xlink:href="#DejaVuSans-66" transform="translate(341.113281 0)"/>
      <use xlink:href="#DejaVuSans-73" transform="translate(376.318359 0)"/>
     </g>
    </g>
   </g>
  </g>
  <g id="axes_3">
   <g id="patch_12">
    <path d="M 76.79 553.768828 
L 400.525442 553.768828 
L 400.525442 398.712552 
L 76.79 398.712552 
z
" style="fill: #ffffff"/>
   </g>
   <g id="PathCollection_19">
    <defs>
     <path id="mb1bbf6db38" d="M 0 3 
C 0.795609 3 1.55874 2.683901 2.12132 2.12132 
C 2.683901 1.55874 3 0.795609 3 0 
C 3 -0.795609 2.683901 -1.55874 2.12132 -2.12132 
C 1.55874 -2.683901 0.795609 -3 0 -3 
C -0.795609 -3 -1.55874 -2.683901 -2.12132 -2.12132 
C -2.683901 -1.55874 -3 -0.795609 -3 0 
C -3 0.795609 -2.683901 1.55874 -2.12132 2.12132 
C -1.55874 2.683901 -0.795609 3 0 3 
z
" style="stroke: #1f77b4"/>
    </defs>
    <g clip-path="url(#p76aa35b396)">
     <use xlink:href="#mb1bbf6db38" x="91.505247" y="521.355856" style="fill: #1f77b4; stroke: #1f77b4"/>
    </g>
   </g>
   <g id="PathCollection_20">
    <defs>
     <path id="mb917181d2f" d="M 0 3 
C 0.795609 3 1.55874 2.683901 2.12132 2.12132 
C 2.683901 1.55874 3 0.795609 3 0 
C 3 -0.795609 2.683901 -1.55874 2.12132 -2.12132 
C 1.55874 -2.683901 0.795609 -3 0 -3 
C -0.795609 -3 -1.55874 -2.683901 -2.12132 -2.12132 
C -2.683901 -1.55874 -3 -0.795609 -3 0 
C -3 0.795609 -2.683901 1.55874 -2.12132 2.12132 
C -1.55874 2.683901 -0.795609 3 0 3 
z
" style="stroke: #ff7f0e"/>
    </defs>
    <g clip-path="url(#p76aa35b396)">
     <use xlink:href="#mb917181d2f" x="189.606896" y="506.738513" style="fill: #ff7f0e; stroke: #ff7f0e"/>
    </g>
   </g>
   <g id="PathCollection_21">
    <defs>
     <path id="m9c5f819525" d="M 0 3 
C 0.795609 3 1.55874 2.683901 2.12132 2.12132 
C 2.683901 1.55874 3 0.795609 3 0 
C 3 -0.795609 2.683901 -1.55874 2.12132 -2.12132 
C 1.55874 -2.683901 0.795609 -3 0 -3 
C -0.795609 -3 -1.55874 -2.683901 -2.12132 -2.12132 
C -2.683901 -1.55874 -3 -0.795609 -3 0 
C -3 0.795609 -2.683901 1.55874 -2.12132 2.12132 
C -1.55874 2.683901 -0.795609 3 0 3 
z
" style="stroke: #2ca02c"/>
    </defs>
    <g clip-path="url(#p76aa35b396)">
     <use xlink:href="#m9c5f819525" x="287.708545" y="405.760565" style="fill: #2ca02c; stroke: #2ca02c"/>
    </g>
   </g>
   <g id="PathCollection_22">
    <defs>
     <path id="ma7e94e371b" d="M 0 3 
C 0.795609 3 1.55874 2.683901 2.12132 2.12132 
C 2.683901 1.55874 3 0.795609 3 0 
C 3 -0.795609 2.683901 -1.55874 2.12132 -2.12132 
C 1.55874 -2.683901 0.795609 -3 0 -3 
C -0.795609 -3 -1.55874 -2.683901 -2.12132 -2.12132 
C -2.683901 -1.55874 -3 -0.795609 -3 0 
C -3 0.795609 -2.683901 1.55874 -2.12132 2.12132 
C -1.55874 2.683901 -0.795609 3 0 3 
z
" style="stroke: #d62728"/>
    </defs>
    <g clip-path="url(#p76aa35b396)">
     <use xlink:href="#ma7e94e371b" x="385.810194" y="546.720815" style="fill: #d62728; stroke: #d62728"/>
    </g>
   </g>
   <g id="matplotlib.axis_5">
    <g id="xtick_9">
     <g id="line2d_15">
      <g>
       <use xlink:href="#m36df097af0" x="91.505247" y="553.768828" style="stroke: #000000; stroke-width: 0.8"/>
      </g>
     </g>
     <g id="text_15">
      <!-- cyclopropane -->
      <g transform="translate(61.007842 634.748991) rotate(-45) scale(0.14 -0.14)">
       <defs>
        <path id="DejaVuSans-6f" d="M 1959 3097 
Q 1497 3097 1228 2736 
Q 959 2375 959 1747 
Q 959 1119 1226 758 
Q 1494 397 1959 397 
Q 2419 397 2687 759 
Q 2956 1122 2956 1747 
Q 2956 2369 2687 2733 
Q 2419 3097 1959 3097 
z
M 1959 3584 
Q 2709 3584 3137 3096 
Q 3566 2609 3566 1747 
Q 3566 888 3137 398 
Q 2709 -91 1959 -91 
Q 1206 -91 779 398 
Q 353 888 353 1747 
Q 353 2609 779 3096 
Q 1206 3584 1959 3584 
z
" transform="scale(0.015625)"/>
       </defs>
       <use xlink:href="#DejaVuSans-63"/>
       <use xlink:href="#DejaVuSans-79" transform="translate(54.980469 0)"/>
       <use xlink:href="#DejaVuSans-63" transform="translate(114.160156 0)"/>
       <use xlink:href="#DejaVuSans-6c" transform="translate(169.140625 0)"/>
       <use xlink:href="#DejaVuSans-6f" transform="translate(196.923828 0)"/>
       <use xlink:href="#DejaVuSans-70" transform="translate(258.105469 0)"/>
       <use xlink:href="#DejaVuSans-72" transform="translate(321.582031 0)"/>
       <use xlink:href="#DejaVuSans-6f" transform="translate(360.445312 0)"/>
       <use xlink:href="#DejaVuSans-70" transform="translate(421.626953 0)"/>
       <use xlink:href="#DejaVuSans-61" transform="translate(485.103516 0)"/>
       <use xlink:href="#DejaVuSans-6e" transform="translate(546.382812 0)"/>
       <use xlink:href="#DejaVuSans-65" transform="translate(609.761719 0)"/>
      </g>
     </g>
    </g>
    <g id="xtick_10">
     <g id="line2d_16">
      <g>
       <use xlink:href="#m36df097af0" x="189.606896" y="553.768828" style="stroke: #000000; stroke-width: 0.8"/>
      </g>
     </g>
     <g id="text_16">
      <!-- cyclobutane -->
      <g transform="translate(162.126517 628.71494) rotate(-45) scale(0.14 -0.14)">
       <defs>
        <path id="DejaVuSans-62" d="M 3116 1747 
Q 3116 2381 2855 2742 
Q 2594 3103 2138 3103 
Q 1681 3103 1420 2742 
Q 1159 2381 1159 1747 
Q 1159 1113 1420 752 
Q 1681 391 2138 391 
Q 2594 391 2855 752 
Q 3116 1113 3116 1747 
z
M 1159 2969 
Q 1341 3281 1617 3432 
Q 1894 3584 2278 3584 
Q 2916 3584 3314 3078 
Q 3713 2572 3713 1747 
Q 3713 922 3314 415 
Q 2916 -91 2278 -91 
Q 1894 -91 1617 61 
Q 1341 213 1159 525 
L 1159 0 
L 581 0 
L 581 4863 
L 1159 4863 
L 1159 2969 
z
" transform="scale(0.015625)"/>
        <path id="DejaVuSans-75" d="M 544 1381 
L 544 3500 
L 1119 3500 
L 1119 1403 
Q 1119 906 1312 657 
Q 1506 409 1894 409 
Q 2359 409 2629 706 
Q 2900 1003 2900 1516 
L 2900 3500 
L 3475 3500 
L 3475 0 
L 2900 0 
L 2900 538 
Q 2691 219 2414 64 
Q 2138 -91 1772 -91 
Q 1169 -91 856 284 
Q 544 659 544 1381 
z
M 1991 3584 
L 1991 3584 
z
" transform="scale(0.015625)"/>
       </defs>
       <use xlink:href="#DejaVuSans-63"/>
       <use xlink:href="#DejaVuSans-79" transform="translate(54.980469 0)"/>
       <use xlink:href="#DejaVuSans-63" transform="translate(114.160156 0)"/>
       <use xlink:href="#DejaVuSans-6c" transform="translate(169.140625 0)"/>
       <use xlink:href="#DejaVuSans-6f" transform="translate(196.923828 0)"/>
       <use xlink:href="#DejaVuSans-62" transform="translate(258.105469 0)"/>
       <use xlink:href="#DejaVuSans-75" transform="translate(321.582031 0)"/>
       <use xlink:href="#DejaVuSans-74" transform="translate(384.960938 0)"/>
       <use xlink:href="#DejaVuSans-61" transform="translate(424.169922 0)"/>
       <use xlink:href="#DejaVuSans-6e" transform="translate(485.449219 0)"/>
       <use xlink:href="#DejaVuSans-65" transform="translate(548.828125 0)"/>
      </g>
     </g>
    </g>
    <g id="xtick_11">
     <g id="line2d_17">
      <g>
       <use xlink:href="#m36df097af0" x="287.708545" y="553.768828" style="stroke: #000000; stroke-width: 0.8"/>
      </g>
     </g>
     <g id="text_17">
      <!-- cyclopentane -->
      <g transform="translate(257.182525 634.806223) rotate(-45) scale(0.14 -0.14)">
       <use xlink:href="#DejaVuSans-63"/>
       <use xlink:href="#DejaVuSans-79" transform="translate(54.980469 0)"/>
       <use xlink:href="#DejaVuSans-63" transform="translate(114.160156 0)"/>
       <use xlink:href="#DejaVuSans-6c" transform="translate(169.140625 0)"/>
       <use xlink:href="#DejaVuSans-6f" transform="translate(196.923828 0)"/>
       <use xlink:href="#DejaVuSans-70" transform="translate(258.105469 0)"/>
       <use xlink:href="#DejaVuSans-65" transform="translate(321.582031 0)"/>
       <use xlink:href="#DejaVuSans-6e" transform="translate(383.105469 0)"/>
       <use xlink:href="#DejaVuSans-74" transform="translate(446.484375 0)"/>
       <use xlink:href="#DejaVuSans-61" transform="translate(485.693359 0)"/>
       <use xlink:href="#DejaVuSans-6e" transform="translate(546.972656 0)"/>
       <use xlink:href="#DejaVuSans-65" transform="translate(610.351562 0)"/>
      </g>
     </g>
    </g>
    <g id="xtick_12">
     <g id="line2d_18">
      <g>
       <use xlink:href="#m36df097af0" x="385.810194" y="553.768828" style="stroke: #000000; stroke-width: 0.8"/>
      </g>
     </g>
     <g id="text_18">
      <!-- cyclohexane -->
      <g transform="translate(357.523934 630.326701) rotate(-45) scale(0.14 -0.14)">
       <defs>
        <path id="DejaVuSans-78" d="M 3513 3500 
L 2247 1797 
L 3578 0 
L 2900 0 
L 1881 1375 
L 863 0 
L 184 0 
L 1544 1831 
L 300 3500 
L 978 3500 
L 1906 2253 
L 2834 3500 
L 3513 3500 
z
" transform="scale(0.015625)"/>
       </defs>
       <use xlink:href="#DejaVuSans-63"/>
       <use xlink:href="#DejaVuSans-79" transform="translate(54.980469 0)"/>
       <use xlink:href="#DejaVuSans-63" transform="translate(114.160156 0)"/>
       <use xlink:href="#DejaVuSans-6c" transform="translate(169.140625 0)"/>
       <use xlink:href="#DejaVuSans-6f" transform="translate(196.923828 0)"/>
       <use xlink:href="#DejaVuSans-68" transform="translate(258.105469 0)"/>
       <use xlink:href="#DejaVuSans-65" transform="translate(321.484375 0)"/>
       <use xlink:href="#DejaVuSans-78" transform="translate(381.257812 0)"/>
       <use xlink:href="#DejaVuSans-61" transform="translate(440.4375 0)"/>
       <use xlink:href="#DejaVuSans-6e" transform="translate(501.716797 0)"/>
       <use xlink:href="#DejaVuSans-65" transform="translate(565.095703 0)"/>
      </g>
     </g>
    </g>
   </g>
   <g id="matplotlib.axis_6">
    <g id="ytick_7">
     <g id="line2d_19">
      <g>
       <use xlink:href="#m6e79a4af79" x="76.79" y="529.364542" style="stroke: #000000; stroke-width: 0.8"/>
      </g>
     </g>
     <g id="text_19">
      <!-- −1 -->
      <g transform="translate(49.150938 534.683448) scale(0.14 -0.14)">
       <use xlink:href="#DejaVuSans-2212"/>
       <use xlink:href="#DejaVuSans-31" transform="translate(83.789062 0)"/>
      </g>
     </g>
    </g>
    <g id="ytick_8">
     <g id="line2d_20">
      <g>
       <use xlink:href="#m6e79a4af79" x="76.79" y="477.985717" style="stroke: #000000; stroke-width: 0.8"/>
      </g>
     </g>
     <g id="text_20">
      <!-- 0 -->
      <g transform="translate(60.8825 483.304624) scale(0.14 -0.14)">
       <use xlink:href="#DejaVuSans-30"/>
      </g>
     </g>
    </g>
    <g id="ytick_9">
     <g id="line2d_21">
      <g>
       <use xlink:href="#m6e79a4af79" x="76.79" y="426.606893" style="stroke: #000000; stroke-width: 0.8"/>
      </g>
     </g>
     <g id="text_21">
      <!-- 1 -->
      <g transform="translate(60.8825 431.925799) scale(0.14 -0.14)">
       <use xlink:href="#DejaVuSans-31"/>
      </g>
     </g>
    </g>
    <g id="text_22">
     <!-- psi4 comparison [Eh] -->
     <g transform="translate(41.823437 560.96319) rotate(-90) scale(0.16 -0.16)">
      <use xlink:href="#DejaVuSans-70"/>
      <use xlink:href="#DejaVuSans-73" transform="translate(63.476562 0)"/>
      <use xlink:href="#DejaVuSans-69" transform="translate(115.576172 0)"/>
      <use xlink:href="#DejaVuSans-34" transform="translate(143.359375 0)"/>
      <use xlink:href="#DejaVuSans-20" transform="translate(206.982422 0)"/>
      <use xlink:href="#DejaVuSans-63" transform="translate(238.769531 0)"/>
      <use xlink:href="#DejaVuSans-6f" transform="translate(293.75 0)"/>
      <use xlink:href="#DejaVuSans-6d" transform="translate(354.931641 0)"/>
      <use xlink:href="#DejaVuSans-70" transform="translate(452.34375 0)"/>
      <use xlink:href="#DejaVuSans-61" transform="translate(515.820312 0)"/>
      <use xlink:href="#DejaVuSans-72" transform="translate(577.099609 0)"/>
      <use xlink:href="#DejaVuSans-69" transform="translate(618.212891 0)"/>
      <use xlink:href="#DejaVuSans-73" transform="translate(645.996094 0)"/>
      <use xlink:href="#DejaVuSans-6f" transform="translate(698.095703 0)"/>
      <use xlink:href="#DejaVuSans-6e" transform="translate(759.277344 0)"/>
      <use xlink:href="#DejaVuSans-20" transform="translate(822.65625 0)"/>
      <use xlink:href="#DejaVuSans-5b" transform="translate(854.443359 0)"/>
      <use xlink:href="#DejaVuSans-45" transform="translate(893.457031 0)"/>
      <use xlink:href="#DejaVuSans-68" transform="translate(956.640625 0)"/>
      <use xlink:href="#DejaVuSans-5d" transform="translate(1020.019531 0)"/>
     </g>
    </g>
    <g id="text_23">
     <!-- 1e−10 -->
     <g transform="translate(76.79 395.712552) scale(0.1 -0.1)">
      <use xlink:href="#DejaVuSans-31"/>
      <use xlink:href="#DejaVuSans-65" transform="translate(63.623047 0)"/>
      <use xlink:href="#DejaVuSans-2212" transform="translate(125.146484 0)"/>
      <use xlink:href="#DejaVuSans-31" transform="translate(208.935547 0)"/>
      <use xlink:href="#DejaVuSans-30" transform="translate(272.558594 0)"/>
     </g>
    </g>
   </g>
   <g id="patch_13">
    <path d="M 76.79 553.768828 
L 76.79 398.712552 
" style="fill: none; stroke: #000000; stroke-width: 0.8; stroke-linejoin: miter; stroke-linecap: square"/>
   </g>
   <g id="patch_14">
    <path d="M 400.525442 553.768828 
L 400.525442 398.712552 
" style="fill: none; stroke: #000000; stroke-width: 0.8; stroke-linejoin: miter; stroke-linecap: square"/>
   </g>
   <g id="patch_15">
    <path d="M 76.79 553.768828 
L 400.525442 553.768828 
" style="fill: none; stroke: #000000; stroke-width: 0.8; stroke-linejoin: miter; stroke-linecap: square"/>
   </g>
   <g id="patch_16">
    <path d="M 76.79 398.712552 
L 400.525442 398.712552 
" style="fill: none; stroke: #000000; stroke-width: 0.8; stroke-linejoin: miter; stroke-linecap: square"/>
   </g>
  </g>
  <g id="text_24">
   <!-- Cycloalkanes -->
   <g transform="translate(163.4825 25.1175) scale(0.16 -0.16)">
    <defs>
     <path id="DejaVuSans-43" d="M 4122 4306 
L 4122 3641 
Q 3803 3938 3442 4084 
Q 3081 4231 2675 4231 
Q 1875 4231 1450 3742 
Q 1025 3253 1025 2328 
Q 1025 1406 1450 917 
Q 1875 428 2675 428 
Q 3081 428 3442 575 
Q 3803 722 4122 1019 
L 4122 359 
Q 3791 134 3420 21 
Q 3050 -91 2638 -91 
Q 1578 -91 968 557 
Q 359 1206 359 2328 
Q 359 3453 968 4101 
Q 1578 4750 2638 4750 
Q 3056 4750 3426 4639 
Q 3797 4528 4122 4306 
z
" transform="scale(0.015625)"/>
     <path id="DejaVuSans-6b" d="M 581 4863 
L 1159 4863 
L 1159 1991 
L 2875 3500 
L 3609 3500 
L 1753 1863 
L 3688 0 
L 2938 0 
L 1159 1709 
L 1159 0 
L 581 0 
L 581 4863 
z
" transform="scale(0.015625)"/>
    </defs>
    <use xlink:href="#DejaVuSans-43"/>
    <use xlink:href="#DejaVuSans-79" transform="translate(69.824219 0)"/>
    <use xlink:href="#DejaVuSans-63" transform="translate(129.003906 0)"/>
    <use xlink:href="#DejaVuSans-6c" transform="translate(183.984375 0)"/>
    <use xlink:href="#DejaVuSans-6f" transform="translate(211.767578 0)"/>
    <use xlink:href="#DejaVuSans-61" transform="translate(272.949219 0)"/>
    <use xlink:href="#DejaVuSans-6c" transform="translate(334.228516 0)"/>
    <use xlink:href="#DejaVuSans-6b" transform="translate(362.011719 0)"/>
    <use xlink:href="#DejaVuSans-61" transform="translate(418.171875 0)"/>
    <use xlink:href="#DejaVuSans-6e" transform="translate(479.451172 0)"/>
    <use xlink:href="#DejaVuSans-65" transform="translate(542.830078 0)"/>
    <use xlink:href="#DejaVuSans-73" transform="translate(604.353516 0)"/>
   </g>
  </g>
 </g>
 <defs>
  <clipPath id="p02d9983098">
   <rect x="76.79" y="38.16" width="323.735442" height="155.056276"/>
  </clipPath>
  <clipPath id="pdcd0b3fbe7">
   <rect x="76.79" y="218.436276" width="323.735442" height="155.056276"/>
  </clipPath>
  <clipPath id="p76aa35b396">
   <rect x="76.79" y="398.712552" width="323.735442" height="155.056276"/>
  </clipPath>
 </defs>
</svg>
